G75*
G70*
%OFA0B0*%
%FSLAX24Y24*%
%IPPOS*%
%LPD*%
%AMOC8*
5,1,8,0,0,1.08239X$1,22.5*
%
%ADD10C,0.0740*%
%ADD11R,0.0500X0.0500*%
%ADD12C,0.0160*%
%ADD13C,0.0396*%
%ADD14C,0.0100*%
%ADD15C,0.0240*%
D10*
X012088Y004292D03*
X012088Y005375D03*
X013088Y005375D03*
X013088Y004292D03*
D11*
X012876Y002776D03*
X012376Y002776D03*
X011754Y002154D03*
X011754Y001654D03*
X011754Y001154D03*
X013376Y002776D03*
D12*
X013600Y003446D02*
X011124Y003446D01*
X011124Y000970D01*
X004628Y000970D01*
X004628Y001326D01*
X004681Y001348D01*
X004776Y001443D01*
X004828Y001567D01*
X004828Y001702D01*
X004827Y001703D01*
X006176Y003052D01*
X006176Y003670D01*
X006177Y003671D01*
X006272Y003766D01*
X006324Y003890D01*
X006324Y004025D01*
X006272Y004149D01*
X006177Y004244D01*
X006053Y004296D01*
X005919Y004296D01*
X005794Y004244D01*
X005699Y004149D01*
X005648Y004025D01*
X005648Y003890D01*
X005699Y003766D01*
X005794Y003671D01*
X005796Y003670D01*
X005796Y003209D01*
X004628Y002041D01*
X004628Y004456D01*
X005600Y004456D01*
X005601Y004455D01*
X005696Y004360D01*
X005820Y004308D01*
X005955Y004308D01*
X006079Y004360D01*
X006174Y004455D01*
X006226Y004579D01*
X006226Y004714D01*
X006174Y004838D01*
X006079Y004933D01*
X005955Y004985D01*
X005820Y004985D01*
X005696Y004933D01*
X005601Y004838D01*
X005600Y004836D01*
X004628Y004836D01*
X004628Y006517D01*
X013600Y006517D01*
X013600Y004498D01*
X013598Y004503D01*
X013559Y004580D01*
X013508Y004650D01*
X013446Y004712D01*
X013376Y004763D01*
X013299Y004802D01*
X013217Y004829D01*
X013131Y004842D01*
X013108Y004842D01*
X013108Y004312D01*
X013068Y004312D01*
X013068Y004842D01*
X013045Y004842D01*
X012959Y004829D01*
X012877Y004802D01*
X012800Y004763D01*
X012730Y004712D01*
X012669Y004650D01*
X012618Y004580D01*
X012578Y004503D01*
X012567Y004468D01*
X012521Y004581D01*
X012377Y004724D01*
X012190Y004802D01*
X011987Y004802D01*
X011799Y004724D01*
X011656Y004581D01*
X011578Y004394D01*
X011578Y004191D01*
X011656Y004003D01*
X011799Y003860D01*
X006311Y003860D01*
X006324Y004018D02*
X011650Y004018D01*
X011584Y004177D02*
X010857Y004177D01*
X010823Y004143D02*
X010918Y004238D01*
X010970Y004363D01*
X010970Y004497D01*
X010918Y004621D01*
X010823Y004717D01*
X010699Y004768D01*
X010564Y004768D01*
X010440Y004717D01*
X010345Y004621D01*
X010344Y004620D01*
X010190Y004620D01*
X010190Y004621D01*
X010095Y004717D01*
X009970Y004768D01*
X009836Y004768D01*
X009712Y004717D01*
X009617Y004621D01*
X009565Y004497D01*
X009565Y004363D01*
X009617Y004238D01*
X009712Y004143D01*
X009836Y004092D01*
X009970Y004092D01*
X010095Y004143D01*
X010190Y004238D01*
X010190Y004240D01*
X010344Y004240D01*
X010345Y004238D01*
X010440Y004143D01*
X010564Y004092D01*
X010699Y004092D01*
X010823Y004143D01*
X010958Y004335D02*
X011578Y004335D01*
X011620Y004494D02*
X010970Y004494D01*
X010887Y004652D02*
X011727Y004652D01*
X011799Y004942D02*
X011987Y004865D01*
X012190Y004865D01*
X012377Y004942D01*
X012521Y005086D01*
X012588Y005249D01*
X012656Y005086D01*
X012799Y004942D01*
X012987Y004865D01*
X013190Y004865D01*
X013377Y004942D01*
X013521Y005086D01*
X013598Y005273D01*
X013598Y005476D01*
X013521Y005664D01*
X013377Y005807D01*
X013190Y005885D01*
X012987Y005885D01*
X012888Y005844D01*
X012439Y006293D01*
X009411Y006293D01*
X009300Y006182D01*
X009300Y005308D01*
X009298Y005307D01*
X009203Y005212D01*
X009152Y005088D01*
X009152Y004953D01*
X009203Y004829D01*
X009298Y004734D01*
X009423Y004682D01*
X009557Y004682D01*
X009681Y004734D01*
X009776Y004829D01*
X009828Y004953D01*
X009828Y005088D01*
X009776Y005212D01*
X009681Y005307D01*
X009680Y005308D01*
X009680Y005459D01*
X009797Y005411D01*
X009931Y005411D01*
X010055Y005462D01*
X010150Y005557D01*
X010151Y005559D01*
X011612Y005559D01*
X011578Y005476D01*
X011578Y005273D01*
X011656Y005086D01*
X011799Y004942D01*
X011772Y004969D02*
X009828Y004969D01*
X009811Y005128D02*
X011638Y005128D01*
X011578Y005286D02*
X009702Y005286D01*
X009714Y005445D02*
X009680Y005445D01*
X009300Y005445D02*
X004628Y005445D01*
X004628Y005603D02*
X009300Y005603D01*
X009300Y005762D02*
X004628Y005762D01*
X004628Y005920D02*
X009300Y005920D01*
X009300Y006079D02*
X004628Y006079D01*
X004628Y006237D02*
X009355Y006237D01*
X010013Y005445D02*
X011578Y005445D01*
X012404Y004969D02*
X012772Y004969D01*
X012905Y004811D02*
X009758Y004811D01*
X009647Y004652D02*
X006226Y004652D01*
X006190Y004494D02*
X009565Y004494D01*
X009576Y004335D02*
X006020Y004335D01*
X005755Y004335D02*
X004628Y004335D01*
X004628Y004177D02*
X005727Y004177D01*
X005648Y004018D02*
X004628Y004018D01*
X004628Y003860D02*
X005660Y003860D01*
X005764Y003701D02*
X004628Y003701D01*
X004628Y003543D02*
X005796Y003543D01*
X005796Y003384D02*
X004628Y003384D01*
X004628Y003226D02*
X005796Y003226D01*
X005654Y003067D02*
X004628Y003067D01*
X004628Y002909D02*
X005495Y002909D01*
X005337Y002750D02*
X004628Y002750D01*
X004628Y002592D02*
X005178Y002592D01*
X005020Y002433D02*
X004628Y002433D01*
X004628Y002275D02*
X004861Y002275D01*
X004703Y002116D02*
X004628Y002116D01*
X004923Y001799D02*
X011124Y001799D01*
X011124Y001641D02*
X004828Y001641D01*
X004793Y001482D02*
X011124Y001482D01*
X011124Y001324D02*
X004628Y001324D01*
X004628Y001165D02*
X011124Y001165D01*
X011124Y001007D02*
X004628Y001007D01*
X005082Y001958D02*
X011124Y001958D01*
X011124Y002116D02*
X009977Y002116D01*
X009993Y002132D02*
X009898Y002037D01*
X009774Y001986D01*
X009639Y001986D01*
X009515Y002037D01*
X009420Y002132D01*
X009368Y002256D01*
X009368Y002391D01*
X009420Y002515D01*
X009515Y002610D01*
X009639Y002662D01*
X009714Y002662D01*
X010078Y003171D01*
X010057Y003221D01*
X010057Y003355D01*
X010109Y003480D01*
X010204Y003575D01*
X010328Y003626D01*
X010463Y003626D01*
X010587Y003575D01*
X010682Y003480D01*
X010733Y003355D01*
X010733Y003221D01*
X010682Y003097D01*
X010587Y003002D01*
X010463Y002950D01*
X010387Y002950D01*
X010024Y002441D01*
X010044Y002391D01*
X010044Y002256D01*
X009993Y002132D01*
X010044Y002275D02*
X011124Y002275D01*
X011124Y002433D02*
X010027Y002433D01*
X010131Y002592D02*
X011124Y002592D01*
X011124Y002750D02*
X010245Y002750D01*
X010358Y002909D02*
X011124Y002909D01*
X011124Y003067D02*
X010653Y003067D01*
X010733Y003226D02*
X011124Y003226D01*
X011124Y003384D02*
X010721Y003384D01*
X010619Y003543D02*
X013600Y003543D01*
X013600Y003446D02*
X013600Y004086D01*
X013598Y004081D01*
X013559Y004004D01*
X013508Y003934D01*
X013446Y003873D01*
X013376Y003822D01*
X013299Y003782D01*
X013217Y003756D01*
X013131Y003742D01*
X013108Y003742D01*
X013108Y004272D01*
X013068Y004272D01*
X013068Y003742D01*
X013045Y003742D01*
X012959Y003756D01*
X012877Y003782D01*
X012800Y003822D01*
X012730Y003873D01*
X012669Y003934D01*
X012618Y004004D01*
X012578Y004081D01*
X012567Y004116D01*
X012521Y004003D01*
X012377Y003860D01*
X012748Y003860D01*
X012610Y004018D02*
X012527Y004018D01*
X012377Y003860D02*
X012190Y003782D01*
X011987Y003782D01*
X011799Y003860D01*
X012449Y004652D02*
X012671Y004652D01*
X012575Y004494D02*
X012557Y004494D01*
X013068Y004494D02*
X013108Y004494D01*
X013108Y004652D02*
X013068Y004652D01*
X013068Y004811D02*
X013108Y004811D01*
X013272Y004811D02*
X013600Y004811D01*
X013600Y004969D02*
X013404Y004969D01*
X013538Y005128D02*
X013600Y005128D01*
X013598Y005286D02*
X013600Y005286D01*
X013598Y005445D02*
X013600Y005445D01*
X013600Y005603D02*
X013546Y005603D01*
X013600Y005762D02*
X013422Y005762D01*
X013600Y005920D02*
X012811Y005920D01*
X012653Y006079D02*
X013600Y006079D01*
X013600Y006237D02*
X012494Y006237D01*
X012538Y005128D02*
X012638Y005128D01*
X013068Y004335D02*
X013108Y004335D01*
X013108Y004177D02*
X013068Y004177D01*
X013068Y004018D02*
X013108Y004018D01*
X013108Y003860D02*
X013068Y003860D01*
X013429Y003860D02*
X013600Y003860D01*
X013600Y004018D02*
X013566Y004018D01*
X013600Y003701D02*
X006208Y003701D01*
X006176Y003543D02*
X010172Y003543D01*
X010069Y003384D02*
X006176Y003384D01*
X006176Y003226D02*
X010057Y003226D01*
X010004Y003067D02*
X006176Y003067D01*
X006033Y002909D02*
X009891Y002909D01*
X009778Y002750D02*
X005874Y002750D01*
X005716Y002592D02*
X009496Y002592D01*
X009386Y002433D02*
X005557Y002433D01*
X005399Y002275D02*
X009368Y002275D01*
X009435Y002116D02*
X005240Y002116D01*
X006245Y004177D02*
X009678Y004177D01*
X010128Y004177D02*
X010406Y004177D01*
X010376Y004652D02*
X010159Y004652D01*
X009221Y004811D02*
X006185Y004811D01*
X005992Y004969D02*
X009152Y004969D01*
X009168Y005128D02*
X004628Y005128D01*
X004628Y005286D02*
X009277Y005286D01*
X005783Y004969D02*
X004628Y004969D01*
X004628Y006396D02*
X013600Y006396D01*
X013600Y004652D02*
X013506Y004652D01*
D13*
X000887Y001851D03*
X002462Y001851D03*
X002462Y001359D03*
X004490Y001635D03*
X004943Y001280D03*
X002974Y003780D03*
X005415Y003957D03*
X005986Y003957D03*
X005887Y004646D03*
X006694Y005788D03*
X004982Y006280D03*
X007718Y003603D03*
X009490Y005020D03*
X009903Y004430D03*
X010631Y004430D03*
X010927Y004843D03*
X009864Y005749D03*
X010395Y003288D03*
X009706Y002324D03*
X009175Y001143D03*
X013446Y014017D03*
D14*
X012360Y006103D02*
X009490Y006103D01*
X009490Y005020D01*
X009903Y004430D02*
X010631Y004430D01*
X010395Y003288D02*
X009706Y002324D01*
X009372Y001083D02*
X009175Y001143D01*
X005986Y003131D02*
X004490Y001635D01*
X004805Y001241D02*
X004805Y001221D01*
X004943Y001280D01*
X004746Y001083D01*
X003899Y001083D01*
X003624Y001359D01*
X002462Y001359D01*
X002462Y001851D02*
X000887Y001851D01*
X002974Y003780D02*
X003840Y004646D01*
X005887Y004646D01*
X005986Y003957D02*
X005986Y003131D01*
X006773Y005690D02*
X006557Y005828D01*
X006694Y005788D01*
X009864Y005749D02*
X011694Y005749D01*
X012088Y005375D01*
X012360Y006103D02*
X013088Y005375D01*
D15*
X013545Y006320D02*
X013545Y013918D01*
X013446Y014017D01*
M02*
