%
M48
M72
T01C0.0197
T02C0.0236
T03C0.0400
%
T01
X11964Y1154
X11964Y1654
X11964Y2154
X12586Y2776
X13086Y2776
X13586Y2776
T02
X1776Y1565
X1241Y1950
X1206Y2850
X1211Y4025
X3871Y5165
X4246Y5535
X3866Y5885
X5603Y6280
X6331Y5165
X6905Y5788
X5396Y3895
X5531Y2875
X6021Y2030
X5551Y1280
X4591Y2210
X7929Y3603
X9701Y5020
X10114Y4430
X10842Y4430
X11138Y4843
X10075Y5749
X10606Y3288
X9917Y2324
X9386Y1143
X13657Y14017
T03
X13299Y5375
X12299Y5375
X12299Y4292
X13299Y4292
M30
