%
M48
M72
T01C0.0197
T02C0.0236
T03C0.0400
%
T01
X11754Y1096
X11754Y1596
X11754Y2096
X12376Y2718
X12876Y2718
X13376Y2718
T02
X887Y1793
X2462Y1793
X2462Y1301
X3269Y3564
X4805Y3013
X5887Y4450
X5809Y5986
X7856Y4864
X9490Y4765
X10159Y5474
X10317Y4765
X10179Y2423
X10710Y2423
X9096Y1182
X513Y6655
X13269Y13860
T03
X13088Y5316
X13088Y4234
X12088Y4234
X12088Y5316
M30
