G75*
G70*
%OFA0B0*%
%FSLAX24Y24*%
%IPPOS*%
%LPD*%
%AMOC8*
5,1,8,0,0,1.08239X$1,22.5*
%
%ADD10C,0.0740*%
%ADD11R,0.0500X0.0500*%
%ADD12C,0.0160*%
%ADD13C,0.0396*%
%ADD14C,0.0240*%
%ADD15C,0.0100*%
D10*
X012088Y004371D03*
X013088Y004371D03*
X013088Y005454D03*
X012088Y005454D03*
D11*
X012376Y002855D03*
X012876Y002855D03*
X013376Y002855D03*
X011754Y002233D03*
X011754Y001733D03*
X011754Y001233D03*
D12*
X011124Y001244D02*
X004628Y001244D01*
X004628Y001086D02*
X011124Y001086D01*
X011124Y000927D02*
X004628Y000927D01*
X004628Y000769D02*
X011124Y000769D01*
X004628Y000769D01*
X004628Y004535D01*
X005600Y004535D01*
X005601Y004534D01*
X005696Y004439D01*
X005820Y004387D01*
X005955Y004387D01*
X006079Y004439D01*
X006174Y004534D01*
X006226Y004658D01*
X006226Y004792D01*
X006174Y004917D01*
X006079Y005012D01*
X005955Y005063D01*
X005820Y005063D01*
X005696Y005012D01*
X005601Y004917D01*
X005600Y004915D01*
X004628Y004915D01*
X004628Y006595D01*
X013860Y006595D01*
X013880Y003524D01*
X011124Y003524D01*
X011124Y000769D01*
X011124Y001403D02*
X004628Y001403D01*
X004628Y001561D02*
X011124Y001561D01*
X011124Y001720D02*
X004628Y001720D01*
X004628Y001878D02*
X011124Y001878D01*
X011124Y002037D02*
X004628Y002037D01*
X004628Y002195D02*
X009435Y002195D01*
X009420Y002211D02*
X009515Y002116D01*
X009639Y002064D01*
X009774Y002064D01*
X009898Y002116D01*
X009993Y002211D01*
X010044Y002335D01*
X010044Y002470D01*
X010024Y002520D01*
X010387Y003029D01*
X010463Y003029D01*
X010587Y003080D01*
X010682Y003175D01*
X010733Y003300D01*
X010733Y003434D01*
X010682Y003558D01*
X010587Y003654D01*
X010463Y003705D01*
X010328Y003705D01*
X010204Y003654D01*
X010109Y003558D01*
X010057Y003434D01*
X010057Y003300D01*
X010078Y003250D01*
X009714Y002740D01*
X009639Y002740D01*
X009515Y002689D01*
X009420Y002594D01*
X009368Y002470D01*
X009368Y002335D01*
X009420Y002211D01*
X009368Y002354D02*
X004628Y002354D01*
X004628Y002512D02*
X009386Y002512D01*
X009496Y002671D02*
X004628Y002671D01*
X004628Y002829D02*
X009778Y002829D01*
X009891Y002988D02*
X004628Y002988D01*
X004628Y003146D02*
X010004Y003146D01*
X010057Y003305D02*
X004628Y003305D01*
X004628Y003463D02*
X010069Y003463D01*
X010172Y003622D02*
X004628Y003622D01*
X004628Y003780D02*
X013878Y003780D01*
X013879Y003622D02*
X010619Y003622D01*
X010721Y003463D02*
X011124Y003463D01*
X011124Y003305D02*
X010733Y003305D01*
X010653Y003146D02*
X011124Y003146D01*
X011124Y002988D02*
X010358Y002988D01*
X010245Y002829D02*
X011124Y002829D01*
X011124Y002671D02*
X010131Y002671D01*
X010027Y002512D02*
X011124Y002512D01*
X011124Y002354D02*
X010044Y002354D01*
X009977Y002195D02*
X011124Y002195D01*
X011799Y003939D02*
X004628Y003939D01*
X004628Y004097D02*
X011650Y004097D01*
X011656Y004082D02*
X011799Y003939D01*
X011987Y003861D01*
X012190Y003861D01*
X012377Y003939D01*
X012748Y003939D01*
X012730Y003951D02*
X012800Y003900D01*
X012877Y003861D01*
X012959Y003834D01*
X013045Y003821D01*
X013068Y003821D01*
X013068Y004351D01*
X013108Y004351D01*
X013108Y003821D01*
X013131Y003821D01*
X013217Y003834D01*
X013299Y003861D01*
X013376Y003900D01*
X013446Y003951D01*
X013508Y004013D01*
X013559Y004083D01*
X013598Y004160D01*
X013625Y004242D01*
X013638Y004328D01*
X013638Y004351D01*
X013108Y004351D01*
X013108Y004391D01*
X013068Y004391D01*
X013068Y004921D01*
X013045Y004921D01*
X012959Y004907D01*
X012877Y004881D01*
X012800Y004841D01*
X012730Y004790D01*
X012669Y004729D01*
X012618Y004659D01*
X012578Y004582D01*
X012567Y004547D01*
X012521Y004660D01*
X012377Y004803D01*
X012190Y004881D01*
X011987Y004881D01*
X011799Y004803D01*
X011656Y004660D01*
X011578Y004472D01*
X011578Y004269D01*
X011656Y004082D01*
X011584Y004256D02*
X010857Y004256D01*
X010823Y004222D02*
X010918Y004317D01*
X010970Y004441D01*
X010970Y004576D01*
X010918Y004700D01*
X010823Y004795D01*
X010699Y004847D01*
X010564Y004847D01*
X010440Y004795D01*
X010345Y004700D01*
X010344Y004699D01*
X010190Y004699D01*
X010190Y004700D01*
X010095Y004795D01*
X009970Y004847D01*
X009836Y004847D01*
X009712Y004795D01*
X009617Y004700D01*
X009565Y004576D01*
X009565Y004441D01*
X009617Y004317D01*
X009712Y004222D01*
X009836Y004171D01*
X009970Y004171D01*
X010095Y004222D01*
X010190Y004317D01*
X010190Y004319D01*
X010344Y004319D01*
X010345Y004317D01*
X010440Y004222D01*
X010564Y004171D01*
X010699Y004171D01*
X010823Y004222D01*
X010958Y004414D02*
X011578Y004414D01*
X011620Y004573D02*
X010970Y004573D01*
X010887Y004731D02*
X011727Y004731D01*
X011799Y005021D02*
X011987Y004944D01*
X012190Y004944D01*
X012377Y005021D01*
X012521Y005165D01*
X012588Y005328D01*
X012656Y005165D01*
X012799Y005021D01*
X012987Y004944D01*
X013190Y004944D01*
X013377Y005021D01*
X013521Y005165D01*
X013598Y005352D01*
X013598Y005555D01*
X013521Y005742D01*
X013377Y005886D01*
X013190Y005964D01*
X012987Y005964D01*
X012888Y005923D01*
X012439Y006372D01*
X009411Y006372D01*
X009300Y006261D01*
X009300Y005386D01*
X009298Y005386D01*
X009203Y005291D01*
X009152Y005166D01*
X009152Y005032D01*
X009203Y004908D01*
X009298Y004813D01*
X009423Y004761D01*
X009557Y004761D01*
X009681Y004813D01*
X009776Y004908D01*
X009828Y005032D01*
X009828Y005166D01*
X009776Y005291D01*
X009681Y005386D01*
X009680Y005386D01*
X009680Y005538D01*
X009797Y005489D01*
X009931Y005489D01*
X010055Y005541D01*
X010150Y005636D01*
X010151Y005638D01*
X011612Y005638D01*
X011578Y005555D01*
X011578Y005352D01*
X011656Y005165D01*
X011799Y005021D01*
X011772Y005048D02*
X009828Y005048D01*
X009811Y005207D02*
X011638Y005207D01*
X011578Y005365D02*
X009702Y005365D01*
X009714Y005524D02*
X009680Y005524D01*
X009300Y005524D02*
X004628Y005524D01*
X004628Y005682D02*
X009300Y005682D01*
X009300Y005841D02*
X004628Y005841D01*
X004628Y005999D02*
X009300Y005999D01*
X009300Y006158D02*
X004628Y006158D01*
X004628Y006316D02*
X009355Y006316D01*
X010013Y005524D02*
X011578Y005524D01*
X012404Y005048D02*
X012772Y005048D01*
X012905Y004890D02*
X009758Y004890D01*
X009647Y004731D02*
X006226Y004731D01*
X006190Y004573D02*
X009565Y004573D01*
X009576Y004414D02*
X006020Y004414D01*
X005755Y004414D02*
X004628Y004414D01*
X004628Y004256D02*
X009678Y004256D01*
X010128Y004256D02*
X010406Y004256D01*
X010376Y004731D02*
X010159Y004731D01*
X009221Y004890D02*
X006185Y004890D01*
X005992Y005048D02*
X009152Y005048D01*
X009168Y005207D02*
X004628Y005207D01*
X004628Y005365D02*
X009277Y005365D01*
X012449Y004731D02*
X012671Y004731D01*
X012575Y004573D02*
X012557Y004573D01*
X012567Y004195D02*
X012578Y004160D01*
X012618Y004083D01*
X012669Y004013D01*
X012730Y003951D01*
X012610Y004097D02*
X012527Y004097D01*
X012521Y004082D02*
X012567Y004195D01*
X012521Y004082D02*
X012377Y003939D01*
X013068Y003939D02*
X013108Y003939D01*
X013108Y004097D02*
X013068Y004097D01*
X013068Y004256D02*
X013108Y004256D01*
X013108Y004391D02*
X013638Y004391D01*
X013638Y004414D01*
X013874Y004414D01*
X013875Y004256D02*
X013627Y004256D01*
X013638Y004414D02*
X013625Y004500D01*
X013598Y004582D01*
X013559Y004659D01*
X013508Y004729D01*
X013446Y004790D01*
X013376Y004841D01*
X013299Y004881D01*
X013217Y004907D01*
X013131Y004921D01*
X013108Y004921D01*
X013108Y004391D01*
X013108Y004414D02*
X013068Y004414D01*
X013068Y004573D02*
X013108Y004573D01*
X013108Y004731D02*
X013068Y004731D01*
X013068Y004890D02*
X013108Y004890D01*
X013272Y004890D02*
X013871Y004890D01*
X013870Y005048D02*
X013404Y005048D01*
X013538Y005207D02*
X013869Y005207D01*
X013868Y005365D02*
X013598Y005365D01*
X013598Y005524D02*
X013867Y005524D01*
X013866Y005682D02*
X013546Y005682D01*
X013422Y005841D02*
X013865Y005841D01*
X013864Y005999D02*
X012811Y005999D01*
X012653Y006158D02*
X013863Y006158D01*
X013862Y006316D02*
X012494Y006316D01*
X012538Y005207D02*
X012638Y005207D01*
X013506Y004731D02*
X013872Y004731D01*
X013873Y004573D02*
X013601Y004573D01*
X013566Y004097D02*
X013876Y004097D01*
X013877Y003939D02*
X013429Y003939D01*
X013861Y006475D02*
X004628Y006475D01*
X004982Y006359D02*
X005769Y006083D01*
X005783Y005048D02*
X004628Y005048D01*
D13*
X000887Y001930D03*
X002462Y001930D03*
X002462Y001438D03*
X004864Y001300D03*
X007108Y003072D03*
X007718Y003072D03*
X007718Y003682D03*
X007718Y004292D03*
X007108Y004292D03*
X007108Y003682D03*
X008328Y003682D03*
X008328Y004292D03*
X009490Y005099D03*
X009903Y004509D03*
X010631Y004509D03*
X010927Y004922D03*
X009864Y005828D03*
X010395Y003367D03*
X009706Y002402D03*
X009175Y001182D03*
X008624Y001300D03*
X008328Y003072D03*
X005887Y004725D03*
X005730Y004036D03*
X006694Y005867D03*
X004982Y006359D03*
X002974Y003859D03*
X013269Y013997D03*
D14*
X013525Y014017D01*
X013565Y006202D01*
D15*
X013088Y005454D02*
X012360Y006182D01*
X009490Y006182D01*
X009490Y005099D01*
X009903Y004509D02*
X010631Y004509D01*
X010395Y003367D02*
X009706Y002402D01*
X009372Y001162D02*
X009175Y001182D01*
X006380Y001438D02*
X002462Y001438D01*
X002462Y001930D02*
X000887Y001930D01*
X002974Y003859D02*
X003840Y004725D01*
X005887Y004725D01*
X006557Y005906D02*
X006773Y005769D01*
X006694Y005867D02*
X006557Y005906D01*
X009864Y005828D02*
X011694Y005828D01*
X012088Y005454D01*
X004864Y001300D02*
X004805Y001300D01*
X004805Y001320D01*
M02*
