%
M48
M72
T01C0.0197
T02C0.0236
T03C0.0400
%
T01
X11754Y1233
X11754Y1733
X11754Y2233
X12376Y2855
X12876Y2855
X13376Y2855
T02
X2462Y1438
X2462Y1930
X887Y1930
X2974Y3859
X5730Y4036
X5887Y4725
X6694Y5867
X4982Y6359
X7718Y3682
X9490Y5099
X9903Y4509
X10631Y4509
X10927Y4922
X9864Y5828
X10395Y3367
X9706Y2402
X9175Y1221
X4864Y1300
X13446Y14095
T03
X13088Y5454
X12088Y5454
X12088Y4371
X13088Y4371
M30
