G75*
G70*
%OFA0B0*%
%FSLAX24Y24*%
%IPPOS*%
%LPD*%
%AMOC8*
5,1,8,0,0,1.08239X$1,22.5*
%
%ADD10R,1.1417X0.0394*%
%ADD11R,1.0630X0.4724*%
%ADD12R,0.2047X0.2047*%
%ADD13C,0.0118*%
%ADD14R,0.0260X0.0300*%
%ADD15R,0.0394X0.0433*%
%ADD16R,0.0433X0.0394*%
%ADD17R,0.0110X0.0256*%
%ADD18R,0.0256X0.0110*%
%ADD19R,0.0118X0.0315*%
%ADD20R,0.0315X0.0118*%
%ADD21R,0.0394X0.0394*%
%ADD22C,0.0740*%
%ADD23R,0.0500X0.0500*%
%ADD24C,0.0160*%
%ADD25C,0.0396*%
%ADD26C,0.0100*%
%ADD27C,0.0240*%
D10*
X006990Y006970D03*
X006990Y013860D03*
D11*
X006990Y010415D03*
D12*
X007994Y003112D03*
D13*
X008092Y004351D02*
X008092Y004509D01*
X007895Y004509D02*
X007895Y004351D01*
X007698Y004351D02*
X007698Y004509D01*
X007502Y004509D02*
X007502Y004351D01*
X007305Y004351D02*
X007305Y004509D01*
X007108Y004509D02*
X007108Y004351D01*
X006911Y004351D02*
X006911Y004509D01*
X006754Y004194D02*
X006596Y004194D01*
X006596Y003997D02*
X006754Y003997D01*
X006754Y003801D02*
X006596Y003801D01*
X006596Y003604D02*
X006754Y003604D01*
X006754Y003407D02*
X006596Y003407D01*
X006596Y003210D02*
X006754Y003210D01*
X006754Y003013D02*
X006596Y003013D01*
X006596Y002816D02*
X006754Y002816D01*
X006754Y002619D02*
X006596Y002619D01*
X006596Y002423D02*
X006754Y002423D01*
X006754Y002226D02*
X006596Y002226D01*
X006596Y002029D02*
X006754Y002029D01*
X006911Y001872D02*
X006911Y001714D01*
X007108Y001714D02*
X007108Y001872D01*
X007305Y001872D02*
X007305Y001714D01*
X007502Y001714D02*
X007502Y001872D01*
X007698Y001872D02*
X007698Y001714D01*
X007895Y001714D02*
X007895Y001872D01*
X008092Y001872D02*
X008092Y001714D01*
X008289Y001714D02*
X008289Y001872D01*
X008486Y001872D02*
X008486Y001714D01*
X008683Y001714D02*
X008683Y001872D01*
X008880Y001872D02*
X008880Y001714D01*
X009076Y001714D02*
X009076Y001872D01*
X009234Y002029D02*
X009392Y002029D01*
X009392Y002226D02*
X009234Y002226D01*
X009234Y002423D02*
X009392Y002423D01*
X009392Y002619D02*
X009234Y002619D01*
X009234Y002816D02*
X009392Y002816D01*
X009392Y003013D02*
X009234Y003013D01*
X009234Y003210D02*
X009392Y003210D01*
X009392Y003407D02*
X009234Y003407D01*
X009234Y003604D02*
X009392Y003604D01*
X009392Y003801D02*
X009234Y003801D01*
X009234Y003997D02*
X009392Y003997D01*
X009392Y004194D02*
X009234Y004194D01*
X009076Y004351D02*
X009076Y004509D01*
X008880Y004509D02*
X008880Y004351D01*
X008683Y004351D02*
X008683Y004509D01*
X008486Y004509D02*
X008486Y004351D01*
X008289Y004351D02*
X008289Y004509D01*
D14*
X010235Y001797D03*
X010635Y001797D03*
X010635Y001277D03*
X010235Y001277D03*
D15*
X009844Y001222D03*
X009844Y001891D03*
X011025Y001891D03*
X011025Y001222D03*
X008840Y005198D03*
X008840Y005867D03*
X004608Y005001D03*
X004608Y004332D03*
X003939Y002974D03*
X003939Y002305D03*
X001754Y002088D03*
X001754Y001419D03*
X000887Y002324D03*
X000887Y002993D03*
D16*
X001045Y004883D03*
X001714Y004883D03*
X001714Y005907D03*
X001045Y005907D03*
X003565Y001458D03*
X004234Y001458D03*
X005317Y002147D03*
X005986Y002147D03*
X005986Y003013D03*
X005317Y003013D03*
X005887Y005238D03*
X006557Y005238D03*
X010317Y004273D03*
X010317Y003604D03*
D17*
X002285Y003808D03*
X002088Y003808D03*
X001891Y003808D03*
X001694Y003808D03*
X001694Y002730D03*
X001891Y002730D03*
X002088Y002730D03*
X002285Y002730D03*
D18*
X002529Y002974D03*
X002529Y003171D03*
X002529Y003367D03*
X002529Y003564D03*
X001450Y003564D03*
X001450Y003367D03*
X001450Y003171D03*
X001450Y002974D03*
D19*
X002659Y004509D03*
X002856Y004509D03*
X003053Y004509D03*
X003250Y004509D03*
X003446Y004509D03*
X003643Y004509D03*
X003643Y006084D03*
X003446Y006084D03*
X003250Y006084D03*
X003053Y006084D03*
X002856Y006084D03*
X002659Y006084D03*
D20*
X002364Y005789D03*
X002364Y005592D03*
X002364Y005395D03*
X002364Y005198D03*
X002364Y005001D03*
X002364Y004805D03*
X003939Y004805D03*
X003939Y005001D03*
X003939Y005198D03*
X003939Y005395D03*
X003939Y005592D03*
X003939Y005789D03*
D21*
X003151Y005297D03*
D22*
X012088Y005316D03*
X012088Y004234D03*
X013088Y004234D03*
X013088Y005316D03*
D23*
X012876Y002718D03*
X012376Y002718D03*
X011754Y002096D03*
X011754Y001596D03*
X011754Y001096D03*
X013376Y002718D03*
D24*
X002817Y000927D02*
X000513Y000927D01*
X000513Y003289D01*
X000513Y004076D01*
X000513Y006655D01*
X000513Y008171D01*
X001754Y008171D01*
X001754Y010297D01*
X006990Y010415D01*
X006990Y006970D02*
X005848Y006970D01*
X005809Y006970D01*
X005809Y005986D01*
X007502Y006320D02*
X008289Y006320D01*
X008820Y006320D01*
X010868Y006320D01*
X013230Y006320D01*
X013250Y008171D01*
X012187Y008171D01*
X008683Y000927D02*
X006380Y000927D01*
X002817Y000927D01*
D25*
X002462Y001301D03*
X002462Y001793D03*
X000887Y001793D03*
X003269Y003564D03*
X004805Y003013D03*
X005887Y004450D03*
X005809Y005986D03*
X007856Y004864D03*
X009490Y004765D03*
X010159Y005474D03*
X010317Y004765D03*
X010179Y002423D03*
X010710Y002423D03*
X009096Y001182D03*
X000513Y006655D03*
X013269Y013860D03*
D26*
X010868Y006320D02*
X010868Y005080D01*
X010848Y005100D01*
X009864Y005100D01*
X009864Y003801D01*
X009313Y003801D01*
X009313Y003604D02*
X010317Y003604D01*
X010868Y003210D02*
X010868Y004234D01*
X012088Y004234D01*
X010868Y004234D02*
X010868Y005080D01*
X010317Y004765D02*
X010317Y004273D01*
X009490Y004765D02*
X009411Y004706D01*
X008683Y004706D01*
X008683Y004430D01*
X008486Y004430D02*
X008486Y004844D01*
X008840Y005198D01*
X009116Y005474D01*
X010159Y005474D01*
X008840Y005867D02*
X008820Y005867D01*
X008820Y006320D01*
X008289Y006320D02*
X008289Y004430D01*
X008092Y004430D02*
X008092Y004864D01*
X007856Y004864D01*
X008092Y004430D02*
X008092Y003112D01*
X007994Y003112D01*
X006675Y003013D02*
X005986Y003013D01*
X006380Y002816D02*
X006380Y002147D01*
X006380Y000927D01*
X005317Y001458D02*
X005317Y002147D01*
X005317Y003013D01*
X004805Y003013D01*
X003958Y002974D02*
X003958Y003801D01*
X005179Y003801D01*
X005179Y005592D01*
X003939Y005592D01*
X003939Y005789D02*
X005395Y005789D01*
X005395Y003997D01*
X005887Y003997D01*
X005887Y004450D01*
X005887Y005238D01*
X006557Y005238D02*
X007502Y005238D01*
X007502Y006320D01*
X007502Y005238D02*
X007502Y004430D01*
X006675Y003997D02*
X005887Y003997D01*
X005179Y003801D02*
X006675Y003801D01*
X006694Y002836D02*
X006675Y002816D01*
X006380Y002816D01*
X006380Y002147D02*
X005986Y002147D01*
X005317Y001458D02*
X004234Y001458D01*
X003565Y001458D02*
X002817Y001458D01*
X002817Y000927D01*
X002462Y001301D02*
X002088Y001301D01*
X002088Y002730D01*
X001891Y002730D02*
X001891Y002029D01*
X001754Y002088D01*
X001694Y002442D02*
X001419Y002442D01*
X001419Y001419D01*
X001754Y001419D01*
X001891Y001537D01*
X001754Y001419D02*
X001793Y001301D01*
X002088Y001301D01*
X002462Y001793D02*
X002462Y002245D01*
X002285Y002245D01*
X002285Y002730D01*
X002529Y002974D02*
X002817Y002974D01*
X002817Y002305D01*
X003939Y002305D01*
X003939Y002974D02*
X003958Y002974D01*
X003269Y003564D02*
X002529Y003564D01*
X002285Y003808D02*
X002285Y003978D01*
X002364Y004056D01*
X003958Y004056D01*
X003958Y003801D01*
X003643Y004332D02*
X004608Y004332D01*
X004608Y005001D02*
X003939Y005001D01*
X003643Y004509D02*
X003643Y006084D01*
X003643Y006950D01*
X005809Y006970D01*
X005848Y006970D02*
X001045Y006970D01*
X001045Y005907D01*
X001045Y005395D01*
X001045Y004883D01*
X001025Y004903D02*
X001025Y004411D01*
X002069Y004411D01*
X002069Y005001D01*
X002364Y005001D01*
X002364Y005198D02*
X001714Y005198D01*
X001714Y004883D01*
X002305Y004312D02*
X002088Y004096D01*
X002088Y004076D02*
X002088Y003808D01*
X002088Y004076D02*
X001694Y004076D01*
X000513Y004076D01*
X000513Y003289D02*
X000513Y003269D01*
X000887Y002993D02*
X000927Y002993D01*
X000887Y002993D02*
X001450Y002974D01*
X001694Y002730D02*
X001694Y002442D01*
X000887Y002324D02*
X000887Y001793D01*
X002817Y001458D02*
X002817Y002305D01*
X001694Y003808D02*
X001694Y004076D01*
X002305Y004312D02*
X002659Y004312D01*
X002659Y004509D01*
X002659Y005592D01*
X002364Y005592D01*
X002088Y005592D01*
X002088Y005907D01*
X001714Y005907D01*
X002364Y005395D02*
X001045Y005395D01*
X003643Y004509D02*
X003643Y004332D01*
X004608Y005001D02*
X004687Y005060D01*
X008683Y001793D02*
X008683Y001182D01*
X009096Y001182D01*
X008683Y001182D02*
X008683Y000927D01*
X009509Y000887D02*
X010635Y000887D01*
X010635Y001277D01*
X010970Y001277D01*
X011025Y001222D01*
X010931Y001797D02*
X010635Y001797D01*
X010235Y001277D01*
X009899Y001277D01*
X009844Y001222D01*
X009899Y001257D01*
X009509Y000887D02*
X009509Y002029D01*
X009313Y002029D01*
X009313Y002226D02*
X009824Y002226D01*
X009824Y001871D01*
X009844Y001891D01*
X009938Y001797D01*
X010235Y001797D01*
X009938Y001777D02*
X009844Y001891D01*
X010179Y002423D02*
X009313Y002423D01*
X009313Y002619D01*
X009313Y002816D02*
X011754Y002816D01*
X011754Y002096D01*
X011754Y001596D01*
X011754Y001096D01*
X010970Y001816D02*
X011025Y001891D01*
X010931Y001797D01*
X011025Y001891D02*
X011025Y002108D01*
X010710Y002423D01*
X010868Y003210D02*
X009313Y003210D01*
X009313Y003407D01*
X009313Y003013D02*
X011950Y003013D01*
X011950Y002718D01*
X012876Y002718D01*
X013368Y002718D01*
D27*
X013269Y013860D02*
X006990Y013860D01*
M02*
