G75*
G70*
%OFA0B0*%
%FSLAX24Y24*%
%IPPOS*%
%LPD*%
%AMOC8*
5,1,8,0,0,1.08239X$1,22.5*
%
%ADD10C,0.0000*%
%ADD11C,0.0050*%
%ADD12C,0.0030*%
%ADD13C,0.0030*%
%ADD14C,0.0040*%
%ADD15C,0.0220*%
%ADD16C,0.0010*%
%ADD17C,0.0080*%
%ADD18C,0.0020*%
%ADD19R,0.0300X0.0180*%
%ADD20R,0.0180X0.0300*%
D10*
X000100Y000769D02*
X000100Y014548D01*
X013880Y014548D01*
X013880Y000769D01*
X000100Y000769D01*
D11*
X006424Y000900D02*
X007044Y000900D01*
X007044Y001700D01*
X006424Y001700D01*
X006424Y000900D01*
X006360Y002324D02*
X009076Y002324D01*
X009076Y005040D01*
X006360Y005040D01*
X006360Y002324D01*
X011583Y005191D02*
X011658Y005116D01*
X011733Y005116D01*
X011808Y005191D01*
X011808Y005566D01*
X011733Y005566D02*
X011883Y005566D01*
X012044Y005566D02*
X012269Y005566D01*
X012344Y005491D01*
X012344Y005341D01*
X012269Y005266D01*
X012044Y005266D01*
X012044Y005116D02*
X012044Y005566D01*
X012504Y005491D02*
X012579Y005566D01*
X012729Y005566D01*
X012804Y005491D01*
X012804Y005416D01*
X012504Y005116D01*
X012804Y005116D01*
X012804Y006199D02*
X012504Y006199D01*
X012344Y006424D02*
X012269Y006349D01*
X012044Y006349D01*
X012044Y006199D02*
X012044Y006649D01*
X012269Y006649D01*
X012344Y006574D01*
X012344Y006424D01*
X012504Y006499D02*
X012654Y006649D01*
X012654Y006199D01*
X011883Y006649D02*
X011733Y006649D01*
X011808Y006649D02*
X011808Y006274D01*
X011733Y006199D01*
X011658Y006199D01*
X011583Y006274D01*
X013250Y007501D02*
X013250Y012619D01*
X001754Y008643D01*
X000730Y007501D01*
X013250Y007501D01*
X012226Y012461D02*
X000730Y008485D01*
X000730Y013603D01*
X013250Y013603D01*
X012226Y012461D01*
D12*
X006574Y004753D02*
X006576Y004770D01*
X006582Y004786D01*
X006591Y004800D01*
X006603Y004812D01*
X006618Y004820D01*
X006634Y004825D01*
X006651Y004826D01*
X006668Y004823D01*
X006683Y004816D01*
X006697Y004806D01*
X006708Y004793D01*
X006716Y004778D01*
X006720Y004761D01*
X006720Y004745D01*
X006716Y004728D01*
X006708Y004713D01*
X006697Y004700D01*
X006684Y004690D01*
X006668Y004683D01*
X006651Y004680D01*
X006634Y004681D01*
X006618Y004686D01*
X006603Y004694D01*
X006591Y004706D01*
X006582Y004720D01*
X006576Y004736D01*
X006574Y004753D01*
D13*
X006811Y005327D02*
X006934Y005327D01*
X006996Y005389D01*
X006996Y005697D01*
X007117Y005574D02*
X007241Y005697D01*
X007241Y005327D01*
X007364Y005327D02*
X007117Y005327D01*
X006811Y005327D02*
X006749Y005389D01*
X006749Y005697D01*
X006767Y002055D02*
X006706Y001994D01*
X006706Y001747D01*
X006767Y001685D01*
X006891Y001685D01*
X006952Y001747D01*
X007074Y001747D02*
X007136Y001685D01*
X007259Y001685D01*
X007321Y001747D01*
X007442Y001870D02*
X007689Y001870D01*
X007810Y001747D02*
X007872Y001685D01*
X007996Y001685D01*
X008057Y001747D01*
X008057Y001809D01*
X007996Y001870D01*
X007934Y001870D01*
X007996Y001870D02*
X008057Y001932D01*
X008057Y001994D01*
X007996Y002055D01*
X007872Y002055D01*
X007810Y001994D01*
X007627Y002055D02*
X007442Y001870D01*
X007321Y001994D02*
X007259Y002055D01*
X007136Y002055D01*
X007074Y001994D01*
X007074Y001747D01*
X006952Y001994D02*
X006891Y002055D01*
X006767Y002055D01*
X007627Y002055D02*
X007627Y001685D01*
X008179Y001747D02*
X008426Y001994D01*
X008426Y001747D01*
X008364Y001685D01*
X008241Y001685D01*
X008179Y001747D01*
X008179Y001994D01*
X008241Y002055D01*
X008364Y002055D01*
X008426Y001994D01*
X008547Y002055D02*
X008794Y002055D01*
X008915Y002055D02*
X008915Y001870D01*
X009039Y001932D01*
X009101Y001932D01*
X009162Y001870D01*
X009162Y001747D01*
X009101Y001685D01*
X008977Y001685D01*
X008915Y001747D01*
X008671Y001870D02*
X008547Y001870D01*
X008547Y001685D02*
X008547Y002055D01*
X008915Y002055D02*
X009162Y002055D01*
X009284Y001932D02*
X009407Y002055D01*
X009407Y001685D01*
X009284Y001685D02*
X009531Y001685D01*
X009652Y001747D02*
X009714Y001685D01*
X009837Y001685D01*
X009899Y001747D01*
X009899Y001809D01*
X009837Y001870D01*
X009776Y001870D01*
X009837Y001870D02*
X009899Y001932D01*
X009899Y001994D01*
X009837Y002055D01*
X009714Y002055D01*
X009652Y001994D01*
X010020Y002055D02*
X010267Y002055D01*
X010267Y001994D01*
X010020Y001747D01*
X010020Y001685D01*
D14*
X007714Y001701D02*
X007253Y001701D01*
X007253Y001548D02*
X007714Y001548D01*
X007484Y001701D02*
X007484Y002008D01*
X007407Y002162D02*
X007407Y002468D01*
X007714Y002162D01*
X007714Y002468D01*
X007714Y002008D02*
X007253Y002008D01*
X007253Y001548D02*
X007407Y001394D01*
X007253Y001241D01*
X007714Y001241D01*
X007637Y001087D02*
X007560Y001087D01*
X007484Y001011D01*
X007484Y000780D01*
X007637Y000780D01*
X007714Y000857D01*
X007714Y001011D01*
X007637Y001087D01*
X007330Y000934D02*
X007484Y000780D01*
X007407Y000627D02*
X007330Y000627D01*
X007253Y000550D01*
X007253Y000397D01*
X007330Y000320D01*
X007407Y000627D02*
X007714Y000320D01*
X007714Y000627D01*
X007330Y000934D02*
X007253Y001087D01*
X006214Y001087D02*
X006214Y000780D01*
X006214Y000627D02*
X006060Y000473D01*
X006214Y000397D02*
X006137Y000320D01*
X005830Y000320D01*
X005753Y000397D01*
X005753Y000550D01*
X005830Y000627D01*
X006137Y000627D01*
X006214Y000550D01*
X006214Y000397D01*
X005907Y000780D02*
X005753Y000934D01*
X006214Y000934D01*
X005356Y001771D02*
X005203Y001771D01*
X005126Y001848D01*
X004973Y001848D02*
X004896Y001771D01*
X004742Y001771D01*
X004666Y001848D01*
X004666Y002154D01*
X004742Y002231D01*
X004896Y002231D01*
X004973Y002154D01*
X005126Y002154D02*
X005203Y002231D01*
X005356Y002231D01*
X005433Y002154D01*
X005433Y002078D01*
X005356Y002001D01*
X005433Y001924D01*
X005433Y001848D01*
X005356Y001771D01*
X005356Y002001D02*
X005280Y002001D01*
X005356Y002657D02*
X005356Y003117D01*
X005126Y002887D01*
X005433Y002887D01*
X005280Y003001D02*
X005126Y003001D01*
X004973Y003001D02*
X004973Y002771D01*
X004973Y002733D02*
X004896Y002657D01*
X004742Y002657D01*
X004666Y002733D01*
X004666Y003040D01*
X004742Y003117D01*
X004896Y003117D01*
X004973Y003040D01*
X004973Y003001D02*
X004896Y003078D01*
X004666Y003078D01*
X004666Y002771D01*
X005126Y002771D02*
X005126Y003231D01*
X005433Y003231D01*
X005126Y003657D02*
X005126Y004117D01*
X005433Y004117D01*
X005280Y003887D02*
X005126Y003887D01*
X004973Y003887D02*
X004973Y003657D01*
X004973Y003887D02*
X004896Y003964D01*
X004666Y003964D01*
X004666Y003657D01*
X004052Y003733D02*
X003975Y003657D01*
X003822Y003657D01*
X003745Y003733D01*
X004052Y004040D01*
X004052Y003733D01*
X003745Y003733D02*
X003745Y004040D01*
X003822Y004117D01*
X003975Y004117D01*
X004052Y004040D01*
X003591Y004040D02*
X003285Y003733D01*
X003285Y003657D01*
X003054Y003657D02*
X003054Y004117D01*
X002824Y003887D01*
X003131Y003887D01*
X003285Y004117D02*
X003591Y004117D01*
X003591Y004040D01*
X003591Y003231D02*
X003285Y003231D01*
X003054Y003231D02*
X002824Y003001D01*
X003131Y003001D01*
X003285Y002848D02*
X003285Y002771D01*
X003285Y002848D02*
X003591Y003154D01*
X003591Y003231D01*
X003745Y003154D02*
X003822Y003231D01*
X003975Y003231D01*
X004052Y003154D01*
X003745Y002848D01*
X003822Y002771D01*
X003975Y002771D01*
X004052Y002848D01*
X004052Y003154D01*
X003745Y003154D02*
X003745Y002848D01*
X003054Y002771D02*
X003054Y003231D01*
X001997Y003369D02*
X001537Y003369D01*
X001537Y003522D02*
X001537Y003215D01*
X001537Y003062D02*
X001537Y002908D01*
X001537Y002985D02*
X001997Y002985D01*
X001997Y002908D02*
X001997Y003062D01*
X001921Y003676D02*
X001614Y003676D01*
X001537Y003752D01*
X001537Y003906D01*
X001614Y003983D01*
X001767Y003983D02*
X001767Y003829D01*
X001767Y003983D02*
X001921Y003983D01*
X001997Y003906D01*
X001997Y003752D01*
X001921Y003676D01*
X001767Y004136D02*
X001767Y004443D01*
X001614Y004597D02*
X001537Y004673D01*
X001537Y004827D01*
X001614Y004903D01*
X001690Y004903D01*
X001767Y004827D01*
X001844Y004903D01*
X001921Y004903D01*
X001997Y004827D01*
X001997Y004673D01*
X001921Y004597D01*
X001767Y004750D02*
X001767Y004827D01*
X001614Y005057D02*
X001537Y005134D01*
X001537Y005287D01*
X001614Y005364D01*
X001690Y005364D01*
X001997Y005057D01*
X001997Y005364D01*
X001921Y005517D02*
X001614Y005824D01*
X001921Y005824D01*
X001997Y005748D01*
X001997Y005594D01*
X001921Y005517D01*
X001614Y005517D01*
X001537Y005594D01*
X001537Y005748D01*
X001614Y005824D01*
X001614Y005978D02*
X001537Y006054D01*
X001537Y006208D01*
X001614Y006285D01*
X001921Y005978D01*
X001997Y006054D01*
X001997Y006208D01*
X001921Y006285D01*
X001614Y006285D01*
X001614Y005978D02*
X001921Y005978D01*
X004273Y006035D02*
X004350Y005958D01*
X004273Y006035D02*
X004273Y006188D01*
X004350Y006265D01*
X004427Y006265D01*
X004503Y006188D01*
X004580Y006265D01*
X004657Y006265D01*
X004734Y006188D01*
X004734Y006035D01*
X004657Y005958D01*
X004657Y005805D02*
X004273Y005805D01*
X004273Y005498D02*
X004657Y005498D01*
X004734Y005574D01*
X004734Y005728D01*
X004657Y005805D01*
X004503Y006111D02*
X004503Y006188D01*
X010196Y005865D02*
X010503Y005558D01*
X010427Y005635D02*
X010657Y005865D01*
X010657Y005558D02*
X010196Y005558D01*
X010196Y005405D02*
X010273Y005251D01*
X010427Y005098D01*
X010427Y005328D01*
X010503Y005405D01*
X010580Y005405D01*
X010657Y005328D01*
X010657Y005175D01*
X010580Y005098D01*
X010427Y005098D01*
X010427Y004945D02*
X010350Y004868D01*
X010350Y004791D01*
X010427Y004638D01*
X010196Y004638D01*
X010196Y004945D01*
X010427Y004945D02*
X010580Y004945D01*
X010657Y004868D01*
X010657Y004714D01*
X010580Y004638D01*
X011196Y005098D02*
X011196Y005328D01*
X011273Y005405D01*
X011427Y005405D01*
X011503Y005328D01*
X011503Y005098D01*
X011503Y005251D02*
X011657Y005405D01*
X011657Y005558D02*
X011657Y005865D01*
X011657Y005712D02*
X011196Y005712D01*
X011350Y005558D01*
X011196Y005098D02*
X011657Y005098D01*
D15*
X010722Y001517D02*
X010698Y001517D01*
X009856Y001517D02*
X009832Y001517D01*
X007757Y001312D02*
X007757Y001288D01*
X005710Y001288D02*
X005710Y001312D01*
X004108Y002914D02*
X004084Y002914D01*
X004596Y004804D02*
X004620Y004804D01*
X001766Y001891D02*
X001742Y001891D01*
X000899Y002796D02*
X000875Y002796D01*
X001380Y005008D02*
X001380Y005032D01*
X001380Y006032D02*
X001380Y006056D01*
X007541Y005879D02*
X007541Y005855D01*
D16*
X007442Y005572D02*
X007392Y005572D01*
X007367Y005547D01*
X007442Y005572D02*
X007467Y005547D01*
X007467Y005522D01*
X007367Y005422D01*
X007467Y005422D01*
X007318Y005422D02*
X007293Y005422D01*
X007293Y005447D01*
X007318Y005447D01*
X007318Y005422D01*
X007246Y005422D02*
X007146Y005422D01*
X007246Y005522D01*
X007246Y005547D01*
X007221Y005572D01*
X007171Y005572D01*
X007146Y005547D01*
X007662Y005522D02*
X007737Y005522D01*
X007762Y005497D01*
X007762Y005422D01*
X007809Y005422D02*
X007809Y005572D01*
X007909Y005572D01*
X007859Y005497D02*
X007809Y005497D01*
X007662Y005522D02*
X007662Y005422D01*
X007591Y006172D02*
X007491Y006172D01*
X007443Y006172D02*
X007343Y006172D01*
X007393Y006172D02*
X007393Y006322D01*
X007343Y006272D01*
X007296Y006297D02*
X007271Y006322D01*
X007221Y006322D01*
X007196Y006297D01*
X007196Y006197D01*
X007221Y006172D01*
X007271Y006172D01*
X007296Y006197D01*
X007491Y006272D02*
X007541Y006322D01*
X007541Y006172D01*
X008425Y005497D02*
X008526Y005497D01*
X008573Y005447D02*
X008573Y005422D01*
X008573Y005447D02*
X008673Y005547D01*
X008673Y005572D01*
X008573Y005572D01*
X008501Y005572D02*
X008425Y005497D01*
X008501Y005422D02*
X008501Y005572D01*
X008720Y005572D02*
X008720Y005422D01*
X008720Y005472D02*
X008820Y005572D01*
X008745Y005497D02*
X008820Y005422D01*
X008723Y006172D02*
X008623Y006172D01*
X008723Y006272D01*
X008723Y006297D01*
X008698Y006322D01*
X008648Y006322D01*
X008623Y006297D01*
X008576Y006297D02*
X008551Y006322D01*
X008475Y006322D01*
X008475Y006172D01*
X008475Y006222D02*
X008551Y006222D01*
X008576Y006247D01*
X008576Y006297D01*
X008526Y006222D02*
X008576Y006172D01*
X010153Y004383D02*
X010103Y004333D01*
X010153Y004383D02*
X010153Y004233D01*
X010103Y004233D02*
X010203Y004233D01*
X010250Y004233D02*
X010350Y004333D01*
X010350Y004358D01*
X010325Y004383D01*
X010275Y004383D01*
X010250Y004358D01*
X010250Y004233D02*
X010350Y004233D01*
X010545Y004233D02*
X010545Y004333D01*
X010620Y004333D01*
X010645Y004308D01*
X010645Y004233D01*
X010692Y004233D02*
X010692Y004383D01*
X010692Y004308D02*
X010792Y004308D01*
X010792Y004383D02*
X010792Y004233D01*
X010692Y003633D02*
X010642Y003583D01*
X010692Y003633D02*
X010692Y003483D01*
X010642Y003483D02*
X010742Y003483D01*
X010595Y003483D02*
X010495Y003483D01*
X010495Y003633D01*
X010340Y001873D02*
X010340Y001823D01*
X010299Y001799D02*
X010299Y001749D01*
X010274Y001724D01*
X010265Y001676D02*
X010415Y001776D01*
X010265Y001776D01*
X010224Y001774D02*
X010224Y001799D01*
X010249Y001824D01*
X010274Y001824D01*
X010299Y001799D01*
X010290Y001848D02*
X010265Y001873D01*
X010290Y001848D02*
X010415Y001848D01*
X010415Y001676D02*
X010265Y001676D01*
X010299Y001677D02*
X010299Y001577D01*
X010299Y001627D02*
X010149Y001627D01*
X010199Y001577D01*
X010174Y001530D02*
X010149Y001505D01*
X010149Y001455D01*
X010174Y001430D01*
X010274Y001430D01*
X010299Y001455D01*
X010299Y001505D01*
X010274Y001530D01*
X010290Y001481D02*
X010390Y001381D01*
X010415Y001406D01*
X010415Y001456D01*
X010390Y001481D01*
X010290Y001481D01*
X010265Y001456D01*
X010265Y001406D01*
X010290Y001381D01*
X010390Y001381D01*
X010390Y001334D02*
X010415Y001309D01*
X010415Y001259D01*
X010390Y001234D01*
X010290Y001334D01*
X010390Y001334D01*
X010290Y001334D02*
X010265Y001309D01*
X010265Y001259D01*
X010290Y001234D01*
X010390Y001234D01*
X010415Y001187D02*
X010415Y001087D01*
X010415Y001137D02*
X010265Y001137D01*
X010315Y001087D01*
X010174Y001724D02*
X010149Y001749D01*
X010149Y001799D01*
X010174Y001824D01*
X010199Y001824D01*
X010224Y001799D01*
X009549Y001776D02*
X009399Y001776D01*
X009424Y001848D02*
X009399Y001873D01*
X009424Y001848D02*
X009549Y001848D01*
X009549Y001776D02*
X009399Y001676D01*
X009549Y001676D01*
X009474Y001823D02*
X009474Y001873D01*
X009424Y001481D02*
X009524Y001381D01*
X009549Y001406D01*
X009549Y001456D01*
X009524Y001481D01*
X009424Y001481D01*
X009399Y001456D01*
X009399Y001406D01*
X009424Y001381D01*
X009524Y001381D01*
X009549Y001334D02*
X009549Y001234D01*
X009549Y001284D02*
X009399Y001284D01*
X009449Y001234D01*
X008052Y001005D02*
X007952Y001005D01*
X007952Y000855D01*
X007905Y000880D02*
X007880Y000855D01*
X007804Y000855D01*
X007804Y000805D02*
X007804Y000955D01*
X007880Y000955D01*
X007905Y000930D01*
X007905Y000880D01*
X007952Y000930D02*
X008002Y000930D01*
X007610Y000980D02*
X007510Y000880D01*
X007510Y000855D01*
X007463Y000855D02*
X007362Y000855D01*
X007463Y000955D01*
X007463Y000980D01*
X007438Y001005D01*
X007388Y001005D01*
X007362Y000980D01*
X007510Y001005D02*
X007610Y001005D01*
X007610Y000980D01*
X007660Y001605D02*
X007560Y001605D01*
X007660Y001705D01*
X007660Y001730D01*
X007635Y001755D01*
X007585Y001755D01*
X007560Y001730D01*
X007513Y001730D02*
X007488Y001755D01*
X007438Y001755D01*
X007412Y001730D01*
X007412Y001630D01*
X007438Y001605D01*
X007488Y001605D01*
X007513Y001630D01*
X006068Y001745D02*
X005968Y001745D01*
X005968Y001595D01*
X005921Y001620D02*
X005896Y001595D01*
X005821Y001595D01*
X005821Y001545D02*
X005821Y001695D01*
X005896Y001695D01*
X005921Y001670D01*
X005921Y001620D01*
X005968Y001670D02*
X006018Y001670D01*
X005626Y001720D02*
X005526Y001620D01*
X005526Y001595D01*
X005479Y001595D02*
X005379Y001595D01*
X005479Y001695D01*
X005479Y001720D01*
X005454Y001745D01*
X005404Y001745D01*
X005379Y001720D01*
X005526Y001745D02*
X005626Y001745D01*
X005626Y001720D01*
X005796Y000995D02*
X005771Y000970D01*
X005771Y000870D01*
X005796Y000845D01*
X005846Y000845D01*
X005871Y000870D01*
X005918Y000845D02*
X006018Y000845D01*
X005968Y000845D02*
X005968Y000995D01*
X005918Y000945D01*
X005871Y000970D02*
X005846Y000995D01*
X005796Y000995D01*
X004541Y002519D02*
X004541Y002544D01*
X004516Y002544D01*
X004516Y002519D01*
X004541Y002519D01*
X004541Y002593D02*
X004541Y002693D01*
X004541Y002643D02*
X004391Y002643D01*
X004441Y002593D01*
X004441Y002740D02*
X004516Y002740D01*
X004541Y002765D01*
X004541Y002840D01*
X004441Y002840D01*
X004466Y002887D02*
X004466Y002938D01*
X004391Y002887D02*
X004391Y002988D01*
X004391Y002887D02*
X004541Y002887D01*
X003791Y002792D02*
X003791Y002742D01*
X003766Y002716D01*
X003766Y002669D02*
X003791Y002644D01*
X003791Y002594D01*
X003766Y002569D01*
X003666Y002569D01*
X003641Y002594D01*
X003641Y002644D01*
X003666Y002669D01*
X003641Y002716D02*
X003716Y002716D01*
X003691Y002767D01*
X003691Y002792D01*
X003716Y002817D01*
X003766Y002817D01*
X003791Y002792D01*
X003641Y002817D02*
X003641Y002716D01*
X003594Y002975D02*
X003594Y003050D01*
X003619Y003075D01*
X003669Y003075D01*
X003694Y003050D01*
X003694Y002975D01*
X003694Y003025D02*
X003744Y003075D01*
X003719Y003122D02*
X003744Y003147D01*
X003744Y003197D01*
X003719Y003222D01*
X003694Y003222D01*
X003669Y003197D01*
X003669Y003122D01*
X003719Y003122D01*
X003669Y003122D02*
X003619Y003172D01*
X003594Y003222D01*
X003594Y002975D02*
X003744Y002975D01*
X002994Y002976D02*
X002994Y002951D01*
X002969Y002951D01*
X002969Y002976D01*
X002994Y002976D01*
X002994Y003025D02*
X002969Y003025D01*
X002869Y003125D01*
X002844Y003125D01*
X002844Y003025D01*
X002919Y002904D02*
X002919Y002804D01*
X002844Y002879D01*
X002994Y002879D01*
X002994Y003172D02*
X002844Y003172D01*
X002919Y003197D02*
X002994Y003272D01*
X002944Y003172D02*
X002844Y003272D01*
X002083Y002198D02*
X002184Y002098D01*
X002209Y002098D01*
X002184Y002051D02*
X002209Y002026D01*
X002209Y001976D01*
X002184Y001951D01*
X002083Y001951D01*
X002058Y001976D01*
X002058Y002026D01*
X002083Y002051D01*
X002058Y002098D02*
X002058Y002198D01*
X002083Y002198D01*
X001459Y002148D02*
X001308Y002148D01*
X001308Y002248D01*
X001383Y002198D02*
X001383Y002148D01*
X001358Y002101D02*
X001459Y002101D01*
X001459Y002026D01*
X001434Y002001D01*
X001358Y002001D01*
X001333Y001954D02*
X001434Y001854D01*
X001459Y001854D01*
X001459Y001805D02*
X001459Y001780D01*
X001434Y001780D01*
X001434Y001805D01*
X001459Y001805D01*
X001459Y001708D02*
X001308Y001708D01*
X001383Y001633D01*
X001383Y001733D01*
X001308Y001854D02*
X001308Y001954D01*
X001333Y001954D01*
X000592Y002538D02*
X000592Y002563D01*
X000567Y002563D01*
X000567Y002538D01*
X000592Y002538D01*
X000592Y002612D02*
X000492Y002712D01*
X000467Y002712D01*
X000442Y002687D01*
X000442Y002637D01*
X000467Y002612D01*
X000592Y002612D02*
X000592Y002712D01*
X000592Y002759D02*
X000492Y002859D01*
X000467Y002859D01*
X000442Y002834D01*
X000442Y002784D01*
X000467Y002759D01*
X000592Y002759D02*
X000592Y002859D01*
X000567Y002906D02*
X000592Y002931D01*
X000592Y003006D01*
X000492Y003006D01*
X000517Y003054D02*
X000517Y003104D01*
X000442Y003054D02*
X000442Y003154D01*
X000442Y003054D02*
X000592Y003054D01*
X000567Y002906D02*
X000492Y002906D01*
X001192Y002881D02*
X001217Y002856D01*
X001317Y002856D01*
X001342Y002881D01*
X001342Y002931D01*
X001317Y002956D01*
X001317Y003004D02*
X001342Y003029D01*
X001342Y003079D01*
X001317Y003104D01*
X001292Y003104D01*
X001267Y003079D01*
X001267Y003004D01*
X001317Y003004D01*
X001267Y003004D02*
X001217Y003054D01*
X001192Y003104D01*
X001217Y002956D02*
X001192Y002931D01*
X001192Y002881D01*
X001465Y004565D02*
X001515Y004565D01*
X001540Y004590D01*
X001587Y004590D02*
X001612Y004565D01*
X001662Y004565D01*
X001687Y004590D01*
X001687Y004691D01*
X001662Y004716D01*
X001612Y004716D01*
X001587Y004691D01*
X001587Y004666D01*
X001612Y004641D01*
X001687Y004641D01*
X001540Y004691D02*
X001515Y004716D01*
X001465Y004716D01*
X001440Y004691D01*
X001440Y004590D01*
X001465Y004565D01*
X001443Y005315D02*
X001343Y005315D01*
X001294Y005315D02*
X001269Y005315D01*
X001269Y005340D01*
X001294Y005340D01*
X001294Y005315D01*
X001222Y005340D02*
X001222Y005441D01*
X001122Y005340D01*
X001147Y005315D01*
X001197Y005315D01*
X001222Y005340D01*
X001122Y005340D02*
X001122Y005441D01*
X001147Y005466D01*
X001197Y005466D01*
X001222Y005441D01*
X001343Y005416D02*
X001393Y005466D01*
X001393Y005315D01*
X001490Y005340D02*
X001515Y005315D01*
X001590Y005315D01*
X001590Y005416D01*
X001637Y005391D02*
X001687Y005391D01*
X001637Y005315D02*
X001637Y005466D01*
X001737Y005466D01*
X001662Y005589D02*
X001612Y005589D01*
X001587Y005614D01*
X001687Y005714D01*
X001662Y005739D01*
X001612Y005739D01*
X001587Y005714D01*
X001587Y005614D01*
X001540Y005589D02*
X001440Y005589D01*
X001490Y005589D02*
X001490Y005739D01*
X001440Y005689D01*
X001393Y005714D02*
X001368Y005739D01*
X001318Y005739D01*
X001293Y005714D01*
X001293Y005614D01*
X001318Y005589D01*
X001368Y005589D01*
X001393Y005614D01*
X001490Y005416D02*
X001490Y005340D01*
X001662Y005589D02*
X001687Y005614D01*
X001687Y005714D01*
X001637Y006339D02*
X001637Y006489D01*
X001737Y006489D01*
X001687Y006414D02*
X001637Y006414D01*
X001590Y006414D02*
X001590Y006339D01*
X001590Y006414D02*
X001565Y006439D01*
X001490Y006439D01*
X001490Y006339D01*
X001443Y006364D02*
X001418Y006339D01*
X001368Y006339D01*
X001343Y006364D01*
X001443Y006464D01*
X001443Y006364D01*
X001443Y006464D02*
X001418Y006489D01*
X001368Y006489D01*
X001343Y006464D01*
X001343Y006364D01*
X001295Y006339D02*
X001195Y006339D01*
X001245Y006339D02*
X001245Y006489D01*
X001195Y006439D01*
X004163Y005162D02*
X004163Y005062D01*
X004313Y005062D01*
X004313Y005014D02*
X004238Y005014D01*
X004213Y004989D01*
X004213Y004914D01*
X004313Y004914D01*
X004313Y004867D02*
X004313Y004767D01*
X004213Y004867D01*
X004188Y004867D01*
X004163Y004842D01*
X004163Y004792D01*
X004188Y004767D01*
X004288Y004718D02*
X004313Y004718D01*
X004313Y004693D01*
X004288Y004693D01*
X004288Y004718D01*
X004313Y004646D02*
X004313Y004546D01*
X004213Y004646D01*
X004188Y004646D01*
X004163Y004621D01*
X004163Y004571D01*
X004188Y004546D01*
X004238Y005062D02*
X004238Y005112D01*
X004913Y005087D02*
X004938Y005112D01*
X004963Y005112D01*
X004988Y005087D01*
X004988Y005037D01*
X004963Y005012D01*
X004938Y005012D01*
X004913Y005037D01*
X004913Y005087D01*
X004988Y005087D02*
X005013Y005112D01*
X005038Y005112D01*
X005063Y005087D01*
X005063Y005037D01*
X005038Y005012D01*
X005013Y005012D01*
X004988Y005037D01*
X005038Y004964D02*
X005063Y004939D01*
X005063Y004889D01*
X005038Y004864D01*
X004938Y004864D01*
X004913Y004889D01*
X004913Y004939D01*
X004938Y004964D01*
X005432Y005305D02*
X005432Y005380D01*
X005457Y005405D01*
X005507Y005405D01*
X005532Y005380D01*
X005532Y005305D01*
X005582Y005305D02*
X005432Y005305D01*
X005532Y005355D02*
X005582Y005405D01*
X005557Y005453D02*
X005582Y005478D01*
X005582Y005528D01*
X005557Y005553D01*
X005507Y005553D01*
X005482Y005528D01*
X005482Y005503D01*
X005507Y005453D01*
X005432Y005453D01*
X005432Y005553D01*
X006182Y005576D02*
X006182Y005476D01*
X006182Y005576D02*
X006207Y005576D01*
X006307Y005476D01*
X006332Y005476D01*
X006332Y005428D02*
X006332Y005403D01*
X006307Y005403D01*
X006307Y005428D01*
X006332Y005428D01*
X006332Y005330D02*
X006182Y005330D01*
X006257Y005255D01*
X006257Y005355D01*
X006282Y005624D02*
X006182Y005724D01*
X006182Y005624D02*
X006332Y005624D01*
X006257Y005649D02*
X006332Y005724D01*
X011015Y001799D02*
X011015Y001749D01*
X011040Y001724D01*
X011015Y001799D02*
X011040Y001824D01*
X011065Y001824D01*
X011165Y001724D01*
X011165Y001824D01*
X011165Y001677D02*
X011165Y001577D01*
X011165Y001627D02*
X011015Y001627D01*
X011065Y001577D01*
X011040Y001530D02*
X011015Y001505D01*
X011015Y001455D01*
X011040Y001430D01*
X011140Y001430D01*
X011165Y001455D01*
X011165Y001505D01*
X011140Y001530D01*
D17*
X011838Y003871D02*
X012338Y003871D01*
X012588Y004121D01*
X012838Y003871D01*
X013338Y003871D01*
X013588Y004121D01*
X013588Y004621D01*
X013338Y004871D01*
X012838Y004871D01*
X012588Y004621D01*
X012338Y004871D01*
X011838Y004871D01*
X011588Y004621D01*
X011588Y004121D01*
X011838Y003871D01*
X011838Y004954D02*
X012338Y004954D01*
X012588Y005204D01*
X012838Y004954D01*
X013338Y004954D01*
X013588Y005204D01*
X013588Y005704D01*
X013338Y005954D01*
X012838Y005954D01*
X012588Y005704D01*
X012338Y005954D01*
X011838Y005954D01*
X011588Y005704D01*
X011588Y005204D01*
X011838Y004954D01*
X003939Y004784D02*
X003939Y004646D01*
X003801Y004646D01*
X002633Y003910D02*
X002486Y004050D01*
X002502Y004646D02*
X002364Y004646D01*
X002364Y004784D01*
X001557Y004076D02*
X001320Y004076D01*
X001320Y003839D01*
X001320Y002973D02*
X001320Y002737D01*
X001557Y002737D01*
X002423Y002737D02*
X002659Y002737D01*
X002659Y002973D01*
X002364Y006083D02*
X002364Y006221D01*
X002502Y006221D01*
X003801Y006221D02*
X003939Y006083D01*
D18*
X002970Y003842D02*
X002970Y003695D01*
X002823Y003842D01*
X002786Y003842D01*
X002750Y003805D01*
X002750Y003732D01*
X002786Y003695D01*
X002750Y003621D02*
X002933Y003621D01*
X002970Y003584D01*
X002970Y003511D01*
X002933Y003474D01*
X002750Y003474D01*
X001220Y003429D02*
X001220Y003282D01*
X001000Y003282D01*
X001036Y003208D02*
X001073Y003208D01*
X001110Y003171D01*
X001146Y003208D01*
X001183Y003208D01*
X001220Y003171D01*
X001220Y003098D01*
X001183Y003061D01*
X001183Y002987D02*
X001220Y002950D01*
X001220Y002877D01*
X001183Y002840D01*
X001146Y002840D01*
X001110Y002877D01*
X001110Y002950D01*
X001146Y002987D01*
X001183Y002987D01*
X001110Y002950D02*
X001073Y002987D01*
X001036Y002987D01*
X001000Y002950D01*
X001000Y002877D01*
X001036Y002840D01*
X001073Y002840D01*
X001110Y002877D01*
X001146Y002766D02*
X001110Y002729D01*
X001110Y002656D01*
X001073Y002619D01*
X001036Y002619D01*
X001000Y002656D01*
X001000Y002729D01*
X001036Y002766D01*
X001073Y002766D01*
X001110Y002729D01*
X001146Y002766D02*
X001183Y002766D01*
X001220Y002729D01*
X001220Y002656D01*
X001183Y002619D01*
X001146Y002619D01*
X001110Y002656D01*
X001110Y002545D02*
X001183Y002545D01*
X001220Y002508D01*
X001220Y002435D01*
X001183Y002398D01*
X001110Y002398D02*
X001073Y002472D01*
X001073Y002508D01*
X001110Y002545D01*
X001000Y002545D02*
X001000Y002398D01*
X001110Y002398D01*
X001183Y002324D02*
X001220Y002287D01*
X001220Y002214D01*
X001183Y002177D01*
X001036Y002177D01*
X001000Y002214D01*
X001000Y002287D01*
X001036Y002324D01*
X001000Y002103D02*
X001220Y002103D01*
X001220Y001956D02*
X001000Y001956D01*
X001073Y002030D01*
X001000Y002103D01*
X001000Y001882D02*
X001220Y001882D01*
X001110Y001882D02*
X001110Y001735D01*
X001220Y001735D02*
X001000Y001735D01*
X001036Y003061D02*
X001000Y003098D01*
X001000Y003171D01*
X001036Y003208D01*
X001110Y003171D02*
X001110Y003135D01*
X001073Y003503D02*
X001110Y003540D01*
X001110Y003613D01*
X001146Y003650D01*
X001183Y003650D01*
X001220Y003613D01*
X001220Y003540D01*
X001183Y003503D01*
X001073Y003503D02*
X001036Y003503D01*
X001000Y003540D01*
X001000Y003613D01*
X001036Y003650D01*
X001000Y003724D02*
X001073Y003798D01*
X001000Y003871D01*
X001220Y003871D01*
X001220Y003945D02*
X001220Y004055D01*
X001183Y004092D01*
X001036Y004092D01*
X001000Y004055D01*
X001000Y003945D01*
X001220Y003945D01*
X001220Y003724D02*
X001000Y003724D01*
D19*
X003289Y002914D03*
X005887Y005650D03*
D20*
X008820Y005867D03*
M02*
