G75*
G70*
%OFA0B0*%
%FSLAX24Y24*%
%IPPOS*%
%LPD*%
%AMOC8*
5,1,8,0,0,1.08239X$1,22.5*
%
%ADD10C,0.0740*%
%ADD11R,0.0500X0.0500*%
%ADD12C,0.0396*%
%ADD13C,0.0100*%
%ADD14C,0.0160*%
%ADD15C,0.0240*%
D10*
X012088Y004234D03*
X012088Y005316D03*
X013088Y005316D03*
X013088Y004234D03*
D11*
X012876Y002718D03*
X012376Y002718D03*
X011754Y002096D03*
X011754Y001596D03*
X011754Y001096D03*
X013376Y002718D03*
D12*
X000887Y001793D03*
X002462Y001793D03*
X002462Y001301D03*
X003269Y003564D03*
X004805Y003013D03*
X005887Y004450D03*
X005809Y005986D03*
X007856Y004864D03*
X009490Y004765D03*
X010159Y005474D03*
X010317Y004765D03*
X010179Y002423D03*
X010710Y002423D03*
X009096Y001182D03*
X000513Y006655D03*
X013269Y013860D03*
D13*
X012360Y006045D02*
X009490Y006045D01*
X009490Y004765D01*
X010159Y005474D02*
X011931Y005474D01*
X012088Y005316D01*
X012360Y006045D02*
X013088Y005316D01*
X010710Y002639D02*
X010710Y002423D01*
X010179Y002423D02*
X010179Y002167D01*
X009096Y001182D01*
X006380Y001301D02*
X002462Y001301D01*
X002462Y001793D02*
X000887Y001793D01*
X003269Y003564D02*
X005887Y003564D01*
X005887Y004450D01*
X007856Y004864D02*
X007915Y004942D01*
X007915Y005001D01*
D14*
X007206Y005986D02*
X005809Y005986D01*
X005809Y006655D01*
X004608Y006458D02*
X013860Y006458D01*
X013880Y003387D01*
X011124Y003387D01*
X011124Y000631D01*
X004628Y000631D01*
X011124Y000631D01*
X011124Y000790D02*
X004627Y000790D01*
X004626Y000948D02*
X008852Y000948D01*
X008809Y000991D02*
X008905Y000896D01*
X009029Y000844D01*
X009163Y000844D01*
X009288Y000896D01*
X009383Y000991D01*
X009434Y001115D01*
X009434Y001233D01*
X010252Y001977D01*
X010257Y001977D01*
X010310Y002029D01*
X010365Y002079D01*
X010365Y002084D01*
X010369Y002088D01*
X010369Y002135D01*
X010370Y002136D01*
X010465Y002231D01*
X010517Y002355D01*
X010517Y002490D01*
X010465Y002614D01*
X010370Y002709D01*
X010246Y002761D01*
X010111Y002761D01*
X009987Y002709D01*
X009892Y002614D01*
X009841Y002490D01*
X009841Y002355D01*
X009892Y002231D01*
X009928Y002195D01*
X009179Y001514D01*
X009163Y001521D01*
X009029Y001521D01*
X008905Y001469D01*
X008809Y001374D01*
X008758Y001250D01*
X008758Y001115D01*
X008809Y000991D01*
X008761Y001107D02*
X004626Y001107D01*
X004625Y001265D02*
X008764Y001265D01*
X008859Y001424D02*
X004625Y001424D01*
X004624Y001582D02*
X009253Y001582D01*
X009428Y001741D02*
X004624Y001741D01*
X004623Y001899D02*
X009602Y001899D01*
X009776Y002058D02*
X004623Y002058D01*
X004622Y002216D02*
X009907Y002216D01*
X009841Y002375D02*
X004622Y002375D01*
X004621Y002533D02*
X009859Y002533D01*
X009970Y002692D02*
X004621Y002692D01*
X004620Y002850D02*
X011124Y002850D01*
X011124Y002692D02*
X010388Y002692D01*
X010499Y002533D02*
X011124Y002533D01*
X011124Y002375D02*
X010517Y002375D01*
X010451Y002216D02*
X011124Y002216D01*
X011124Y002058D02*
X010341Y002058D01*
X010167Y001899D02*
X011124Y001899D01*
X011124Y001741D02*
X009993Y001741D01*
X009818Y001582D02*
X011124Y001582D01*
X011124Y001424D02*
X009644Y001424D01*
X009470Y001265D02*
X011124Y001265D01*
X011124Y001107D02*
X009431Y001107D01*
X009340Y000948D02*
X011124Y000948D01*
X011124Y003009D02*
X004620Y003009D01*
X004619Y003167D02*
X011124Y003167D01*
X011124Y003326D02*
X004618Y003326D01*
X004618Y003374D02*
X005966Y003374D01*
X006077Y003486D01*
X006077Y004163D01*
X006079Y004164D01*
X006174Y004259D01*
X006226Y004383D01*
X006226Y004517D01*
X006174Y004642D01*
X006079Y004737D01*
X005955Y004788D01*
X005820Y004788D01*
X005696Y004737D01*
X005601Y004642D01*
X005549Y004517D01*
X005549Y004383D01*
X005601Y004259D01*
X005696Y004164D01*
X005697Y004163D01*
X005697Y003754D01*
X004617Y003754D01*
X004608Y006458D01*
X004608Y006337D02*
X013861Y006337D01*
X013862Y006179D02*
X012494Y006179D01*
X012439Y006235D02*
X009411Y006235D01*
X009300Y006123D01*
X009300Y005052D01*
X009298Y005052D01*
X009203Y004957D01*
X009152Y004832D01*
X009152Y004698D01*
X009203Y004574D01*
X009298Y004478D01*
X009423Y004427D01*
X009557Y004427D01*
X009681Y004478D01*
X009776Y004574D01*
X009828Y004698D01*
X009828Y004832D01*
X009776Y004957D01*
X009681Y005052D01*
X009680Y005052D01*
X009680Y005855D01*
X012281Y005855D01*
X012619Y005517D01*
X012588Y005442D01*
X012521Y005605D01*
X012377Y005749D01*
X012190Y005826D01*
X011987Y005826D01*
X011799Y005749D01*
X011714Y005664D01*
X010446Y005664D01*
X010446Y005665D01*
X010351Y005760D01*
X010226Y005812D01*
X010092Y005812D01*
X009968Y005760D01*
X009872Y005665D01*
X009821Y005541D01*
X009821Y005407D01*
X009872Y005282D01*
X009968Y005187D01*
X010092Y005136D01*
X010226Y005136D01*
X010351Y005187D01*
X010446Y005282D01*
X010446Y005284D01*
X011578Y005284D01*
X011578Y005215D01*
X011656Y005027D01*
X011799Y004884D01*
X011987Y004806D01*
X012190Y004806D01*
X012377Y004884D01*
X012521Y005027D01*
X012588Y005191D01*
X012656Y005027D01*
X012799Y004884D01*
X012987Y004806D01*
X013190Y004806D01*
X013377Y004884D01*
X013521Y005027D01*
X013598Y005215D01*
X013598Y005418D01*
X013521Y005605D01*
X013377Y005749D01*
X013190Y005826D01*
X012987Y005826D01*
X012888Y005785D01*
X012439Y006235D01*
X012653Y006020D02*
X013863Y006020D01*
X013864Y005862D02*
X012811Y005862D01*
X012591Y005545D02*
X012546Y005545D01*
X012433Y005703D02*
X012422Y005703D01*
X012538Y005069D02*
X012638Y005069D01*
X012772Y004911D02*
X012404Y004911D01*
X012377Y004666D02*
X012190Y004744D01*
X011987Y004744D01*
X011799Y004666D01*
X011656Y004523D01*
X011578Y004335D01*
X011578Y004132D01*
X011656Y003945D01*
X011799Y003801D01*
X006077Y003801D01*
X006077Y003643D02*
X013878Y003643D01*
X013877Y003801D02*
X013429Y003801D01*
X013446Y003814D02*
X013508Y003875D01*
X013559Y003945D01*
X013598Y004023D01*
X013625Y004105D01*
X013638Y004190D01*
X013638Y004214D01*
X013108Y004214D01*
X013108Y004254D01*
X013068Y004254D01*
X013068Y004784D01*
X013045Y004784D01*
X012959Y004770D01*
X012877Y004743D01*
X012800Y004704D01*
X012730Y004653D01*
X012669Y004592D01*
X012618Y004522D01*
X012578Y004445D01*
X012567Y004410D01*
X012521Y004523D01*
X012377Y004666D01*
X012449Y004594D02*
X012671Y004594D01*
X012575Y004435D02*
X012557Y004435D01*
X012905Y004752D02*
X009828Y004752D01*
X009795Y004911D02*
X011772Y004911D01*
X011638Y005069D02*
X009680Y005069D01*
X009680Y005228D02*
X009927Y005228D01*
X009829Y005386D02*
X009680Y005386D01*
X009680Y005545D02*
X009822Y005545D01*
X009910Y005703D02*
X009680Y005703D01*
X009300Y005703D02*
X004610Y005703D01*
X004611Y005545D02*
X009300Y005545D01*
X009300Y005386D02*
X004611Y005386D01*
X004612Y005228D02*
X009300Y005228D01*
X009300Y005069D02*
X004613Y005069D01*
X004613Y004911D02*
X009184Y004911D01*
X009152Y004752D02*
X006042Y004752D01*
X006194Y004594D02*
X009195Y004594D01*
X009403Y004435D02*
X006226Y004435D01*
X006182Y004277D02*
X011578Y004277D01*
X011584Y004118D02*
X006077Y004118D01*
X006077Y003960D02*
X011650Y003960D01*
X011799Y003801D02*
X011987Y003724D01*
X012190Y003724D01*
X012377Y003801D01*
X012748Y003801D01*
X012730Y003814D02*
X012800Y003763D01*
X012877Y003724D01*
X012959Y003697D01*
X013045Y003684D01*
X013068Y003684D01*
X013068Y004214D01*
X013108Y004214D01*
X013108Y003684D01*
X013131Y003684D01*
X013217Y003697D01*
X013299Y003724D01*
X013376Y003763D01*
X013446Y003814D01*
X013566Y003960D02*
X013876Y003960D01*
X013875Y004118D02*
X013627Y004118D01*
X013638Y004254D02*
X013638Y004277D01*
X013625Y004362D01*
X013598Y004445D01*
X013559Y004522D01*
X013508Y004592D01*
X013446Y004653D01*
X013376Y004704D01*
X013299Y004743D01*
X013217Y004770D01*
X013131Y004784D01*
X013108Y004784D01*
X013108Y004254D01*
X013638Y004254D01*
X013638Y004277D02*
X013874Y004277D01*
X013873Y004435D02*
X013601Y004435D01*
X013506Y004594D02*
X013872Y004594D01*
X013871Y004752D02*
X013272Y004752D01*
X013108Y004752D02*
X013068Y004752D01*
X013068Y004594D02*
X013108Y004594D01*
X013108Y004435D02*
X013068Y004435D01*
X013068Y004277D02*
X013108Y004277D01*
X013108Y004118D02*
X013068Y004118D01*
X013068Y003960D02*
X013108Y003960D01*
X013108Y003801D02*
X013068Y003801D01*
X012730Y003814D02*
X012669Y003875D01*
X012618Y003945D01*
X012578Y004023D01*
X012567Y004057D01*
X012521Y003945D01*
X012377Y003801D01*
X012527Y003960D02*
X012610Y003960D01*
X011727Y004594D02*
X009785Y004594D01*
X009577Y004435D02*
X011620Y004435D01*
X011578Y005228D02*
X010391Y005228D01*
X010408Y005703D02*
X011754Y005703D01*
X013422Y005703D02*
X013865Y005703D01*
X013866Y005545D02*
X013546Y005545D01*
X013598Y005386D02*
X013867Y005386D01*
X013868Y005228D02*
X013598Y005228D01*
X013538Y005069D02*
X013869Y005069D01*
X013870Y004911D02*
X013404Y004911D01*
X013879Y003484D02*
X006076Y003484D01*
X005697Y003801D02*
X004617Y003801D01*
X004616Y003960D02*
X005697Y003960D01*
X005697Y004118D02*
X004616Y004118D01*
X004615Y004277D02*
X005593Y004277D01*
X005549Y004435D02*
X004615Y004435D01*
X004614Y004594D02*
X005581Y004594D01*
X005733Y004752D02*
X004614Y004752D01*
X004610Y005862D02*
X009300Y005862D01*
X009300Y006020D02*
X004609Y006020D01*
X004609Y006179D02*
X009355Y006179D01*
X004618Y003374D02*
X004628Y000631D01*
D15*
X013565Y006064D02*
X013525Y013879D01*
X013269Y013860D01*
M02*
