G75*
G70*
%OFA0B0*%
%FSLAX24Y24*%
%IPPOS*%
%LPD*%
%AMOC8*
5,1,8,0,0,1.08239X$1,22.5*
%
%ADD10R,1.1417X0.0394*%
%ADD11R,1.0630X0.4724*%
%ADD12R,0.2047X0.2047*%
%ADD13C,0.0118*%
%ADD14R,0.0260X0.0300*%
%ADD15R,0.0433X0.0394*%
%ADD16R,0.0110X0.0256*%
%ADD17R,0.0256X0.0110*%
%ADD18R,0.0394X0.0433*%
%ADD19R,0.0118X0.0315*%
%ADD20R,0.0315X0.0118*%
%ADD21R,0.0394X0.0394*%
%ADD22C,0.0740*%
%ADD23R,0.0500X0.0500*%
%ADD24C,0.0160*%
%ADD25C,0.0100*%
%ADD26C,0.0120*%
%ADD27C,0.0240*%
%ADD28C,0.0396*%
D10*
X006990Y007107D03*
X006990Y013997D03*
D11*
X006990Y010552D03*
D12*
X007718Y003682D03*
D13*
X007620Y004922D02*
X007620Y005080D01*
X007817Y005080D02*
X007817Y004922D01*
X008013Y004922D02*
X008013Y005080D01*
X008210Y005080D02*
X008210Y004922D01*
X008407Y004922D02*
X008407Y005080D01*
X008604Y005080D02*
X008604Y004922D01*
X008801Y004922D02*
X008801Y005080D01*
X008958Y004765D02*
X009116Y004765D01*
X009116Y004568D02*
X008958Y004568D01*
X008958Y004371D02*
X009116Y004371D01*
X009116Y004174D02*
X008958Y004174D01*
X008958Y003977D02*
X009116Y003977D01*
X009116Y003780D02*
X008958Y003780D01*
X008958Y003583D02*
X009116Y003583D01*
X009116Y003387D02*
X008958Y003387D01*
X008958Y003190D02*
X009116Y003190D01*
X009116Y002993D02*
X008958Y002993D01*
X008958Y002796D02*
X009116Y002796D01*
X009116Y002599D02*
X008958Y002599D01*
X008801Y002442D02*
X008801Y002284D01*
X008604Y002284D02*
X008604Y002442D01*
X008407Y002442D02*
X008407Y002284D01*
X008210Y002284D02*
X008210Y002442D01*
X008013Y002442D02*
X008013Y002284D01*
X007817Y002284D02*
X007817Y002442D01*
X007620Y002442D02*
X007620Y002284D01*
X007423Y002284D02*
X007423Y002442D01*
X007226Y002442D02*
X007226Y002284D01*
X007029Y002284D02*
X007029Y002442D01*
X006832Y002442D02*
X006832Y002284D01*
X006635Y002284D02*
X006635Y002442D01*
X006478Y002599D02*
X006320Y002599D01*
X006320Y002796D02*
X006478Y002796D01*
X006478Y002993D02*
X006320Y002993D01*
X006320Y003190D02*
X006478Y003190D01*
X006478Y003387D02*
X006320Y003387D01*
X006320Y003583D02*
X006478Y003583D01*
X006478Y003780D02*
X006320Y003780D01*
X006320Y003977D02*
X006478Y003977D01*
X006478Y004174D02*
X006320Y004174D01*
X006320Y004371D02*
X006478Y004371D01*
X006478Y004568D02*
X006320Y004568D01*
X006320Y004765D02*
X006478Y004765D01*
X006635Y004922D02*
X006635Y005080D01*
X006832Y005080D02*
X006832Y004922D01*
X007029Y004922D02*
X007029Y005080D01*
X007226Y005080D02*
X007226Y004922D01*
X007423Y004922D02*
X007423Y005080D01*
D14*
X006934Y001560D03*
X006534Y001560D03*
X006534Y001040D03*
X006934Y001040D03*
D15*
X007423Y001300D03*
X008092Y001300D03*
X006045Y001300D03*
X005376Y001300D03*
X005651Y002501D03*
X004982Y002501D03*
X004982Y003387D03*
X005651Y003387D03*
X007206Y005867D03*
X007876Y005867D03*
X008486Y005867D03*
X009155Y005867D03*
X010927Y006083D03*
X010927Y005414D03*
X010769Y003780D03*
X010100Y003780D03*
X001714Y005020D03*
X001045Y005020D03*
X001045Y006044D03*
X001714Y006044D03*
D16*
X001694Y003946D03*
X001891Y003946D03*
X002088Y003946D03*
X002285Y003946D03*
X002285Y002867D03*
X002088Y002867D03*
X001891Y002867D03*
X001694Y002867D03*
D17*
X001450Y003111D03*
X001450Y003308D03*
X001450Y003505D03*
X001450Y003702D03*
X002529Y003702D03*
X002529Y003505D03*
X002529Y003308D03*
X002529Y003111D03*
D18*
X003289Y003249D03*
X003289Y002580D03*
X004096Y002580D03*
X004096Y003249D03*
X004608Y004469D03*
X004608Y005139D03*
X005887Y005316D03*
X005887Y005985D03*
X001754Y002225D03*
X001754Y001556D03*
X000887Y002461D03*
X000887Y003131D03*
X009844Y001851D03*
X009844Y001182D03*
X010710Y001182D03*
X010710Y001851D03*
D19*
X003643Y004646D03*
X003446Y004646D03*
X003250Y004646D03*
X003053Y004646D03*
X002856Y004646D03*
X002659Y004646D03*
X002659Y006221D03*
X002856Y006221D03*
X003053Y006221D03*
X003250Y006221D03*
X003446Y006221D03*
X003643Y006221D03*
D20*
X003939Y005926D03*
X003939Y005729D03*
X003939Y005532D03*
X003939Y005335D03*
X003939Y005139D03*
X003939Y004942D03*
X002364Y004942D03*
X002364Y005139D03*
X002364Y005335D03*
X002364Y005532D03*
X002364Y005729D03*
X002364Y005926D03*
D21*
X003151Y005434D03*
D22*
X012088Y005454D03*
X013088Y005454D03*
X013088Y004371D03*
X012088Y004371D03*
D23*
X012376Y002855D03*
X012876Y002855D03*
X013376Y002855D03*
X011754Y002233D03*
X011754Y001733D03*
X011754Y001233D03*
D24*
X002817Y001064D02*
X000513Y001064D01*
X000513Y003426D01*
X000513Y004213D01*
X000513Y008308D01*
X001754Y008308D01*
X001754Y010434D01*
X006990Y010552D01*
X006990Y007107D02*
X004982Y007107D01*
X004982Y006359D01*
X005887Y006536D02*
X006340Y006536D01*
X010238Y006536D01*
X011458Y006536D01*
X013250Y006536D01*
X013250Y008308D01*
X012187Y008308D01*
D25*
X011458Y006536D02*
X011458Y005001D01*
X012088Y004371D01*
X010927Y004922D02*
X010927Y005414D01*
X010612Y004961D02*
X010415Y005158D01*
X010415Y006083D01*
X010927Y006083D01*
X010238Y005611D02*
X010002Y005394D01*
X009785Y005394D01*
X009313Y005867D01*
X009155Y005867D01*
X009450Y006261D02*
X009864Y005828D01*
X009450Y006261D02*
X008486Y006261D01*
X008486Y005867D01*
X008210Y005867D01*
X008210Y005001D01*
X008407Y005001D02*
X008407Y005276D01*
X009313Y005276D01*
X009490Y005099D01*
X009352Y004371D02*
X009037Y004371D01*
X009037Y004174D02*
X009647Y004174D01*
X009864Y004391D01*
X010238Y004233D02*
X010769Y003780D01*
X010395Y003524D02*
X010395Y003229D01*
X010395Y003524D02*
X010100Y003780D01*
X009057Y003780D01*
X009037Y003800D01*
X009037Y003780D01*
X009037Y003800D02*
X009037Y003977D01*
X009352Y004371D02*
X010238Y005257D01*
X010612Y004961D02*
X010612Y004391D01*
X009569Y003583D02*
X010297Y002855D01*
X012376Y002855D01*
X012876Y002855D01*
X013376Y002855D01*
X011754Y002233D02*
X011754Y002225D01*
X011360Y002619D01*
X010238Y002619D01*
X009470Y003387D01*
X009037Y003387D01*
X009037Y003583D02*
X009569Y003583D01*
X009411Y002993D02*
X009037Y002993D01*
X009037Y003190D01*
X009037Y002796D02*
X009332Y002796D01*
X009332Y001713D01*
X007423Y001713D01*
X007423Y001300D01*
X007163Y001040D01*
X006934Y001040D01*
X006537Y001044D02*
X006934Y001560D01*
X006534Y001560D02*
X006517Y001560D01*
X006517Y001891D01*
X009037Y001891D01*
X009037Y002599D01*
X009411Y002993D02*
X009785Y002619D01*
X009844Y002560D01*
X009844Y001851D01*
X010710Y001851D01*
X010710Y001182D02*
X009844Y001182D01*
X009175Y001182D01*
X008624Y001300D02*
X008092Y001300D01*
X008407Y002068D02*
X006084Y002068D01*
X005651Y002068D01*
X004096Y002068D01*
X004096Y002580D01*
X004096Y002068D02*
X002817Y002068D01*
X002817Y001064D01*
X002462Y001438D02*
X002088Y001438D01*
X002088Y002867D01*
X001891Y002867D02*
X001891Y002166D01*
X001754Y002225D01*
X001694Y002580D02*
X001419Y002580D01*
X001419Y001556D01*
X001754Y001556D01*
X001891Y001674D01*
X001754Y001556D02*
X001793Y001438D01*
X002088Y001438D01*
X002462Y001930D02*
X002462Y002383D01*
X002285Y002383D01*
X002285Y002867D01*
X002529Y003111D02*
X002817Y003111D01*
X002817Y002580D01*
X003289Y002580D01*
X002817Y002580D02*
X002817Y002068D01*
X001694Y002580D02*
X001694Y002867D01*
X001450Y003111D02*
X000887Y003131D01*
X000927Y003131D01*
X000513Y003406D02*
X000513Y003426D01*
X000513Y004213D02*
X001694Y004213D01*
X002088Y004213D01*
X002305Y004450D01*
X002659Y004450D01*
X002659Y004646D01*
X002659Y005729D01*
X002364Y005729D01*
X002088Y005729D01*
X002088Y006044D01*
X001714Y006044D01*
X002364Y005532D02*
X001045Y005532D01*
X001045Y006044D01*
X001045Y007107D01*
X004982Y007107D01*
X003643Y007087D01*
X003643Y006221D01*
X003643Y004646D01*
X003643Y004469D01*
X004608Y004469D01*
X004943Y004056D02*
X004155Y004056D01*
X003978Y004233D01*
X003368Y004233D01*
X003368Y003702D01*
X003269Y003603D01*
X003269Y003249D01*
X003289Y003249D01*
X002817Y003702D02*
X002974Y003859D01*
X002817Y003702D02*
X002529Y003702D01*
X002285Y003946D02*
X002285Y004076D01*
X002443Y004233D01*
X003368Y004233D01*
X004096Y003249D02*
X004844Y002501D01*
X004982Y002501D01*
X004982Y003387D01*
X004982Y003761D01*
X005257Y004036D01*
X005730Y004036D01*
X005651Y003583D02*
X005651Y003387D01*
X005651Y003583D02*
X006399Y003583D01*
X006399Y003387D02*
X006084Y003387D01*
X006084Y002068D01*
X005651Y002068D02*
X005651Y002501D01*
X006305Y001560D02*
X006045Y001300D01*
X006305Y001560D02*
X006517Y001560D01*
X006537Y001044D02*
X006537Y000922D01*
X005356Y000922D01*
X005356Y001300D01*
X004864Y001300D01*
X005356Y001300D02*
X005376Y001300D01*
X006534Y001040D02*
X006537Y001044D01*
X008407Y002068D02*
X008407Y002363D01*
X009844Y001182D02*
X009864Y001202D01*
X011754Y001233D02*
X011754Y001733D01*
X011754Y002225D01*
X008486Y005867D02*
X007876Y005867D01*
X008013Y005335D02*
X007226Y005335D01*
X006340Y005335D01*
X006340Y006536D01*
X005887Y006536D02*
X005887Y005985D01*
X005395Y005926D02*
X005395Y004725D01*
X005887Y004725D01*
X005887Y004568D01*
X006399Y004568D01*
X006399Y004371D02*
X005179Y004371D01*
X005179Y004292D01*
X004943Y004056D01*
X005179Y004371D02*
X005179Y005729D01*
X003939Y005729D01*
X003939Y005926D02*
X005395Y005926D01*
X005887Y005316D02*
X005887Y004725D01*
X004687Y005198D02*
X004608Y005139D01*
X003939Y005139D01*
X002364Y005139D02*
X002069Y005139D01*
X002069Y004548D01*
X001045Y004548D01*
X001045Y005020D01*
X001045Y005532D01*
X001714Y005335D02*
X001714Y005020D01*
X001714Y005335D02*
X002364Y005335D01*
X002088Y004213D02*
X002088Y003946D01*
X001694Y003946D02*
X001694Y004213D01*
X000887Y002461D02*
X000887Y001930D01*
X006694Y005867D02*
X007206Y005867D01*
X007226Y005335D02*
X007226Y005001D01*
X007817Y005001D02*
X007817Y004391D01*
X007718Y004292D01*
X008013Y005001D02*
X008013Y005335D01*
X008486Y005867D02*
X008486Y005887D01*
D26*
X010238Y005611D02*
X010238Y004233D01*
X010238Y005611D02*
X010238Y006536D01*
D27*
X013269Y013997D02*
X006990Y013997D01*
D28*
X013269Y013997D03*
X006694Y005867D03*
X005887Y004725D03*
X005730Y004036D03*
X007108Y004292D03*
X007108Y003682D03*
X007718Y003682D03*
X007718Y004292D03*
X008328Y004292D03*
X008328Y003682D03*
X008328Y003072D03*
X007718Y003072D03*
X007108Y003072D03*
X008624Y001300D03*
X009175Y001182D03*
X009785Y002619D03*
X010395Y003229D03*
X010612Y004391D03*
X010927Y004922D03*
X009864Y004391D03*
X009490Y005099D03*
X009864Y005828D03*
X004982Y006359D03*
X002974Y003859D03*
X002462Y001930D03*
X002462Y001438D03*
X000887Y001930D03*
X004864Y001300D03*
M02*
