G75*
G70*
%OFA0B0*%
%FSLAX24Y24*%
%IPPOS*%
%LPD*%
%AMOC8*
5,1,8,0,0,1.08239X$1,22.5*
%
%ADD10OC8,0.0630*%
%ADD11C,0.0740*%
%ADD12C,0.0160*%
D10*
X006000Y001500D03*
X007000Y001500D03*
X008000Y001500D03*
X009000Y001500D03*
X010000Y001500D03*
X011000Y001500D03*
X012000Y001500D03*
X013000Y001500D03*
X014000Y001500D03*
X015000Y001500D03*
X015000Y019500D03*
X014000Y019500D03*
X013000Y019500D03*
X012000Y019500D03*
X011000Y019500D03*
X010000Y019500D03*
X009000Y019500D03*
X008000Y019500D03*
X007000Y019500D03*
X006000Y019500D03*
D11*
X003050Y017500D03*
X002950Y016500D03*
X002050Y016500D03*
X001950Y015500D03*
X002050Y014500D03*
X002950Y014500D03*
X003050Y015500D03*
X001950Y017500D03*
X002050Y018500D03*
X002950Y018500D03*
X013106Y016513D03*
X013104Y015607D03*
X014104Y015507D03*
X015104Y015607D03*
X015106Y016513D03*
X014106Y016613D03*
X017000Y019550D03*
X018000Y019450D03*
X019000Y019550D03*
D12*
X018000Y019450D02*
X017070Y019450D01*
X016970Y019550D01*
X017000Y019550D01*
X016970Y019550D02*
X016470Y019550D01*
X015080Y018160D01*
X013520Y018160D01*
X013100Y017740D01*
X013100Y016519D01*
X013106Y016513D01*
X013104Y015607D02*
X013100Y015603D01*
X008317Y015603D01*
X004460Y019460D01*
X002320Y019460D01*
X002040Y019180D01*
X002040Y018510D01*
X002050Y018500D01*
X001950Y015500D02*
X001940Y015490D01*
X001310Y015490D01*
X001070Y015250D01*
X001070Y014030D01*
X001610Y013490D01*
X016160Y013490D01*
X016410Y013740D01*
X016410Y016010D01*
X015907Y016513D01*
X015106Y016513D01*
X015104Y015607D02*
X015104Y014894D01*
X014700Y014490D01*
X002960Y014490D01*
X002950Y014500D01*
M02*
