G75*
G70*
%OFA0B0*%
%FSLAX24Y24*%
%IPPOS*%
%LPD*%
%AMOC8*
5,1,8,0,0,1.08239X$1,22.5*
%
%ADD10C,0.0000*%
%ADD11C,0.0050*%
%ADD12C,0.0030*%
%ADD13C,0.0030*%
%ADD14C,0.0220*%
%ADD15C,0.0010*%
%ADD16C,0.0040*%
%ADD17C,0.0080*%
%ADD18C,0.0020*%
%ADD19R,0.0300X0.0180*%
%ADD20R,0.0180X0.0300*%
D10*
X000100Y000690D02*
X000100Y014469D01*
X013880Y014469D01*
X013880Y000690D01*
X000100Y000690D01*
D11*
X001830Y005316D02*
X001905Y005391D01*
X001905Y005466D01*
X001830Y005542D01*
X001455Y005542D01*
X001455Y005617D02*
X001455Y005466D01*
X001455Y005777D02*
X001455Y006002D01*
X001530Y006077D01*
X001680Y006077D01*
X001755Y006002D01*
X001755Y005777D01*
X001905Y005777D02*
X001455Y005777D01*
X001680Y006237D02*
X001680Y006537D01*
X001455Y006462D02*
X001680Y006237D01*
X001905Y006462D02*
X001455Y006462D01*
X000730Y007481D02*
X001754Y008623D01*
X013250Y012599D01*
X013250Y007481D01*
X000730Y007481D01*
X000730Y008465D02*
X012226Y012442D01*
X013250Y013583D01*
X000730Y013583D01*
X000730Y008465D01*
X006360Y004961D02*
X006360Y002245D01*
X009076Y002245D01*
X009076Y004961D01*
X006360Y004961D01*
X006936Y001700D02*
X007556Y001700D01*
X007556Y000900D01*
X006936Y000900D01*
X006936Y001700D01*
X011544Y005014D02*
X011619Y004939D01*
X011694Y004939D01*
X011769Y005014D01*
X011769Y005389D01*
X011694Y005389D02*
X011844Y005389D01*
X012004Y005389D02*
X012229Y005389D01*
X012304Y005314D01*
X012304Y005164D01*
X012229Y005089D01*
X012004Y005089D01*
X012004Y004939D02*
X012004Y005389D01*
X012465Y005314D02*
X012540Y005389D01*
X012690Y005389D01*
X012765Y005314D01*
X012765Y005239D01*
X012690Y005164D01*
X012765Y005089D01*
X012765Y005014D01*
X012690Y004939D01*
X012540Y004939D01*
X012465Y005014D01*
X012615Y005164D02*
X012690Y005164D01*
X012765Y005943D02*
X012465Y005943D01*
X012765Y006243D01*
X012765Y006318D01*
X012690Y006393D01*
X012540Y006393D01*
X012465Y006318D01*
X012304Y006318D02*
X012304Y006168D01*
X012229Y006093D01*
X012004Y006093D01*
X012004Y005943D02*
X012004Y006393D01*
X012229Y006393D01*
X012304Y006318D01*
X011844Y006393D02*
X011694Y006393D01*
X011769Y006393D02*
X011769Y006018D01*
X011694Y005943D01*
X011619Y005943D01*
X011544Y006018D01*
X011619Y006947D02*
X011694Y006947D01*
X011769Y007022D01*
X011769Y007397D01*
X011694Y007397D02*
X011844Y007397D01*
X012004Y007397D02*
X012229Y007397D01*
X012304Y007322D01*
X012304Y007172D01*
X012229Y007097D01*
X012004Y007097D01*
X012004Y006947D02*
X012004Y007397D01*
X012465Y007247D02*
X012615Y007397D01*
X012615Y006947D01*
X012465Y006947D02*
X012765Y006947D01*
X011619Y006947D02*
X011544Y007022D01*
D12*
X006574Y004674D02*
X006576Y004691D01*
X006582Y004707D01*
X006591Y004721D01*
X006603Y004733D01*
X006618Y004741D01*
X006634Y004746D01*
X006651Y004747D01*
X006668Y004744D01*
X006683Y004737D01*
X006697Y004727D01*
X006708Y004714D01*
X006716Y004699D01*
X006720Y004682D01*
X006720Y004666D01*
X006716Y004649D01*
X006708Y004634D01*
X006697Y004621D01*
X006684Y004611D01*
X006668Y004604D01*
X006651Y004601D01*
X006634Y004602D01*
X006618Y004607D01*
X006603Y004615D01*
X006591Y004627D01*
X006582Y004641D01*
X006576Y004657D01*
X006574Y004674D01*
D13*
X006811Y005248D02*
X006934Y005248D01*
X006996Y005310D01*
X006996Y005618D01*
X007117Y005495D02*
X007241Y005618D01*
X007241Y005248D01*
X007364Y005248D02*
X007117Y005248D01*
X006811Y005248D02*
X006749Y005310D01*
X006749Y005618D01*
X006767Y001977D02*
X006706Y001915D01*
X006706Y001668D01*
X006767Y001606D01*
X006891Y001606D01*
X006952Y001668D01*
X007074Y001668D02*
X007136Y001606D01*
X007259Y001606D01*
X007321Y001668D01*
X007442Y001791D02*
X007689Y001791D01*
X007810Y001668D02*
X007872Y001606D01*
X007996Y001606D01*
X008057Y001668D01*
X008057Y001730D01*
X007996Y001791D01*
X007934Y001791D01*
X007996Y001791D02*
X008057Y001853D01*
X008057Y001915D01*
X007996Y001977D01*
X007872Y001977D01*
X007810Y001915D01*
X007627Y001977D02*
X007442Y001791D01*
X007321Y001915D02*
X007259Y001977D01*
X007136Y001977D01*
X007074Y001915D01*
X007074Y001668D01*
X006952Y001915D02*
X006891Y001977D01*
X006767Y001977D01*
X007627Y001977D02*
X007627Y001606D01*
X008179Y001668D02*
X008426Y001915D01*
X008426Y001668D01*
X008364Y001606D01*
X008241Y001606D01*
X008179Y001668D01*
X008179Y001915D01*
X008241Y001977D01*
X008364Y001977D01*
X008426Y001915D01*
X008547Y001977D02*
X008794Y001977D01*
X008915Y001977D02*
X008915Y001791D01*
X009039Y001853D01*
X009101Y001853D01*
X009162Y001791D01*
X009162Y001668D01*
X009101Y001606D01*
X008977Y001606D01*
X008915Y001668D01*
X008671Y001791D02*
X008547Y001791D01*
X008547Y001606D02*
X008547Y001977D01*
X008915Y001977D02*
X009162Y001977D01*
X009284Y001853D02*
X009407Y001977D01*
X009407Y001606D01*
X009284Y001606D02*
X009531Y001606D01*
X009652Y001668D02*
X009714Y001606D01*
X009837Y001606D01*
X009899Y001668D01*
X009899Y001730D01*
X009837Y001791D01*
X009776Y001791D01*
X009837Y001791D02*
X009899Y001853D01*
X009899Y001915D01*
X009837Y001977D01*
X009714Y001977D01*
X009652Y001915D01*
X010020Y001977D02*
X010267Y001977D01*
X010267Y001915D01*
X010020Y001668D01*
X010020Y001606D01*
D14*
X009856Y001477D02*
X009832Y001477D01*
X010698Y001477D02*
X010722Y001477D01*
X008309Y001292D02*
X008309Y001268D01*
X006183Y001268D02*
X006183Y001292D01*
X004010Y002835D02*
X003986Y002835D01*
X004596Y004725D02*
X004620Y004725D01*
X001706Y004883D02*
X001682Y004883D01*
X001682Y006143D02*
X001706Y006143D01*
X000899Y002717D02*
X000875Y002717D01*
X001742Y001812D02*
X001766Y001812D01*
X007541Y005776D02*
X007541Y005800D01*
D15*
X007418Y006093D02*
X007368Y006093D01*
X007343Y006118D01*
X007296Y006118D02*
X007271Y006093D01*
X007221Y006093D01*
X007196Y006118D01*
X007196Y006218D01*
X007221Y006243D01*
X007271Y006243D01*
X007296Y006218D01*
X007343Y006243D02*
X007343Y006168D01*
X007393Y006193D01*
X007418Y006193D01*
X007443Y006168D01*
X007443Y006118D01*
X007418Y006093D01*
X007443Y006243D02*
X007343Y006243D01*
X007392Y005493D02*
X007367Y005468D01*
X007392Y005493D02*
X007442Y005493D01*
X007467Y005468D01*
X007467Y005443D01*
X007367Y005343D01*
X007467Y005343D01*
X007514Y005343D02*
X007514Y005443D01*
X007589Y005443D01*
X007614Y005418D01*
X007614Y005343D01*
X007662Y005343D02*
X007662Y005493D01*
X007762Y005493D01*
X007712Y005418D02*
X007662Y005418D01*
X007318Y005368D02*
X007318Y005343D01*
X007293Y005343D01*
X007293Y005368D01*
X007318Y005368D01*
X007246Y005343D02*
X007146Y005343D01*
X007246Y005443D01*
X007246Y005468D01*
X007221Y005493D01*
X007171Y005493D01*
X007146Y005468D01*
X006332Y005525D02*
X006182Y005525D01*
X006182Y005478D02*
X006207Y005478D01*
X006307Y005378D01*
X006332Y005378D01*
X006332Y005329D02*
X006332Y005304D01*
X006307Y005304D01*
X006307Y005329D01*
X006332Y005329D01*
X006332Y005232D02*
X006182Y005232D01*
X006257Y005157D01*
X006257Y005257D01*
X006182Y005378D02*
X006182Y005478D01*
X006257Y005550D02*
X006332Y005625D01*
X006282Y005525D02*
X006182Y005625D01*
X005582Y005429D02*
X005582Y005379D01*
X005557Y005354D01*
X005582Y005307D02*
X005532Y005257D01*
X005532Y005282D02*
X005532Y005207D01*
X005582Y005207D02*
X005432Y005207D01*
X005432Y005282D01*
X005457Y005307D01*
X005507Y005307D01*
X005532Y005282D01*
X005457Y005354D02*
X005432Y005379D01*
X005432Y005429D01*
X005457Y005454D01*
X005482Y005454D01*
X005507Y005429D01*
X005532Y005454D01*
X005557Y005454D01*
X005582Y005429D01*
X005507Y005429D02*
X005507Y005404D01*
X005063Y005008D02*
X005063Y004958D01*
X005038Y004933D01*
X005013Y004933D01*
X004988Y004958D01*
X004988Y005008D01*
X005013Y005033D01*
X005038Y005033D01*
X005063Y005008D01*
X004988Y005008D02*
X004963Y005033D01*
X004938Y005033D01*
X004913Y005008D01*
X004913Y004958D01*
X004938Y004933D01*
X004963Y004933D01*
X004988Y004958D01*
X005038Y004886D02*
X005063Y004861D01*
X005063Y004811D01*
X005038Y004786D01*
X004938Y004786D01*
X004913Y004811D01*
X004913Y004861D01*
X004938Y004886D01*
X004313Y004936D02*
X004238Y004936D01*
X004213Y004911D01*
X004213Y004836D01*
X004313Y004836D01*
X004313Y004788D02*
X004313Y004688D01*
X004213Y004788D01*
X004188Y004788D01*
X004163Y004763D01*
X004163Y004713D01*
X004188Y004688D01*
X004288Y004640D02*
X004313Y004640D01*
X004313Y004615D01*
X004288Y004615D01*
X004288Y004640D01*
X004313Y004567D02*
X004313Y004467D01*
X004213Y004567D01*
X004188Y004567D01*
X004163Y004542D01*
X004163Y004492D01*
X004188Y004467D01*
X004163Y004983D02*
X004163Y005083D01*
X004238Y005033D02*
X004238Y004983D01*
X004313Y004983D02*
X004163Y004983D01*
X004293Y003130D02*
X004293Y003030D01*
X004443Y003030D01*
X004443Y002982D02*
X004368Y002982D01*
X004343Y002957D01*
X004343Y002882D01*
X004443Y002882D01*
X004418Y002835D02*
X004443Y002810D01*
X004443Y002760D01*
X004418Y002735D01*
X004318Y002835D01*
X004418Y002835D01*
X004418Y002735D02*
X004318Y002735D01*
X004293Y002760D01*
X004293Y002810D01*
X004318Y002835D01*
X004318Y002688D02*
X004418Y002588D01*
X004443Y002613D01*
X004443Y002663D01*
X004418Y002688D01*
X004318Y002688D01*
X004293Y002663D01*
X004293Y002613D01*
X004318Y002588D01*
X004418Y002588D01*
X004443Y002541D02*
X004443Y002440D01*
X004443Y002490D02*
X004293Y002490D01*
X004343Y002440D01*
X004368Y003030D02*
X004368Y003080D01*
X003693Y002885D02*
X003693Y002785D01*
X003693Y002738D02*
X003693Y002638D01*
X003693Y002688D02*
X003543Y002688D01*
X003593Y002638D01*
X003568Y002591D02*
X003543Y002565D01*
X003543Y002515D01*
X003568Y002490D01*
X003668Y002490D01*
X003693Y002515D01*
X003693Y002565D01*
X003668Y002591D01*
X003593Y002785D02*
X003543Y002835D01*
X003693Y002835D01*
X003646Y002896D02*
X003495Y002896D01*
X003495Y002971D01*
X003520Y002996D01*
X003570Y002996D01*
X003596Y002971D01*
X003596Y002896D01*
X003596Y002946D02*
X003646Y002996D01*
X003570Y003043D02*
X003570Y003143D01*
X003495Y003118D02*
X003646Y003118D01*
X003570Y003043D02*
X003495Y003118D01*
X002896Y003093D02*
X002745Y003093D01*
X002745Y003046D02*
X002770Y003046D01*
X002871Y002946D01*
X002896Y002946D01*
X002896Y002897D02*
X002896Y002872D01*
X002871Y002872D01*
X002871Y002897D01*
X002896Y002897D01*
X002896Y002800D02*
X002745Y002800D01*
X002820Y002725D01*
X002820Y002825D01*
X002745Y002946D02*
X002745Y003046D01*
X002820Y003118D02*
X002896Y003193D01*
X002846Y003093D02*
X002745Y003193D01*
X002184Y002120D02*
X002209Y002095D01*
X002209Y002045D01*
X002184Y002019D01*
X002209Y001972D02*
X002209Y001872D01*
X002209Y001922D02*
X002058Y001922D01*
X002108Y001872D01*
X002083Y001825D02*
X002058Y001800D01*
X002058Y001750D01*
X002083Y001725D01*
X002184Y001725D01*
X002209Y001750D01*
X002209Y001800D01*
X002184Y001825D01*
X002083Y002019D02*
X002058Y002045D01*
X002058Y002095D01*
X002083Y002120D01*
X002108Y002120D01*
X002133Y002095D01*
X002159Y002120D01*
X002184Y002120D01*
X002133Y002095D02*
X002133Y002070D01*
X001459Y002069D02*
X001308Y002069D01*
X001308Y002170D01*
X001383Y002120D02*
X001383Y002069D01*
X001358Y002022D02*
X001459Y002022D01*
X001459Y001947D01*
X001434Y001922D01*
X001358Y001922D01*
X001333Y001875D02*
X001434Y001775D01*
X001459Y001775D01*
X001459Y001726D02*
X001459Y001701D01*
X001434Y001701D01*
X001434Y001726D01*
X001459Y001726D01*
X001459Y001629D02*
X001308Y001629D01*
X001383Y001554D01*
X001383Y001654D01*
X001308Y001775D02*
X001308Y001875D01*
X001333Y001875D01*
X000592Y002386D02*
X000592Y002486D01*
X000592Y002533D02*
X000492Y002633D01*
X000467Y002633D01*
X000442Y002608D01*
X000442Y002558D01*
X000467Y002533D01*
X000467Y002486D02*
X000442Y002461D01*
X000442Y002411D01*
X000467Y002386D01*
X000467Y002486D02*
X000492Y002486D01*
X000592Y002386D01*
X000592Y002533D02*
X000592Y002633D01*
X000567Y002680D02*
X000467Y002780D01*
X000567Y002780D01*
X000592Y002755D01*
X000592Y002705D01*
X000567Y002680D01*
X000467Y002680D01*
X000442Y002705D01*
X000442Y002755D01*
X000467Y002780D01*
X000492Y002828D02*
X000492Y002903D01*
X000517Y002928D01*
X000592Y002928D01*
X000592Y002975D02*
X000442Y002975D01*
X000442Y003075D01*
X000517Y003025D02*
X000517Y002975D01*
X000492Y002828D02*
X000592Y002828D01*
X001192Y002828D02*
X001342Y002828D01*
X001342Y002778D02*
X001342Y002878D01*
X001342Y002925D02*
X001242Y003025D01*
X001217Y003025D01*
X001192Y003000D01*
X001192Y002950D01*
X001217Y002925D01*
X001192Y002828D02*
X001242Y002778D01*
X001217Y002730D02*
X001192Y002705D01*
X001192Y002655D01*
X001217Y002630D01*
X001317Y002630D01*
X001342Y002655D01*
X001342Y002705D01*
X001317Y002730D01*
X001342Y002925D02*
X001342Y003025D01*
X001299Y004551D02*
X001249Y004601D01*
X001399Y004601D01*
X001399Y004551D02*
X001399Y004651D01*
X001374Y004698D02*
X001274Y004798D01*
X001374Y004798D01*
X001399Y004773D01*
X001399Y004723D01*
X001374Y004698D01*
X001274Y004698D01*
X001249Y004723D01*
X001249Y004773D01*
X001274Y004798D01*
X001274Y004846D02*
X001249Y004871D01*
X001249Y004921D01*
X001274Y004946D01*
X001374Y004846D01*
X001399Y004871D01*
X001399Y004921D01*
X001374Y004946D01*
X001274Y004946D01*
X001299Y004993D02*
X001299Y005068D01*
X001324Y005093D01*
X001399Y005093D01*
X001399Y005140D02*
X001249Y005140D01*
X001249Y005240D01*
X001324Y005190D02*
X001324Y005140D01*
X001299Y004993D02*
X001399Y004993D01*
X001374Y004846D02*
X001274Y004846D01*
X001999Y004968D02*
X002024Y004943D01*
X002124Y004943D01*
X002149Y004968D01*
X002149Y005018D01*
X002124Y005043D01*
X002124Y005090D02*
X002149Y005115D01*
X002149Y005165D01*
X002124Y005190D01*
X002024Y005190D01*
X001999Y005165D01*
X001999Y005115D01*
X002024Y005090D01*
X002049Y005090D01*
X002074Y005115D01*
X002074Y005190D01*
X002024Y005043D02*
X001999Y005018D01*
X001999Y004968D01*
X002039Y005748D02*
X001989Y005798D01*
X002139Y005798D01*
X002139Y005748D02*
X002139Y005848D01*
X002114Y005895D02*
X002014Y005995D01*
X002114Y005995D01*
X002139Y005970D01*
X002139Y005920D01*
X002114Y005895D01*
X002014Y005895D01*
X001989Y005920D01*
X001989Y005970D01*
X002014Y005995D01*
X002039Y006042D02*
X002039Y006117D01*
X002064Y006142D01*
X002139Y006142D01*
X002139Y006189D02*
X001989Y006189D01*
X001989Y006290D01*
X002064Y006240D02*
X002064Y006189D01*
X002039Y006042D02*
X002139Y006042D01*
X001389Y006045D02*
X001389Y005945D01*
X001389Y005995D02*
X001239Y005995D01*
X001289Y005945D01*
X001264Y005898D02*
X001239Y005873D01*
X001239Y005823D01*
X001264Y005798D01*
X001364Y005798D01*
X001389Y005823D01*
X001389Y005873D01*
X001364Y005898D01*
X001364Y006092D02*
X001264Y006092D01*
X001239Y006117D01*
X001239Y006167D01*
X001264Y006192D01*
X001364Y006092D01*
X001389Y006117D01*
X001389Y006167D01*
X001364Y006192D01*
X001264Y006192D01*
X003298Y002090D02*
X003373Y002090D01*
X003398Y002065D01*
X003398Y002015D01*
X003373Y001990D01*
X003298Y001990D01*
X003348Y001990D02*
X003398Y001940D01*
X003446Y001965D02*
X003471Y001940D01*
X003521Y001940D01*
X003546Y001965D01*
X003546Y002015D01*
X003521Y002040D01*
X003496Y002040D01*
X003446Y002015D01*
X003446Y002090D01*
X003546Y002090D01*
X003298Y002090D02*
X003298Y001940D01*
X003259Y001514D02*
X003259Y001363D01*
X003359Y001363D01*
X003323Y001340D02*
X003273Y001340D01*
X003248Y001315D01*
X003323Y001340D02*
X003348Y001315D01*
X003348Y001290D01*
X003248Y001190D01*
X003348Y001190D01*
X003396Y001190D02*
X003396Y001215D01*
X003496Y001315D01*
X003496Y001340D01*
X003396Y001340D01*
X003406Y001363D02*
X003506Y001363D01*
X003554Y001363D02*
X003554Y001514D01*
X003629Y001514D01*
X003654Y001489D01*
X003654Y001388D01*
X003629Y001363D01*
X003554Y001363D01*
X003568Y001340D02*
X003618Y001340D01*
X003643Y001315D01*
X003543Y001215D01*
X003568Y001190D01*
X003618Y001190D01*
X003643Y001215D01*
X003643Y001315D01*
X003690Y001340D02*
X003690Y001190D01*
X003690Y001240D02*
X003765Y001240D01*
X003790Y001265D01*
X003790Y001315D01*
X003765Y001340D01*
X003690Y001340D01*
X003701Y001363D02*
X003801Y001363D01*
X003751Y001363D02*
X003751Y001514D01*
X003701Y001464D01*
X003568Y001340D02*
X003543Y001315D01*
X003543Y001215D01*
X003740Y001240D02*
X003790Y001190D01*
X003456Y001439D02*
X003406Y001439D01*
X003406Y001514D02*
X003406Y001363D01*
X003406Y001514D02*
X003506Y001514D01*
X005998Y001575D02*
X006098Y001675D01*
X006098Y001700D01*
X006073Y001725D01*
X006023Y001725D01*
X005998Y001700D01*
X005998Y001575D02*
X006098Y001575D01*
X006146Y001575D02*
X006146Y001600D01*
X006246Y001700D01*
X006246Y001725D01*
X006146Y001725D01*
X006293Y001675D02*
X006293Y001525D01*
X006293Y001575D02*
X006368Y001575D01*
X006393Y001600D01*
X006393Y001650D01*
X006368Y001675D01*
X006293Y001675D01*
X006440Y001650D02*
X006490Y001650D01*
X006440Y001575D02*
X006440Y001725D01*
X006540Y001725D01*
X006440Y000975D02*
X006440Y000825D01*
X006390Y000825D02*
X006490Y000825D01*
X006390Y000925D02*
X006440Y000975D01*
X006343Y000950D02*
X006318Y000975D01*
X006268Y000975D01*
X006243Y000950D01*
X006243Y000850D01*
X006268Y000825D01*
X006318Y000825D01*
X006343Y000850D01*
X007914Y000835D02*
X008014Y000935D01*
X008014Y000960D01*
X007989Y000985D01*
X007939Y000985D01*
X007914Y000960D01*
X007914Y000835D02*
X008014Y000835D01*
X008061Y000835D02*
X008061Y000860D01*
X008161Y000960D01*
X008161Y000985D01*
X008061Y000985D01*
X008208Y000935D02*
X008208Y000785D01*
X008208Y000835D02*
X008283Y000835D01*
X008308Y000860D01*
X008308Y000910D01*
X008283Y000935D01*
X008208Y000935D01*
X008356Y000910D02*
X008406Y000910D01*
X008356Y000835D02*
X008356Y000985D01*
X008456Y000985D01*
X008211Y001585D02*
X008111Y001585D01*
X008211Y001685D01*
X008211Y001710D01*
X008186Y001735D01*
X008136Y001735D01*
X008111Y001710D01*
X008064Y001710D02*
X008039Y001735D01*
X007989Y001735D01*
X007964Y001710D01*
X007964Y001610D01*
X007989Y001585D01*
X008039Y001585D01*
X008064Y001610D01*
X009399Y001515D02*
X009424Y001540D01*
X009524Y001440D01*
X009549Y001465D01*
X009549Y001515D01*
X009524Y001540D01*
X009424Y001540D01*
X009399Y001515D02*
X009399Y001465D01*
X009424Y001440D01*
X009524Y001440D01*
X009524Y001393D02*
X009549Y001368D01*
X009549Y001318D01*
X009524Y001293D01*
X009424Y001393D01*
X009524Y001393D01*
X009424Y001393D02*
X009399Y001368D01*
X009399Y001318D01*
X009424Y001293D01*
X009524Y001293D01*
X009549Y001246D02*
X009549Y001146D01*
X009549Y001196D02*
X009399Y001196D01*
X009449Y001146D01*
X009449Y001588D02*
X009449Y001663D01*
X009474Y001688D01*
X009549Y001688D01*
X009549Y001735D02*
X009399Y001735D01*
X009399Y001835D01*
X009474Y001785D02*
X009474Y001735D01*
X009449Y001588D02*
X009549Y001588D01*
X010149Y001613D02*
X010149Y001563D01*
X010174Y001538D01*
X010274Y001538D01*
X010299Y001563D01*
X010299Y001613D01*
X010274Y001638D01*
X010274Y001685D02*
X010299Y001710D01*
X010299Y001760D01*
X010274Y001785D01*
X010249Y001785D01*
X010224Y001760D01*
X010224Y001685D01*
X010274Y001685D01*
X010315Y001663D02*
X010340Y001688D01*
X010415Y001688D01*
X010415Y001735D02*
X010265Y001735D01*
X010265Y001835D01*
X010340Y001785D02*
X010340Y001735D01*
X010315Y001663D02*
X010315Y001588D01*
X010415Y001588D01*
X010390Y001540D02*
X010415Y001515D01*
X010415Y001465D01*
X010390Y001440D01*
X010290Y001540D01*
X010390Y001540D01*
X010390Y001440D02*
X010290Y001440D01*
X010265Y001465D01*
X010265Y001515D01*
X010290Y001540D01*
X010174Y001638D02*
X010149Y001613D01*
X010224Y001685D02*
X010174Y001735D01*
X010149Y001785D01*
X010265Y001343D02*
X010415Y001343D01*
X010415Y001293D02*
X010415Y001393D01*
X010315Y001293D02*
X010265Y001343D01*
X011015Y001563D02*
X011040Y001538D01*
X011140Y001538D01*
X011165Y001563D01*
X011165Y001613D01*
X011140Y001638D01*
X011140Y001685D02*
X011165Y001685D01*
X011140Y001685D02*
X011040Y001785D01*
X011015Y001785D01*
X011015Y001685D01*
X011040Y001638D02*
X011015Y001613D01*
X011015Y001563D01*
X010742Y003404D02*
X010642Y003404D01*
X010595Y003404D02*
X010495Y003404D01*
X010495Y003554D01*
X010642Y003504D02*
X010692Y003554D01*
X010692Y003404D01*
X010692Y004154D02*
X010692Y004304D01*
X010692Y004229D02*
X010792Y004229D01*
X010792Y004304D02*
X010792Y004154D01*
X010645Y004154D02*
X010645Y004229D01*
X010620Y004254D01*
X010545Y004254D01*
X010545Y004154D01*
X010350Y004154D02*
X010250Y004154D01*
X010350Y004254D01*
X010350Y004279D01*
X010325Y004304D01*
X010275Y004304D01*
X010250Y004279D01*
X010153Y004304D02*
X010153Y004154D01*
X010103Y004154D02*
X010203Y004154D01*
X010103Y004254D02*
X010153Y004304D01*
X008820Y005343D02*
X008745Y005418D01*
X008720Y005393D02*
X008820Y005493D01*
X008720Y005493D02*
X008720Y005343D01*
X008673Y005468D02*
X008573Y005368D01*
X008573Y005343D01*
X008501Y005343D02*
X008501Y005493D01*
X008425Y005418D01*
X008526Y005418D01*
X008573Y005493D02*
X008673Y005493D01*
X008673Y005468D01*
X008723Y006093D02*
X008623Y006093D01*
X008723Y006193D01*
X008723Y006218D01*
X008698Y006243D01*
X008648Y006243D01*
X008623Y006218D01*
X008576Y006218D02*
X008576Y006168D01*
X008551Y006143D01*
X008475Y006143D01*
X008475Y006093D02*
X008475Y006243D01*
X008551Y006243D01*
X008576Y006218D01*
X008526Y006143D02*
X008576Y006093D01*
D16*
X010196Y005787D02*
X010503Y005480D01*
X010427Y005556D02*
X010657Y005787D01*
X010657Y005480D02*
X010196Y005480D01*
X010196Y005326D02*
X010273Y005173D01*
X010427Y005019D01*
X010427Y005249D01*
X010503Y005326D01*
X010580Y005326D01*
X010657Y005249D01*
X010657Y005096D01*
X010580Y005019D01*
X010427Y005019D01*
X010427Y004866D02*
X010580Y004866D01*
X010657Y004789D01*
X010657Y004636D01*
X010580Y004559D01*
X010427Y004559D02*
X010350Y004712D01*
X010350Y004789D01*
X010427Y004866D01*
X010196Y004866D02*
X010196Y004559D01*
X010427Y004559D01*
X011196Y005019D02*
X011196Y005249D01*
X011273Y005326D01*
X011427Y005326D01*
X011503Y005249D01*
X011503Y005019D01*
X011503Y005173D02*
X011657Y005326D01*
X011657Y005480D02*
X011657Y005787D01*
X011657Y005633D02*
X011196Y005633D01*
X011350Y005480D01*
X011196Y005019D02*
X011657Y005019D01*
X008226Y002929D02*
X008226Y002622D01*
X007919Y002929D01*
X007919Y002622D01*
X007995Y002468D02*
X007995Y002162D01*
X007765Y002162D02*
X008226Y002162D01*
X008226Y002008D02*
X007765Y002008D01*
X007919Y001855D01*
X007765Y001701D01*
X008226Y001701D01*
X008149Y001087D02*
X008072Y001087D01*
X007995Y001011D01*
X007995Y000780D01*
X008149Y000780D01*
X008226Y000857D01*
X008226Y001011D01*
X008149Y001087D01*
X007842Y000934D02*
X007995Y000780D01*
X007919Y000627D02*
X007842Y000627D01*
X007765Y000550D01*
X007765Y000397D01*
X007842Y000320D01*
X007919Y000627D02*
X008226Y000320D01*
X008226Y000627D01*
X007842Y000934D02*
X007765Y001087D01*
X006726Y001087D02*
X006726Y000780D01*
X006726Y000627D02*
X006265Y000320D01*
X006265Y000627D02*
X006726Y000320D01*
X006419Y000780D02*
X006265Y000934D01*
X006726Y000934D01*
X007765Y002468D02*
X008226Y002468D01*
X005118Y002135D02*
X005118Y002058D01*
X005041Y001981D01*
X005118Y001905D01*
X005118Y001828D01*
X005041Y001751D01*
X004888Y001751D01*
X004811Y001828D01*
X004658Y001828D02*
X004581Y001751D01*
X004428Y001751D01*
X004351Y001828D01*
X004351Y002135D01*
X004428Y002211D01*
X004581Y002211D01*
X004658Y002135D01*
X004811Y002135D02*
X004888Y002211D01*
X005041Y002211D01*
X005118Y002135D01*
X005041Y001981D02*
X004965Y001981D01*
X005041Y002578D02*
X005041Y003038D01*
X004811Y002808D01*
X005118Y002808D01*
X004965Y002981D02*
X004811Y002981D01*
X004658Y002981D02*
X004658Y002751D01*
X004658Y002655D02*
X004581Y002578D01*
X004428Y002578D01*
X004351Y002655D01*
X004351Y002962D01*
X004428Y003038D01*
X004581Y003038D01*
X004658Y002962D01*
X004658Y002981D02*
X004581Y003058D01*
X004351Y003058D01*
X004351Y002751D01*
X004197Y002828D02*
X004121Y002751D01*
X003967Y002751D01*
X003890Y002828D01*
X004197Y003135D01*
X004197Y002828D01*
X003890Y002828D02*
X003890Y003135D01*
X003967Y003211D01*
X004121Y003211D01*
X004197Y003135D01*
X004121Y003578D02*
X003967Y003578D01*
X003890Y003655D01*
X004197Y003962D01*
X004197Y003655D01*
X004121Y003578D01*
X004351Y003578D02*
X004351Y003885D01*
X004581Y003885D01*
X004658Y003808D01*
X004658Y003578D01*
X004811Y003578D02*
X004811Y004038D01*
X005118Y004038D01*
X004965Y003808D02*
X004811Y003808D01*
X004811Y003211D02*
X005118Y003211D01*
X004811Y003211D02*
X004811Y002751D01*
X003890Y003655D02*
X003890Y003962D01*
X003967Y004038D01*
X004121Y004038D01*
X004197Y003962D01*
X003737Y003962D02*
X003430Y003655D01*
X003430Y003578D01*
X003200Y003578D02*
X003200Y004038D01*
X002970Y003808D01*
X003277Y003808D01*
X003430Y004038D02*
X003737Y004038D01*
X003737Y003962D01*
X003737Y003211D02*
X003430Y003211D01*
X003200Y003211D02*
X002970Y002981D01*
X003277Y002981D01*
X003430Y002828D02*
X003430Y002751D01*
X003430Y002828D02*
X003737Y003135D01*
X003737Y003211D01*
X003200Y003211D02*
X003200Y002751D01*
X001997Y002830D02*
X001997Y002983D01*
X001997Y002906D02*
X001537Y002906D01*
X001537Y002830D02*
X001537Y002983D01*
X001537Y003137D02*
X001537Y003444D01*
X001537Y003290D02*
X001997Y003290D01*
X001921Y003597D02*
X001997Y003674D01*
X001997Y003827D01*
X001921Y003904D01*
X001767Y003904D01*
X001767Y003750D01*
X001614Y003597D02*
X001921Y003597D01*
X001614Y003597D02*
X001537Y003674D01*
X001537Y003827D01*
X001614Y003904D01*
X001767Y004057D02*
X001767Y004364D01*
X001614Y004518D02*
X001537Y004595D01*
X001537Y004748D01*
X001614Y004825D01*
X001690Y004825D01*
X001767Y004748D01*
X001844Y004825D01*
X001921Y004825D01*
X001997Y004748D01*
X001997Y004595D01*
X001921Y004518D01*
X001767Y004671D02*
X001767Y004748D01*
X001614Y004978D02*
X001537Y005055D01*
X001537Y005208D01*
X001614Y005285D01*
X001690Y005285D01*
X001997Y004978D01*
X001997Y005285D01*
X001921Y005439D02*
X001614Y005746D01*
X001921Y005746D01*
X001997Y005669D01*
X001997Y005515D01*
X001921Y005439D01*
X001614Y005439D01*
X001537Y005515D01*
X001537Y005669D01*
X001614Y005746D01*
X001614Y005899D02*
X001537Y005976D01*
X001537Y006129D01*
X001614Y006206D01*
X001921Y005899D01*
X001997Y005976D01*
X001997Y006129D01*
X001921Y006206D01*
X001614Y006206D01*
X001614Y005899D02*
X001921Y005899D01*
X004273Y005956D02*
X004273Y006109D01*
X004350Y006186D01*
X004427Y006186D01*
X004503Y006109D01*
X004580Y006186D01*
X004657Y006186D01*
X004734Y006109D01*
X004734Y005956D01*
X004657Y005879D01*
X004657Y005726D02*
X004273Y005726D01*
X004350Y005879D02*
X004273Y005956D01*
X004503Y006033D02*
X004503Y006109D01*
X004657Y005726D02*
X004734Y005649D01*
X004734Y005496D01*
X004657Y005419D01*
X004273Y005419D01*
D17*
X003939Y006005D02*
X003801Y006143D01*
X002502Y006143D02*
X002364Y006143D01*
X002364Y006005D01*
X001210Y005893D02*
X000960Y005643D01*
X001210Y005393D01*
X001210Y004893D01*
X000960Y004643D01*
X000460Y004643D01*
X000210Y004893D01*
X000210Y005393D01*
X000460Y005643D01*
X000210Y005893D01*
X000210Y006393D01*
X000460Y006643D01*
X000960Y006643D01*
X001210Y006393D01*
X001210Y005893D01*
X002364Y004706D02*
X002364Y004568D01*
X002502Y004568D01*
X002486Y003971D02*
X002633Y003831D01*
X002659Y002894D02*
X002659Y002658D01*
X002423Y002658D01*
X001557Y002658D02*
X001320Y002658D01*
X001320Y002894D01*
X001320Y003761D02*
X001320Y003997D01*
X001557Y003997D01*
X003801Y004568D02*
X003939Y004568D01*
X003939Y004706D01*
X003671Y001265D02*
X003671Y001083D01*
X003549Y000991D01*
X003671Y000902D02*
X003671Y001083D01*
X003665Y001093D02*
X003549Y001169D01*
X011549Y003944D02*
X011799Y003694D01*
X012299Y003694D01*
X012549Y003944D01*
X012799Y003694D01*
X013299Y003694D01*
X013549Y003944D01*
X013549Y004444D01*
X013299Y004694D01*
X012799Y004694D01*
X012549Y004444D01*
X012299Y004694D01*
X011799Y004694D01*
X011549Y004444D01*
X011549Y003944D01*
X011799Y004698D02*
X012299Y004698D01*
X012549Y004948D01*
X012799Y004698D01*
X013299Y004698D01*
X013549Y004948D01*
X013549Y005448D01*
X013299Y005698D01*
X012799Y005698D01*
X012549Y005448D01*
X012299Y005698D01*
X011799Y005698D01*
X011549Y005448D01*
X011549Y004948D01*
X011799Y004698D01*
X011799Y005702D02*
X012299Y005702D01*
X012549Y005952D01*
X012799Y005702D01*
X013299Y005702D01*
X013549Y005952D01*
X013549Y006452D01*
X013299Y006702D01*
X012799Y006702D01*
X012549Y006452D01*
X012299Y006702D01*
X011799Y006702D01*
X011549Y006452D01*
X011549Y005952D01*
X011799Y005702D01*
D18*
X002970Y003763D02*
X002970Y003617D01*
X002823Y003763D01*
X002786Y003763D01*
X002750Y003727D01*
X002750Y003653D01*
X002786Y003617D01*
X002750Y003542D02*
X002933Y003542D01*
X002970Y003506D01*
X002970Y003432D01*
X002933Y003396D01*
X002750Y003396D01*
X001220Y003350D02*
X001220Y003204D01*
X001000Y003204D01*
X001036Y003129D02*
X001073Y003129D01*
X001110Y003093D01*
X001146Y003129D01*
X001183Y003129D01*
X001220Y003093D01*
X001220Y003019D01*
X001183Y002983D01*
X001183Y002908D02*
X001220Y002872D01*
X001220Y002798D01*
X001183Y002762D01*
X001146Y002762D01*
X001110Y002798D01*
X001110Y002872D01*
X001146Y002908D01*
X001183Y002908D01*
X001110Y002872D02*
X001073Y002908D01*
X001036Y002908D01*
X001000Y002872D01*
X001000Y002798D01*
X001036Y002762D01*
X001073Y002762D01*
X001110Y002798D01*
X001146Y002687D02*
X001110Y002651D01*
X001110Y002577D01*
X001073Y002541D01*
X001036Y002541D01*
X001000Y002577D01*
X001000Y002651D01*
X001036Y002687D01*
X001073Y002687D01*
X001110Y002651D01*
X001146Y002687D02*
X001183Y002687D01*
X001220Y002651D01*
X001220Y002577D01*
X001183Y002541D01*
X001146Y002541D01*
X001110Y002577D01*
X001110Y002466D02*
X001183Y002466D01*
X001220Y002430D01*
X001220Y002356D01*
X001183Y002320D01*
X001110Y002320D02*
X001073Y002393D01*
X001073Y002430D01*
X001110Y002466D01*
X001000Y002466D02*
X001000Y002320D01*
X001110Y002320D01*
X001183Y002245D02*
X001220Y002209D01*
X001220Y002135D01*
X001183Y002099D01*
X001036Y002099D01*
X001000Y002135D01*
X001000Y002209D01*
X001036Y002245D01*
X001000Y002024D02*
X001220Y002024D01*
X001220Y001878D02*
X001000Y001878D01*
X001073Y001951D01*
X001000Y002024D01*
X001000Y001803D02*
X001220Y001803D01*
X001110Y001803D02*
X001110Y001657D01*
X001220Y001657D02*
X001000Y001657D01*
X001036Y002983D02*
X001000Y003019D01*
X001000Y003093D01*
X001036Y003129D01*
X001110Y003093D02*
X001110Y003056D01*
X001073Y003425D02*
X001110Y003461D01*
X001110Y003535D01*
X001146Y003571D01*
X001183Y003571D01*
X001220Y003535D01*
X001220Y003461D01*
X001183Y003425D01*
X001073Y003425D02*
X001036Y003425D01*
X001000Y003461D01*
X001000Y003535D01*
X001036Y003571D01*
X001000Y003646D02*
X001073Y003719D01*
X001000Y003792D01*
X001220Y003792D01*
X001220Y003867D02*
X001220Y003977D01*
X001183Y004013D01*
X001036Y004013D01*
X001000Y003977D01*
X001000Y003867D01*
X001220Y003867D01*
X001220Y003646D02*
X001000Y003646D01*
D19*
X003191Y002835D03*
X005887Y005552D03*
D20*
X008820Y005788D03*
X003643Y001635D03*
M02*
