G75*
G70*
%OFA0B0*%
%FSLAX24Y24*%
%IPPOS*%
%LPD*%
%AMOC8*
5,1,8,0,0,1.08239X$1,22.5*
%
%ADD10C,0.0740*%
%ADD11R,0.0500X0.0500*%
%ADD12C,0.0396*%
%ADD13C,0.0160*%
%ADD14C,0.0100*%
%ADD15C,0.0240*%
D10*
X000710Y005143D03*
X000710Y006143D03*
X012049Y006202D03*
X013049Y006202D03*
X013049Y005198D03*
X012049Y005198D03*
X012049Y004194D03*
X013049Y004194D03*
D11*
X012876Y002776D03*
X012376Y002776D03*
X011754Y002154D03*
X011754Y001654D03*
X011754Y001154D03*
X013376Y002776D03*
D12*
X000887Y001851D03*
X002462Y001851D03*
X002462Y001359D03*
X004490Y001635D03*
X004943Y001280D03*
X005986Y002324D03*
X005986Y002993D03*
X005986Y003957D03*
X005415Y003957D03*
X005887Y004646D03*
X006694Y005788D03*
X006340Y006457D03*
X007718Y003603D03*
X009490Y005020D03*
X009903Y004430D03*
X010631Y004430D03*
X010927Y004843D03*
X009864Y005749D03*
X010395Y003288D03*
X009706Y002324D03*
X009175Y001143D03*
X013092Y007048D03*
X013446Y014017D03*
X002974Y003780D03*
D13*
X004628Y003701D02*
X005764Y003701D01*
X005783Y003683D02*
X005699Y003766D01*
X005648Y003890D01*
X005648Y004025D01*
X005699Y004149D01*
X005794Y004244D01*
X005919Y004296D01*
X006053Y004296D01*
X006177Y004244D01*
X006272Y004149D01*
X006324Y004025D01*
X006324Y003890D01*
X006272Y003766D01*
X006177Y003671D01*
X006162Y003665D01*
X006157Y003552D01*
X006165Y003490D01*
X006153Y003475D01*
X006152Y003456D01*
X006106Y003415D01*
X006042Y003331D01*
X006053Y003331D01*
X006062Y003327D01*
X006995Y004212D01*
X007049Y004266D01*
X007052Y004266D01*
X007054Y004268D01*
X007130Y004266D01*
X009605Y004266D01*
X009565Y004363D01*
X009565Y004497D01*
X009617Y004621D01*
X009712Y004717D01*
X009836Y004768D01*
X009970Y004768D01*
X010095Y004717D01*
X010190Y004621D01*
X010190Y004620D01*
X010344Y004620D01*
X010345Y004621D01*
X010440Y004717D01*
X010564Y004768D01*
X010699Y004768D01*
X010823Y004717D01*
X010918Y004621D01*
X010970Y004497D01*
X010970Y004363D01*
X010929Y004266D01*
X011539Y004266D01*
X011539Y004295D01*
X011616Y004483D01*
X011649Y004516D01*
X011616Y004516D01*
X011504Y004627D01*
X011045Y005086D01*
X010691Y005086D01*
X010435Y004830D01*
X009777Y004830D01*
X009776Y004829D01*
X009681Y004734D01*
X009557Y004682D01*
X009423Y004682D01*
X009298Y004734D01*
X009203Y004829D01*
X009152Y004953D01*
X009152Y005088D01*
X009203Y005212D01*
X009298Y005307D01*
X009423Y005359D01*
X009557Y005359D01*
X009681Y005307D01*
X009776Y005212D01*
X009777Y005210D01*
X010277Y005210D01*
X010422Y005355D01*
X010533Y005466D01*
X011202Y005466D01*
X011539Y005130D01*
X011539Y005299D01*
X011580Y005398D01*
X011419Y005559D01*
X010151Y005559D01*
X010150Y005557D01*
X010055Y005462D01*
X009931Y005411D01*
X009797Y005411D01*
X009672Y005462D01*
X009577Y005557D01*
X009526Y005682D01*
X009526Y005816D01*
X009577Y005940D01*
X009672Y006035D01*
X009797Y006087D01*
X009931Y006087D01*
X010055Y006035D01*
X010150Y005940D01*
X010151Y005939D01*
X011576Y005939D01*
X011848Y005667D01*
X011928Y005700D01*
X011760Y005769D01*
X011616Y005913D01*
X011539Y006100D01*
X011539Y006303D01*
X011616Y006490D01*
X011760Y006634D01*
X011947Y006712D01*
X012150Y006712D01*
X012338Y006634D01*
X012481Y006490D01*
X012528Y006378D01*
X012539Y006413D01*
X012578Y006490D01*
X012629Y006560D01*
X012691Y006621D01*
X012761Y006672D01*
X012838Y006711D01*
X012920Y006738D01*
X013006Y006752D01*
X013029Y006752D01*
X013029Y006222D01*
X013069Y006222D01*
X013069Y006752D01*
X013092Y006752D01*
X013178Y006738D01*
X013260Y006711D01*
X013337Y006672D01*
X013407Y006621D01*
X013468Y006560D01*
X013519Y006490D01*
X013559Y006413D01*
X013585Y006330D01*
X013599Y006245D01*
X013599Y006222D01*
X013069Y006222D01*
X013069Y006182D01*
X013599Y006182D01*
X013599Y006158D01*
X013585Y006073D01*
X013559Y005990D01*
X013519Y005913D01*
X013468Y005843D01*
X013407Y005782D01*
X013337Y005731D01*
X013260Y005692D01*
X013220Y005679D01*
X013338Y005630D01*
X013481Y005487D01*
X013559Y005299D01*
X013559Y005096D01*
X013481Y004909D01*
X013338Y004765D01*
X013170Y004696D01*
X013338Y004626D01*
X013481Y004483D01*
X013559Y004295D01*
X013559Y004092D01*
X013481Y003905D01*
X013338Y003761D01*
X013150Y003684D01*
X012947Y003684D01*
X012819Y003737D01*
X012553Y003504D01*
X012502Y003453D01*
X012494Y003453D01*
X012489Y003448D01*
X012416Y003453D01*
X011703Y003453D01*
X011633Y003446D01*
X011626Y003453D01*
X011616Y003453D01*
X011566Y003502D01*
X011389Y003649D01*
X008840Y003649D01*
X007324Y002134D01*
X006273Y002134D01*
X006272Y002132D01*
X006177Y002037D01*
X006053Y001986D01*
X005919Y001986D01*
X005794Y002037D01*
X005699Y002132D01*
X005648Y002256D01*
X005648Y002391D01*
X005699Y002515D01*
X005794Y002610D01*
X005910Y002658D01*
X005794Y002706D01*
X005699Y002801D01*
X005676Y002858D01*
X004812Y001741D01*
X004828Y001702D01*
X004828Y001567D01*
X004776Y001443D01*
X004681Y001348D01*
X004628Y001326D01*
X004628Y000970D01*
X011124Y000970D01*
X011124Y003446D01*
X013600Y003446D01*
X013600Y007383D01*
X004628Y007383D01*
X004628Y006677D01*
X006082Y006677D01*
X006149Y006744D01*
X006273Y006796D01*
X006407Y006796D01*
X006532Y006744D01*
X006627Y006649D01*
X006678Y006525D01*
X006678Y006390D01*
X006627Y006266D01*
X006532Y006171D01*
X006407Y006119D01*
X006273Y006119D01*
X006149Y006171D01*
X006082Y006237D01*
X004628Y006237D01*
X006082Y006237D01*
X006340Y006457D02*
X002025Y006457D01*
X000710Y005143D01*
X004628Y005128D02*
X009168Y005128D01*
X009152Y004969D02*
X005992Y004969D01*
X005955Y004985D02*
X005820Y004985D01*
X005696Y004933D01*
X005601Y004838D01*
X005600Y004836D01*
X004628Y004836D01*
X004628Y006237D01*
X004628Y006079D02*
X009777Y006079D01*
X009951Y006079D02*
X011548Y006079D01*
X011539Y006237D02*
X006598Y006237D01*
X006678Y006396D02*
X011577Y006396D01*
X011680Y006554D02*
X006666Y006554D01*
X006563Y006713D02*
X012842Y006713D01*
X013029Y006713D02*
X013069Y006713D01*
X013069Y006554D02*
X013029Y006554D01*
X013029Y006396D02*
X013069Y006396D01*
X013069Y006237D02*
X013029Y006237D01*
X012625Y006554D02*
X012417Y006554D01*
X012520Y006396D02*
X012534Y006396D01*
X013255Y006713D02*
X013600Y006713D01*
X013600Y006871D02*
X004628Y006871D01*
X004628Y006713D02*
X006117Y006713D01*
X004628Y007030D02*
X013600Y007030D01*
X013600Y007188D02*
X004628Y007188D01*
X004628Y007347D02*
X013600Y007347D01*
X013600Y006554D02*
X013472Y006554D01*
X013564Y006396D02*
X013600Y006396D01*
X013599Y006237D02*
X013600Y006237D01*
X013586Y006079D02*
X013600Y006079D01*
X013600Y005920D02*
X013523Y005920D01*
X013600Y005762D02*
X013379Y005762D01*
X013364Y005603D02*
X013600Y005603D01*
X013600Y005445D02*
X013498Y005445D01*
X013559Y005286D02*
X013600Y005286D01*
X013600Y005128D02*
X013559Y005128D01*
X013600Y004969D02*
X013506Y004969D01*
X013600Y004811D02*
X013383Y004811D01*
X013274Y004652D02*
X013600Y004652D01*
X013600Y004494D02*
X013470Y004494D01*
X013542Y004335D02*
X013600Y004335D01*
X013600Y004177D02*
X013559Y004177D01*
X013528Y004018D02*
X013600Y004018D01*
X013600Y003860D02*
X013436Y003860D01*
X013600Y003701D02*
X013193Y003701D01*
X012905Y003701D02*
X012779Y003701D01*
X012597Y003543D02*
X013600Y003543D01*
X011628Y004494D02*
X010970Y004494D01*
X010958Y004335D02*
X011555Y004335D01*
X011479Y004652D02*
X010887Y004652D01*
X011162Y004969D02*
X010573Y004969D01*
X010353Y005286D02*
X009702Y005286D01*
X009714Y005445D02*
X004628Y005445D01*
X004628Y005603D02*
X009558Y005603D01*
X009526Y005762D02*
X004628Y005762D01*
X004628Y005920D02*
X009569Y005920D01*
X010013Y005445D02*
X010512Y005445D01*
X011224Y005445D02*
X011533Y005445D01*
X011539Y005286D02*
X011382Y005286D01*
X011321Y004811D02*
X009758Y004811D01*
X009647Y004652D02*
X006226Y004652D01*
X006226Y004714D02*
X006226Y004579D01*
X006174Y004455D01*
X006079Y004360D01*
X005955Y004308D01*
X005820Y004308D01*
X005696Y004360D01*
X005601Y004455D01*
X005600Y004456D01*
X004628Y004456D01*
X004628Y002123D01*
X005779Y003613D01*
X005783Y003683D01*
X005725Y003543D02*
X004628Y003543D01*
X004628Y003384D02*
X005602Y003384D01*
X005480Y003226D02*
X004628Y003226D01*
X004628Y003067D02*
X005357Y003067D01*
X005235Y002909D02*
X004628Y002909D01*
X004628Y002750D02*
X005112Y002750D01*
X004990Y002592D02*
X004628Y002592D01*
X004628Y002433D02*
X004867Y002433D01*
X004745Y002275D02*
X004628Y002275D01*
X004980Y001958D02*
X011124Y001958D01*
X011124Y002116D02*
X009977Y002116D01*
X009993Y002132D02*
X009898Y002037D01*
X009774Y001986D01*
X009639Y001986D01*
X009515Y002037D01*
X009420Y002132D01*
X009368Y002256D01*
X009368Y002391D01*
X009420Y002515D01*
X009515Y002610D01*
X009639Y002662D01*
X009714Y002662D01*
X010078Y003171D01*
X010057Y003221D01*
X010057Y003355D01*
X010109Y003480D01*
X010204Y003575D01*
X010328Y003626D01*
X010463Y003626D01*
X010587Y003575D01*
X010682Y003480D01*
X010733Y003355D01*
X010733Y003221D01*
X010682Y003097D01*
X010587Y003002D01*
X010463Y002950D01*
X010387Y002950D01*
X010024Y002441D01*
X010044Y002391D01*
X010044Y002256D01*
X009993Y002132D01*
X010044Y002275D02*
X011124Y002275D01*
X011124Y002433D02*
X010027Y002433D01*
X010131Y002592D02*
X011124Y002592D01*
X011124Y002750D02*
X010245Y002750D01*
X010358Y002909D02*
X011124Y002909D01*
X011124Y003067D02*
X010653Y003067D01*
X010733Y003226D02*
X011124Y003226D01*
X011124Y003384D02*
X010721Y003384D01*
X010619Y003543D02*
X011517Y003543D01*
X010376Y004652D02*
X010159Y004652D01*
X009565Y004494D02*
X006190Y004494D01*
X006226Y004714D02*
X006174Y004838D01*
X006079Y004933D01*
X005955Y004985D01*
X005783Y004969D02*
X004628Y004969D01*
X004628Y005286D02*
X009277Y005286D01*
X009221Y004811D02*
X006185Y004811D01*
X006020Y004335D02*
X009576Y004335D01*
X010172Y003543D02*
X008734Y003543D01*
X008575Y003384D02*
X010069Y003384D01*
X010057Y003226D02*
X008417Y003226D01*
X008258Y003067D02*
X010004Y003067D01*
X009891Y002909D02*
X008100Y002909D01*
X007941Y002750D02*
X009778Y002750D01*
X009496Y002592D02*
X007783Y002592D01*
X007624Y002433D02*
X009386Y002433D01*
X009368Y002275D02*
X007466Y002275D01*
X007245Y002592D02*
X006196Y002592D01*
X006177Y002610D02*
X006272Y002515D01*
X006273Y002514D01*
X007167Y002514D01*
X008539Y003886D01*
X007203Y003886D01*
X006324Y003052D01*
X006324Y002926D01*
X006272Y002801D01*
X006177Y002706D01*
X006061Y002658D01*
X006177Y002610D01*
X006221Y002750D02*
X007404Y002750D01*
X007562Y002909D02*
X006317Y002909D01*
X006340Y003067D02*
X007721Y003067D01*
X007879Y003226D02*
X006508Y003226D01*
X006675Y003384D02*
X008038Y003384D01*
X008196Y003543D02*
X006842Y003543D01*
X007009Y003701D02*
X008355Y003701D01*
X008513Y003860D02*
X007176Y003860D01*
X006958Y004177D02*
X006245Y004177D01*
X006324Y004018D02*
X006791Y004018D01*
X006624Y003860D02*
X006311Y003860D01*
X006208Y003701D02*
X006457Y003701D01*
X006290Y003543D02*
X006158Y003543D01*
X006122Y003384D02*
X006083Y003384D01*
X005660Y003860D02*
X004628Y003860D01*
X004628Y004018D02*
X005648Y004018D01*
X005727Y004177D02*
X004628Y004177D01*
X004628Y004335D02*
X005755Y004335D01*
X005750Y002750D02*
X005593Y002750D01*
X005470Y002592D02*
X005776Y002592D01*
X005665Y002433D02*
X005347Y002433D01*
X005225Y002275D02*
X005648Y002275D01*
X005715Y002116D02*
X005102Y002116D01*
X004857Y001799D02*
X011124Y001799D01*
X011124Y001641D02*
X004828Y001641D01*
X004793Y001482D02*
X011124Y001482D01*
X011124Y001324D02*
X004628Y001324D01*
X004628Y001165D02*
X011124Y001165D01*
X011124Y001007D02*
X004628Y001007D01*
X006257Y002116D02*
X009435Y002116D01*
X011753Y005762D02*
X011778Y005762D01*
X011613Y005920D02*
X011595Y005920D01*
D14*
X011498Y005749D02*
X012049Y005198D01*
X011694Y004706D02*
X012557Y004706D01*
X013049Y005198D01*
X013049Y004194D02*
X013049Y004190D01*
X012423Y003643D01*
X011694Y003643D01*
X011458Y003839D01*
X008761Y003839D01*
X007246Y002324D01*
X005986Y002324D01*
X005986Y002993D02*
X007128Y004076D01*
X011931Y004076D01*
X012049Y004194D01*
X011694Y004706D02*
X011124Y005276D01*
X010612Y005276D01*
X010356Y005020D01*
X009490Y005020D01*
X009903Y004430D02*
X010631Y004430D01*
X010395Y003288D02*
X009706Y002324D01*
X009372Y001083D02*
X009175Y001143D01*
X005966Y003544D02*
X004490Y001635D01*
X004805Y001241D02*
X004805Y001221D01*
X004943Y001280D01*
X004746Y001083D01*
X003899Y001083D01*
X003624Y001359D01*
X002462Y001359D01*
X002462Y001851D02*
X000887Y001851D01*
X002974Y003780D02*
X003840Y004646D01*
X005887Y004646D01*
X005986Y003957D02*
X005966Y003544D01*
X006773Y005690D02*
X006557Y005828D01*
X006694Y005788D01*
X009864Y005749D02*
X011498Y005749D01*
D15*
X013545Y006418D02*
X013545Y013918D01*
X013446Y014017D01*
M02*
