%
M48
M72
T01C0.0197
T02C0.0236
T03C0.0400
%
T01
X11754Y1154
X11754Y1654
X11754Y2154
X12376Y2776
X12876Y2776
X13376Y2776
T02
X887Y1851
X2462Y1851
X2462Y1359
X4490Y1635
X4943Y1280
X5986Y2324
X5986Y2993
X5986Y3957
X5415Y3957
X5887Y4646
X6694Y5788
X6340Y6457
X7718Y3603
X9490Y5020
X9903Y4430
X10631Y4430
X10927Y4843
X9864Y5749
X10395Y3288
X9706Y2324
X9175Y1143
X13092Y7048
X13446Y14017
X2974Y3780
T03
X710Y5143
X710Y6143
X12049Y6202
X13049Y6202
X13049Y5198
X12049Y5198
X12049Y4194
X13049Y4194
M30
