G75*
G70*
%OFA0B0*%
%FSLAX24Y24*%
%IPPOS*%
%LPD*%
%AMOC8*
5,1,8,0,0,1.08239X$1,22.5*
%
%ADD10R,0.2047X0.2047*%
%ADD11C,0.0118*%
%ADD12R,0.0433X0.0394*%
%ADD13R,0.0110X0.0256*%
%ADD14R,0.0256X0.0110*%
%ADD15R,0.0394X0.0433*%
%ADD16R,0.0118X0.0315*%
%ADD17R,0.0315X0.0118*%
%ADD18R,0.0394X0.0394*%
%ADD19C,0.0740*%
%ADD20R,0.0500X0.0500*%
%ADD21R,1.1417X0.0394*%
%ADD22R,1.0236X0.5512*%
%ADD23R,0.0315X0.0315*%
%ADD24R,0.0260X0.0300*%
%ADD25C,0.0160*%
%ADD26C,0.0100*%
%ADD27C,0.0120*%
%ADD28C,0.0396*%
%ADD29C,0.0240*%
%ADD30C,0.0209*%
D10*
X007718Y003603D03*
D11*
X007620Y002363D02*
X007620Y002205D01*
X007817Y002205D02*
X007817Y002363D01*
X008013Y002363D02*
X008013Y002205D01*
X008210Y002205D02*
X008210Y002363D01*
X008407Y002363D02*
X008407Y002205D01*
X008604Y002205D02*
X008604Y002363D01*
X008801Y002363D02*
X008801Y002205D01*
X008958Y002520D02*
X009116Y002520D01*
X009116Y002717D02*
X008958Y002717D01*
X008958Y002914D02*
X009116Y002914D01*
X009116Y003111D02*
X008958Y003111D01*
X008958Y003308D02*
X009116Y003308D01*
X009116Y003505D02*
X008958Y003505D01*
X008958Y003702D02*
X009116Y003702D01*
X009116Y003898D02*
X008958Y003898D01*
X008958Y004095D02*
X009116Y004095D01*
X009116Y004292D02*
X008958Y004292D01*
X008958Y004489D02*
X009116Y004489D01*
X009116Y004686D02*
X008958Y004686D01*
X008801Y004843D02*
X008801Y005001D01*
X008604Y005001D02*
X008604Y004843D01*
X008407Y004843D02*
X008407Y005001D01*
X008210Y005001D02*
X008210Y004843D01*
X008013Y004843D02*
X008013Y005001D01*
X007817Y005001D02*
X007817Y004843D01*
X007620Y004843D02*
X007620Y005001D01*
X007423Y005001D02*
X007423Y004843D01*
X007226Y004843D02*
X007226Y005001D01*
X007029Y005001D02*
X007029Y004843D01*
X006832Y004843D02*
X006832Y005001D01*
X006635Y005001D02*
X006635Y004843D01*
X006478Y004686D02*
X006320Y004686D01*
X006320Y004489D02*
X006478Y004489D01*
X006478Y004292D02*
X006320Y004292D01*
X006320Y004095D02*
X006478Y004095D01*
X006478Y003898D02*
X006320Y003898D01*
X006320Y003702D02*
X006478Y003702D01*
X006478Y003505D02*
X006320Y003505D01*
X006320Y003308D02*
X006478Y003308D01*
X006478Y003111D02*
X006320Y003111D01*
X006320Y002914D02*
X006478Y002914D01*
X006478Y002717D02*
X006320Y002717D01*
X006320Y002520D02*
X006478Y002520D01*
X006635Y002363D02*
X006635Y002205D01*
X006832Y002205D02*
X006832Y002363D01*
X007029Y002363D02*
X007029Y002205D01*
X007226Y002205D02*
X007226Y002363D01*
X007423Y002363D02*
X007423Y002205D01*
D12*
X007974Y001280D03*
X008643Y001280D03*
X006517Y001280D03*
X005848Y001280D03*
X005336Y002481D03*
X004667Y002481D03*
X004667Y003308D03*
X005336Y003308D03*
X003978Y001635D03*
X003309Y001635D03*
X007206Y005788D03*
X007876Y005788D03*
X008486Y005788D03*
X009155Y005788D03*
X010927Y006005D03*
X010927Y005335D03*
X010769Y003859D03*
X010100Y003859D03*
D13*
X002285Y003867D03*
X002088Y003867D03*
X001891Y003867D03*
X001694Y003867D03*
X001694Y002788D03*
X001891Y002788D03*
X002088Y002788D03*
X002285Y002788D03*
D14*
X002529Y003032D03*
X002529Y003229D03*
X002529Y003426D03*
X002529Y003623D03*
X001450Y003623D03*
X001450Y003426D03*
X001450Y003229D03*
X001450Y003032D03*
D15*
X000887Y003052D03*
X000887Y002383D03*
X001754Y002146D03*
X001754Y001477D03*
X003191Y002501D03*
X003191Y003170D03*
X003998Y003170D03*
X003998Y002501D03*
X004608Y004391D03*
X004608Y005060D03*
X005887Y005217D03*
X005887Y005887D03*
X001694Y005808D03*
X001694Y005217D03*
X001694Y004548D03*
X001694Y006477D03*
X009844Y001812D03*
X009844Y001143D03*
X010710Y001143D03*
X010710Y001812D03*
D16*
X003643Y004568D03*
X003446Y004568D03*
X003250Y004568D03*
X003053Y004568D03*
X002856Y004568D03*
X002659Y004568D03*
X002659Y006143D03*
X002856Y006143D03*
X003053Y006143D03*
X003250Y006143D03*
X003446Y006143D03*
X003643Y006143D03*
D17*
X003939Y005847D03*
X003939Y005650D03*
X003939Y005454D03*
X003939Y005257D03*
X003939Y005060D03*
X003939Y004863D03*
X002364Y004863D03*
X002364Y005060D03*
X002364Y005257D03*
X002364Y005454D03*
X002364Y005650D03*
X002364Y005847D03*
D18*
X003151Y005355D03*
D19*
X000710Y005143D03*
X000710Y006143D03*
X012049Y006202D03*
X013049Y006202D03*
X013049Y005198D03*
X012049Y005198D03*
X012049Y004194D03*
X013049Y004194D03*
D20*
X012876Y002776D03*
X012376Y002776D03*
X011754Y002154D03*
X011754Y001654D03*
X011754Y001154D03*
X013376Y002776D03*
D21*
X006990Y007048D03*
X006990Y014017D03*
D22*
X006990Y010532D03*
D23*
X003899Y001083D03*
X003309Y001083D03*
D24*
X007046Y001040D03*
X007446Y001040D03*
X007446Y001560D03*
X007046Y001560D03*
D25*
X002777Y000985D02*
X000454Y000985D01*
X000454Y004135D01*
X000454Y004887D01*
X000710Y005143D01*
X000710Y006143D02*
X000710Y008150D01*
X006990Y008150D01*
X006990Y010532D01*
X006990Y007048D02*
X004982Y007048D01*
X006340Y006457D02*
X010238Y006457D01*
X011793Y006457D01*
X012049Y006202D01*
D26*
X013072Y007048D02*
X003643Y007009D01*
X003643Y007048D01*
X001694Y007048D01*
X001694Y006477D01*
X001694Y005808D02*
X001360Y005808D01*
X000710Y005139D01*
X000710Y005143D01*
X001694Y005217D02*
X001714Y005257D01*
X002364Y005257D01*
X002364Y005454D02*
X002679Y005454D01*
X002679Y005060D01*
X002679Y004902D01*
X003643Y004902D01*
X003643Y006143D01*
X003643Y007009D01*
X003939Y005847D02*
X005395Y005847D01*
X005395Y004646D01*
X005887Y004646D01*
X005887Y004489D01*
X006399Y004489D01*
X006399Y004292D02*
X005179Y004292D01*
X005179Y004213D01*
X004943Y003977D01*
X004155Y003977D01*
X003978Y004154D01*
X003368Y004154D01*
X003368Y003623D01*
X003269Y003524D01*
X003269Y003170D01*
X003191Y003170D01*
X002777Y003032D02*
X002777Y002501D01*
X003191Y002501D01*
X002777Y002501D02*
X002777Y002009D01*
X003998Y002009D01*
X005336Y002009D01*
X005671Y002009D01*
X008407Y002009D01*
X008407Y002284D01*
X007974Y001635D02*
X009332Y001635D01*
X009332Y002717D01*
X009037Y002717D01*
X009037Y002520D02*
X009037Y001831D01*
X007049Y001831D01*
X007046Y001828D01*
X007046Y001560D01*
X007049Y001831D02*
X006517Y001831D01*
X006517Y001280D01*
X007046Y001040D02*
X007049Y001044D01*
X007049Y000946D01*
X005848Y000946D01*
X005848Y001280D01*
X004943Y001280D01*
X004726Y001083D01*
X003899Y001083D01*
X003978Y001635D02*
X004490Y001635D01*
X003998Y002009D02*
X003998Y002501D01*
X003998Y003170D02*
X003998Y003308D01*
X004667Y003308D01*
X004667Y003603D01*
X004844Y003780D01*
X005238Y003780D01*
X005415Y003957D01*
X005179Y004292D02*
X005179Y005650D01*
X003939Y005650D01*
X003939Y005060D02*
X004608Y005060D01*
X004687Y005119D01*
X004608Y004391D02*
X003643Y004391D01*
X003643Y004568D01*
X003643Y004902D01*
X003368Y004154D02*
X002443Y004154D01*
X002285Y003997D01*
X002285Y003867D01*
X002088Y003867D02*
X002088Y004135D01*
X002305Y004371D01*
X002659Y004371D01*
X002659Y004568D01*
X002679Y005060D02*
X002364Y005060D01*
X002069Y005060D01*
X002069Y004548D01*
X001694Y004548D01*
X001694Y004135D02*
X000454Y004135D01*
X000887Y003052D02*
X000927Y003052D01*
X000887Y003052D02*
X001450Y003032D01*
X001694Y002788D02*
X001694Y002501D01*
X001419Y002501D01*
X001419Y001477D01*
X001754Y001477D01*
X001891Y001595D01*
X001754Y001477D02*
X001793Y001359D01*
X002088Y001359D01*
X002088Y002788D01*
X001891Y002788D02*
X001891Y002087D01*
X001754Y002146D01*
X002285Y002304D02*
X002462Y002304D01*
X002462Y001851D01*
X002777Y002009D02*
X002777Y000985D01*
X002462Y001359D02*
X002088Y001359D01*
X002285Y002304D02*
X002285Y002788D01*
X002529Y003032D02*
X002777Y003032D01*
X002817Y003623D02*
X002529Y003623D01*
X002817Y003623D02*
X002974Y003780D01*
X002088Y004135D02*
X001694Y004135D01*
X001694Y003867D01*
X000887Y002383D02*
X000887Y001851D01*
X003309Y001635D02*
X003309Y001083D01*
X004667Y002481D02*
X004667Y003308D01*
X005336Y003308D02*
X005651Y003505D01*
X006399Y003505D01*
X006399Y003308D02*
X005671Y003308D01*
X005671Y002009D01*
X005986Y002324D02*
X005986Y002520D01*
X006399Y002520D01*
X006399Y002717D02*
X005986Y002717D01*
X005986Y002993D01*
X005336Y002481D02*
X005336Y002009D01*
X007049Y001044D02*
X007446Y001560D01*
X007446Y001040D02*
X007734Y001040D01*
X007974Y001280D01*
X007974Y001635D01*
X008643Y001280D02*
X009037Y001280D01*
X009175Y001143D01*
X009844Y001143D01*
X009864Y001123D01*
X009844Y001143D02*
X010710Y001143D01*
X010710Y001812D02*
X009844Y001812D01*
X009706Y001772D01*
X009706Y002324D01*
X009706Y002619D01*
X009411Y002914D01*
X009037Y002914D01*
X009037Y003111D01*
X009037Y003308D02*
X009332Y003308D01*
X009372Y003269D01*
X009569Y003505D02*
X009037Y003505D01*
X009037Y003702D02*
X009037Y003898D01*
X010120Y003898D01*
X010100Y003859D01*
X010395Y003583D01*
X010395Y003288D01*
X010769Y003859D02*
X010238Y004292D01*
X009903Y004430D02*
X009588Y004095D01*
X009037Y004095D01*
X009037Y004292D02*
X009273Y004292D01*
X010021Y005040D01*
X010218Y005040D01*
X010238Y005020D01*
X010415Y004784D02*
X010631Y004568D01*
X010631Y004430D01*
X010415Y004784D02*
X010415Y006005D01*
X010927Y006005D01*
X010927Y005335D02*
X010927Y004843D01*
X010238Y005355D02*
X010198Y005316D01*
X009785Y005316D01*
X009313Y005788D01*
X009155Y005788D01*
X009450Y006182D02*
X009864Y005749D01*
X009450Y006182D02*
X008486Y006182D01*
X008486Y005788D01*
X008210Y005788D01*
X008210Y004922D01*
X008407Y004922D02*
X008407Y005198D01*
X009313Y005198D01*
X009490Y005020D01*
X008486Y005788D02*
X007876Y005788D01*
X008013Y005257D02*
X007226Y005257D01*
X006340Y005257D01*
X006340Y005887D01*
X005887Y005887D01*
X006340Y005887D02*
X006340Y006457D01*
X006694Y005788D02*
X007206Y005788D01*
X007226Y005257D02*
X007226Y004922D01*
X007817Y004922D02*
X007817Y003741D01*
X007718Y003603D01*
X006399Y003898D02*
X006045Y003898D01*
X005986Y003957D01*
X005887Y004646D02*
X005887Y005217D01*
X008013Y005257D02*
X008013Y004922D01*
X008486Y005788D02*
X008486Y005808D01*
X009037Y003898D02*
X009057Y003702D01*
X011754Y002154D02*
X011754Y002146D01*
X002364Y005650D02*
X001990Y005650D01*
X001990Y005808D01*
X001694Y005808D01*
D27*
X010238Y005355D02*
X010238Y005020D01*
X010238Y004292D01*
X010238Y005355D02*
X010238Y006457D01*
D28*
X009864Y005749D03*
X009490Y005020D03*
X009903Y004430D03*
X010631Y004430D03*
X010927Y004843D03*
X010395Y003288D03*
X009706Y002324D03*
X009175Y001143D03*
X007718Y003603D03*
X005986Y003957D03*
X005415Y003957D03*
X005887Y004646D03*
X006694Y005788D03*
X006340Y006457D03*
X005986Y002993D03*
X005986Y002324D03*
X004943Y001280D03*
X004490Y001635D03*
X002462Y001851D03*
X002462Y001359D03*
X000887Y001851D03*
X002974Y003780D03*
X013092Y007048D03*
X013446Y014017D03*
D29*
X006990Y014017D01*
X006990Y007048D02*
X013072Y007048D01*
X013092Y007048D01*
D30*
X009569Y003505D02*
X010297Y002776D01*
X012376Y002776D01*
X012876Y002776D01*
X013376Y002776D01*
X011754Y002146D02*
X011754Y001654D01*
X011754Y001154D01*
X011754Y002146D02*
X011439Y002442D01*
X010218Y002442D01*
X009372Y003269D01*
M02*
