G75*
G70*
%OFA0B0*%
%FSLAX24Y24*%
%IPPOS*%
%LPD*%
%AMOC8*
5,1,8,0,0,1.08239X$1,22.5*
%
%ADD10R,0.2107X0.2107*%
%ADD11C,0.0178*%
%ADD12R,0.0493X0.0454*%
%ADD13R,0.0170X0.0316*%
%ADD14R,0.0316X0.0170*%
%ADD15R,0.0454X0.0493*%
%ADD16R,0.0178X0.0375*%
%ADD17R,0.0375X0.0178*%
%ADD18R,0.0394X0.0394*%
%ADD19C,0.0800*%
%ADD20R,0.0560X0.0560*%
%ADD21R,1.1477X0.0454*%
%ADD22R,1.0296X0.5572*%
%ADD23R,0.0375X0.0375*%
%ADD24R,0.0320X0.0360*%
%ADD25C,0.0456*%
D10*
X007718Y003603D03*
D11*
X007620Y002363D02*
X007620Y002205D01*
X007817Y002205D02*
X007817Y002363D01*
X008013Y002363D02*
X008013Y002205D01*
X008210Y002205D02*
X008210Y002363D01*
X008407Y002363D02*
X008407Y002205D01*
X008604Y002205D02*
X008604Y002363D01*
X008801Y002363D02*
X008801Y002205D01*
X008958Y002520D02*
X009116Y002520D01*
X009116Y002717D02*
X008958Y002717D01*
X008958Y002914D02*
X009116Y002914D01*
X009116Y003111D02*
X008958Y003111D01*
X008958Y003308D02*
X009116Y003308D01*
X009116Y003505D02*
X008958Y003505D01*
X008958Y003702D02*
X009116Y003702D01*
X009116Y003898D02*
X008958Y003898D01*
X008958Y004095D02*
X009116Y004095D01*
X009116Y004292D02*
X008958Y004292D01*
X008958Y004489D02*
X009116Y004489D01*
X009116Y004686D02*
X008958Y004686D01*
X008801Y004843D02*
X008801Y005001D01*
X008604Y005001D02*
X008604Y004843D01*
X008407Y004843D02*
X008407Y005001D01*
X008210Y005001D02*
X008210Y004843D01*
X008013Y004843D02*
X008013Y005001D01*
X007817Y005001D02*
X007817Y004843D01*
X007620Y004843D02*
X007620Y005001D01*
X007423Y005001D02*
X007423Y004843D01*
X007226Y004843D02*
X007226Y005001D01*
X007029Y005001D02*
X007029Y004843D01*
X006832Y004843D02*
X006832Y005001D01*
X006635Y005001D02*
X006635Y004843D01*
X006478Y004686D02*
X006320Y004686D01*
X006320Y004489D02*
X006478Y004489D01*
X006478Y004292D02*
X006320Y004292D01*
X006320Y004095D02*
X006478Y004095D01*
X006478Y003898D02*
X006320Y003898D01*
X006320Y003702D02*
X006478Y003702D01*
X006478Y003505D02*
X006320Y003505D01*
X006320Y003308D02*
X006478Y003308D01*
X006478Y003111D02*
X006320Y003111D01*
X006320Y002914D02*
X006478Y002914D01*
X006478Y002717D02*
X006320Y002717D01*
X006320Y002520D02*
X006478Y002520D01*
X006635Y002363D02*
X006635Y002205D01*
X006832Y002205D02*
X006832Y002363D01*
X007029Y002363D02*
X007029Y002205D01*
X007226Y002205D02*
X007226Y002363D01*
X007423Y002363D02*
X007423Y002205D01*
D12*
X007974Y001280D03*
X008643Y001280D03*
X006517Y001280D03*
X005848Y001280D03*
X005336Y002481D03*
X004667Y002481D03*
X004667Y003308D03*
X005336Y003308D03*
X003978Y001635D03*
X003309Y001635D03*
X007206Y005788D03*
X007876Y005788D03*
X008486Y005788D03*
X009155Y005788D03*
X010927Y006005D03*
X010927Y005335D03*
X010769Y003859D03*
X010100Y003859D03*
D13*
X002285Y003867D03*
X002088Y003867D03*
X001891Y003867D03*
X001694Y003867D03*
X001694Y002788D03*
X001891Y002788D03*
X002088Y002788D03*
X002285Y002788D03*
D14*
X002529Y003032D03*
X002529Y003229D03*
X002529Y003426D03*
X002529Y003623D03*
X001450Y003623D03*
X001450Y003426D03*
X001450Y003229D03*
X001450Y003032D03*
D15*
X000887Y003052D03*
X000887Y002383D03*
X001754Y002146D03*
X001754Y001477D03*
X003191Y002501D03*
X003191Y003170D03*
X003998Y003170D03*
X003998Y002501D03*
X004608Y004391D03*
X004608Y005060D03*
X005887Y005217D03*
X005887Y005887D03*
X001694Y005808D03*
X001694Y005217D03*
X001694Y004548D03*
X001694Y006477D03*
X009844Y001812D03*
X009844Y001143D03*
X010710Y001143D03*
X010710Y001812D03*
D16*
X003643Y004568D03*
X003446Y004568D03*
X003250Y004568D03*
X003053Y004568D03*
X002856Y004568D03*
X002659Y004568D03*
X002659Y006143D03*
X002856Y006143D03*
X003053Y006143D03*
X003250Y006143D03*
X003446Y006143D03*
X003643Y006143D03*
D17*
X003939Y005847D03*
X003939Y005650D03*
X003939Y005454D03*
X003939Y005257D03*
X003939Y005060D03*
X003939Y004863D03*
X002364Y004863D03*
X002364Y005060D03*
X002364Y005257D03*
X002364Y005454D03*
X002364Y005650D03*
X002364Y005847D03*
D18*
X003151Y005355D03*
D19*
X000710Y005143D03*
X000710Y006143D03*
X012049Y006202D03*
X013049Y006202D03*
X013049Y005198D03*
X012049Y005198D03*
X012049Y004194D03*
X013049Y004194D03*
D20*
X012876Y002776D03*
X012376Y002776D03*
X011754Y002154D03*
X011754Y001654D03*
X011754Y001154D03*
X013376Y002776D03*
D21*
X006990Y007048D03*
X006990Y014017D03*
D22*
X006990Y010532D03*
D23*
X003899Y001083D03*
X003309Y001083D03*
D24*
X007046Y001040D03*
X007446Y001040D03*
X007446Y001560D03*
X007046Y001560D03*
D25*
X000887Y001851D03*
X002462Y001851D03*
X002462Y001359D03*
X004490Y001635D03*
X004943Y001280D03*
X005986Y002324D03*
X005986Y002993D03*
X005986Y003957D03*
X005415Y003957D03*
X005887Y004646D03*
X006694Y005788D03*
X006340Y006457D03*
X007718Y003603D03*
X009490Y005020D03*
X009903Y004430D03*
X010631Y004430D03*
X010927Y004843D03*
X009864Y005749D03*
X010395Y003288D03*
X009706Y002324D03*
X009175Y001143D03*
X013092Y007048D03*
X013446Y014017D03*
X002974Y003780D03*
M02*
