G75*
G70*
%OFA0B0*%
%FSLAX24Y24*%
%IPPOS*%
%LPD*%
%AMOC8*
5,1,8,0,0,1.08239X$1,22.5*
%
%ADD10C,0.1162*%
%ADD11R,0.2107X0.2107*%
%ADD12C,0.0178*%
%ADD13R,0.0493X0.0454*%
%ADD14R,0.0170X0.0316*%
%ADD15R,0.0316X0.0170*%
%ADD16R,0.0454X0.0493*%
%ADD17R,0.0178X0.0375*%
%ADD18R,0.0375X0.0178*%
%ADD19R,0.0394X0.0394*%
%ADD20C,0.0800*%
%ADD21C,0.0560*%
%ADD22R,0.0560X0.0560*%
%ADD23R,0.0375X0.0375*%
%ADD24R,0.0233X0.0371*%
%ADD25C,0.1160*%
%ADD26R,0.9903X0.0454*%
%ADD27R,1.1477X0.5572*%
%ADD28R,0.0651X0.0572*%
%ADD29C,0.0456*%
D10*
X012788Y012788D03*
D11*
X007768Y002945D03*
D12*
X007670Y001705D02*
X007670Y001547D01*
X007867Y001547D02*
X007867Y001705D01*
X008063Y001705D02*
X008063Y001547D01*
X008260Y001547D02*
X008260Y001705D01*
X008457Y001705D02*
X008457Y001547D01*
X008654Y001547D02*
X008654Y001705D01*
X008851Y001705D02*
X008851Y001547D01*
X009008Y001863D02*
X009166Y001863D01*
X009166Y002059D02*
X009008Y002059D01*
X009008Y002256D02*
X009166Y002256D01*
X009166Y002453D02*
X009008Y002453D01*
X009008Y002650D02*
X009166Y002650D01*
X009166Y002847D02*
X009008Y002847D01*
X009008Y003044D02*
X009166Y003044D01*
X009166Y003241D02*
X009008Y003241D01*
X009008Y003437D02*
X009166Y003437D01*
X009166Y003634D02*
X009008Y003634D01*
X009008Y003831D02*
X009166Y003831D01*
X009166Y004028D02*
X009008Y004028D01*
X008851Y004185D02*
X008851Y004343D01*
X008654Y004343D02*
X008654Y004185D01*
X008457Y004185D02*
X008457Y004343D01*
X008260Y004343D02*
X008260Y004185D01*
X008063Y004185D02*
X008063Y004343D01*
X007867Y004343D02*
X007867Y004185D01*
X007670Y004185D02*
X007670Y004343D01*
X007473Y004343D02*
X007473Y004185D01*
X007276Y004185D02*
X007276Y004343D01*
X007079Y004343D02*
X007079Y004185D01*
X006882Y004185D02*
X006882Y004343D01*
X006685Y004343D02*
X006685Y004185D01*
X006528Y004028D02*
X006370Y004028D01*
X006370Y003831D02*
X006528Y003831D01*
X006528Y003634D02*
X006370Y003634D01*
X006370Y003437D02*
X006528Y003437D01*
X006528Y003241D02*
X006370Y003241D01*
X006370Y003044D02*
X006528Y003044D01*
X006528Y002847D02*
X006370Y002847D01*
X006370Y002650D02*
X006528Y002650D01*
X006528Y002453D02*
X006370Y002453D01*
X006370Y002256D02*
X006528Y002256D01*
X006528Y002059D02*
X006370Y002059D01*
X006370Y001863D02*
X006528Y001863D01*
X006685Y001705D02*
X006685Y001547D01*
X006882Y001547D02*
X006882Y001705D01*
X007079Y001705D02*
X007079Y001547D01*
X007276Y001547D02*
X007276Y001705D01*
X007473Y001705D02*
X007473Y001547D01*
D13*
X008556Y001036D03*
X009225Y001036D03*
X010150Y003241D03*
X010819Y003241D03*
X010977Y004402D03*
X010977Y005071D03*
X009284Y004874D03*
X008615Y004874D03*
X007906Y004874D03*
X007237Y004874D03*
X006075Y004520D03*
X005406Y004520D03*
X005386Y002276D03*
X005386Y001764D03*
X004717Y001764D03*
X004717Y002276D03*
X004166Y002276D03*
X004166Y001764D03*
X003496Y001764D03*
X003496Y002276D03*
X003713Y000819D03*
X004382Y000819D03*
X005603Y001056D03*
X006272Y001056D03*
D14*
X002217Y001559D03*
X002020Y001559D03*
X001823Y001559D03*
X001626Y001559D03*
X001626Y002638D03*
X001823Y002638D03*
X002020Y002638D03*
X002217Y002638D03*
D15*
X002461Y002394D03*
X002461Y002197D03*
X002461Y002000D03*
X002461Y001804D03*
X001382Y001804D03*
X001382Y002000D03*
X001382Y002197D03*
X001382Y002394D03*
D16*
X000878Y000878D03*
X000878Y001548D03*
X001685Y003457D03*
X001174Y003890D03*
X001685Y004126D03*
X001174Y004559D03*
X004382Y003969D03*
X004382Y003300D03*
X009894Y001272D03*
X009894Y000603D03*
X010603Y000603D03*
X010603Y001272D03*
D17*
X003634Y003477D03*
X003437Y003477D03*
X003241Y003477D03*
X003044Y003477D03*
X002847Y003477D03*
X002650Y003477D03*
X002650Y005052D03*
X002847Y005052D03*
X003044Y005052D03*
X003241Y005052D03*
X003437Y005052D03*
X003634Y005052D03*
D18*
X003930Y004756D03*
X003930Y004559D03*
X003930Y004363D03*
X003930Y004166D03*
X003930Y003969D03*
X003930Y003772D03*
X002355Y003772D03*
X002355Y003969D03*
X002355Y004166D03*
X002355Y004363D03*
X002355Y004559D03*
X002355Y004756D03*
D19*
X003142Y004264D03*
D20*
X012099Y004599D03*
X012099Y003595D03*
X013099Y003595D03*
X013099Y004599D03*
D21*
X012433Y002245D02*
X012926Y002158D01*
X013418Y002071D01*
X011882Y001115D02*
X011969Y000622D01*
X011882Y001115D02*
X011795Y001607D01*
D22*
G36*
X011655Y000791D02*
X011558Y001342D01*
X012109Y001439D01*
X012206Y000888D01*
X011655Y000791D01*
G37*
G36*
X013153Y001834D02*
X012602Y001931D01*
X012699Y002482D01*
X013250Y002385D01*
X013153Y001834D01*
G37*
D23*
X006863Y000563D03*
X006272Y000563D03*
D24*
X007268Y000565D03*
X007268Y001034D03*
X008032Y001034D03*
X008032Y000565D03*
D25*
X013339Y007040D03*
X007040Y013339D03*
D26*
X006449Y012552D03*
X006449Y005859D03*
D27*
X006449Y009205D03*
D28*
X013359Y008683D03*
X013359Y007935D03*
D29*
X013359Y009205D03*
X009973Y005130D03*
X009422Y004343D03*
X009953Y003851D03*
X010681Y003851D03*
X011252Y003949D03*
X010485Y002748D03*
X009756Y001784D03*
X008910Y000583D03*
X007768Y002945D03*
X006056Y002414D03*
X006056Y001725D03*
X005426Y000583D03*
X004894Y000819D03*
X003181Y000819D03*
X002315Y000957D03*
X001823Y001036D03*
X001351Y000957D03*
X002965Y002650D03*
X005091Y003044D03*
X005996Y003241D03*
X005406Y003969D03*
X004481Y005111D03*
X006705Y004874D03*
X001056Y005859D03*
X000937Y012552D03*
M02*
