%
M48
M72
T01C0.0236
T02C0.0400
T03C0.1102
%
T01
X1359Y957
X1831Y1036
X2323Y957
X3189Y819
X4902Y819
X5434Y583
X6063Y1725
X6063Y2414
X6004Y3241
X5414Y3969
X5099Y3044
X6713Y4874
X7776Y2945
X9430Y4343
X9961Y3851
X10689Y3851
X11260Y3949
X10493Y2748
X9764Y1784
X8918Y583
X11803Y1607
X11890Y1115
X11977Y622
X13426Y2071
X12934Y2158
X12441Y2245
X9981Y5130
X13367Y9205
X4489Y5111
X2973Y2650
X1199Y5859
X1219Y12552
T02
X12107Y4599
X12107Y3595
X13107Y3595
X13107Y4599
T03
X12796Y12788
M30
