G75*
G70*
%OFA0B0*%
%FSLAX24Y24*%
%IPPOS*%
%LPD*%
%AMOC8*
5,1,8,0,0,1.08239X$1,22.5*
%
%ADD10C,0.0000*%
%ADD11R,0.0008X0.0002*%
%ADD12R,0.0028X0.0002*%
%ADD13R,0.0044X0.0002*%
%ADD14R,0.0058X0.0002*%
%ADD15R,0.0074X0.0002*%
%ADD16R,0.0088X0.0002*%
%ADD17R,0.0102X0.0002*%
%ADD18R,0.0114X0.0002*%
%ADD19R,0.0126X0.0002*%
%ADD20R,0.0140X0.0002*%
%ADD21R,0.0152X0.0002*%
%ADD22R,0.0164X0.0002*%
%ADD23R,0.0178X0.0002*%
%ADD24R,0.0190X0.0002*%
%ADD25R,0.0200X0.0002*%
%ADD26R,0.0212X0.0002*%
%ADD27R,0.0226X0.0002*%
%ADD28R,0.0238X0.0002*%
%ADD29R,0.0248X0.0002*%
%ADD30R,0.0260X0.0002*%
%ADD31R,0.0272X0.0002*%
%ADD32R,0.0286X0.0002*%
%ADD33R,0.0298X0.0002*%
%ADD34R,0.0308X0.0002*%
%ADD35R,0.0320X0.0002*%
%ADD36R,0.0332X0.0002*%
%ADD37R,0.0346X0.0002*%
%ADD38R,0.0356X0.0002*%
%ADD39R,0.0368X0.0002*%
%ADD40R,0.0380X0.0002*%
%ADD41R,0.0394X0.0002*%
%ADD42R,0.0404X0.0002*%
%ADD43R,0.0416X0.0002*%
%ADD44R,0.0428X0.0002*%
%ADD45R,0.0052X0.0002*%
%ADD46R,0.0364X0.0002*%
%ADD47R,0.0054X0.0002*%
%ADD48R,0.0358X0.0002*%
%ADD49R,0.0052X0.0002*%
%ADD50R,0.0052X0.0002*%
%ADD51R,0.0356X0.0002*%
%ADD52R,0.0052X0.0002*%
%ADD53R,0.0358X0.0002*%
%ADD54R,0.0360X0.0002*%
%ADD55R,0.0050X0.0002*%
%ADD56R,0.0360X0.0002*%
%ADD57R,0.0050X0.0002*%
%ADD58R,0.0350X0.0002*%
%ADD59R,0.0338X0.0002*%
%ADD60R,0.0330X0.0002*%
%ADD61R,0.0322X0.0002*%
%ADD62R,0.0316X0.0002*%
%ADD63R,0.0306X0.0002*%
%ADD64R,0.0296X0.0002*%
%ADD65R,0.0280X0.0002*%
%ADD66R,0.0270X0.0002*%
%ADD67R,0.0258X0.0002*%
%ADD68R,0.0250X0.0002*%
%ADD69R,0.0240X0.0002*%
%ADD70R,0.0230X0.0002*%
%ADD71R,0.0220X0.0002*%
%ADD72R,0.0210X0.0002*%
%ADD73R,0.0200X0.0002*%
%ADD74R,0.0190X0.0002*%
%ADD75R,0.0178X0.0002*%
%ADD76R,0.0170X0.0002*%
%ADD77R,0.0160X0.0002*%
%ADD78R,0.0150X0.0002*%
%ADD79R,0.0048X0.0002*%
%ADD80R,0.0138X0.0002*%
%ADD81R,0.0128X0.0002*%
%ADD82R,0.0118X0.0002*%
%ADD83R,0.0108X0.0002*%
%ADD84R,0.0096X0.0002*%
%ADD85R,0.0096X0.0002*%
%ADD86R,0.0098X0.0002*%
%ADD87R,0.0098X0.0002*%
%ADD88R,0.0100X0.0002*%
%ADD89R,0.0104X0.0002*%
%ADD90R,0.0106X0.0002*%
%ADD91R,0.0106X0.0002*%
%ADD92R,0.0110X0.0002*%
%ADD93R,0.0110X0.0002*%
%ADD94R,0.0114X0.0002*%
%ADD95R,0.0116X0.0002*%
%ADD96R,0.0066X0.0002*%
%ADD97R,0.0068X0.0002*%
%ADD98R,0.0054X0.0002*%
%ADD99R,0.0066X0.0002*%
%ADD100R,0.0068X0.0002*%
%ADD101R,0.0054X0.0002*%
%ADD102R,0.0012X0.0002*%
%ADD103R,0.0002X0.0002*%
%ADD104R,0.0042X0.0002*%
%ADD105R,0.0032X0.0002*%
%ADD106R,0.0468X0.0002*%
%ADD107R,0.0032X0.0002*%
%ADD108R,0.0046X0.0002*%
%ADD109R,0.0450X0.0002*%
%ADD110R,0.0348X0.0002*%
%ADD111R,0.0036X0.0002*%
%ADD112R,0.0056X0.0002*%
%ADD113R,0.0494X0.0002*%
%ADD114R,0.0476X0.0002*%
%ADD115R,0.0378X0.0002*%
%ADD116R,0.0064X0.0002*%
%ADD117R,0.0080X0.0002*%
%ADD118R,0.0508X0.0002*%
%ADD119R,0.0062X0.0002*%
%ADD120R,0.0076X0.0002*%
%ADD121R,0.0496X0.0002*%
%ADD122R,0.0398X0.0002*%
%ADD123R,0.0062X0.0002*%
%ADD124R,0.0048X0.0002*%
%ADD125R,0.0070X0.0002*%
%ADD126R,0.0088X0.0002*%
%ADD127R,0.0072X0.0002*%
%ADD128R,0.0522X0.0002*%
%ADD129R,0.0084X0.0002*%
%ADD130R,0.0510X0.0002*%
%ADD131R,0.0414X0.0002*%
%ADD132R,0.0076X0.0002*%
%ADD133R,0.0094X0.0002*%
%ADD134R,0.0532X0.0002*%
%ADD135R,0.0092X0.0002*%
%ADD136R,0.0524X0.0002*%
%ADD137R,0.0430X0.0002*%
%ADD138R,0.0072X0.0002*%
%ADD139R,0.0078X0.0002*%
%ADD140R,0.0100X0.0002*%
%ADD141R,0.0540X0.0002*%
%ADD142R,0.0534X0.0002*%
%ADD143R,0.0442X0.0002*%
%ADD144R,0.0082X0.0002*%
%ADD145R,0.0104X0.0002*%
%ADD146R,0.0548X0.0002*%
%ADD147R,0.0080X0.0002*%
%ADD148R,0.0542X0.0002*%
%ADD149R,0.0454X0.0002*%
%ADD150R,0.0086X0.0002*%
%ADD151R,0.0084X0.0002*%
%ADD152R,0.0554X0.0002*%
%ADD153R,0.0108X0.0002*%
%ADD154R,0.0550X0.0002*%
%ADD155R,0.0466X0.0002*%
%ADD156R,0.0082X0.0002*%
%ADD157R,0.0086X0.0002*%
%ADD158R,0.0560X0.0002*%
%ADD159R,0.0112X0.0002*%
%ADD160R,0.0556X0.0002*%
%ADD161R,0.0474X0.0002*%
%ADD162R,0.0090X0.0002*%
%ADD163R,0.0116X0.0002*%
%ADD164R,0.0564X0.0002*%
%ADD165R,0.0486X0.0002*%
%ADD166R,0.0090X0.0002*%
%ADD167R,0.0122X0.0002*%
%ADD168R,0.0570X0.0002*%
%ADD169R,0.0120X0.0002*%
%ADD170R,0.0494X0.0002*%
%ADD171R,0.0126X0.0002*%
%ADD172R,0.0574X0.0002*%
%ADD173R,0.0124X0.0002*%
%ADD174R,0.0576X0.0002*%
%ADD175R,0.0502X0.0002*%
%ADD176R,0.0094X0.0002*%
%ADD177R,0.0578X0.0002*%
%ADD178R,0.0580X0.0002*%
%ADD179R,0.0092X0.0002*%
%ADD180R,0.0134X0.0002*%
%ADD181R,0.0582X0.0002*%
%ADD182R,0.0092X0.0002*%
%ADD183R,0.0132X0.0002*%
%ADD184R,0.0584X0.0002*%
%ADD185R,0.0516X0.0002*%
%ADD186R,0.0064X0.0002*%
%ADD187R,0.0586X0.0002*%
%ADD188R,0.0136X0.0002*%
%ADD189R,0.0588X0.0002*%
%ADD190R,0.0524X0.0002*%
%ADD191R,0.0140X0.0002*%
%ADD192R,0.0590X0.0002*%
%ADD193R,0.0592X0.0002*%
%ADD194R,0.0528X0.0002*%
%ADD195R,0.0144X0.0002*%
%ADD196R,0.0594X0.0002*%
%ADD197R,0.0598X0.0002*%
%ADD198R,0.0536X0.0002*%
%ADD199R,0.0146X0.0002*%
%ADD200R,0.0596X0.0002*%
%ADD201R,0.0600X0.0002*%
%ADD202R,0.0542X0.0002*%
%ADD203R,0.0150X0.0002*%
%ADD204R,0.0600X0.0002*%
%ADD205R,0.0604X0.0002*%
%ADD206R,0.0154X0.0002*%
%ADD207R,0.0602X0.0002*%
%ADD208R,0.0152X0.0002*%
%ADD209R,0.0608X0.0002*%
%ADD210R,0.0554X0.0002*%
%ADD211R,0.0156X0.0002*%
%ADD212R,0.0604X0.0002*%
%ADD213R,0.0610X0.0002*%
%ADD214R,0.0558X0.0002*%
%ADD215R,0.0158X0.0002*%
%ADD216R,0.0612X0.0002*%
%ADD217R,0.0162X0.0002*%
%ADD218R,0.0162X0.0002*%
%ADD219R,0.0616X0.0002*%
%ADD220R,0.0164X0.0002*%
%ADD221R,0.0612X0.0002*%
%ADD222R,0.0166X0.0002*%
%ADD223R,0.0618X0.0002*%
%ADD224R,0.0168X0.0002*%
%ADD225R,0.0614X0.0002*%
%ADD226R,0.0620X0.0002*%
%ADD227R,0.0580X0.0002*%
%ADD228R,0.0170X0.0002*%
%ADD229R,0.0622X0.0002*%
%ADD230R,0.0584X0.0002*%
%ADD231R,0.0172X0.0002*%
%ADD232R,0.0174X0.0002*%
%ADD233R,0.0624X0.0002*%
%ADD234R,0.0176X0.0002*%
%ADD235R,0.0620X0.0002*%
%ADD236R,0.0174X0.0002*%
%ADD237R,0.0626X0.0002*%
%ADD238R,0.0176X0.0002*%
%ADD239R,0.0622X0.0002*%
%ADD240R,0.0628X0.0002*%
%ADD241R,0.0180X0.0002*%
%ADD242R,0.0622X0.0002*%
%ADD243R,0.0630X0.0002*%
%ADD244R,0.0180X0.0002*%
%ADD245R,0.0624X0.0002*%
%ADD246R,0.0182X0.0002*%
%ADD247R,0.0632X0.0002*%
%ADD248R,0.0602X0.0002*%
%ADD249R,0.0182X0.0002*%
%ADD250R,0.0184X0.0002*%
%ADD251R,0.0184X0.0002*%
%ADD252R,0.0186X0.0002*%
%ADD253R,0.0632X0.0002*%
%ADD254R,0.0608X0.0002*%
%ADD255R,0.0186X0.0002*%
%ADD256R,0.0626X0.0002*%
%ADD257R,0.0188X0.0002*%
%ADD258R,0.0634X0.0002*%
%ADD259R,0.0614X0.0002*%
%ADD260R,0.0188X0.0002*%
%ADD261R,0.0628X0.0002*%
%ADD262R,0.0634X0.0002*%
%ADD263R,0.0618X0.0002*%
%ADD264R,0.0192X0.0002*%
%ADD265R,0.0634X0.0002*%
%ADD266R,0.0192X0.0002*%
%ADD267R,0.0636X0.0002*%
%ADD268R,0.0194X0.0002*%
%ADD269R,0.0636X0.0002*%
%ADD270R,0.0192X0.0002*%
%ADD271R,0.0196X0.0002*%
%ADD272R,0.0194X0.0002*%
%ADD273R,0.0630X0.0002*%
%ADD274R,0.0196X0.0002*%
%ADD275R,0.0194X0.0002*%
%ADD276R,0.0632X0.0002*%
%ADD277R,0.0638X0.0002*%
%ADD278R,0.0194X0.0002*%
%ADD279R,0.0198X0.0002*%
%ADD280R,0.0640X0.0002*%
%ADD281R,0.0154X0.0002*%
%ADD282R,0.0162X0.0002*%
%ADD283R,0.0036X0.0002*%
%ADD284R,0.0156X0.0002*%
%ADD285R,0.0148X0.0002*%
%ADD286R,0.0134X0.0002*%
%ADD287R,0.0148X0.0002*%
%ADD288R,0.0128X0.0002*%
%ADD289R,0.0144X0.0002*%
%ADD290R,0.0138X0.0002*%
%ADD291R,0.0122X0.0002*%
%ADD292R,0.0130X0.0002*%
%ADD293R,0.0120X0.0002*%
%ADD294R,0.0130X0.0002*%
%ADD295R,0.0124X0.0002*%
%ADD296R,0.0114X0.0002*%
%ADD297R,0.0122X0.0002*%
%ADD298R,0.0118X0.0002*%
%ADD299R,0.0114X0.0002*%
%ADD300R,0.0104X0.0002*%
%ADD301R,0.0102X0.0002*%
%ADD302R,0.0112X0.0002*%
%ADD303R,0.0064X0.0002*%
%ADD304R,0.0102X0.0002*%
%ADD305R,0.0102X0.0002*%
%ADD306R,0.0104X0.0002*%
%ADD307R,0.0064X0.0002*%
%ADD308R,0.0094X0.0002*%
%ADD309R,0.0094X0.0002*%
%ADD310R,0.0092X0.0002*%
%ADD311R,0.0198X0.0002*%
%ADD312R,0.0294X0.0002*%
%ADD313R,0.0290X0.0002*%
%ADD314R,0.0286X0.0002*%
%ADD315R,0.0284X0.0002*%
%ADD316R,0.0276X0.0002*%
%ADD317R,0.0274X0.0002*%
%ADD318R,0.0270X0.0002*%
%ADD319R,0.0266X0.0002*%
%ADD320R,0.0264X0.0002*%
%ADD321R,0.0256X0.0002*%
%ADD322R,0.0254X0.0002*%
%ADD323R,0.0250X0.0002*%
%ADD324R,0.0244X0.0002*%
%ADD325R,0.0238X0.0002*%
%ADD326R,0.0234X0.0002*%
%ADD327R,0.0232X0.0002*%
%ADD328R,0.0228X0.0002*%
%ADD329R,0.0224X0.0002*%
%ADD330R,0.0222X0.0002*%
%ADD331R,0.0218X0.0002*%
%ADD332R,0.0060X0.0002*%
%ADD333R,0.0216X0.0002*%
%ADD334R,0.0060X0.0002*%
%ADD335R,0.0212X0.0002*%
%ADD336R,0.0058X0.0002*%
%ADD337R,0.0206X0.0002*%
%ADD338R,0.0204X0.0002*%
%ADD339R,0.0056X0.0002*%
%ADD340R,0.0202X0.0002*%
%ADD341R,0.0208X0.0002*%
%ADD342R,0.0054X0.0002*%
%ADD343R,0.0214X0.0002*%
%ADD344R,0.0300X0.0002*%
%ADD345R,0.0218X0.0002*%
%ADD346R,0.0172X0.0002*%
%ADD347R,0.0184X0.0002*%
%ADD348R,0.0294X0.0002*%
%ADD349R,0.0224X0.0002*%
%ADD350R,0.0146X0.0002*%
%ADD351R,0.0288X0.0002*%
%ADD352R,0.0230X0.0002*%
%ADD353R,0.0650X0.0002*%
%ADD354R,0.0284X0.0002*%
%ADD355R,0.0650X0.0002*%
%ADD356R,0.0282X0.0002*%
%ADD357R,0.0236X0.0002*%
%ADD358R,0.0648X0.0002*%
%ADD359R,0.0278X0.0002*%
%ADD360R,0.0240X0.0002*%
%ADD361R,0.0648X0.0002*%
%ADD362R,0.0242X0.0002*%
%ADD363R,0.0646X0.0002*%
%ADD364R,0.0272X0.0002*%
%ADD365R,0.0246X0.0002*%
%ADD366R,0.0398X0.0002*%
%ADD367R,0.0268X0.0002*%
%ADD368R,0.0420X0.0002*%
%ADD369R,0.0644X0.0002*%
%ADD370R,0.0252X0.0002*%
%ADD371R,0.0480X0.0002*%
%ADD372R,0.0642X0.0002*%
%ADD373R,0.0262X0.0002*%
%ADD374R,0.0256X0.0002*%
%ADD375R,0.0498X0.0002*%
%ADD376R,0.0642X0.0002*%
%ADD377R,0.0640X0.0002*%
%ADD378R,0.0262X0.0002*%
%ADD379R,0.0254X0.0002*%
%ADD380R,0.0266X0.0002*%
%ADD381R,0.0522X0.0002*%
%ADD382R,0.0638X0.0002*%
%ADD383R,0.0268X0.0002*%
%ADD384R,0.0528X0.0002*%
%ADD385R,0.0246X0.0002*%
%ADD386R,0.0634X0.0002*%
%ADD387R,0.0244X0.0002*%
%ADD388R,0.0538X0.0002*%
%ADD389R,0.0278X0.0002*%
%ADD390R,0.0540X0.0002*%
%ADD391R,0.0282X0.0002*%
%ADD392R,0.0544X0.0002*%
%ADD393R,0.0234X0.0002*%
%ADD394R,0.0546X0.0002*%
%ADD395R,0.0288X0.0002*%
%ADD396R,0.0548X0.0002*%
%ADD397R,0.0624X0.0002*%
%ADD398R,0.0292X0.0002*%
%ADD399R,0.0550X0.0002*%
%ADD400R,0.0552X0.0002*%
%ADD401R,0.0616X0.0002*%
%ADD402R,0.0192X0.0002*%
%ADD403R,0.0612X0.0002*%
%ADD404R,0.0214X0.0002*%
%ADD405R,0.0610X0.0002*%
%ADD406R,0.0604X0.0002*%
%ADD407R,0.0204X0.0002*%
%ADD408R,0.0558X0.0002*%
%ADD409R,0.0556X0.0002*%
%ADD410R,0.0598X0.0002*%
%ADD411R,0.0594X0.0002*%
%ADD412R,0.0590X0.0002*%
%ADD413R,0.0588X0.0002*%
%ADD414R,0.0166X0.0002*%
%ADD415R,0.0174X0.0002*%
%ADD416R,0.0184X0.0002*%
%ADD417R,0.0552X0.0002*%
%ADD418R,0.0574X0.0002*%
%ADD419R,0.0570X0.0002*%
%ADD420R,0.0202X0.0002*%
%ADD421R,0.0566X0.0002*%
%ADD422R,0.0222X0.0002*%
%ADD423R,0.0546X0.0002*%
%ADD424R,0.0554X0.0002*%
%ADD425R,0.0228X0.0002*%
%ADD426R,0.0224X0.0002*%
%ADD427R,0.0248X0.0002*%
%ADD428R,0.0538X0.0002*%
%ADD429R,0.0534X0.0002*%
%ADD430R,0.0532X0.0002*%
%ADD431R,0.0526X0.0002*%
%ADD432R,0.0264X0.0002*%
%ADD433R,0.0236X0.0002*%
%ADD434R,0.0530X0.0002*%
%ADD435R,0.0516X0.0002*%
%ADD436R,0.0272X0.0002*%
%ADD437R,0.0504X0.0002*%
%ADD438R,0.0280X0.0002*%
%ADD439R,0.0490X0.0002*%
%ADD440R,0.0518X0.0002*%
%ADD441R,0.0512X0.0002*%
%ADD442R,0.0252X0.0002*%
%ADD443R,0.0506X0.0002*%
%ADD444R,0.0312X0.0002*%
%ADD445R,0.0498X0.0002*%
%ADD446R,0.0322X0.0002*%
%ADD447R,0.0492X0.0002*%
%ADD448R,0.0328X0.0002*%
%ADD449R,0.0482X0.0002*%
%ADD450R,0.0264X0.0002*%
%ADD451R,0.0344X0.0002*%
%ADD452R,0.0454X0.0002*%
%ADD453R,0.0352X0.0002*%
%ADD454R,0.0274X0.0002*%
%ADD455R,0.0290X0.0002*%
%ADD456R,0.0070X0.0002*%
%ADD457R,0.0152X0.0002*%
%ADD458R,0.0282X0.0002*%
%ADD459R,0.0144X0.0002*%
%ADD460R,0.0134X0.0002*%
%ADD461R,0.0284X0.0002*%
%ADD462R,0.0122X0.0002*%
%ADD463R,0.0132X0.0002*%
%ADD464R,0.0136X0.0002*%
%ADD465R,0.0142X0.0002*%
%ADD466R,0.0292X0.0002*%
%ADD467R,0.0292X0.0002*%
%ADD468R,0.0314X0.0002*%
%ADD469R,0.0172X0.0002*%
%ADD470R,0.0112X0.0002*%
%ADD471R,0.0326X0.0002*%
%ADD472R,0.0334X0.0002*%
%ADD473R,0.0606X0.0002*%
%ADD474R,0.0458X0.0002*%
%ADD475R,0.0340X0.0002*%
%ADD476R,0.0464X0.0002*%
%ADD477R,0.0300X0.0002*%
%ADD478R,0.0470X0.0002*%
%ADD479R,0.0302X0.0002*%
%ADD480R,0.0622X0.0002*%
%ADD481R,0.0470X0.0002*%
%ADD482R,0.0304X0.0002*%
%ADD483R,0.0312X0.0002*%
%ADD484R,0.0472X0.0002*%
%ADD485R,0.0472X0.0002*%
%ADD486R,0.0474X0.0002*%
%ADD487R,0.0044X0.0002*%
%ADD488R,0.0320X0.0002*%
%ADD489R,0.0472X0.0002*%
%ADD490R,0.0362X0.0002*%
%ADD491R,0.0310X0.0002*%
%ADD492R,0.0472X0.0002*%
%ADD493R,0.0364X0.0002*%
%ADD494R,0.0364X0.0002*%
%ADD495R,0.0044X0.0002*%
%ADD496R,0.0468X0.0002*%
%ADD497R,0.0366X0.0002*%
%ADD498R,0.0366X0.0002*%
%ADD499R,0.0044X0.0002*%
%ADD500R,0.0466X0.0002*%
%ADD501R,0.0262X0.0002*%
%ADD502R,0.0464X0.0002*%
%ADD503R,0.0252X0.0002*%
%ADD504R,0.0462X0.0002*%
%ADD505R,0.0242X0.0002*%
%ADD506R,0.0078X0.0002*%
%ADD507R,0.0460X0.0002*%
%ADD508R,0.0164X0.0002*%
%ADD509R,0.0074X0.0002*%
%ADD510R,0.0458X0.0002*%
%ADD511R,0.0368X0.0002*%
%ADD512R,0.0216X0.0002*%
%ADD513R,0.0158X0.0002*%
%ADD514R,0.0456X0.0002*%
%ADD515R,0.0210X0.0002*%
%ADD516R,0.0062X0.0002*%
%ADD517R,0.0046X0.0002*%
%ADD518R,0.0452X0.0002*%
%ADD519R,0.0026X0.0002*%
%ADD520R,0.0448X0.0002*%
%ADD521R,0.0446X0.0002*%
%ADD522R,0.0142X0.0002*%
%ADD523R,0.0444X0.0002*%
%ADD524R,0.0168X0.0002*%
%ADD525R,0.0438X0.0002*%
%ADD526R,0.0436X0.0002*%
%ADD527R,0.0132X0.0002*%
%ADD528R,0.0432X0.0002*%
%ADD529R,0.0426X0.0002*%
%ADD530R,0.0362X0.0002*%
%ADD531R,0.0132X0.0002*%
%ADD532R,0.0422X0.0002*%
%ADD533R,0.0124X0.0002*%
%ADD534R,0.0584X0.0002*%
%ADD535R,0.0412X0.0002*%
%ADD536R,0.0408X0.0002*%
%ADD537R,0.0354X0.0002*%
%ADD538R,0.0404X0.0002*%
%ADD539R,0.0396X0.0002*%
%ADD540R,0.0348X0.0002*%
%ADD541R,0.0390X0.0002*%
%ADD542R,0.0082X0.0002*%
%ADD543R,0.0382X0.0002*%
%ADD544R,0.0342X0.0002*%
%ADD545R,0.0544X0.0002*%
%ADD546R,0.0376X0.0002*%
%ADD547R,0.0336X0.0002*%
%ADD548R,0.0328X0.0002*%
%ADD549R,0.0074X0.0002*%
%ADD550R,0.0530X0.0002*%
%ADD551R,0.0520X0.0002*%
%ADD552R,0.0030X0.0002*%
%ADD553R,0.0042X0.0002*%
%ADD554R,0.0004X0.0002*%
%ADD555R,0.0332X0.0002*%
%ADD556R,0.0014X0.0002*%
%ADD557R,0.0476X0.0002*%
%ADD558R,0.0292X0.0002*%
%ADD559R,0.0038X0.0002*%
%ADD560R,0.0042X0.0002*%
%ADD561R,0.0034X0.0002*%
%ADD562R,0.0072X0.0002*%
%ADD563R,0.0112X0.0002*%
%ADD564R,0.0042X0.0002*%
%ADD565R,0.0072X0.0002*%
%ADD566R,0.0142X0.0002*%
%ADD567R,0.0440X0.0002*%
%ADD568R,0.0452X0.0002*%
%ADD569R,0.0462X0.0002*%
%ADD570R,0.0464X0.0002*%
%ADD571R,0.0022X0.0002*%
%ADD572R,0.0462X0.0002*%
%ADD573R,0.0460X0.0002*%
%ADD574R,0.0182X0.0002*%
%ADD575R,0.0182X0.0002*%
%ADD576R,0.0084X0.0002*%
%ADD577R,0.0456X0.0002*%
%ADD578R,0.0454X0.0002*%
%ADD579R,0.0450X0.0002*%
%ADD580R,0.0446X0.0002*%
%ADD581R,0.0444X0.0002*%
%ADD582R,0.0442X0.0002*%
%ADD583R,0.0024X0.0002*%
%ADD584R,0.0440X0.0002*%
%ADD585R,0.0010X0.0002*%
%ADD586R,0.0434X0.0002*%
%ADD587R,0.0432X0.0002*%
%ADD588R,0.0426X0.0002*%
%ADD589R,0.0424X0.0002*%
%ADD590R,0.0420X0.0002*%
%ADD591R,0.0416X0.0002*%
%ADD592R,0.0412X0.0002*%
%ADD593R,0.0406X0.0002*%
%ADD594R,0.0402X0.0002*%
%ADD595R,0.0390X0.0002*%
%ADD596R,0.0386X0.0002*%
%ADD597R,0.0346X0.0002*%
%ADD598R,0.0008X0.0002*%
%ADD599R,0.0032X0.0002*%
%ADD600R,0.0010X0.0002*%
%ADD601R,0.0020X0.0002*%
%ADD602R,0.0204X0.0002*%
%ADD603R,0.0206X0.0002*%
%ADD604R,0.0034X0.0002*%
%ADD605R,0.0020X0.0002*%
%ADD606R,0.0222X0.0002*%
%ADD607R,0.0220X0.0002*%
%ADD608R,0.0074X0.0002*%
%ADD609R,0.0222X0.0002*%
%ADD610R,0.0342X0.0002*%
%ADD611R,0.0084X0.0002*%
%ADD612R,0.0028X0.0002*%
%ADD613R,0.0082X0.0002*%
%ADD614R,0.0018X0.0002*%
%ADD615R,0.0022X0.0002*%
%ADD616R,0.0040X0.0002*%
%ADD617R,0.0014X0.0002*%
%ADD618R,0.0026X0.0002*%
%ADD619R,0.0012X0.0002*%
%ADD620R,0.0002X0.0002*%
%ADD621R,0.0002X0.0002*%
%ADD622R,0.0016X0.0002*%
%ADD623R,0.0014X0.0002*%
%ADD624R,0.0006X0.0002*%
%ADD625R,0.0032X0.0002*%
%ADD626R,0.0034X0.0002*%
%ADD627R,0.0016X0.0002*%
%ADD628R,0.0038X0.0002*%
%ADD629R,0.0024X0.0002*%
%ADD630R,0.0004X0.0002*%
%ADD631R,0.0062X0.0002*%
%ADD632R,0.0024X0.0002*%
%ADD633R,0.0034X0.0002*%
%ADD634R,0.0022X0.0002*%
%ADD635R,0.0004X0.0002*%
%ADD636R,0.0022X0.0002*%
%ADD637C,0.0020*%
%ADD638C,0.0050*%
D10*
X000150Y000150D02*
X000150Y013930D01*
X013930Y013930D01*
X013930Y000150D01*
X000150Y000150D01*
X012237Y012788D02*
X012239Y012835D01*
X012245Y012881D01*
X012255Y012927D01*
X012268Y012972D01*
X012286Y013015D01*
X012307Y013057D01*
X012331Y013097D01*
X012359Y013134D01*
X012390Y013169D01*
X012424Y013202D01*
X012460Y013231D01*
X012499Y013257D01*
X012540Y013280D01*
X012583Y013299D01*
X012627Y013315D01*
X012672Y013327D01*
X012718Y013335D01*
X012765Y013339D01*
X012811Y013339D01*
X012858Y013335D01*
X012904Y013327D01*
X012949Y013315D01*
X012993Y013299D01*
X013036Y013280D01*
X013077Y013257D01*
X013116Y013231D01*
X013152Y013202D01*
X013186Y013169D01*
X013217Y013134D01*
X013245Y013097D01*
X013269Y013057D01*
X013290Y013015D01*
X013308Y012972D01*
X013321Y012927D01*
X013331Y012881D01*
X013337Y012835D01*
X013339Y012788D01*
X013337Y012741D01*
X013331Y012695D01*
X013321Y012649D01*
X013308Y012604D01*
X013290Y012561D01*
X013269Y012519D01*
X013245Y012479D01*
X013217Y012442D01*
X013186Y012407D01*
X013152Y012374D01*
X013116Y012345D01*
X013077Y012319D01*
X013036Y012296D01*
X012993Y012277D01*
X012949Y012261D01*
X012904Y012249D01*
X012858Y012241D01*
X012811Y012237D01*
X012765Y012237D01*
X012718Y012241D01*
X012672Y012249D01*
X012627Y012261D01*
X012583Y012277D01*
X012540Y012296D01*
X012499Y012319D01*
X012460Y012345D01*
X012424Y012374D01*
X012390Y012407D01*
X012359Y012442D01*
X012331Y012479D01*
X012307Y012519D01*
X012286Y012561D01*
X012268Y012604D01*
X012255Y012649D01*
X012245Y012695D01*
X012239Y012741D01*
X012237Y012788D01*
D11*
X001309Y001464D03*
D12*
X001307Y001466D03*
X000861Y002708D03*
X002191Y003126D03*
X002957Y003226D03*
D13*
X001585Y003022D03*
X001355Y002912D03*
X001125Y002276D03*
X001115Y002232D03*
X001115Y002228D03*
X001105Y002188D03*
X001105Y002186D03*
X001105Y002182D03*
X001095Y002142D03*
X001095Y002138D03*
X000515Y002512D03*
X001305Y001468D03*
D14*
X001300Y001470D03*
X001414Y002004D03*
X001388Y002384D03*
X001918Y002920D03*
X002668Y003254D03*
X000518Y002510D03*
X000422Y001940D03*
X004922Y002220D03*
X005628Y002360D03*
D15*
X005628Y002356D03*
X004016Y001688D03*
X003588Y002202D03*
X001906Y002356D03*
X001448Y002692D03*
X001066Y002626D03*
X000744Y002206D03*
X000572Y002422D03*
X000568Y002426D03*
X001296Y001472D03*
D16*
X001291Y001474D03*
X001907Y001700D03*
X001383Y002304D03*
X001063Y002730D03*
X001063Y002794D03*
X000843Y002620D03*
X001289Y003210D03*
X002439Y003054D03*
X002439Y003050D03*
X002439Y002994D03*
X002439Y002990D03*
X002439Y002984D03*
X004017Y002340D03*
X004017Y001704D03*
X004017Y001700D03*
X004907Y001700D03*
D17*
X004910Y002246D03*
X004910Y002248D03*
X004914Y002266D03*
X004914Y002268D03*
X004916Y002276D03*
X004916Y002278D03*
X005626Y001958D03*
X005626Y001956D03*
X005626Y001952D03*
X003306Y003286D03*
X002984Y003198D03*
X002984Y003196D03*
X002980Y003182D03*
X002980Y003178D03*
X002980Y003176D03*
X002976Y003158D03*
X002976Y003156D03*
X003104Y002976D03*
X003104Y002972D03*
X003106Y002962D03*
X003106Y002958D03*
X002680Y003278D03*
X002676Y003296D03*
X002676Y003298D03*
X002674Y003306D03*
X002674Y003308D03*
X002674Y003312D03*
X002174Y003092D03*
X001906Y002968D03*
X001906Y002966D03*
X001906Y002962D03*
X001840Y003168D03*
X001840Y003172D03*
X001836Y003188D03*
X001836Y003192D03*
X001296Y003158D03*
X001296Y003156D03*
X001286Y003198D03*
X001340Y002886D03*
X001340Y002882D03*
X001340Y002878D03*
X001344Y002866D03*
X001344Y002862D03*
X001344Y002858D03*
X001346Y002852D03*
X001346Y002848D03*
X001070Y002588D03*
X001070Y002586D03*
X001070Y002582D03*
X000844Y002636D03*
X000844Y002638D03*
X000844Y002642D03*
X000840Y002656D03*
X000840Y002658D03*
X000840Y002662D03*
X000836Y002676D03*
X001164Y002316D03*
X001374Y002366D03*
X001376Y002362D03*
X001376Y002358D03*
X001384Y002326D03*
X001384Y002322D03*
X001386Y002318D03*
X001386Y002316D03*
X002114Y002078D03*
X002114Y001812D03*
X002680Y001908D03*
X002854Y001912D03*
X002854Y001916D03*
X002854Y001918D03*
X002854Y001838D03*
X002854Y001836D03*
X001286Y001476D03*
D18*
X001280Y001478D03*
X001450Y002646D03*
X001450Y002648D03*
X002670Y001932D03*
X002860Y001812D03*
X003400Y002232D03*
D19*
X003600Y002184D03*
X002870Y001954D03*
X002868Y001800D03*
X002658Y001790D03*
X002130Y001784D03*
X002130Y002104D03*
X001276Y001480D03*
D20*
X001271Y001482D03*
X002139Y001778D03*
X002877Y001792D03*
X003387Y002092D03*
X003607Y002176D03*
X004711Y002112D03*
D21*
X001265Y001484D03*
D22*
X001259Y001486D03*
X001079Y002372D03*
X002897Y001972D03*
D23*
X003364Y002082D03*
X003634Y002148D03*
X003624Y001736D03*
X005140Y002308D03*
X001254Y001488D03*
X001066Y002376D03*
X000566Y002488D03*
D24*
X001248Y001490D03*
X003642Y001750D03*
X003838Y002024D03*
X003862Y002010D03*
X003668Y002124D03*
X003658Y002130D03*
X003652Y002134D03*
X005156Y002294D03*
X005148Y001754D03*
D25*
X005473Y001958D03*
X005577Y002028D03*
X003857Y001878D03*
X002909Y001778D03*
X001243Y001492D03*
X000837Y002166D03*
D26*
X001337Y002040D03*
X001237Y001494D03*
D27*
X001232Y001496D03*
X003952Y001966D03*
X005564Y002008D03*
D28*
X001322Y002046D03*
X001226Y001498D03*
D29*
X001221Y001500D03*
X003941Y001914D03*
D30*
X003935Y001906D03*
X005547Y001986D03*
X001215Y001502D03*
X000603Y002472D03*
D31*
X001209Y001504D03*
X003929Y001994D03*
D32*
X003922Y002002D03*
X005534Y002086D03*
X001182Y002082D03*
X000778Y001592D03*
X001204Y001506D03*
D33*
X001198Y001508D03*
X001000Y002122D03*
X005528Y001962D03*
D34*
X001193Y001510D03*
D35*
X001187Y001512D03*
D36*
X001181Y001514D03*
D37*
X001176Y001516D03*
X000830Y001578D03*
X001844Y002126D03*
X001846Y002198D03*
D38*
X001845Y002132D03*
X001171Y001518D03*
X001067Y001536D03*
X001055Y001538D03*
X001031Y001542D03*
X001009Y001546D03*
X000893Y001566D03*
D39*
X001165Y001520D03*
X001845Y002164D03*
X002371Y002204D03*
X003165Y002350D03*
D40*
X001159Y001522D03*
D41*
X001154Y001524D03*
D42*
X001149Y001526D03*
D43*
X001143Y001528D03*
X002353Y002188D03*
D44*
X001137Y001530D03*
D45*
X001325Y001532D03*
X001329Y001546D03*
X001329Y001548D03*
X001331Y001556D03*
X001331Y001558D03*
X001365Y001726D03*
X001371Y001758D03*
X001411Y001962D03*
X001415Y001982D03*
X000759Y002106D03*
X000759Y002108D03*
X000759Y002112D03*
X000759Y002116D03*
X000761Y002118D03*
X000761Y002122D03*
X000761Y002126D03*
X000755Y002092D03*
X000755Y002088D03*
X000755Y002086D03*
X000751Y002072D03*
X000751Y002068D03*
X000751Y002066D03*
X000749Y002062D03*
X000749Y002058D03*
X000749Y002056D03*
X000745Y002038D03*
X000745Y002036D03*
X000745Y002032D03*
X000741Y002018D03*
X000741Y002016D03*
X000741Y002012D03*
X000739Y002006D03*
X000739Y002002D03*
X000735Y001982D03*
X000735Y001978D03*
X000731Y001958D03*
X000731Y001956D03*
X000729Y001948D03*
X000729Y001946D03*
X000725Y001926D03*
X000721Y001902D03*
X000715Y001868D03*
X000691Y001736D03*
X000689Y001726D03*
X000689Y001722D03*
X000685Y001706D03*
X000685Y001702D03*
X000681Y001686D03*
X000681Y001682D03*
X000681Y001678D03*
X000679Y001672D03*
X000421Y001962D03*
X000421Y001966D03*
X000421Y001968D03*
X000425Y001992D03*
X000425Y001996D03*
X000429Y002016D03*
X000429Y002018D03*
X000429Y002022D03*
X000431Y002028D03*
X000431Y002032D03*
X000431Y002036D03*
X000435Y002056D03*
X000435Y002058D03*
X000435Y002062D03*
X000439Y002082D03*
X000439Y002086D03*
X000439Y002088D03*
X000441Y002092D03*
X000441Y002096D03*
X000441Y002098D03*
X000441Y002102D03*
X000445Y002118D03*
X000445Y002122D03*
X000445Y002126D03*
X000445Y002128D03*
X000449Y002146D03*
X000449Y002148D03*
X000449Y002152D03*
X000451Y002158D03*
X000451Y002162D03*
X000451Y002166D03*
X000455Y002186D03*
X000455Y002188D03*
X000455Y002192D03*
X000459Y002212D03*
X000459Y002216D03*
X000459Y002218D03*
X000461Y002222D03*
X000461Y002226D03*
X000461Y002228D03*
X000465Y002248D03*
X000465Y002252D03*
X000465Y002256D03*
X000469Y002276D03*
X000469Y002278D03*
X000469Y002282D03*
X000471Y002288D03*
X000471Y002292D03*
X000471Y002296D03*
X000475Y002316D03*
X000475Y002318D03*
X000475Y002322D03*
X000479Y002342D03*
X000479Y002346D03*
X000479Y002348D03*
X000481Y002352D03*
X000481Y002356D03*
X000481Y002358D03*
X000481Y002362D03*
X000485Y002378D03*
X000485Y002382D03*
X000485Y002386D03*
X000485Y002388D03*
X000489Y002406D03*
X000489Y002408D03*
X000489Y002412D03*
X000489Y002416D03*
X000491Y002418D03*
X000491Y002422D03*
X000491Y002426D03*
X000491Y002428D03*
D46*
X001093Y001532D03*
D47*
X001326Y001534D03*
X000752Y002074D03*
X000754Y002084D03*
X000446Y002130D03*
X000442Y002104D03*
X000436Y002064D03*
X000428Y002014D03*
X000426Y002000D03*
X000422Y001974D03*
X000422Y001970D03*
X000454Y002180D03*
X000456Y002194D03*
X000462Y002234D03*
X000466Y002260D03*
X000468Y002270D03*
X000474Y002310D03*
X000476Y002324D03*
X000482Y002364D03*
X000486Y002390D03*
X001056Y002630D03*
X000944Y003104D03*
X000678Y001664D03*
D48*
X000870Y001570D03*
X000904Y001564D03*
X000928Y001560D03*
X000964Y001554D03*
X001080Y001534D03*
D49*
X001327Y001536D03*
X001327Y001538D03*
X001327Y001542D03*
X001333Y001566D03*
X001373Y001768D03*
X001413Y001972D03*
X001417Y001992D03*
X001417Y001996D03*
X001417Y002002D03*
X000763Y002128D03*
X000763Y002132D03*
X000757Y002102D03*
X000757Y002098D03*
X000757Y002096D03*
X000753Y002082D03*
X000753Y002078D03*
X000753Y002076D03*
X000747Y002048D03*
X000747Y002046D03*
X000747Y002042D03*
X000743Y002028D03*
X000743Y002026D03*
X000743Y002022D03*
X000737Y001992D03*
X000737Y001988D03*
X000733Y001972D03*
X000733Y001968D03*
X000733Y001966D03*
X000727Y001938D03*
X000727Y001936D03*
X000723Y001912D03*
X000697Y001768D03*
X000693Y001746D03*
X000687Y001716D03*
X000687Y001712D03*
X000683Y001696D03*
X000683Y001692D03*
X000683Y001688D03*
X000677Y001662D03*
X000423Y001976D03*
X000423Y001978D03*
X000423Y001982D03*
X000427Y002002D03*
X000427Y002006D03*
X000427Y002008D03*
X000433Y002042D03*
X000433Y002046D03*
X000433Y002048D03*
X000437Y002066D03*
X000437Y002068D03*
X000437Y002072D03*
X000437Y002076D03*
X000443Y002106D03*
X000443Y002108D03*
X000443Y002112D03*
X000447Y002132D03*
X000447Y002136D03*
X000447Y002138D03*
X000453Y002172D03*
X000453Y002176D03*
X000453Y002178D03*
X000457Y002196D03*
X000457Y002198D03*
X000457Y002202D03*
X000463Y002236D03*
X000463Y002238D03*
X000463Y002242D03*
X000467Y002262D03*
X000467Y002266D03*
X000467Y002268D03*
X000473Y002302D03*
X000473Y002306D03*
X000473Y002308D03*
X000477Y002326D03*
X000477Y002328D03*
X000477Y002332D03*
X000483Y002366D03*
X000483Y002368D03*
X000483Y002372D03*
X000487Y002392D03*
X000487Y002396D03*
X000487Y002398D03*
X000487Y002402D03*
X000493Y002432D03*
X000493Y002436D03*
X001283Y003126D03*
D50*
X000493Y002434D03*
X000487Y002400D03*
X000487Y002394D03*
X000483Y002374D03*
X000483Y002370D03*
X000477Y002334D03*
X000477Y002330D03*
X000473Y002304D03*
X000473Y002300D03*
X000467Y002264D03*
X000463Y002244D03*
X000463Y002240D03*
X000457Y002204D03*
X000457Y002200D03*
X000453Y002174D03*
X000453Y002170D03*
X000447Y002140D03*
X000447Y002134D03*
X000443Y002114D03*
X000443Y002110D03*
X000437Y002074D03*
X000437Y002070D03*
X000433Y002050D03*
X000433Y002044D03*
X000433Y002040D03*
X000427Y002010D03*
X000427Y002004D03*
X000423Y001984D03*
X000423Y001980D03*
X000723Y001914D03*
X000727Y001934D03*
X000733Y001970D03*
X000737Y001990D03*
X000737Y001994D03*
X000743Y002020D03*
X000743Y002024D03*
X000743Y002030D03*
X000747Y002044D03*
X000747Y002050D03*
X000753Y002080D03*
X000757Y002100D03*
X000757Y002104D03*
X000763Y002130D03*
X000763Y002134D03*
X000717Y001880D03*
X000687Y001714D03*
X000683Y001694D03*
X000683Y001690D03*
X000677Y001660D03*
X001327Y001540D03*
X001333Y001564D03*
X001337Y001584D03*
X001413Y001970D03*
X001417Y001994D03*
X004903Y002314D03*
D51*
X001845Y002190D03*
X001845Y002134D03*
X001043Y001540D03*
X001021Y001544D03*
X000847Y001574D03*
D52*
X000679Y001670D03*
X000679Y001674D03*
X000681Y001680D03*
X000681Y001684D03*
X000685Y001700D03*
X000685Y001704D03*
X000689Y001724D03*
X000691Y001734D03*
X000719Y001890D03*
X000725Y001924D03*
X000731Y001960D03*
X000735Y001980D03*
X000735Y001984D03*
X000739Y002000D03*
X000739Y002004D03*
X000741Y002010D03*
X000741Y002014D03*
X000745Y002034D03*
X000745Y002040D03*
X000749Y002054D03*
X000749Y002060D03*
X000751Y002064D03*
X000751Y002070D03*
X000755Y002090D03*
X000755Y002094D03*
X000759Y002110D03*
X000759Y002114D03*
X000761Y002120D03*
X000761Y002124D03*
X000455Y002184D03*
X000455Y002190D03*
X000459Y002210D03*
X000459Y002214D03*
X000461Y002224D03*
X000461Y002230D03*
X000465Y002250D03*
X000465Y002254D03*
X000469Y002274D03*
X000469Y002280D03*
X000471Y002290D03*
X000471Y002294D03*
X000475Y002314D03*
X000475Y002320D03*
X000479Y002340D03*
X000479Y002344D03*
X000481Y002354D03*
X000481Y002360D03*
X000485Y002380D03*
X000485Y002384D03*
X000489Y002404D03*
X000489Y002410D03*
X000489Y002414D03*
X000491Y002420D03*
X000491Y002424D03*
X000451Y002164D03*
X000451Y002160D03*
X000449Y002154D03*
X000449Y002150D03*
X000449Y002144D03*
X000445Y002124D03*
X000445Y002120D03*
X000441Y002100D03*
X000441Y002094D03*
X000439Y002084D03*
X000439Y002080D03*
X000435Y002060D03*
X000435Y002054D03*
X000431Y002034D03*
X000431Y002030D03*
X000429Y002024D03*
X000429Y002020D03*
X000425Y001994D03*
X000425Y001990D03*
X000421Y001964D03*
X001335Y001574D03*
X001331Y001554D03*
X001329Y001550D03*
X001329Y001544D03*
X001411Y001960D03*
X001415Y001980D03*
X001415Y001984D03*
X001371Y002290D03*
X001535Y002860D03*
X002175Y003024D03*
D53*
X001846Y002188D03*
X001246Y002076D03*
X000998Y001548D03*
X000952Y001556D03*
X000940Y001558D03*
X000916Y001562D03*
X000882Y001568D03*
X000858Y001572D03*
X002994Y001976D03*
D54*
X001845Y002140D03*
X000987Y001550D03*
D55*
X001330Y001552D03*
X001332Y001562D03*
X001334Y001568D03*
X001334Y001572D03*
X001336Y001576D03*
X001336Y001578D03*
X001336Y001582D03*
X001338Y001586D03*
X001338Y001588D03*
X001338Y001592D03*
X001340Y001596D03*
X001340Y001598D03*
X001340Y001602D03*
X001342Y001606D03*
X001342Y001608D03*
X001342Y001612D03*
X001344Y001616D03*
X001344Y001618D03*
X001346Y001626D03*
X001346Y001628D03*
X001348Y001636D03*
X001348Y001638D03*
X001350Y001646D03*
X001350Y001648D03*
X001352Y001656D03*
X001352Y001658D03*
X001352Y001662D03*
X001354Y001666D03*
X001354Y001668D03*
X001354Y001672D03*
X001356Y001676D03*
X001356Y001678D03*
X001356Y001682D03*
X001358Y001686D03*
X001358Y001688D03*
X001358Y001692D03*
X001360Y001696D03*
X001360Y001698D03*
X001360Y001702D03*
X001362Y001706D03*
X001362Y001708D03*
X001362Y001712D03*
X001364Y001716D03*
X001364Y001718D03*
X001364Y001722D03*
X001366Y001728D03*
X001366Y001732D03*
X001366Y001736D03*
X001368Y001738D03*
X001368Y001742D03*
X001368Y001746D03*
X001370Y001748D03*
X001370Y001752D03*
X001370Y001756D03*
X001372Y001762D03*
X001372Y001766D03*
X001374Y001772D03*
X001374Y001776D03*
X001374Y001778D03*
X001376Y001782D03*
X001376Y001786D03*
X001376Y001788D03*
X001378Y001792D03*
X001378Y001796D03*
X001378Y001798D03*
X001380Y001802D03*
X001380Y001806D03*
X001380Y001808D03*
X001382Y001812D03*
X001382Y001816D03*
X001382Y001818D03*
X001384Y001822D03*
X001384Y001826D03*
X001384Y001828D03*
X001386Y001832D03*
X001386Y001836D03*
X001386Y001838D03*
X001388Y001842D03*
X001388Y001846D03*
X001388Y001848D03*
X001390Y001852D03*
X001390Y001856D03*
X001390Y001858D03*
X001392Y001862D03*
X001392Y001866D03*
X001392Y001868D03*
X001394Y001872D03*
X001394Y001876D03*
X001394Y001878D03*
X001396Y001882D03*
X001396Y001886D03*
X001396Y001888D03*
X001398Y001892D03*
X001398Y001896D03*
X001398Y001898D03*
X001400Y001902D03*
X001400Y001906D03*
X001400Y001908D03*
X001402Y001912D03*
X001402Y001916D03*
X001402Y001918D03*
X001404Y001922D03*
X001404Y001926D03*
X001404Y001928D03*
X001406Y001932D03*
X001406Y001936D03*
X001406Y001938D03*
X001408Y001942D03*
X001408Y001946D03*
X001408Y001948D03*
X001410Y001952D03*
X001410Y001956D03*
X001410Y001958D03*
X001412Y001966D03*
X001412Y001968D03*
X001414Y001976D03*
X001414Y001978D03*
X001416Y001986D03*
X001416Y001988D03*
X001418Y001998D03*
X001390Y002386D03*
X001450Y002702D03*
X001302Y003222D03*
X002186Y003118D03*
X002966Y003222D03*
X002990Y003126D03*
X001908Y001682D03*
X000720Y001892D03*
X000720Y001896D03*
X000720Y001898D03*
X000722Y001906D03*
X000722Y001908D03*
X000724Y001916D03*
X000724Y001918D03*
X000724Y001922D03*
X000726Y001928D03*
X000726Y001932D03*
X000728Y001942D03*
X000730Y001952D03*
X000732Y001962D03*
X000734Y001976D03*
X000736Y001986D03*
X000738Y001996D03*
X000738Y001998D03*
X000740Y002008D03*
X000718Y001888D03*
X000718Y001886D03*
X000718Y001882D03*
X000716Y001878D03*
X000716Y001876D03*
X000716Y001872D03*
X000714Y001866D03*
X000714Y001862D03*
X000714Y001858D03*
X000712Y001856D03*
X000712Y001852D03*
X000712Y001848D03*
X000712Y001846D03*
X000710Y001842D03*
X000710Y001838D03*
X000710Y001836D03*
X000708Y001832D03*
X000708Y001828D03*
X000708Y001826D03*
X000706Y001822D03*
X000706Y001818D03*
X000706Y001816D03*
X000704Y001808D03*
X000704Y001806D03*
X000704Y001802D03*
X000702Y001798D03*
X000702Y001796D03*
X000702Y001792D03*
X000700Y001788D03*
X000700Y001786D03*
X000700Y001782D03*
X000698Y001778D03*
X000698Y001776D03*
X000698Y001772D03*
X000696Y001766D03*
X000696Y001762D03*
X000696Y001758D03*
X000694Y001756D03*
X000694Y001752D03*
X000694Y001748D03*
X000692Y001742D03*
X000692Y001738D03*
X000690Y001732D03*
X000690Y001728D03*
X000688Y001718D03*
X000686Y001708D03*
X000684Y001698D03*
X004906Y001682D03*
X004926Y002218D03*
D56*
X003163Y002352D03*
X002375Y002206D03*
X001845Y002186D03*
X001845Y002138D03*
X001845Y002136D03*
X000975Y001552D03*
D57*
X000704Y001804D03*
X000702Y001800D03*
X000702Y001794D03*
X000700Y001784D03*
X000700Y001780D03*
X000698Y001774D03*
X000698Y001770D03*
X000696Y001764D03*
X000696Y001760D03*
X000694Y001754D03*
X000694Y001750D03*
X000692Y001744D03*
X000692Y001740D03*
X000690Y001730D03*
X000688Y001720D03*
X000686Y001710D03*
X000704Y001810D03*
X000706Y001814D03*
X000706Y001820D03*
X000708Y001824D03*
X000708Y001830D03*
X000708Y001834D03*
X000710Y001840D03*
X000710Y001844D03*
X000712Y001850D03*
X000712Y001854D03*
X000714Y001860D03*
X000714Y001864D03*
X000716Y001870D03*
X000716Y001874D03*
X000718Y001884D03*
X000720Y001894D03*
X000720Y001900D03*
X000722Y001904D03*
X000722Y001910D03*
X000724Y001920D03*
X000726Y001930D03*
X000728Y001940D03*
X000728Y001944D03*
X000730Y001950D03*
X000730Y001954D03*
X000732Y001964D03*
X000734Y001974D03*
X000492Y002430D03*
X001406Y001940D03*
X001408Y001944D03*
X001408Y001950D03*
X001410Y001954D03*
X001412Y001964D03*
X001414Y001974D03*
X001416Y001990D03*
X001418Y002000D03*
X001406Y001934D03*
X001404Y001930D03*
X001404Y001924D03*
X001402Y001920D03*
X001402Y001914D03*
X001400Y001904D03*
X001398Y001894D03*
X001396Y001884D03*
X001394Y001880D03*
X001394Y001874D03*
X001392Y001870D03*
X001392Y001864D03*
X001390Y001860D03*
X001390Y001854D03*
X001388Y001850D03*
X001388Y001844D03*
X001386Y001840D03*
X001386Y001834D03*
X001386Y001830D03*
X001384Y001824D03*
X001384Y001820D03*
X001382Y001814D03*
X001382Y001810D03*
X001380Y001804D03*
X001380Y001800D03*
X001378Y001794D03*
X001378Y001790D03*
X001376Y001784D03*
X001376Y001780D03*
X001374Y001774D03*
X001374Y001770D03*
X001372Y001764D03*
X001372Y001760D03*
X001370Y001754D03*
X001370Y001750D03*
X001368Y001744D03*
X001368Y001740D03*
X001366Y001734D03*
X001366Y001730D03*
X001364Y001724D03*
X001364Y001720D03*
X001362Y001714D03*
X001362Y001710D03*
X001360Y001704D03*
X001360Y001700D03*
X001358Y001690D03*
X001356Y001680D03*
X001356Y001674D03*
X001354Y001670D03*
X001354Y001664D03*
X001352Y001660D03*
X001352Y001654D03*
X001350Y001650D03*
X001350Y001644D03*
X001348Y001640D03*
X001348Y001634D03*
X001346Y001630D03*
X001346Y001624D03*
X001344Y001620D03*
X001344Y001614D03*
X001342Y001610D03*
X001342Y001604D03*
X001340Y001600D03*
X001340Y001594D03*
X001338Y001590D03*
X001336Y001580D03*
X001334Y001570D03*
X001332Y001560D03*
X001910Y002360D03*
X001444Y002610D03*
X003094Y002920D03*
X003116Y003014D03*
X004018Y002360D03*
X005086Y001680D03*
D58*
X001844Y002128D03*
X000838Y001576D03*
D59*
X000822Y001580D03*
X001262Y002070D03*
D60*
X000814Y001582D03*
X000636Y002458D03*
D61*
X000954Y002134D03*
X000806Y001584D03*
D62*
X000799Y001586D03*
D63*
X000792Y001588D03*
X001282Y002062D03*
D64*
X001287Y002060D03*
X001009Y002120D03*
X000785Y001590D03*
X003917Y001884D03*
D65*
X003925Y001894D03*
X000771Y001594D03*
D66*
X000764Y001596D03*
X005542Y002076D03*
D67*
X005548Y002068D03*
X003936Y001986D03*
X000758Y001598D03*
D68*
X000752Y001600D03*
X000598Y002474D03*
X003940Y001980D03*
D69*
X003945Y001918D03*
X005557Y001998D03*
X005557Y002056D03*
X000745Y001602D03*
X000593Y002476D03*
D70*
X000738Y001604D03*
X003338Y002080D03*
X005562Y002050D03*
D71*
X005567Y002012D03*
X003955Y001962D03*
X002605Y001966D03*
X002427Y002216D03*
X001009Y002392D03*
X000943Y002406D03*
X000933Y002408D03*
X000915Y002412D03*
X000749Y002446D03*
X000739Y002448D03*
X000731Y001606D03*
D72*
X000726Y001608D03*
X000580Y002482D03*
X003960Y001956D03*
X003960Y001938D03*
X005572Y002018D03*
X005572Y002036D03*
D73*
X005577Y002024D03*
X003965Y001944D03*
X003861Y001880D03*
X000719Y001610D03*
X000575Y002484D03*
D74*
X000712Y001612D03*
X003654Y002132D03*
X003678Y002118D03*
X003688Y002112D03*
X003800Y002046D03*
X003814Y002038D03*
X003824Y002032D03*
X003848Y002018D03*
X003852Y002016D03*
X003858Y002012D03*
X005144Y001752D03*
X005150Y001756D03*
X005158Y002292D03*
D75*
X002898Y001780D03*
X000706Y001614D03*
D76*
X000700Y001616D03*
D77*
X000693Y001618D03*
X002153Y002118D03*
X003619Y002162D03*
X004699Y002118D03*
X005125Y002322D03*
X005111Y001722D03*
D78*
X003612Y002170D03*
X000686Y001620D03*
D79*
X000705Y001812D03*
X001351Y001652D03*
X001349Y001642D03*
X001347Y001632D03*
X001345Y001622D03*
X001889Y003016D03*
X001851Y003222D03*
X003587Y002206D03*
X004019Y001682D03*
D80*
X004714Y001786D03*
X005100Y001708D03*
X000794Y002182D03*
X000548Y002496D03*
X000680Y001622D03*
D81*
X000673Y001624D03*
X000531Y002440D03*
X002659Y001944D03*
X003395Y002100D03*
X003391Y002244D03*
X003595Y001704D03*
X005097Y001704D03*
D82*
X004726Y001798D03*
X005108Y002346D03*
X003598Y002188D03*
X003398Y002236D03*
X003590Y001698D03*
X002864Y001806D03*
X002862Y001808D03*
X002664Y001796D03*
X002666Y001938D03*
X002124Y002098D03*
X001906Y002212D03*
X001446Y002656D03*
X001446Y002658D03*
X001444Y002662D03*
X001442Y002666D03*
X000528Y002452D03*
X000644Y001658D03*
X000644Y001656D03*
X000666Y001626D03*
D83*
X000659Y001628D03*
X000647Y001646D03*
X001451Y002642D03*
X002185Y003056D03*
X002175Y003086D03*
X002117Y002086D03*
X002673Y001926D03*
X002857Y001932D03*
X002859Y001936D03*
X002859Y001938D03*
X002857Y001822D03*
X003409Y002126D03*
X003409Y002128D03*
X003411Y002132D03*
X003411Y002136D03*
X003411Y002138D03*
X003411Y002142D03*
X003405Y002222D03*
X003595Y002192D03*
X004735Y001812D03*
D84*
X004909Y001720D03*
X004909Y002124D03*
X004909Y002130D03*
X005629Y001710D03*
X003301Y003324D03*
X003301Y003330D03*
X002983Y003204D03*
X003099Y003000D03*
X002111Y002070D03*
X002111Y001960D03*
X002111Y001954D03*
X002111Y001830D03*
X001907Y001720D03*
X001907Y001714D03*
X001397Y002014D03*
X001375Y002370D03*
X001163Y002320D03*
X001067Y002550D03*
X001067Y002554D03*
X001073Y002610D03*
X001073Y002614D03*
X001445Y002680D03*
X001547Y002780D03*
X001555Y002844D03*
X001605Y003044D03*
X001599Y003100D03*
X001599Y003104D03*
X001843Y003144D03*
X001909Y003000D03*
X001909Y002994D03*
X001903Y002940D03*
X001903Y002934D03*
X001907Y002324D03*
X001907Y002320D03*
X000955Y003020D03*
X000955Y003024D03*
X000653Y001630D03*
D85*
X000651Y001632D03*
X001067Y002552D03*
X001067Y002556D03*
X001073Y002612D03*
X001073Y002616D03*
X000845Y002626D03*
X000955Y003022D03*
X000955Y003026D03*
X000963Y003086D03*
X001297Y003146D03*
X001599Y003106D03*
X001599Y003102D03*
X001605Y003048D03*
X001605Y003046D03*
X001605Y003042D03*
X001555Y002842D03*
X001547Y002782D03*
X001547Y002778D03*
X001547Y002776D03*
X001451Y002632D03*
X001347Y002832D03*
X001903Y002936D03*
X001903Y002938D03*
X001909Y002992D03*
X001909Y002996D03*
X001909Y002998D03*
X002183Y003046D03*
X002175Y003098D03*
X001907Y002326D03*
X001907Y002322D03*
X001907Y002318D03*
X001907Y002316D03*
X002111Y002068D03*
X002111Y002066D03*
X002111Y001958D03*
X002111Y001956D03*
X002111Y001952D03*
X002111Y001832D03*
X002111Y001828D03*
X002111Y001826D03*
X001907Y001718D03*
X001907Y001716D03*
X001907Y001712D03*
X003109Y002936D03*
X003307Y003266D03*
X003301Y003322D03*
X003301Y003326D03*
X003301Y003328D03*
X004909Y002236D03*
X004909Y002128D03*
X004909Y002126D03*
X004909Y002122D03*
X004909Y001722D03*
X004909Y001718D03*
X004909Y001716D03*
X005629Y001708D03*
D86*
X005628Y001714D03*
X005628Y001720D03*
X005628Y001724D03*
X005628Y001730D03*
X005628Y001734D03*
X005628Y001740D03*
X005628Y001744D03*
X005628Y001750D03*
X005628Y001754D03*
X005628Y001760D03*
X005628Y001764D03*
X005628Y001770D03*
X005628Y001774D03*
X005628Y001780D03*
X005628Y001784D03*
X005628Y001790D03*
X005628Y001794D03*
X005628Y001800D03*
X005628Y001804D03*
X005628Y001810D03*
X005628Y001814D03*
X005628Y001820D03*
X005628Y001824D03*
X005628Y001830D03*
X005628Y001834D03*
X005628Y001840D03*
X005628Y001844D03*
X005628Y001850D03*
X005628Y001854D03*
X005628Y001860D03*
X005628Y001864D03*
X005628Y001870D03*
X005628Y001874D03*
X005628Y001880D03*
X005628Y001884D03*
X005628Y001890D03*
X005628Y001894D03*
X005628Y001900D03*
X005628Y001904D03*
X005628Y001910D03*
X005628Y001914D03*
X005628Y002120D03*
X005628Y002124D03*
X005628Y002130D03*
X005628Y002134D03*
X005628Y002140D03*
X005628Y002144D03*
X005628Y002150D03*
X005628Y002154D03*
X005628Y002160D03*
X005628Y002164D03*
X005628Y002170D03*
X005628Y002174D03*
X005628Y002180D03*
X005628Y002184D03*
X005628Y002190D03*
X005628Y002194D03*
X005628Y002200D03*
X005628Y002204D03*
X005628Y002210D03*
X005628Y002214D03*
X005628Y002220D03*
X005628Y002224D03*
X005628Y002230D03*
X005628Y002234D03*
X005628Y002240D03*
X005628Y002244D03*
X005628Y002250D03*
X005628Y002254D03*
X005628Y002260D03*
X005628Y002264D03*
X005628Y002270D03*
X005628Y002274D03*
X005628Y002280D03*
X005628Y002284D03*
X005628Y002290D03*
X005628Y002294D03*
X005628Y002300D03*
X005628Y002304D03*
X005628Y002310D03*
X005628Y002314D03*
X005628Y002320D03*
X005628Y002324D03*
X005628Y002330D03*
X005628Y002334D03*
X005104Y002354D03*
X004910Y002120D03*
X004910Y002114D03*
X004910Y002110D03*
X004910Y002104D03*
X004910Y002100D03*
X004910Y002094D03*
X004910Y002090D03*
X004910Y002084D03*
X004910Y002080D03*
X004910Y002074D03*
X004910Y002070D03*
X004910Y002064D03*
X004910Y002060D03*
X004910Y002054D03*
X004910Y002050D03*
X004910Y002044D03*
X004910Y002040D03*
X004910Y002034D03*
X004910Y002030D03*
X004910Y002024D03*
X004910Y002020D03*
X004910Y002014D03*
X004910Y002010D03*
X004910Y002004D03*
X004910Y002000D03*
X004910Y001994D03*
X004910Y001990D03*
X004910Y001984D03*
X004910Y001980D03*
X004910Y001974D03*
X004910Y001970D03*
X004910Y001964D03*
X004910Y001960D03*
X004910Y001954D03*
X004910Y001950D03*
X004910Y001944D03*
X004910Y001940D03*
X004910Y001934D03*
X004910Y001930D03*
X004910Y001924D03*
X004910Y001920D03*
X004910Y001914D03*
X004910Y001910D03*
X004910Y001904D03*
X004910Y001900D03*
X004910Y001894D03*
X004910Y001890D03*
X004910Y001884D03*
X004910Y001880D03*
X004910Y001874D03*
X004910Y001870D03*
X004910Y001864D03*
X004910Y001860D03*
X004910Y001854D03*
X004910Y001850D03*
X004910Y001844D03*
X004910Y001840D03*
X004910Y001834D03*
X004910Y001830D03*
X004910Y001824D03*
X004910Y001820D03*
X004910Y001814D03*
X004910Y001810D03*
X004910Y001804D03*
X004910Y001800D03*
X004910Y001794D03*
X004910Y001790D03*
X004910Y001784D03*
X004910Y001780D03*
X004910Y001774D03*
X004910Y001770D03*
X004910Y001764D03*
X004910Y001760D03*
X004910Y001754D03*
X004910Y001750D03*
X004910Y001744D03*
X004910Y001740D03*
X004910Y001734D03*
X004910Y001730D03*
X004910Y001724D03*
X004740Y001840D03*
X004740Y001844D03*
X004740Y001850D03*
X004740Y001854D03*
X004740Y001860D03*
X004740Y001864D03*
X004740Y001870D03*
X004740Y001874D03*
X004740Y001880D03*
X004740Y001884D03*
X004740Y001890D03*
X004740Y001894D03*
X004740Y001900D03*
X004740Y001904D03*
X004740Y001910D03*
X004740Y001914D03*
X004740Y001920D03*
X004740Y001924D03*
X004740Y001930D03*
X004740Y001934D03*
X004740Y001940D03*
X004740Y001944D03*
X004740Y001950D03*
X004740Y001954D03*
X004740Y001960D03*
X004740Y001964D03*
X004740Y001970D03*
X004740Y001974D03*
X004740Y001980D03*
X004740Y001984D03*
X004740Y001990D03*
X004740Y001994D03*
X004740Y002000D03*
X004740Y002004D03*
X004740Y002010D03*
X004740Y002014D03*
X004740Y002020D03*
X004740Y002024D03*
X004740Y002030D03*
X004740Y002034D03*
X004740Y002040D03*
X004740Y002044D03*
X004740Y002050D03*
X004740Y002054D03*
X004740Y002060D03*
X004740Y002064D03*
X004016Y002314D03*
X004016Y002320D03*
X004016Y001730D03*
X004016Y001724D03*
X004016Y001720D03*
X003586Y001690D03*
X002682Y001840D03*
X002682Y001844D03*
X002682Y001850D03*
X002682Y001890D03*
X002682Y001894D03*
X002112Y001824D03*
X002112Y001820D03*
X001906Y001820D03*
X001906Y001824D03*
X001906Y001830D03*
X001906Y001834D03*
X001906Y001840D03*
X001906Y001844D03*
X001906Y001850D03*
X001906Y001854D03*
X001906Y001860D03*
X001906Y001864D03*
X001906Y001870D03*
X001906Y001874D03*
X001906Y001880D03*
X001906Y001884D03*
X001906Y001890D03*
X001906Y001894D03*
X001906Y001900D03*
X001906Y001904D03*
X001906Y001910D03*
X001906Y001914D03*
X001906Y001920D03*
X001906Y001924D03*
X001906Y001930D03*
X001906Y001934D03*
X001906Y001940D03*
X001906Y001944D03*
X001906Y001950D03*
X001906Y001954D03*
X001906Y001960D03*
X001906Y001964D03*
X001906Y001970D03*
X001906Y001974D03*
X001906Y001980D03*
X001906Y001984D03*
X001906Y001990D03*
X001906Y001994D03*
X001906Y002000D03*
X001906Y002004D03*
X001906Y002010D03*
X001906Y002014D03*
X001906Y002020D03*
X001906Y002024D03*
X001906Y002030D03*
X001906Y002034D03*
X001906Y002040D03*
X001906Y002044D03*
X001906Y002050D03*
X001906Y002054D03*
X001906Y002060D03*
X001906Y002064D03*
X001906Y002070D03*
X001906Y002074D03*
X001906Y002080D03*
X001906Y002084D03*
X001906Y002090D03*
X001906Y002094D03*
X001906Y002100D03*
X001906Y002104D03*
X001906Y002224D03*
X001906Y002230D03*
X001906Y002234D03*
X001906Y002240D03*
X001906Y002244D03*
X001906Y002250D03*
X001906Y002254D03*
X001906Y002260D03*
X001906Y002294D03*
X001906Y002300D03*
X001906Y002304D03*
X001906Y002310D03*
X001906Y002314D03*
X002112Y002074D03*
X001906Y001814D03*
X001906Y001810D03*
X001906Y001804D03*
X001906Y001800D03*
X001906Y001794D03*
X001906Y001790D03*
X001906Y001784D03*
X001906Y001780D03*
X001906Y001774D03*
X001906Y001770D03*
X001906Y001764D03*
X001906Y001760D03*
X001906Y001754D03*
X001906Y001750D03*
X001906Y001744D03*
X001906Y001740D03*
X001906Y001734D03*
X001906Y001730D03*
X001906Y001724D03*
X001386Y002310D03*
X001132Y002354D03*
X001068Y002560D03*
X001068Y002564D03*
X001072Y002600D03*
X001072Y002604D03*
X001348Y002834D03*
X001340Y002890D03*
X001548Y002790D03*
X001548Y002784D03*
X001550Y002800D03*
X001550Y002804D03*
X001552Y002820D03*
X001552Y002824D03*
X001554Y002834D03*
X001554Y002840D03*
X001606Y003050D03*
X001600Y003090D03*
X001600Y003094D03*
X001904Y002950D03*
X001904Y002944D03*
X000958Y003044D03*
X000958Y003050D03*
X000960Y003064D03*
X000960Y003070D03*
X000960Y003074D03*
X000962Y003080D03*
X000962Y003084D03*
X000956Y003034D03*
X000956Y003030D03*
X000650Y001634D03*
X002974Y003144D03*
X002984Y003200D03*
X003110Y002940D03*
X003308Y003270D03*
X003308Y003274D03*
X003302Y003314D03*
X003302Y003320D03*
D87*
X003302Y003318D03*
X003302Y003316D03*
X003308Y003272D03*
X003308Y003268D03*
X002984Y003202D03*
X002974Y003142D03*
X003098Y002998D03*
X003110Y002938D03*
X002680Y003272D03*
X002174Y003096D03*
X002184Y003048D03*
X001904Y002948D03*
X001904Y002946D03*
X001904Y002942D03*
X001844Y003146D03*
X001832Y003206D03*
X001600Y003098D03*
X001600Y003096D03*
X001600Y003092D03*
X001604Y003062D03*
X001554Y002838D03*
X001554Y002836D03*
X001554Y002832D03*
X001552Y002826D03*
X001552Y002822D03*
X001552Y002818D03*
X001550Y002806D03*
X001550Y002802D03*
X001548Y002792D03*
X001548Y002788D03*
X001548Y002786D03*
X001348Y002836D03*
X001348Y002838D03*
X001340Y002892D03*
X001286Y003206D03*
X000962Y003082D03*
X000962Y003078D03*
X000962Y003076D03*
X000960Y003072D03*
X000960Y003068D03*
X000960Y003066D03*
X000958Y003048D03*
X000958Y003046D03*
X000956Y003038D03*
X000956Y003036D03*
X000956Y003032D03*
X000956Y003028D03*
X000834Y002688D03*
X000834Y002686D03*
X001072Y002608D03*
X001072Y002606D03*
X001072Y002602D03*
X001068Y002566D03*
X001068Y002562D03*
X001068Y002558D03*
X001164Y002318D03*
X001906Y002312D03*
X001906Y002308D03*
X001906Y002306D03*
X001906Y002302D03*
X001906Y002298D03*
X001906Y002296D03*
X001906Y002292D03*
X001906Y002262D03*
X001906Y002258D03*
X001906Y002256D03*
X001906Y002252D03*
X001906Y002248D03*
X001906Y002246D03*
X001906Y002242D03*
X001906Y002238D03*
X001906Y002236D03*
X001906Y002232D03*
X001906Y002228D03*
X001906Y002226D03*
X001906Y002108D03*
X001906Y002106D03*
X001906Y002102D03*
X001906Y002098D03*
X001906Y002096D03*
X001906Y002092D03*
X001906Y002088D03*
X001906Y002086D03*
X001906Y002082D03*
X001906Y002078D03*
X001906Y002076D03*
X001906Y002072D03*
X001906Y002068D03*
X001906Y002066D03*
X001906Y002062D03*
X001906Y002058D03*
X001906Y002056D03*
X001906Y002052D03*
X001906Y002048D03*
X001906Y002046D03*
X001906Y002042D03*
X001906Y002038D03*
X001906Y002036D03*
X001906Y002032D03*
X001906Y002028D03*
X001906Y002026D03*
X001906Y002022D03*
X001906Y002018D03*
X001906Y002016D03*
X001906Y002012D03*
X001906Y002008D03*
X001906Y002006D03*
X001906Y002002D03*
X001906Y001998D03*
X001906Y001996D03*
X001906Y001992D03*
X001906Y001988D03*
X001906Y001986D03*
X001906Y001982D03*
X001906Y001978D03*
X001906Y001976D03*
X001906Y001972D03*
X001906Y001968D03*
X001906Y001966D03*
X001906Y001962D03*
X001906Y001958D03*
X001906Y001956D03*
X001906Y001952D03*
X001906Y001948D03*
X001906Y001946D03*
X001906Y001942D03*
X001906Y001938D03*
X001906Y001936D03*
X001906Y001932D03*
X001906Y001928D03*
X001906Y001926D03*
X001906Y001922D03*
X001906Y001918D03*
X001906Y001916D03*
X001906Y001912D03*
X001906Y001908D03*
X001906Y001906D03*
X001906Y001902D03*
X001906Y001898D03*
X001906Y001896D03*
X001906Y001892D03*
X001906Y001888D03*
X001906Y001886D03*
X001906Y001882D03*
X001906Y001878D03*
X001906Y001876D03*
X001906Y001872D03*
X001906Y001868D03*
X001906Y001866D03*
X001906Y001862D03*
X001906Y001858D03*
X001906Y001856D03*
X001906Y001852D03*
X001906Y001848D03*
X001906Y001846D03*
X001906Y001842D03*
X001906Y001838D03*
X001906Y001836D03*
X001906Y001832D03*
X001906Y001828D03*
X001906Y001826D03*
X001906Y001822D03*
X001906Y001818D03*
X001906Y001816D03*
X001906Y001812D03*
X001906Y001808D03*
X001906Y001806D03*
X001906Y001802D03*
X001906Y001798D03*
X001906Y001796D03*
X001906Y001792D03*
X001906Y001788D03*
X001906Y001786D03*
X001906Y001782D03*
X001906Y001778D03*
X001906Y001776D03*
X001906Y001772D03*
X001906Y001768D03*
X001906Y001766D03*
X001906Y001762D03*
X001906Y001758D03*
X001906Y001756D03*
X001906Y001752D03*
X001906Y001748D03*
X001906Y001746D03*
X001906Y001742D03*
X001906Y001738D03*
X001906Y001736D03*
X001906Y001732D03*
X001906Y001728D03*
X001906Y001726D03*
X001906Y001722D03*
X002112Y001822D03*
X002112Y001962D03*
X002112Y002072D03*
X002682Y001896D03*
X002682Y001892D03*
X002682Y001888D03*
X002682Y001852D03*
X002682Y001848D03*
X002682Y001846D03*
X002682Y001842D03*
X002682Y001838D03*
X002682Y001836D03*
X002680Y001828D03*
X003592Y002196D03*
X004016Y002312D03*
X004016Y002316D03*
X004016Y002318D03*
X004016Y002322D03*
X004016Y001732D03*
X004016Y001728D03*
X004016Y001726D03*
X004016Y001722D03*
X004740Y001836D03*
X004740Y001838D03*
X004740Y001842D03*
X004740Y001846D03*
X004740Y001848D03*
X004740Y001852D03*
X004740Y001856D03*
X004740Y001858D03*
X004740Y001862D03*
X004740Y001866D03*
X004740Y001868D03*
X004740Y001872D03*
X004740Y001876D03*
X004740Y001878D03*
X004740Y001882D03*
X004740Y001886D03*
X004740Y001888D03*
X004740Y001892D03*
X004740Y001896D03*
X004740Y001898D03*
X004740Y001902D03*
X004740Y001906D03*
X004740Y001908D03*
X004740Y001912D03*
X004740Y001916D03*
X004740Y001918D03*
X004740Y001922D03*
X004740Y001926D03*
X004740Y001928D03*
X004740Y001932D03*
X004740Y001936D03*
X004740Y001938D03*
X004740Y001942D03*
X004740Y001946D03*
X004740Y001948D03*
X004740Y001952D03*
X004740Y001956D03*
X004740Y001958D03*
X004740Y001962D03*
X004740Y001966D03*
X004740Y001968D03*
X004740Y001972D03*
X004740Y001976D03*
X004740Y001978D03*
X004740Y001982D03*
X004740Y001986D03*
X004740Y001988D03*
X004740Y001992D03*
X004740Y001996D03*
X004740Y001998D03*
X004740Y002002D03*
X004740Y002006D03*
X004740Y002008D03*
X004740Y002012D03*
X004740Y002016D03*
X004740Y002018D03*
X004740Y002022D03*
X004740Y002026D03*
X004740Y002028D03*
X004740Y002032D03*
X004740Y002036D03*
X004740Y002038D03*
X004740Y002042D03*
X004740Y002046D03*
X004740Y002048D03*
X004740Y002052D03*
X004740Y002056D03*
X004740Y002058D03*
X004740Y002062D03*
X004740Y002066D03*
X004910Y002066D03*
X004910Y002068D03*
X004910Y002072D03*
X004910Y002076D03*
X004910Y002078D03*
X004910Y002082D03*
X004910Y002086D03*
X004910Y002088D03*
X004910Y002092D03*
X004910Y002096D03*
X004910Y002098D03*
X004910Y002102D03*
X004910Y002106D03*
X004910Y002108D03*
X004910Y002112D03*
X004910Y002116D03*
X004910Y002118D03*
X004910Y002062D03*
X004910Y002058D03*
X004910Y002056D03*
X004910Y002052D03*
X004910Y002048D03*
X004910Y002046D03*
X004910Y002042D03*
X004910Y002038D03*
X004910Y002036D03*
X004910Y002032D03*
X004910Y002028D03*
X004910Y002026D03*
X004910Y002022D03*
X004910Y002018D03*
X004910Y002016D03*
X004910Y002012D03*
X004910Y002008D03*
X004910Y002006D03*
X004910Y002002D03*
X004910Y001998D03*
X004910Y001996D03*
X004910Y001992D03*
X004910Y001988D03*
X004910Y001986D03*
X004910Y001982D03*
X004910Y001978D03*
X004910Y001976D03*
X004910Y001972D03*
X004910Y001968D03*
X004910Y001966D03*
X004910Y001962D03*
X004910Y001958D03*
X004910Y001956D03*
X004910Y001952D03*
X004910Y001948D03*
X004910Y001946D03*
X004910Y001942D03*
X004910Y001938D03*
X004910Y001936D03*
X004910Y001932D03*
X004910Y001928D03*
X004910Y001926D03*
X004910Y001922D03*
X004910Y001918D03*
X004910Y001916D03*
X004910Y001912D03*
X004910Y001908D03*
X004910Y001906D03*
X004910Y001902D03*
X004910Y001898D03*
X004910Y001896D03*
X004910Y001892D03*
X004910Y001888D03*
X004910Y001886D03*
X004910Y001882D03*
X004910Y001878D03*
X004910Y001876D03*
X004910Y001872D03*
X004910Y001868D03*
X004910Y001866D03*
X004910Y001862D03*
X004910Y001858D03*
X004910Y001856D03*
X004910Y001852D03*
X004910Y001848D03*
X004910Y001846D03*
X004910Y001842D03*
X004910Y001838D03*
X004910Y001836D03*
X004910Y001832D03*
X004910Y001828D03*
X004910Y001826D03*
X004910Y001822D03*
X004910Y001818D03*
X004910Y001816D03*
X004910Y001812D03*
X004910Y001808D03*
X004910Y001806D03*
X004910Y001802D03*
X004910Y001798D03*
X004910Y001796D03*
X004910Y001792D03*
X004910Y001788D03*
X004910Y001786D03*
X004910Y001782D03*
X004910Y001778D03*
X004910Y001776D03*
X004910Y001772D03*
X004910Y001768D03*
X004910Y001766D03*
X004910Y001762D03*
X004910Y001758D03*
X004910Y001756D03*
X004910Y001752D03*
X004910Y001748D03*
X004910Y001746D03*
X004910Y001742D03*
X004910Y001738D03*
X004910Y001736D03*
X004910Y001732D03*
X004910Y001728D03*
X004910Y001726D03*
X004908Y002238D03*
X004920Y002298D03*
X005628Y002298D03*
X005628Y002296D03*
X005628Y002292D03*
X005628Y002288D03*
X005628Y002286D03*
X005628Y002282D03*
X005628Y002278D03*
X005628Y002276D03*
X005628Y002272D03*
X005628Y002268D03*
X005628Y002266D03*
X005628Y002262D03*
X005628Y002258D03*
X005628Y002256D03*
X005628Y002252D03*
X005628Y002248D03*
X005628Y002246D03*
X005628Y002242D03*
X005628Y002238D03*
X005628Y002236D03*
X005628Y002232D03*
X005628Y002228D03*
X005628Y002226D03*
X005628Y002222D03*
X005628Y002218D03*
X005628Y002216D03*
X005628Y002212D03*
X005628Y002208D03*
X005628Y002206D03*
X005628Y002202D03*
X005628Y002198D03*
X005628Y002196D03*
X005628Y002192D03*
X005628Y002188D03*
X005628Y002186D03*
X005628Y002182D03*
X005628Y002178D03*
X005628Y002176D03*
X005628Y002172D03*
X005628Y002168D03*
X005628Y002166D03*
X005628Y002162D03*
X005628Y002158D03*
X005628Y002156D03*
X005628Y002152D03*
X005628Y002148D03*
X005628Y002146D03*
X005628Y002142D03*
X005628Y002138D03*
X005628Y002136D03*
X005628Y002132D03*
X005628Y002128D03*
X005628Y002126D03*
X005628Y002122D03*
X005628Y002302D03*
X005628Y002306D03*
X005628Y002308D03*
X005628Y002312D03*
X005628Y002316D03*
X005628Y002318D03*
X005628Y002322D03*
X005628Y002326D03*
X005628Y002328D03*
X005628Y002332D03*
X005628Y001912D03*
X005628Y001908D03*
X005628Y001906D03*
X005628Y001902D03*
X005628Y001898D03*
X005628Y001896D03*
X005628Y001892D03*
X005628Y001888D03*
X005628Y001886D03*
X005628Y001882D03*
X005628Y001878D03*
X005628Y001876D03*
X005628Y001872D03*
X005628Y001868D03*
X005628Y001866D03*
X005628Y001862D03*
X005628Y001858D03*
X005628Y001856D03*
X005628Y001852D03*
X005628Y001848D03*
X005628Y001846D03*
X005628Y001842D03*
X005628Y001838D03*
X005628Y001836D03*
X005628Y001832D03*
X005628Y001828D03*
X005628Y001826D03*
X005628Y001822D03*
X005628Y001818D03*
X005628Y001816D03*
X005628Y001812D03*
X005628Y001808D03*
X005628Y001806D03*
X005628Y001802D03*
X005628Y001798D03*
X005628Y001796D03*
X005628Y001792D03*
X005628Y001788D03*
X005628Y001786D03*
X005628Y001782D03*
X005628Y001778D03*
X005628Y001776D03*
X005628Y001772D03*
X005628Y001768D03*
X005628Y001766D03*
X005628Y001762D03*
X005628Y001758D03*
X005628Y001756D03*
X005628Y001752D03*
X005628Y001748D03*
X005628Y001746D03*
X005628Y001742D03*
X005628Y001738D03*
X005628Y001736D03*
X005628Y001732D03*
X005628Y001728D03*
X005628Y001726D03*
X005628Y001722D03*
X005628Y001718D03*
X005628Y001716D03*
X005628Y001712D03*
X000650Y001636D03*
D88*
X000649Y001638D03*
X001387Y002312D03*
X001373Y002368D03*
X001069Y002568D03*
X001069Y002572D03*
X001069Y002576D03*
X001069Y002578D03*
X001071Y002592D03*
X001071Y002596D03*
X001071Y002598D03*
X000845Y002628D03*
X000845Y002632D03*
X000837Y002672D03*
X000835Y002678D03*
X000835Y002682D03*
X000957Y003042D03*
X000959Y003052D03*
X000959Y003056D03*
X000959Y003058D03*
X000959Y003062D03*
X001297Y003148D03*
X001297Y003152D03*
X001285Y003202D03*
X001339Y002888D03*
X001345Y002856D03*
X001347Y002846D03*
X001347Y002842D03*
X001445Y002678D03*
X001549Y002796D03*
X001549Y002798D03*
X001551Y002808D03*
X001551Y002812D03*
X001551Y002816D03*
X001553Y002828D03*
X001605Y003052D03*
X001605Y003056D03*
X001605Y003058D03*
X001603Y003066D03*
X001603Y003068D03*
X001603Y003072D03*
X001603Y003076D03*
X001603Y003078D03*
X001601Y003082D03*
X001601Y003086D03*
X001601Y003088D03*
X001843Y003152D03*
X001843Y003156D03*
X001845Y003148D03*
X001837Y003186D03*
X001835Y003196D03*
X001835Y003198D03*
X001833Y003202D03*
X001909Y002988D03*
X001909Y002986D03*
X001907Y002978D03*
X001907Y002976D03*
X001907Y002972D03*
X001905Y002958D03*
X001905Y002956D03*
X001905Y002952D03*
X001905Y002288D03*
X001905Y002286D03*
X001905Y002282D03*
X001905Y002278D03*
X001905Y002276D03*
X001905Y002272D03*
X001905Y002268D03*
X001905Y002266D03*
X001907Y002222D03*
X001907Y002218D03*
X001907Y002216D03*
X001905Y002112D03*
X002113Y002076D03*
X002113Y001818D03*
X002113Y001816D03*
X002679Y001822D03*
X002679Y001826D03*
X002681Y001832D03*
X002683Y001856D03*
X002683Y001858D03*
X002683Y001862D03*
X002683Y001866D03*
X002683Y001868D03*
X002683Y001872D03*
X002683Y001876D03*
X002683Y001878D03*
X002683Y001882D03*
X002683Y001886D03*
X002681Y001898D03*
X002681Y001902D03*
X002681Y001906D03*
X002679Y001912D03*
X002853Y001908D03*
X002853Y001906D03*
X002853Y001902D03*
X002853Y001898D03*
X002853Y001896D03*
X002853Y001892D03*
X002853Y001888D03*
X002853Y001886D03*
X002853Y001882D03*
X002853Y001878D03*
X002853Y001876D03*
X002853Y001872D03*
X002853Y001868D03*
X002853Y001866D03*
X002853Y001862D03*
X002853Y001858D03*
X002853Y001856D03*
X002853Y001852D03*
X002853Y001848D03*
X002853Y001846D03*
X002853Y001842D03*
X003109Y002942D03*
X003109Y002946D03*
X003101Y002986D03*
X003101Y002988D03*
X003099Y002992D03*
X003099Y002996D03*
X002975Y003146D03*
X002975Y003148D03*
X002975Y003152D03*
X002977Y003162D03*
X002979Y003172D03*
X002983Y003192D03*
X002681Y003276D03*
X002679Y003282D03*
X002671Y003322D03*
X002671Y003326D03*
X002669Y003328D03*
X002669Y003332D03*
X003303Y003312D03*
X003303Y003308D03*
X003303Y003306D03*
X003305Y003302D03*
X003305Y003298D03*
X003305Y003296D03*
X003305Y003292D03*
X003305Y003288D03*
X003307Y003282D03*
X003307Y003278D03*
X003307Y003276D03*
X004015Y002308D03*
X004015Y002306D03*
X004015Y002302D03*
X004015Y002298D03*
X004015Y002296D03*
X004015Y002292D03*
X004015Y002288D03*
X004015Y002286D03*
X004015Y002282D03*
X004015Y002278D03*
X004015Y002276D03*
X004015Y002272D03*
X004015Y002268D03*
X004015Y002266D03*
X004015Y002262D03*
X004015Y002258D03*
X004015Y002256D03*
X004015Y002252D03*
X004015Y002248D03*
X004015Y002246D03*
X004015Y002242D03*
X004015Y002238D03*
X004015Y002236D03*
X004015Y002232D03*
X004015Y002228D03*
X004015Y002226D03*
X004015Y002222D03*
X004015Y002218D03*
X004015Y002216D03*
X004015Y002212D03*
X004015Y002208D03*
X004015Y002206D03*
X004015Y002202D03*
X004015Y002198D03*
X004015Y002196D03*
X004015Y002192D03*
X004015Y002188D03*
X004015Y002186D03*
X004015Y002182D03*
X004015Y002178D03*
X004015Y002176D03*
X004015Y002172D03*
X004015Y002168D03*
X004015Y002166D03*
X004015Y002162D03*
X004015Y002158D03*
X004015Y002156D03*
X004015Y002152D03*
X004015Y002148D03*
X004015Y002146D03*
X004015Y002142D03*
X004015Y002138D03*
X004015Y002136D03*
X004015Y002132D03*
X004015Y002128D03*
X004015Y002126D03*
X004015Y002122D03*
X004015Y002118D03*
X004015Y002116D03*
X004015Y002112D03*
X004015Y002108D03*
X004015Y002106D03*
X004015Y002102D03*
X004015Y002098D03*
X004015Y002096D03*
X004015Y002092D03*
X004015Y002088D03*
X004015Y002086D03*
X004015Y002082D03*
X004015Y002078D03*
X004015Y002076D03*
X004015Y002072D03*
X004015Y002068D03*
X004015Y002066D03*
X004015Y002062D03*
X004015Y002058D03*
X004015Y002056D03*
X004015Y002052D03*
X004015Y002048D03*
X004015Y002046D03*
X004015Y002042D03*
X004015Y002038D03*
X004015Y002036D03*
X004015Y002032D03*
X004015Y002028D03*
X004015Y002026D03*
X004015Y002022D03*
X004015Y002018D03*
X004015Y002016D03*
X004015Y002012D03*
X004015Y002008D03*
X004015Y001882D03*
X004015Y001878D03*
X004015Y001876D03*
X004015Y001872D03*
X004015Y001868D03*
X004015Y001866D03*
X004015Y001862D03*
X004015Y001858D03*
X004015Y001856D03*
X004015Y001852D03*
X004015Y001848D03*
X004015Y001846D03*
X004015Y001842D03*
X004015Y001838D03*
X004015Y001836D03*
X004015Y001832D03*
X004015Y001828D03*
X004015Y001826D03*
X004015Y001822D03*
X004015Y001818D03*
X004015Y001816D03*
X004015Y001812D03*
X004015Y001808D03*
X004015Y001806D03*
X004015Y001802D03*
X004015Y001798D03*
X004015Y001796D03*
X004015Y001792D03*
X004015Y001788D03*
X004015Y001786D03*
X004015Y001782D03*
X004015Y001778D03*
X004015Y001776D03*
X004015Y001772D03*
X004015Y001768D03*
X004015Y001766D03*
X004015Y001762D03*
X004015Y001758D03*
X004015Y001756D03*
X004015Y001752D03*
X004015Y001748D03*
X004015Y001746D03*
X004015Y001742D03*
X004015Y001738D03*
X004015Y001736D03*
X004739Y001828D03*
X004739Y001832D03*
X004739Y002068D03*
X004739Y002072D03*
X004909Y002242D03*
X004919Y002288D03*
X004919Y002292D03*
X004921Y002296D03*
X005627Y002118D03*
X005627Y002116D03*
X005627Y002112D03*
X005627Y002108D03*
X005627Y002106D03*
X005627Y002102D03*
X005627Y002098D03*
X005627Y002096D03*
X005627Y002092D03*
X005627Y001948D03*
X005627Y001946D03*
X005627Y001942D03*
X005627Y001938D03*
X005627Y001936D03*
X005627Y001932D03*
X005627Y001928D03*
X005627Y001926D03*
X005627Y001922D03*
X005627Y001918D03*
X005627Y001916D03*
D89*
X004911Y002254D03*
X004913Y002260D03*
X004913Y002264D03*
X004917Y002280D03*
X004737Y002080D03*
X004737Y001820D03*
X003411Y002190D03*
X003411Y002194D03*
X003409Y002204D03*
X002677Y001920D03*
X001383Y002330D03*
X001381Y002340D03*
X001379Y002344D03*
X001379Y002350D03*
X001377Y002354D03*
X000841Y002654D03*
X001293Y003170D03*
X001293Y003174D03*
X001291Y003180D03*
X001291Y003184D03*
X001289Y003190D03*
X002677Y003294D03*
X000649Y001640D03*
D90*
X000648Y001642D03*
X001166Y002312D03*
X000534Y002502D03*
X001292Y003176D03*
X002174Y003088D03*
X002676Y001922D03*
X002674Y001808D03*
X002672Y001806D03*
X002856Y001826D03*
X002856Y001928D03*
X003412Y002146D03*
X003412Y002148D03*
X003412Y002152D03*
X003412Y002156D03*
X003412Y002158D03*
X003412Y002162D03*
X003412Y002166D03*
X003412Y002168D03*
X003412Y002172D03*
X003412Y002176D03*
X003412Y002178D03*
X003412Y002182D03*
X003410Y002198D03*
X003408Y002212D03*
X003406Y002216D03*
X003406Y002218D03*
X004734Y002088D03*
X004734Y002086D03*
X004736Y001816D03*
X002118Y001802D03*
X002116Y001806D03*
D91*
X002116Y001804D03*
X002116Y002084D03*
X002674Y001924D03*
X002674Y001810D03*
X002856Y001824D03*
X002856Y001930D03*
X002858Y001934D03*
X003412Y002144D03*
X003412Y002150D03*
X003412Y002154D03*
X003412Y002160D03*
X003412Y002164D03*
X003412Y002170D03*
X003412Y002174D03*
X003412Y002180D03*
X003412Y002184D03*
X003410Y002200D03*
X003408Y002210D03*
X003408Y002214D03*
X002184Y003054D03*
X002174Y003090D03*
X001382Y002334D03*
X000648Y001644D03*
D92*
X000646Y001648D03*
X001166Y002308D03*
X001444Y002672D03*
X002184Y003058D03*
X002182Y003062D03*
X002180Y003068D03*
X002176Y003082D03*
X002118Y002088D03*
X002120Y001798D03*
X002120Y001796D03*
X002670Y001802D03*
X002672Y001928D03*
X002858Y001818D03*
X002858Y001816D03*
X003408Y002122D03*
X004732Y002092D03*
X004732Y001808D03*
D93*
X005090Y001694D03*
X005106Y002350D03*
X003404Y002224D03*
X003408Y002124D03*
X002860Y001940D03*
X002184Y003060D03*
X002182Y003064D03*
X002180Y003070D03*
X002178Y003074D03*
X002176Y003080D03*
X001450Y002644D03*
X000774Y002190D03*
X000646Y001650D03*
D94*
X000646Y001652D03*
X002666Y001798D03*
X003406Y002116D03*
X003406Y002118D03*
X003402Y002228D03*
X004728Y002098D03*
X005108Y002348D03*
X005092Y001696D03*
D95*
X003399Y002234D03*
X002861Y001810D03*
X002125Y001790D03*
X001913Y002114D03*
X001449Y002650D03*
X000539Y002500D03*
X000527Y002454D03*
X000645Y001654D03*
D96*
X000616Y001660D03*
X000614Y001664D03*
X000606Y001674D03*
X000602Y001680D03*
X000594Y001690D03*
X000592Y001694D03*
X000588Y001700D03*
X000584Y001704D03*
X000580Y001710D03*
X000578Y001714D03*
X000570Y001724D03*
X000566Y001730D03*
X000558Y001740D03*
X000556Y001744D03*
X000552Y001750D03*
X000548Y001754D03*
X000544Y001760D03*
X000542Y001764D03*
X000534Y001774D03*
X000530Y001780D03*
X000520Y001794D03*
X000516Y001800D03*
X000506Y001814D03*
X000502Y001820D03*
X000492Y001834D03*
X000466Y001870D03*
X000452Y001890D03*
X000442Y001904D03*
X000438Y001910D03*
X001210Y002284D03*
X001214Y002280D03*
X001228Y002264D03*
X001240Y002250D03*
X001246Y002244D03*
X001254Y002234D03*
X001258Y002230D03*
X001272Y002214D03*
X001276Y002210D03*
X001280Y002204D03*
X001284Y002200D03*
X001290Y002194D03*
X001298Y002184D03*
X001302Y002180D03*
X001306Y002174D03*
X001310Y002170D03*
X001316Y002164D03*
X001324Y002154D03*
X001328Y002150D03*
X001336Y002140D03*
X001342Y002134D03*
X001350Y002124D03*
X001376Y002294D03*
X002178Y003030D03*
X003110Y003010D03*
D97*
X002975Y003218D03*
X003313Y003338D03*
X001913Y002922D03*
X001447Y002618D03*
X001201Y002292D03*
X001205Y002288D03*
X001321Y002158D03*
X001331Y002146D03*
X001335Y002142D03*
X001343Y002132D03*
X001347Y002128D03*
X001349Y002126D03*
X001355Y002118D03*
X001357Y002116D03*
X001361Y002112D03*
X001363Y002108D03*
X001365Y002106D03*
X001369Y002102D03*
X001373Y002098D03*
X001377Y002092D03*
X001381Y002088D03*
X001389Y002078D03*
X001907Y001686D03*
X000733Y002218D03*
X000727Y002226D03*
X000725Y002228D03*
X000719Y002236D03*
X000639Y002338D03*
X000631Y002348D03*
X000625Y002356D03*
X000623Y002358D03*
X000617Y002366D03*
X000615Y002368D03*
X000609Y002376D03*
X000607Y002378D03*
X000601Y002386D03*
X001289Y003132D03*
X000615Y001662D03*
X005085Y001682D03*
X005627Y002358D03*
D98*
X002184Y003116D03*
X000748Y002052D03*
X000444Y002116D03*
X000448Y002142D03*
X000452Y002168D03*
X000454Y002182D03*
X000458Y002206D03*
X000458Y002208D03*
X000462Y002232D03*
X000464Y002246D03*
X000466Y002258D03*
X000468Y002272D03*
X000472Y002298D03*
X000474Y002312D03*
X000478Y002336D03*
X000478Y002338D03*
X000484Y002376D03*
X000438Y002078D03*
X000434Y002052D03*
X000432Y002038D03*
X000428Y002012D03*
X000426Y001998D03*
X000424Y001988D03*
X000424Y001986D03*
X000422Y001972D03*
X000678Y001668D03*
X000678Y001666D03*
D99*
X000612Y001666D03*
X000610Y001668D03*
X000608Y001672D03*
X000604Y001676D03*
X000604Y001678D03*
X000600Y001682D03*
X000598Y001686D03*
X000596Y001688D03*
X000594Y001692D03*
X000590Y001696D03*
X000588Y001698D03*
X000586Y001702D03*
X000582Y001708D03*
X000578Y001712D03*
X000576Y001716D03*
X000574Y001718D03*
X000572Y001722D03*
X000568Y001726D03*
X000564Y001732D03*
X000562Y001736D03*
X000560Y001738D03*
X000554Y001746D03*
X000550Y001752D03*
X000546Y001758D03*
X000540Y001766D03*
X000536Y001772D03*
X000526Y001786D03*
X000524Y001788D03*
X000514Y001802D03*
X000510Y001808D03*
X000500Y001822D03*
X000496Y001828D03*
X000490Y001836D03*
X000486Y001842D03*
X000482Y001848D03*
X000476Y001856D03*
X000472Y001862D03*
X000468Y001868D03*
X000462Y001876D03*
X000458Y001882D03*
X000454Y001888D03*
X000448Y001896D03*
X000444Y001902D03*
X000440Y001908D03*
X000434Y001916D03*
X000432Y001918D03*
X000430Y001922D03*
X001208Y002286D03*
X001212Y002282D03*
X001216Y002278D03*
X001224Y002268D03*
X001226Y002266D03*
X001230Y002262D03*
X001242Y002248D03*
X001244Y002246D03*
X001256Y002232D03*
X001260Y002228D03*
X001262Y002226D03*
X001268Y002218D03*
X001270Y002216D03*
X001274Y002212D03*
X001282Y002202D03*
X001286Y002198D03*
X001288Y002196D03*
X001292Y002192D03*
X001294Y002188D03*
X001296Y002186D03*
X001300Y002182D03*
X001304Y002178D03*
X001306Y002176D03*
X001308Y002172D03*
X001312Y002168D03*
X001314Y002166D03*
X001318Y002162D03*
X001322Y002156D03*
X001326Y002152D03*
X001330Y002148D03*
X001338Y002138D03*
X001340Y002136D03*
X001352Y002122D03*
X001448Y002696D03*
X001336Y002818D03*
X001610Y003116D03*
X003582Y001682D03*
D100*
X003101Y002924D03*
X002985Y003130D03*
X002181Y003110D03*
X001203Y002290D03*
X001319Y002160D03*
X001333Y002144D03*
X001345Y002130D03*
X001353Y002120D03*
X001359Y002114D03*
X001363Y002110D03*
X001367Y002104D03*
X001371Y002100D03*
X001375Y002094D03*
X001379Y002090D03*
X001387Y002080D03*
X000731Y002220D03*
X000645Y002330D03*
X000637Y002340D03*
X000629Y002350D03*
X000621Y002360D03*
X000599Y001684D03*
X000609Y001670D03*
X000967Y003010D03*
D101*
X000470Y002286D03*
X000450Y002156D03*
X000430Y002026D03*
X000420Y001958D03*
X000420Y001956D03*
X000420Y001952D03*
X000680Y001676D03*
X001830Y003128D03*
D102*
X003583Y001678D03*
X005627Y001678D03*
D103*
X005088Y001678D03*
X001352Y002282D03*
D104*
X001132Y002304D03*
X001128Y002290D03*
X001122Y002264D03*
X001122Y002260D03*
X001118Y002244D03*
X005628Y001680D03*
D105*
X004903Y001680D03*
X001453Y002710D03*
X001357Y002914D03*
D106*
X002329Y002150D03*
X003201Y002290D03*
X004399Y001680D03*
D107*
X004021Y001680D03*
D108*
X003582Y001680D03*
X001450Y002704D03*
X001328Y002814D03*
X001098Y002154D03*
D109*
X003204Y001680D03*
D110*
X002385Y001680D03*
D111*
X001907Y001680D03*
X001443Y002604D03*
X001823Y003124D03*
X002659Y003250D03*
X002991Y003124D03*
D112*
X002685Y003346D03*
X002177Y003026D03*
X001615Y003118D03*
X001285Y003128D03*
X001333Y002816D03*
X001445Y002612D03*
X000849Y002702D03*
X000421Y001948D03*
X000421Y001946D03*
X000421Y001942D03*
X005103Y002362D03*
X005629Y001682D03*
D113*
X004402Y001682D03*
X004404Y002212D03*
D114*
X003199Y001682D03*
D115*
X003166Y002348D03*
X002384Y001682D03*
X000926Y002136D03*
D116*
X001219Y002274D03*
X001223Y002270D03*
X001231Y002260D03*
X001237Y002254D03*
X001249Y002240D03*
X001263Y002224D03*
X001267Y002220D03*
X001293Y002190D03*
X000847Y002700D03*
X001287Y003130D03*
X001833Y003130D03*
X000429Y001924D03*
X000431Y001920D03*
X000449Y001894D03*
X000457Y001884D03*
X000459Y001880D03*
X000463Y001874D03*
X000471Y001864D03*
X000473Y001860D03*
X000477Y001854D03*
X000481Y001850D03*
X000487Y001840D03*
X000499Y001824D03*
X000509Y001810D03*
X000513Y001804D03*
X000523Y001790D03*
X000527Y001784D03*
X000537Y001770D03*
X000563Y001734D03*
X000573Y001720D03*
X003587Y002204D03*
X004909Y002310D03*
X004909Y001684D03*
X005629Y001684D03*
D117*
X005085Y001684D03*
X005627Y002354D03*
X004017Y002350D03*
X004017Y001694D03*
X003303Y003250D03*
X001549Y002854D03*
X001449Y002624D03*
X001381Y002300D03*
X001159Y002334D03*
X001151Y002344D03*
X001405Y002010D03*
X000751Y002200D03*
D118*
X002385Y001704D03*
X004405Y001684D03*
X004407Y002210D03*
D119*
X004016Y001684D03*
X000426Y001930D03*
D120*
X000565Y002430D03*
X000561Y002434D03*
X001157Y002340D03*
X001907Y002354D03*
X001907Y001690D03*
X001607Y003114D03*
X001293Y003214D03*
X002675Y003260D03*
X002677Y003340D03*
X003583Y001684D03*
X004909Y002160D03*
D121*
X003195Y001684D03*
D122*
X002384Y001684D03*
D123*
X001908Y001684D03*
X001062Y002810D03*
X002682Y003344D03*
D124*
X001569Y002764D03*
X001085Y002534D03*
X000853Y002704D03*
X001401Y001910D03*
X001399Y001900D03*
X001397Y001890D03*
X001359Y001694D03*
X001357Y001684D03*
X000701Y001790D03*
D125*
X000738Y002212D03*
X000734Y002216D03*
X000730Y002222D03*
X000722Y002232D03*
X000718Y002238D03*
X000714Y002242D03*
X000712Y002246D03*
X000710Y002248D03*
X000688Y002276D03*
X000680Y002286D03*
X000676Y002292D03*
X000672Y002296D03*
X000670Y002298D03*
X000668Y002302D03*
X000664Y002306D03*
X000662Y002308D03*
X000660Y002312D03*
X000656Y002316D03*
X000654Y002318D03*
X000652Y002322D03*
X000648Y002326D03*
X000646Y002328D03*
X000644Y002332D03*
X000640Y002336D03*
X000636Y002342D03*
X000632Y002346D03*
X000628Y002352D03*
X000620Y002362D03*
X000612Y002372D03*
X000604Y002382D03*
X000600Y002388D03*
X000596Y002392D03*
X000594Y002396D03*
X000592Y002398D03*
X000588Y002402D03*
X000580Y002412D03*
X000522Y002508D03*
X000844Y002698D03*
X001192Y002302D03*
X001196Y002298D03*
X001198Y002296D03*
X001378Y002296D03*
X001374Y002096D03*
X001382Y002086D03*
X001386Y002082D03*
X001558Y002766D03*
X001348Y002906D03*
X001294Y003216D03*
X001842Y003216D03*
X001836Y003132D03*
X001900Y003012D03*
X002180Y003032D03*
X002680Y003342D03*
X005628Y001686D03*
D126*
X005087Y001686D03*
X004907Y002146D03*
X004911Y002232D03*
X004917Y002302D03*
X005627Y002348D03*
X004017Y002342D03*
X004017Y002338D03*
X004017Y001702D03*
X002977Y003138D03*
X002679Y003266D03*
X002673Y003336D03*
X002439Y003058D03*
X002439Y003056D03*
X002439Y003052D03*
X002439Y003048D03*
X002439Y002992D03*
X002439Y002988D03*
X002439Y002986D03*
X002183Y003042D03*
X002177Y003102D03*
X001907Y003008D03*
X001841Y003138D03*
X001553Y002852D03*
X001341Y002902D03*
X001063Y002796D03*
X001063Y002732D03*
X001063Y002728D03*
X000837Y002692D03*
X001161Y002328D03*
X001401Y002012D03*
X001907Y001702D03*
X000759Y002196D03*
D127*
X000741Y002208D03*
X000705Y002256D03*
X000699Y002262D03*
X000695Y002268D03*
X000691Y002272D03*
X000679Y002288D03*
X000585Y002406D03*
X000575Y002418D03*
X001075Y002538D03*
X001545Y002856D03*
X003299Y003248D03*
X004015Y002356D03*
X004015Y001686D03*
X004909Y001686D03*
X004911Y002308D03*
D128*
X004408Y001686D03*
X003182Y002058D03*
D129*
X003583Y001686D03*
X004017Y001696D03*
X004017Y001698D03*
X004017Y002346D03*
X004907Y002152D03*
X004907Y001696D03*
X002979Y003136D03*
X002439Y003066D03*
X002439Y003062D03*
X002439Y002982D03*
X002439Y002978D03*
X002439Y002976D03*
X001603Y003112D03*
X001293Y003138D03*
X001063Y002806D03*
X001063Y002718D03*
X000841Y002618D03*
X001147Y002346D03*
X001159Y002332D03*
X001449Y002626D03*
X001551Y002768D03*
X001907Y001696D03*
D130*
X003076Y001986D03*
X003190Y001686D03*
D131*
X002384Y001686D03*
D132*
X001381Y002378D03*
X001157Y002338D03*
X000749Y002202D03*
X000567Y002428D03*
X000563Y002432D03*
X000841Y002696D03*
X002439Y003068D03*
X003103Y002926D03*
X004915Y002226D03*
X004909Y001688D03*
X005629Y001688D03*
D133*
X005628Y001702D03*
X005628Y001706D03*
X005088Y001688D03*
X004908Y001708D03*
X004908Y001712D03*
X004908Y002132D03*
X004908Y002136D03*
X004908Y002138D03*
X005628Y002336D03*
X005628Y002338D03*
X004016Y002328D03*
X004016Y002326D03*
X004016Y001718D03*
X004016Y001716D03*
X004016Y001712D03*
X002982Y003206D03*
X003308Y003256D03*
X003308Y003258D03*
X003308Y003262D03*
X001834Y003208D03*
X001598Y003108D03*
X001606Y003038D03*
X001606Y003036D03*
X001554Y002848D03*
X001554Y002846D03*
X001062Y002768D03*
X001062Y002766D03*
X001062Y002762D03*
X001062Y002758D03*
X001074Y002618D03*
X001066Y002548D03*
X001136Y002352D03*
X001162Y002322D03*
X001908Y002328D03*
X000962Y003088D03*
X000962Y003092D03*
D134*
X004411Y001688D03*
D135*
X003585Y001688D03*
X003591Y002198D03*
X003101Y003002D03*
X003301Y003332D03*
X002679Y003268D03*
X002439Y003046D03*
X002439Y003042D03*
X002439Y003038D03*
X002439Y003036D03*
X002439Y003032D03*
X002439Y003028D03*
X002439Y003026D03*
X002439Y003022D03*
X002439Y003018D03*
X002439Y003016D03*
X002439Y003012D03*
X002439Y003008D03*
X002439Y003006D03*
X002439Y003002D03*
X002439Y002998D03*
X001445Y002682D03*
X001341Y002898D03*
X000955Y003016D03*
X000955Y003018D03*
X001385Y002308D03*
X002109Y001928D03*
X002109Y001926D03*
X002109Y001922D03*
X002109Y001918D03*
X002109Y001916D03*
X002109Y001912D03*
X002109Y001908D03*
X002109Y001906D03*
X002109Y001902D03*
X002109Y001898D03*
X002109Y001896D03*
X002109Y001892D03*
X002109Y001888D03*
X002109Y001886D03*
X002109Y001882D03*
X002109Y001878D03*
X002109Y001876D03*
X002109Y001872D03*
X002109Y001868D03*
X002109Y001866D03*
X002109Y001862D03*
X002109Y001858D03*
X002109Y001856D03*
X002109Y001852D03*
X002109Y001848D03*
D136*
X003187Y001688D03*
D137*
X002384Y001688D03*
X002348Y002182D03*
D138*
X001907Y001688D03*
X001407Y002008D03*
X000707Y002252D03*
X000703Y002258D03*
X000697Y002266D03*
X000687Y002278D03*
X000683Y002282D03*
X000583Y002408D03*
X000577Y002416D03*
X001063Y002716D03*
X001597Y003026D03*
X002673Y003258D03*
X002983Y003132D03*
X003107Y003008D03*
D139*
X002982Y003134D03*
X001904Y003010D03*
X001908Y002924D03*
X001838Y003134D03*
X001840Y003214D03*
X001446Y002690D03*
X004016Y001690D03*
X004908Y001690D03*
X005628Y001690D03*
D140*
X005627Y001920D03*
X005627Y001924D03*
X005627Y001930D03*
X005627Y001934D03*
X005627Y001940D03*
X005627Y001944D03*
X005627Y002094D03*
X005627Y002100D03*
X005627Y002104D03*
X005627Y002110D03*
X005627Y002114D03*
X005089Y001690D03*
X004739Y001830D03*
X004739Y001834D03*
X004739Y002070D03*
X004739Y002074D03*
X004909Y002240D03*
X004909Y002244D03*
X004919Y002290D03*
X004921Y002294D03*
X004015Y002294D03*
X004015Y002290D03*
X004015Y002284D03*
X004015Y002280D03*
X004015Y002274D03*
X004015Y002270D03*
X004015Y002264D03*
X004015Y002260D03*
X004015Y002254D03*
X004015Y002250D03*
X004015Y002244D03*
X004015Y002240D03*
X004015Y002234D03*
X004015Y002230D03*
X004015Y002224D03*
X004015Y002220D03*
X004015Y002214D03*
X004015Y002210D03*
X004015Y002204D03*
X004015Y002200D03*
X004015Y002194D03*
X004015Y002190D03*
X004015Y002184D03*
X004015Y002180D03*
X004015Y002174D03*
X004015Y002170D03*
X004015Y002164D03*
X004015Y002160D03*
X004015Y002154D03*
X004015Y002150D03*
X004015Y002144D03*
X004015Y002140D03*
X004015Y002134D03*
X004015Y002130D03*
X004015Y002124D03*
X004015Y002120D03*
X004015Y002114D03*
X004015Y002110D03*
X004015Y002104D03*
X004015Y002100D03*
X004015Y002094D03*
X004015Y002090D03*
X004015Y002084D03*
X004015Y002080D03*
X004015Y002074D03*
X004015Y002070D03*
X004015Y002064D03*
X004015Y002060D03*
X004015Y002054D03*
X004015Y002050D03*
X004015Y002044D03*
X004015Y002040D03*
X004015Y002034D03*
X004015Y002030D03*
X004015Y002024D03*
X004015Y002020D03*
X004015Y002014D03*
X004015Y002010D03*
X004015Y001880D03*
X004015Y001874D03*
X004015Y001870D03*
X004015Y001864D03*
X004015Y001860D03*
X004015Y001854D03*
X004015Y001850D03*
X004015Y001844D03*
X004015Y001840D03*
X004015Y001834D03*
X004015Y001830D03*
X004015Y001824D03*
X004015Y001820D03*
X004015Y001814D03*
X004015Y001810D03*
X004015Y001804D03*
X004015Y001800D03*
X004015Y001794D03*
X004015Y001790D03*
X004015Y001784D03*
X004015Y001780D03*
X004015Y001774D03*
X004015Y001770D03*
X004015Y001764D03*
X004015Y001760D03*
X004015Y001754D03*
X004015Y001750D03*
X004015Y001744D03*
X004015Y001740D03*
X004015Y001734D03*
X004015Y002300D03*
X004015Y002304D03*
X004015Y002310D03*
X003109Y002944D03*
X003099Y002994D03*
X002975Y003150D03*
X002977Y003160D03*
X002981Y003184D03*
X002983Y003194D03*
X002681Y003274D03*
X002679Y003284D03*
X002671Y003320D03*
X002671Y003324D03*
X002669Y003330D03*
X003303Y003310D03*
X003303Y003304D03*
X003305Y003300D03*
X003305Y003294D03*
X003305Y003290D03*
X003307Y003284D03*
X003307Y003280D03*
X001909Y002990D03*
X001909Y002984D03*
X001907Y002980D03*
X001907Y002974D03*
X001905Y002960D03*
X001905Y002954D03*
X001843Y003154D03*
X001835Y003194D03*
X001833Y003200D03*
X001833Y003204D03*
X001601Y003084D03*
X001601Y003080D03*
X001603Y003074D03*
X001603Y003070D03*
X001603Y003064D03*
X001605Y003060D03*
X001605Y003054D03*
X001553Y002830D03*
X001551Y002814D03*
X001551Y002810D03*
X001549Y002794D03*
X001451Y002634D03*
X001347Y002840D03*
X001347Y002844D03*
X001345Y002854D03*
X001297Y003150D03*
X001285Y003204D03*
X000959Y003060D03*
X000959Y003054D03*
X000957Y003040D03*
X000835Y002684D03*
X000835Y002680D03*
X000837Y002674D03*
X000845Y002634D03*
X000845Y002630D03*
X001071Y002594D03*
X001071Y002590D03*
X001069Y002574D03*
X001069Y002570D03*
X001375Y002364D03*
X001905Y002290D03*
X001905Y002284D03*
X001905Y002280D03*
X001905Y002274D03*
X001905Y002270D03*
X001905Y002264D03*
X001907Y002220D03*
X001907Y002214D03*
X001905Y002110D03*
X002113Y001814D03*
X002679Y001824D03*
X002681Y001830D03*
X002681Y001834D03*
X002683Y001854D03*
X002683Y001860D03*
X002683Y001864D03*
X002683Y001870D03*
X002683Y001874D03*
X002683Y001880D03*
X002683Y001884D03*
X002681Y001900D03*
X002681Y001904D03*
X002853Y001904D03*
X002853Y001900D03*
X002853Y001894D03*
X002853Y001890D03*
X002853Y001884D03*
X002853Y001880D03*
X002853Y001874D03*
X002853Y001870D03*
X002853Y001864D03*
X002853Y001860D03*
X002853Y001854D03*
X002853Y001850D03*
X002853Y001844D03*
X002853Y001910D03*
D141*
X004413Y001690D03*
D142*
X003184Y001690D03*
X003094Y001994D03*
D143*
X002384Y001690D03*
D144*
X001908Y002348D03*
X001382Y002302D03*
X001062Y002808D03*
X000958Y003098D03*
X001838Y003212D03*
X002182Y003038D03*
X004908Y002156D03*
X004908Y001692D03*
X005628Y001692D03*
X005628Y002352D03*
D145*
X005089Y001692D03*
X004737Y001818D03*
X004737Y002082D03*
X004911Y002252D03*
X004913Y002262D03*
X003587Y001692D03*
X003411Y002186D03*
X003411Y002188D03*
X003411Y002192D03*
X003411Y002196D03*
X003409Y002202D03*
X003409Y002206D03*
X003409Y002208D03*
X002677Y001918D03*
X002677Y001816D03*
X003107Y002956D03*
X001841Y003166D03*
X001839Y003176D03*
X001443Y002676D03*
X001451Y002638D03*
X001377Y002356D03*
X001379Y002348D03*
X001379Y002346D03*
X001381Y002342D03*
X001381Y002338D03*
X001381Y002336D03*
X001383Y002332D03*
X001383Y002328D03*
X001127Y002356D03*
X001393Y002016D03*
X000769Y002192D03*
X000841Y002652D03*
X001293Y003168D03*
X001293Y003172D03*
X001291Y003178D03*
X001291Y003182D03*
X001289Y003186D03*
X001289Y003188D03*
X001287Y003196D03*
D146*
X002337Y002046D03*
X002385Y001716D03*
X003159Y002042D03*
X004415Y001692D03*
D147*
X004017Y001692D03*
X004017Y002348D03*
X003105Y002928D03*
X003105Y003006D03*
X002181Y003036D03*
X001601Y003028D03*
X001343Y002822D03*
X001907Y001692D03*
D148*
X002334Y002048D03*
X003164Y002046D03*
X003180Y001692D03*
D149*
X002384Y001692D03*
X002338Y002166D03*
D150*
X001908Y002344D03*
X001378Y002374D03*
X001160Y002330D03*
X001062Y002720D03*
X001062Y002724D03*
X001062Y002800D03*
X001062Y002804D03*
X001344Y002824D03*
X001294Y003140D03*
X002182Y003040D03*
X002438Y003060D03*
X002678Y003264D03*
X002982Y003214D03*
X003106Y002930D03*
X003304Y003334D03*
X004912Y002230D03*
X004908Y002150D03*
X005628Y001694D03*
D151*
X005627Y002350D03*
X004907Y001694D03*
X004017Y002344D03*
X003589Y002200D03*
X003103Y003004D03*
X002439Y002980D03*
X002439Y003064D03*
X001069Y002624D03*
X000839Y002694D03*
D152*
X003124Y002014D03*
X003144Y002030D03*
X004418Y001694D03*
D153*
X004733Y001810D03*
X004735Y001814D03*
X004733Y002090D03*
X003587Y001694D03*
X003409Y002130D03*
X003411Y002134D03*
X003411Y002140D03*
X003405Y002220D03*
X002857Y001820D03*
X002671Y001804D03*
X002119Y001800D03*
X001451Y002640D03*
X001443Y002674D03*
X001167Y002310D03*
X002175Y003084D03*
D154*
X003178Y001694D03*
D155*
X003198Y002294D03*
X002384Y001694D03*
D156*
X001908Y001694D03*
X001908Y002350D03*
X002178Y003104D03*
X004908Y002154D03*
D157*
X004908Y002148D03*
X005102Y002358D03*
X004908Y001698D03*
X005628Y001696D03*
X001908Y001698D03*
X001908Y002342D03*
X001908Y002346D03*
X001446Y002686D03*
X001062Y002722D03*
X001062Y002726D03*
X001062Y002798D03*
X001062Y002802D03*
X001144Y002348D03*
D158*
X002343Y002042D03*
X004419Y001696D03*
D159*
X004731Y001806D03*
X004729Y002096D03*
X003589Y001696D03*
X002861Y001942D03*
X002121Y002092D03*
X001389Y002018D03*
X001121Y002358D03*
X002181Y003066D03*
X002179Y003072D03*
D160*
X003129Y002018D03*
X003127Y002016D03*
X003139Y002026D03*
X003141Y002028D03*
X003175Y001696D03*
D161*
X003214Y002072D03*
X002384Y001696D03*
D162*
X001908Y002336D03*
X001908Y002338D03*
X001450Y002628D03*
X001346Y002826D03*
X001062Y002792D03*
X001062Y002788D03*
X001062Y002786D03*
X001062Y002782D03*
X001062Y002742D03*
X001062Y002738D03*
X001062Y002736D03*
X000844Y002622D03*
X001162Y002326D03*
X001384Y002306D03*
X001904Y002926D03*
X001606Y003032D03*
X001296Y003142D03*
X000962Y003096D03*
X002438Y002996D03*
X002982Y003212D03*
X003108Y002932D03*
X003308Y003252D03*
X004908Y002142D03*
X004908Y001706D03*
X004908Y001702D03*
X005628Y001698D03*
X005628Y002346D03*
D163*
X005093Y001698D03*
X004729Y001802D03*
X003403Y002112D03*
X002865Y001948D03*
X002863Y001946D03*
X002667Y001936D03*
X002123Y001792D03*
X002123Y002096D03*
X001449Y002652D03*
X001443Y002668D03*
X000779Y002188D03*
D164*
X002387Y001722D03*
X003173Y001698D03*
X004421Y001698D03*
X004423Y002196D03*
D165*
X002384Y001698D03*
D166*
X001908Y002340D03*
X001446Y002684D03*
X001340Y002900D03*
X001606Y003030D03*
X001842Y003140D03*
X001836Y003210D03*
X002176Y003100D03*
X002982Y003210D03*
X003308Y003254D03*
X004908Y002144D03*
X004908Y002140D03*
X004908Y001704D03*
X005628Y001700D03*
X001140Y002350D03*
X001062Y002734D03*
X001062Y002740D03*
X001062Y002784D03*
X001062Y002790D03*
D167*
X002126Y002100D03*
X003394Y002240D03*
X005110Y002344D03*
X005094Y001700D03*
D168*
X004424Y001700D03*
X004424Y002194D03*
X003170Y001700D03*
X002386Y001724D03*
D169*
X002663Y001794D03*
X002663Y001940D03*
X002867Y001950D03*
X002865Y001804D03*
X003591Y001700D03*
X001445Y002660D03*
X001443Y002664D03*
X001115Y002360D03*
X001385Y002020D03*
X000529Y002450D03*
D170*
X002384Y001700D03*
D171*
X002872Y001956D03*
X004720Y002106D03*
X005112Y002342D03*
X005096Y001702D03*
X000544Y002498D03*
D172*
X002386Y001726D03*
X004424Y001702D03*
X004426Y002192D03*
D173*
X003593Y001702D03*
X003397Y002102D03*
X003393Y002242D03*
X002867Y001802D03*
X002661Y001792D03*
X002661Y001942D03*
D174*
X003169Y001702D03*
D175*
X002384Y001702D03*
D176*
X001906Y001710D03*
X001074Y002620D03*
X001062Y002760D03*
X001062Y002764D03*
X000844Y002624D03*
X000764Y002194D03*
X001548Y002774D03*
X001554Y002850D03*
X001606Y003034D03*
X001606Y003040D03*
X001296Y003144D03*
X000962Y003094D03*
X000962Y003090D03*
X002976Y003140D03*
X003308Y003260D03*
X003308Y003264D03*
X004016Y002330D03*
X004016Y002324D03*
X004016Y001714D03*
X004908Y001714D03*
X004908Y001710D03*
X004908Y002134D03*
X005628Y002340D03*
X005628Y001704D03*
D177*
X004426Y001704D03*
X004428Y002190D03*
D178*
X003167Y001704D03*
X002353Y002034D03*
D179*
X001907Y002330D03*
X001907Y002334D03*
X001547Y002770D03*
X001347Y002830D03*
X001063Y002780D03*
X001063Y002774D03*
X001063Y002770D03*
X001063Y002754D03*
X001063Y002750D03*
X001063Y002744D03*
X001067Y002544D03*
X001903Y002930D03*
X002183Y003044D03*
X001907Y001704D03*
X004017Y001710D03*
X004017Y002334D03*
X005627Y002344D03*
D180*
X005114Y002338D03*
X005098Y001706D03*
X004716Y001788D03*
X003392Y002096D03*
X002872Y001796D03*
X002654Y001786D03*
X002654Y001948D03*
D181*
X004428Y001706D03*
D182*
X004017Y001706D03*
X004017Y001708D03*
X004017Y002332D03*
X004017Y002336D03*
X002983Y003208D03*
X001903Y002932D03*
X001903Y002928D03*
X001843Y003142D03*
X001547Y002772D03*
X001347Y002828D03*
X001063Y002778D03*
X001063Y002776D03*
X001063Y002772D03*
X001063Y002756D03*
X001063Y002752D03*
X001063Y002748D03*
X001063Y002746D03*
X001073Y002622D03*
X001067Y002546D03*
X001067Y002542D03*
X001377Y002372D03*
X001907Y002332D03*
X001907Y001708D03*
X001907Y001706D03*
X001287Y003208D03*
X005103Y002356D03*
X005627Y002342D03*
D183*
X003597Y001706D03*
X003387Y002248D03*
X002657Y001946D03*
D184*
X002355Y002032D03*
X003165Y001706D03*
D185*
X003081Y001988D03*
X002385Y001706D03*
D186*
X001907Y002358D03*
X001411Y002006D03*
X001279Y002206D03*
X001277Y002208D03*
X001253Y002236D03*
X001251Y002238D03*
X001247Y002242D03*
X001239Y002252D03*
X001233Y002258D03*
X001221Y002272D03*
X001217Y002276D03*
X001061Y002628D03*
X001351Y002908D03*
X001541Y002858D03*
X001297Y003218D03*
X000949Y003102D03*
X002183Y003112D03*
X002671Y003256D03*
X000567Y001728D03*
X000557Y001742D03*
X000553Y001748D03*
X000547Y001756D03*
X000543Y001762D03*
X000539Y001768D03*
X000533Y001776D03*
X000531Y001778D03*
X000529Y001782D03*
X000521Y001792D03*
X000519Y001796D03*
X000517Y001798D03*
X000511Y001806D03*
X000507Y001812D03*
X000503Y001818D03*
X000497Y001826D03*
X000493Y001832D03*
X000489Y001838D03*
X000483Y001846D03*
X000479Y001852D03*
X000469Y001866D03*
X000461Y001878D03*
X000451Y001892D03*
X000447Y001898D03*
X000441Y001906D03*
X000437Y001912D03*
X000427Y001926D03*
X000427Y001928D03*
X000583Y001706D03*
X004919Y002222D03*
D187*
X004430Y001708D03*
X002388Y001732D03*
D188*
X002879Y001962D03*
X003605Y002178D03*
X003597Y001708D03*
X005115Y002336D03*
D189*
X004431Y002186D03*
X003163Y001708D03*
D190*
X002385Y001708D03*
D191*
X002881Y001964D03*
X003599Y001710D03*
X005101Y001710D03*
X005117Y002334D03*
D192*
X004432Y002184D03*
X004430Y001710D03*
X002388Y001734D03*
D193*
X003161Y001710D03*
D194*
X002385Y001710D03*
D195*
X002143Y001776D03*
X002647Y001782D03*
X002649Y001952D03*
X003601Y001712D03*
X005103Y001712D03*
X005117Y002332D03*
X001097Y002366D03*
D196*
X002388Y001736D03*
X004432Y001712D03*
X004434Y002182D03*
D197*
X003160Y001712D03*
X002388Y001738D03*
D198*
X002385Y001712D03*
D199*
X002144Y002114D03*
X001906Y002210D03*
X000800Y002180D03*
X003602Y001714D03*
X004708Y002114D03*
X005104Y001714D03*
D200*
X004433Y001714D03*
D201*
X003159Y001714D03*
D202*
X002386Y001714D03*
D203*
X002888Y001968D03*
X003604Y001716D03*
X005106Y001716D03*
D204*
X004435Y001716D03*
D205*
X004437Y002176D03*
X003157Y001716D03*
X002389Y001742D03*
D206*
X002148Y002116D03*
X002884Y001786D03*
X004704Y002116D03*
X005122Y002326D03*
X005108Y001718D03*
X000804Y002178D03*
D207*
X002364Y002022D03*
X004436Y002178D03*
X004436Y001718D03*
D208*
X003607Y001718D03*
X003613Y002168D03*
D209*
X003115Y001776D03*
X003155Y001718D03*
X002367Y002018D03*
X004439Y002172D03*
X004439Y001722D03*
D210*
X003146Y002032D03*
X003122Y002012D03*
X002386Y001718D03*
D211*
X002891Y001970D03*
X003609Y001720D03*
X005109Y001720D03*
X001085Y002370D03*
D212*
X004437Y001720D03*
D213*
X004440Y001724D03*
X004472Y001770D03*
X004440Y002170D03*
X003154Y001720D03*
D214*
X003132Y002020D03*
X002386Y001720D03*
D215*
X003610Y001722D03*
X000556Y002492D03*
D216*
X003153Y001722D03*
D217*
X003374Y002084D03*
X005114Y001724D03*
D218*
X005128Y002320D03*
X003612Y001724D03*
X002888Y001784D03*
D219*
X003151Y001724D03*
X004443Y001730D03*
X004443Y002164D03*
D220*
X005115Y001726D03*
D221*
X004441Y001726D03*
X004441Y002168D03*
X002389Y001746D03*
D222*
X003614Y001726D03*
X003616Y001728D03*
X003624Y002158D03*
X005130Y002318D03*
D223*
X004444Y002162D03*
X004444Y001732D03*
X003150Y001726D03*
D224*
X002893Y001782D03*
X002155Y001772D03*
X003625Y002156D03*
X004695Y001776D03*
X005117Y001728D03*
X005131Y002316D03*
D225*
X004442Y002166D03*
X004442Y001728D03*
D226*
X004467Y001768D03*
X004465Y002128D03*
X003149Y001728D03*
X002391Y001752D03*
X002373Y002008D03*
D227*
X002387Y001728D03*
D228*
X003618Y001730D03*
X005118Y001730D03*
X001072Y002374D03*
D229*
X003148Y001730D03*
D230*
X002387Y001730D03*
D231*
X005121Y001732D03*
X005135Y002312D03*
D232*
X003630Y002152D03*
X003620Y001732D03*
D233*
X003147Y001732D03*
X003123Y001772D03*
X004449Y001742D03*
X004461Y002132D03*
X004449Y002152D03*
D234*
X005137Y002310D03*
X005123Y001734D03*
X003631Y002150D03*
X002903Y001974D03*
D235*
X004445Y002160D03*
X004445Y001734D03*
D236*
X003622Y001734D03*
X002628Y001774D03*
D237*
X003126Y001770D03*
X003146Y001734D03*
X004450Y001744D03*
X004462Y001764D03*
X004460Y002134D03*
X004456Y002140D03*
X004454Y002144D03*
X004450Y002150D03*
D238*
X005125Y001736D03*
X000821Y002172D03*
D239*
X002374Y002006D03*
X004446Y002158D03*
X004464Y001766D03*
X004446Y001736D03*
D240*
X004455Y001752D03*
X004457Y001756D03*
X004457Y001758D03*
X004457Y002138D03*
X004455Y002142D03*
X003145Y001736D03*
X002391Y001758D03*
D241*
X003627Y001738D03*
X003637Y002146D03*
X005141Y002306D03*
X005127Y001738D03*
D242*
X004448Y001738D03*
X004448Y002156D03*
D243*
X003144Y001738D03*
X003142Y001742D03*
X003128Y001768D03*
X002378Y001998D03*
D244*
X004689Y001774D03*
X005129Y001740D03*
D245*
X004449Y001740D03*
X004449Y002154D03*
X002391Y001754D03*
D246*
X003628Y001740D03*
X003638Y002144D03*
D247*
X003143Y001740D03*
D248*
X002388Y001740D03*
D249*
X005132Y001742D03*
D250*
X003631Y001742D03*
X003641Y002142D03*
X001059Y002378D03*
D251*
X005135Y001744D03*
D252*
X005148Y002300D03*
X003644Y002140D03*
X003634Y001744D03*
X000826Y002170D03*
D253*
X003141Y001744D03*
D254*
X002389Y001744D03*
D255*
X002438Y002218D03*
X003646Y002138D03*
X005150Y002298D03*
X005136Y001746D03*
D256*
X004460Y001762D03*
X004452Y001748D03*
X004452Y001746D03*
X004458Y002136D03*
X004452Y002146D03*
X004452Y002148D03*
X002376Y002002D03*
X002392Y001756D03*
D257*
X002619Y001772D03*
X002169Y002122D03*
X003649Y002136D03*
X003639Y001748D03*
X003637Y001746D03*
X004685Y002122D03*
X005153Y002296D03*
X005139Y001748D03*
X000571Y002486D03*
D258*
X003140Y001748D03*
X003140Y001746D03*
D259*
X002390Y001748D03*
D260*
X005141Y001750D03*
D261*
X004459Y001760D03*
X004455Y001754D03*
X004453Y001750D03*
X002377Y002000D03*
D262*
X002392Y001764D03*
X003132Y001764D03*
X003134Y001760D03*
X003138Y001750D03*
D263*
X003120Y001774D03*
X002390Y001750D03*
X002372Y002010D03*
D264*
X003645Y001752D03*
X003789Y002052D03*
X003779Y002058D03*
X003765Y002066D03*
X003755Y002072D03*
X003749Y002076D03*
X003745Y002078D03*
X003739Y002082D03*
X003731Y002086D03*
X003729Y002088D03*
X003721Y002092D03*
X003715Y002096D03*
X003711Y002098D03*
X003705Y002102D03*
X003695Y002108D03*
X003681Y002116D03*
X003671Y002122D03*
X003665Y002126D03*
X003661Y002128D03*
X003831Y002028D03*
X003835Y002026D03*
X003841Y002022D03*
X003865Y002008D03*
X005159Y001762D03*
X005401Y002138D03*
X005405Y002136D03*
X005411Y002132D03*
X005421Y002126D03*
X005395Y002142D03*
X005389Y002146D03*
X005385Y002148D03*
X005379Y002152D03*
X005341Y002176D03*
X005325Y002186D03*
X005309Y002196D03*
X005451Y002108D03*
X000831Y002168D03*
D265*
X002392Y001762D03*
X003138Y001752D03*
D266*
X003647Y001754D03*
X003803Y002044D03*
X003793Y002050D03*
X003787Y002054D03*
X003777Y002060D03*
X003753Y002074D03*
X003827Y002030D03*
X005367Y002160D03*
X005407Y002134D03*
X005423Y002124D03*
X005447Y002110D03*
X005457Y002104D03*
X001053Y002380D03*
D267*
X003137Y001754D03*
D268*
X003650Y001756D03*
X003700Y001786D03*
X003710Y001792D03*
X003720Y001798D03*
X003750Y001816D03*
X005180Y001776D03*
X005190Y001782D03*
X005340Y001876D03*
X005350Y001882D03*
X005460Y002102D03*
X005370Y002158D03*
X005300Y002202D03*
X005290Y002208D03*
D269*
X003135Y001758D03*
X003135Y001756D03*
X003133Y001762D03*
X002381Y001992D03*
D270*
X003763Y002068D03*
X003773Y002062D03*
X003783Y002056D03*
X003797Y002048D03*
X003807Y002042D03*
X003817Y002036D03*
X005153Y001758D03*
X005417Y002128D03*
X005427Y002122D03*
X005433Y002118D03*
X005437Y002116D03*
X005443Y002112D03*
X005373Y002156D03*
X005363Y002162D03*
X005357Y002166D03*
X005347Y002172D03*
X005163Y002288D03*
D271*
X005177Y002278D03*
X005181Y002276D03*
X005187Y002272D03*
X005193Y002268D03*
X005197Y002266D03*
X005203Y002262D03*
X005209Y002258D03*
X005213Y002256D03*
X005219Y002252D03*
X005225Y002248D03*
X005229Y002246D03*
X005235Y002242D03*
X005241Y002238D03*
X005245Y002236D03*
X005251Y002232D03*
X005257Y002228D03*
X005261Y002226D03*
X005267Y002222D03*
X005277Y002216D03*
X005283Y002212D03*
X005471Y002096D03*
X005463Y001952D03*
X005453Y001946D03*
X005447Y001942D03*
X005437Y001936D03*
X005431Y001932D03*
X005423Y001928D03*
X005421Y001926D03*
X005407Y001918D03*
X005405Y001916D03*
X005391Y001908D03*
X005375Y001898D03*
X005359Y001888D03*
X005343Y001878D03*
X005333Y001872D03*
X005327Y001868D03*
X005317Y001862D03*
X005311Y001858D03*
X005301Y001852D03*
X005295Y001848D03*
X005285Y001842D03*
X005279Y001838D03*
X005275Y001836D03*
X005269Y001832D03*
X005263Y001828D03*
X005259Y001826D03*
X005253Y001822D03*
X005247Y001818D03*
X005237Y001812D03*
X005231Y001808D03*
X005221Y001802D03*
X005215Y001798D03*
X005205Y001792D03*
X005199Y001788D03*
X005183Y001778D03*
X004681Y001772D03*
X003967Y001946D03*
X003829Y001862D03*
X003819Y001856D03*
X003805Y001848D03*
X003801Y001846D03*
X003795Y001842D03*
X003787Y001838D03*
X003785Y001836D03*
X003777Y001832D03*
X003771Y001828D03*
X003767Y001826D03*
X003761Y001822D03*
X003753Y001818D03*
X003743Y001812D03*
X003737Y001808D03*
X003733Y001806D03*
X003727Y001802D03*
X003717Y001796D03*
X003703Y001788D03*
X003693Y001782D03*
X003683Y001776D03*
X003675Y001772D03*
X003669Y001768D03*
X003665Y001766D03*
X003659Y001762D03*
X003653Y001758D03*
D272*
X003656Y001760D03*
X003696Y001784D03*
X003706Y001790D03*
X003742Y002080D03*
X003708Y002100D03*
X005156Y001760D03*
X005162Y001764D03*
X005186Y001780D03*
X005202Y001790D03*
X005218Y001800D03*
X005234Y001810D03*
X005256Y001824D03*
X005266Y001830D03*
X005272Y001834D03*
X005282Y001840D03*
X005288Y001844D03*
X005298Y001850D03*
X005304Y001854D03*
X005314Y001860D03*
X005336Y001874D03*
X005346Y001880D03*
X005352Y001884D03*
X005362Y001890D03*
X005378Y001900D03*
X005474Y002094D03*
X005464Y002100D03*
X005398Y002140D03*
X005392Y002144D03*
X005382Y002150D03*
X005376Y002154D03*
X005344Y002174D03*
X005334Y002180D03*
X005328Y002184D03*
X005318Y002190D03*
X005312Y002194D03*
X005302Y002200D03*
X005296Y002204D03*
X005286Y002210D03*
X005264Y002224D03*
X005254Y002230D03*
X005248Y002234D03*
X005238Y002240D03*
D273*
X002392Y001760D03*
D274*
X003663Y001764D03*
X003679Y001774D03*
X003689Y001780D03*
X003713Y001794D03*
X003723Y001800D03*
X003747Y001814D03*
X003757Y001820D03*
X003763Y001824D03*
X003773Y001830D03*
X003781Y001834D03*
X003791Y001840D03*
X003809Y001850D03*
X003815Y001854D03*
X003833Y001864D03*
X005177Y001774D03*
X005193Y001784D03*
X005209Y001794D03*
X005225Y001804D03*
X005369Y001894D03*
X005385Y001904D03*
X005395Y001910D03*
X005401Y001914D03*
X005411Y001920D03*
X005417Y001924D03*
X005427Y001930D03*
X005433Y001934D03*
X005443Y001940D03*
X005231Y002244D03*
X005223Y002250D03*
X005215Y002254D03*
X005207Y002260D03*
X005199Y002264D03*
X005191Y002270D03*
X005183Y002274D03*
X005175Y002280D03*
X005169Y002284D03*
D275*
X005166Y002286D03*
X005172Y002282D03*
X005274Y002218D03*
X005292Y002206D03*
X005306Y002198D03*
X005316Y002192D03*
X005322Y002188D03*
X005332Y002182D03*
X005338Y002178D03*
X005354Y002168D03*
X005454Y002106D03*
X005468Y002098D03*
X005478Y002092D03*
X005414Y001922D03*
X005398Y001912D03*
X005388Y001906D03*
X005382Y001902D03*
X005372Y001896D03*
X005366Y001892D03*
X005356Y001886D03*
X005324Y001866D03*
X005308Y001856D03*
X005292Y001846D03*
X005244Y001816D03*
X005228Y001806D03*
X005212Y001796D03*
X005196Y001786D03*
X005174Y001772D03*
X005168Y001768D03*
X005164Y001766D03*
X003686Y001778D03*
X003698Y002106D03*
X001346Y002036D03*
D276*
X002379Y001996D03*
X003129Y001766D03*
D277*
X002392Y001766D03*
X002392Y001768D03*
X002382Y001988D03*
D278*
X003730Y001804D03*
X003740Y001810D03*
X005170Y001770D03*
X005240Y001814D03*
X005250Y001820D03*
X005320Y001864D03*
X005330Y001870D03*
X005360Y002164D03*
X005350Y002170D03*
X005280Y002214D03*
X005270Y002220D03*
D279*
X005450Y001944D03*
X005460Y001950D03*
X005466Y001954D03*
X003850Y001874D03*
X003844Y001870D03*
X003826Y001860D03*
X003798Y001844D03*
X003672Y001770D03*
X002616Y001964D03*
D280*
X002393Y001770D03*
D281*
X002148Y001774D03*
X002446Y002220D03*
X004704Y001780D03*
D282*
X004700Y001778D03*
X002634Y001776D03*
X002636Y001958D03*
X000810Y002176D03*
D283*
X001365Y002286D03*
X001453Y002708D03*
X003373Y001778D03*
X004897Y002318D03*
D284*
X003615Y002166D03*
X003373Y002256D03*
X002641Y001956D03*
X002639Y001778D03*
X001365Y002028D03*
D285*
X000553Y002494D03*
X002645Y001954D03*
X002643Y001780D03*
X003377Y002254D03*
X005119Y002330D03*
D286*
X002876Y001960D03*
X002136Y001780D03*
D287*
X002881Y001788D03*
X001371Y002026D03*
X004707Y001782D03*
D288*
X004721Y001792D03*
X002133Y001782D03*
X001109Y002362D03*
X000531Y002442D03*
D289*
X002879Y001790D03*
X004711Y001784D03*
D290*
X003384Y002250D03*
X002874Y001794D03*
X002650Y001784D03*
X002652Y001950D03*
X001376Y002024D03*
D291*
X002128Y002102D03*
X002128Y001786D03*
X002868Y001952D03*
D292*
X002874Y001958D03*
X002870Y001798D03*
X002656Y001788D03*
X002128Y001966D03*
X002132Y002106D03*
X001380Y002022D03*
X000532Y002438D03*
X003394Y002098D03*
X003602Y002182D03*
X004718Y002108D03*
D293*
X004725Y002102D03*
X003599Y002186D03*
X003401Y002108D03*
X002127Y001788D03*
X000529Y002448D03*
D294*
X004718Y001790D03*
X005112Y002340D03*
D295*
X004723Y001794D03*
X003399Y002104D03*
X000531Y002444D03*
D296*
X002122Y002094D03*
X002122Y001794D03*
X002668Y001800D03*
X002668Y001934D03*
X002862Y001944D03*
X003404Y002114D03*
D297*
X003400Y002106D03*
X003396Y002238D03*
X004724Y001796D03*
X000530Y002446D03*
D298*
X001448Y002654D03*
X003402Y002110D03*
X004726Y002100D03*
X004728Y001800D03*
D299*
X004730Y001804D03*
D300*
X004915Y002272D03*
X005105Y002352D03*
X003105Y002966D03*
X003105Y002968D03*
X002675Y003302D03*
X002185Y003052D03*
X001295Y003162D03*
X001295Y003166D03*
X002115Y002082D03*
X002115Y001808D03*
X002675Y001812D03*
X002855Y001828D03*
X002855Y001832D03*
X002855Y001922D03*
X002855Y001926D03*
D301*
X002854Y001920D03*
X002854Y001914D03*
X002854Y001840D03*
X002854Y001834D03*
X002676Y001814D03*
X002680Y001910D03*
X002114Y001810D03*
X002114Y002080D03*
X001386Y002314D03*
X001384Y002320D03*
X001384Y002324D03*
X001376Y002360D03*
X001070Y002580D03*
X001070Y002584D03*
X000844Y002640D03*
X000840Y002660D03*
X001346Y002850D03*
X001344Y002860D03*
X001344Y002864D03*
X001340Y002880D03*
X001340Y002884D03*
X001296Y003154D03*
X001286Y003200D03*
X001836Y003190D03*
X001840Y003174D03*
X001840Y003170D03*
X001844Y003150D03*
X001906Y002970D03*
X001906Y002964D03*
X002184Y003050D03*
X002174Y003094D03*
X002674Y003310D03*
X002676Y003300D03*
X002680Y003280D03*
X002980Y003180D03*
X002980Y003174D03*
X002976Y003154D03*
X003100Y002990D03*
X003104Y002974D03*
X003104Y002970D03*
X003106Y002964D03*
X003106Y002960D03*
X003594Y002194D03*
X004910Y002250D03*
X004916Y002274D03*
X005626Y001954D03*
X005626Y001950D03*
D302*
X004731Y002094D03*
X003401Y002230D03*
X002859Y001814D03*
X002671Y001930D03*
X002119Y001964D03*
X002119Y002090D03*
D303*
X001385Y002382D03*
X001235Y002256D03*
X001265Y002222D03*
X000505Y001816D03*
X000475Y001858D03*
X000465Y001872D03*
X000455Y001886D03*
X001845Y003218D03*
X004015Y002358D03*
D304*
X004738Y002078D03*
X004738Y002076D03*
X004738Y001826D03*
X004738Y001822D03*
X004912Y002256D03*
X004912Y002258D03*
X004918Y002282D03*
X004918Y002286D03*
X003108Y002948D03*
X003108Y002952D03*
X003102Y002978D03*
X003102Y002982D03*
X002978Y003166D03*
X002978Y003168D03*
X002982Y003186D03*
X002982Y003188D03*
X002678Y003286D03*
X002678Y003288D03*
X002678Y003292D03*
X002672Y003316D03*
X002672Y003318D03*
X001908Y002982D03*
X001842Y003158D03*
X001842Y003162D03*
X001838Y003178D03*
X001838Y003182D03*
X001288Y003192D03*
X001342Y002876D03*
X001342Y002872D03*
X001342Y002868D03*
X001452Y002636D03*
X001378Y002352D03*
X000842Y002646D03*
X000842Y002648D03*
X000838Y002666D03*
X000838Y002668D03*
X002678Y001916D03*
X002678Y001818D03*
D305*
X002678Y001820D03*
X002678Y001914D03*
X003108Y002950D03*
X003108Y002954D03*
X003102Y002980D03*
X003102Y002984D03*
X002978Y003164D03*
X002978Y003170D03*
X002982Y003190D03*
X002678Y003290D03*
X002672Y003314D03*
X001842Y003164D03*
X001842Y003160D03*
X001838Y003180D03*
X001838Y003184D03*
X001288Y003194D03*
X001342Y002874D03*
X001342Y002870D03*
X000838Y002670D03*
X000838Y002664D03*
X000842Y002650D03*
X000842Y002644D03*
X004738Y001824D03*
X004918Y002284D03*
D306*
X004915Y002270D03*
X004735Y002084D03*
X002855Y001924D03*
X002855Y001830D03*
X002675Y003304D03*
X001295Y003164D03*
X001295Y003160D03*
X001165Y002314D03*
D307*
X000495Y001830D03*
X000485Y001844D03*
X000445Y001900D03*
X000435Y001914D03*
D308*
X000530Y002504D03*
X001340Y002894D03*
X001910Y003004D03*
X002680Y003270D03*
X002110Y002064D03*
X002110Y001950D03*
X002110Y001944D03*
X002110Y001940D03*
X002110Y001934D03*
X002110Y001930D03*
X002110Y001844D03*
X002110Y001840D03*
X002110Y001834D03*
D309*
X002110Y001836D03*
X002110Y001838D03*
X002110Y001842D03*
X002110Y001846D03*
X002110Y001932D03*
X002110Y001936D03*
X002110Y001938D03*
X002110Y001942D03*
X002110Y001946D03*
X002110Y001948D03*
X002110Y002062D03*
X001340Y002896D03*
X001910Y003002D03*
X001910Y003006D03*
D310*
X001599Y003110D03*
X001451Y002630D03*
X001161Y002324D03*
X000835Y002690D03*
X000955Y003014D03*
X002109Y001924D03*
X002109Y001920D03*
X002109Y001914D03*
X002109Y001910D03*
X002109Y001904D03*
X002109Y001900D03*
X002109Y001894D03*
X002109Y001890D03*
X002109Y001884D03*
X002109Y001880D03*
X002109Y001874D03*
X002109Y001870D03*
X002109Y001864D03*
X002109Y001860D03*
X002109Y001854D03*
X002109Y001850D03*
X002439Y003000D03*
X002439Y003004D03*
X002439Y003010D03*
X002439Y003014D03*
X002439Y003020D03*
X002439Y003024D03*
X002439Y003030D03*
X002439Y003034D03*
X002439Y003040D03*
X002439Y003044D03*
X002671Y003334D03*
X003109Y002934D03*
X004919Y002300D03*
X004911Y002234D03*
D311*
X005440Y001938D03*
X005456Y001948D03*
X005470Y001956D03*
X005578Y002026D03*
X003966Y001948D03*
X003864Y001882D03*
X003854Y001876D03*
X003846Y001872D03*
X003840Y001868D03*
X003836Y001866D03*
X003822Y001858D03*
X003812Y001852D03*
X001046Y002382D03*
D312*
X001018Y002118D03*
X001204Y002078D03*
X003918Y001886D03*
D313*
X003920Y001888D03*
X005532Y001966D03*
X005532Y002088D03*
D314*
X003922Y001890D03*
X001172Y002084D03*
X001080Y002104D03*
D315*
X001089Y002102D03*
X003923Y001892D03*
D316*
X003927Y001896D03*
X003927Y001996D03*
X005539Y001976D03*
D317*
X003928Y001898D03*
D318*
X003930Y001900D03*
X000876Y002150D03*
X000608Y002470D03*
D319*
X003932Y001902D03*
X005544Y001982D03*
D320*
X003933Y001904D03*
D321*
X003937Y001908D03*
X005549Y001988D03*
X005549Y002066D03*
D322*
X003938Y001910D03*
X001312Y002050D03*
D323*
X003940Y001912D03*
X005552Y001992D03*
X005552Y002062D03*
D324*
X003943Y001916D03*
D325*
X003946Y001920D03*
X005558Y002000D03*
D326*
X003948Y001922D03*
X000858Y002158D03*
D327*
X000705Y002454D03*
X003949Y001970D03*
X003949Y001924D03*
X005561Y002004D03*
D328*
X005563Y002006D03*
X005563Y002048D03*
X003951Y001926D03*
D329*
X003953Y001928D03*
X000717Y002452D03*
D330*
X000806Y002434D03*
X003954Y001930D03*
X005566Y002010D03*
X005566Y002044D03*
D331*
X005568Y002042D03*
X003956Y001932D03*
X000896Y002416D03*
X000886Y002418D03*
D332*
X001449Y002698D03*
X000423Y001936D03*
X000425Y001932D03*
X002987Y003128D03*
X003113Y003012D03*
X003097Y002922D03*
X004907Y002312D03*
D333*
X005569Y002040D03*
X005569Y002014D03*
X003957Y001934D03*
X001017Y002390D03*
X000877Y002420D03*
X000857Y002424D03*
D334*
X001445Y002614D03*
X001591Y003024D03*
X001895Y003014D03*
X002183Y003114D03*
X002439Y002974D03*
X002971Y003220D03*
X001299Y003220D03*
X000423Y001934D03*
D335*
X001025Y002388D03*
X003959Y001936D03*
D336*
X003294Y003246D03*
X001374Y002292D03*
X000422Y001938D03*
D337*
X003962Y001940D03*
D338*
X003963Y001942D03*
X003963Y001952D03*
D339*
X003317Y003340D03*
X001849Y003220D03*
X001449Y002700D03*
X001353Y002910D03*
X000421Y001950D03*
X000421Y001944D03*
D340*
X003964Y001950D03*
X005576Y002030D03*
D341*
X005573Y002034D03*
X005573Y002020D03*
X003961Y001954D03*
D342*
X000830Y002610D03*
X000480Y002350D03*
X000470Y002284D03*
X000460Y002220D03*
X000440Y002090D03*
X000420Y001960D03*
X000420Y001954D03*
D343*
X000848Y002426D03*
X003958Y001958D03*
D344*
X005527Y001960D03*
X000991Y002124D03*
X000889Y002144D03*
X000621Y002464D03*
D345*
X000924Y002410D03*
X003956Y001960D03*
D346*
X002631Y001960D03*
X002159Y002120D03*
D347*
X002625Y001962D03*
D348*
X005530Y001964D03*
X005530Y002090D03*
D349*
X003953Y001964D03*
X001001Y002394D03*
X000853Y002160D03*
D350*
X002884Y001966D03*
X003382Y002088D03*
X003610Y002172D03*
D351*
X005533Y001968D03*
X001293Y002058D03*
X001071Y002106D03*
X001063Y002108D03*
D352*
X000590Y002478D03*
X003950Y001968D03*
D353*
X002388Y001968D03*
D354*
X005535Y001970D03*
X005535Y002084D03*
D355*
X002388Y001970D03*
D356*
X001850Y002116D03*
X001134Y002092D03*
X001116Y002096D03*
X001106Y002098D03*
X005536Y001972D03*
D357*
X003947Y001972D03*
D358*
X002387Y001972D03*
D359*
X005538Y001974D03*
X005538Y002080D03*
D360*
X003945Y001974D03*
D361*
X002387Y001974D03*
D362*
X003944Y001976D03*
X005556Y002058D03*
D363*
X002386Y001978D03*
X002386Y001976D03*
D364*
X003315Y002076D03*
X005541Y001978D03*
D365*
X003942Y001978D03*
D366*
X003016Y001978D03*
D367*
X005543Y001980D03*
X005543Y002074D03*
D368*
X003029Y001980D03*
D369*
X002385Y001980D03*
D370*
X003939Y001982D03*
D371*
X003059Y001982D03*
D372*
X002384Y001982D03*
D373*
X005546Y001984D03*
X005546Y002070D03*
D374*
X003937Y001984D03*
D375*
X003070Y001984D03*
D376*
X002384Y001984D03*
D377*
X002383Y001986D03*
D378*
X003934Y001988D03*
D379*
X005550Y001990D03*
D380*
X003932Y001990D03*
D381*
X003086Y001990D03*
D382*
X002382Y001990D03*
D383*
X003931Y001992D03*
D384*
X003091Y001992D03*
D385*
X005554Y001994D03*
X005554Y002060D03*
D386*
X002380Y001994D03*
D387*
X005555Y001996D03*
D388*
X003098Y001996D03*
D389*
X003926Y001998D03*
X001854Y002208D03*
D390*
X003101Y001998D03*
X003167Y002048D03*
D391*
X003924Y002000D03*
X001144Y002090D03*
X001124Y002094D03*
D392*
X003105Y002000D03*
D393*
X005560Y002002D03*
X005560Y002052D03*
D394*
X003108Y002002D03*
D395*
X003921Y002004D03*
D396*
X003157Y002040D03*
X003111Y002004D03*
D397*
X002375Y002004D03*
D398*
X003179Y002356D03*
X003919Y002006D03*
X001045Y002112D03*
X000885Y002146D03*
D399*
X003114Y002006D03*
X003116Y002008D03*
X003154Y002038D03*
D400*
X003149Y002034D03*
X003119Y002010D03*
X004419Y002200D03*
D401*
X004469Y002126D03*
X002371Y002012D03*
D402*
X003675Y002120D03*
X003685Y002114D03*
X003691Y002110D03*
X003701Y002104D03*
X003719Y002094D03*
X003725Y002090D03*
X003735Y002084D03*
X003759Y002070D03*
X003769Y002064D03*
X003811Y002040D03*
X003821Y002034D03*
X003845Y002020D03*
X003855Y002014D03*
X005161Y002290D03*
X005415Y002130D03*
X005431Y002120D03*
X005441Y002114D03*
D403*
X002369Y002014D03*
D404*
X005570Y002016D03*
X005570Y002038D03*
D405*
X002368Y002016D03*
D406*
X002365Y002020D03*
D407*
X005575Y002022D03*
X005575Y002032D03*
D408*
X004420Y002198D03*
X003134Y002022D03*
D409*
X003137Y002024D03*
D410*
X002362Y002024D03*
X004434Y002180D03*
D411*
X002360Y002026D03*
D412*
X002358Y002028D03*
D413*
X002357Y002030D03*
D414*
X002146Y002060D03*
X001360Y002030D03*
D415*
X001356Y002032D03*
D416*
X001351Y002034D03*
D417*
X003151Y002036D03*
D418*
X002350Y002036D03*
D419*
X002348Y002038D03*
D420*
X001342Y002038D03*
D421*
X002346Y002040D03*
D422*
X001332Y002042D03*
X000992Y002396D03*
X000982Y002398D03*
X000962Y002402D03*
X000768Y002442D03*
D423*
X003162Y002044D03*
D424*
X002340Y002044D03*
D425*
X001327Y002044D03*
D426*
X005565Y002046D03*
D427*
X003329Y002078D03*
X001317Y002048D03*
D428*
X003170Y002050D03*
X004414Y002204D03*
D429*
X002330Y002050D03*
D430*
X003173Y002052D03*
D431*
X003180Y002056D03*
X002326Y002052D03*
D432*
X001307Y002052D03*
D433*
X005559Y002054D03*
D434*
X003176Y002054D03*
D435*
X002321Y002054D03*
D436*
X001303Y002054D03*
D437*
X002315Y002056D03*
D438*
X001297Y002056D03*
X000881Y002148D03*
X000613Y002468D03*
X005537Y002082D03*
D439*
X002308Y002058D03*
D440*
X003186Y002060D03*
D441*
X003189Y002062D03*
D442*
X005551Y002064D03*
D443*
X003194Y002064D03*
D444*
X001277Y002064D03*
D445*
X003198Y002066D03*
D446*
X001272Y002066D03*
D447*
X003203Y002068D03*
D448*
X001267Y002068D03*
X000903Y002138D03*
D449*
X003208Y002070D03*
D450*
X005545Y002072D03*
D451*
X001257Y002072D03*
D452*
X003224Y002074D03*
D453*
X001845Y002130D03*
X001845Y002194D03*
X001251Y002074D03*
D454*
X005540Y002078D03*
D455*
X001192Y002080D03*
X001054Y002110D03*
D456*
X001200Y002294D03*
X001194Y002300D03*
X001190Y002304D03*
X001384Y002380D03*
X001384Y002084D03*
X000740Y002210D03*
X000736Y002214D03*
X000728Y002224D03*
X000724Y002230D03*
X000720Y002234D03*
X000716Y002240D03*
X000698Y002264D03*
X000690Y002274D03*
X000682Y002284D03*
X000674Y002294D03*
X000670Y002300D03*
X000666Y002304D03*
X000662Y002310D03*
X000658Y002314D03*
X000654Y002320D03*
X000650Y002324D03*
X000642Y002334D03*
X000634Y002344D03*
X000626Y002354D03*
X000618Y002364D03*
X000614Y002370D03*
X000610Y002374D03*
X000606Y002380D03*
X000602Y002384D03*
X000598Y002390D03*
X000594Y002394D03*
X000590Y002400D03*
X000586Y002404D03*
X000582Y002410D03*
X001448Y002694D03*
X004910Y002164D03*
D457*
X005121Y002328D03*
X003379Y002086D03*
X001091Y002368D03*
D458*
X001152Y002088D03*
X001162Y002086D03*
D459*
X003385Y002090D03*
D460*
X003390Y002094D03*
D461*
X001097Y002100D03*
D462*
X004722Y002104D03*
D463*
X003389Y002246D03*
X002135Y002108D03*
D464*
X002137Y002110D03*
X001103Y002364D03*
X004715Y002110D03*
D465*
X002140Y002112D03*
D466*
X001035Y002114D03*
D467*
X001027Y002116D03*
X000617Y002466D03*
D468*
X001844Y002118D03*
X002388Y002212D03*
D469*
X003627Y002154D03*
X004693Y002120D03*
X005133Y002314D03*
D470*
X003597Y002190D03*
X003407Y002120D03*
X001443Y002670D03*
D471*
X001844Y002120D03*
D472*
X001844Y002122D03*
D473*
X004438Y002174D03*
X004474Y002124D03*
D474*
X003194Y002304D03*
X002334Y002160D03*
X002304Y002124D03*
D475*
X001845Y002124D03*
D476*
X002309Y002126D03*
X003197Y002296D03*
D477*
X000983Y002126D03*
D478*
X002312Y002128D03*
X002316Y002132D03*
X002326Y002146D03*
X003202Y002286D03*
X003204Y002282D03*
X003210Y002272D03*
D479*
X000974Y002128D03*
D480*
X004464Y002130D03*
D481*
X003212Y002270D03*
X003204Y002284D03*
X002314Y002130D03*
D482*
X000965Y002130D03*
D483*
X000959Y002132D03*
X001845Y002206D03*
D484*
X002317Y002134D03*
D485*
X002319Y002136D03*
X002321Y002138D03*
D486*
X002322Y002140D03*
D487*
X001305Y003224D03*
X001125Y002274D03*
X001115Y002230D03*
X001105Y002184D03*
X001095Y002144D03*
X001095Y002140D03*
D488*
X000899Y002140D03*
X000631Y002460D03*
D489*
X002323Y002142D03*
X003207Y002276D03*
X003207Y002278D03*
D490*
X001846Y002182D03*
X001846Y002142D03*
D491*
X000894Y002142D03*
X000626Y002462D03*
D492*
X002325Y002144D03*
X003205Y002280D03*
X003209Y002274D03*
D493*
X001845Y002180D03*
X001845Y002144D03*
D494*
X001845Y002146D03*
D495*
X001369Y002288D03*
X001129Y002292D03*
X001123Y002266D03*
X001121Y002258D03*
X001121Y002256D03*
X001119Y002248D03*
X001117Y002242D03*
X001117Y002238D03*
X001113Y002222D03*
X001113Y002218D03*
X001111Y002212D03*
X001109Y002206D03*
X001109Y002202D03*
X001107Y002198D03*
X001107Y002196D03*
X001107Y002192D03*
X001103Y002178D03*
X001103Y002176D03*
X001103Y002172D03*
X001101Y002168D03*
X001101Y002166D03*
X001099Y002162D03*
X001099Y002158D03*
X001099Y002156D03*
X001097Y002152D03*
X001097Y002148D03*
X001097Y002146D03*
X003323Y003342D03*
X004901Y002316D03*
X005627Y002362D03*
D496*
X003213Y002268D03*
X003201Y002288D03*
X003199Y002292D03*
X002327Y002148D03*
D497*
X001846Y002148D03*
X001846Y002152D03*
X001846Y002156D03*
X001846Y002158D03*
X001846Y002166D03*
X001846Y002168D03*
X001846Y002172D03*
X001846Y002176D03*
X001846Y002178D03*
D498*
X001846Y002174D03*
X001846Y002170D03*
X001846Y002160D03*
X001846Y002154D03*
X001846Y002150D03*
D499*
X001131Y002300D03*
X001127Y002284D03*
X001119Y002250D03*
X001117Y002240D03*
X001113Y002224D03*
X001113Y002220D03*
X001111Y002214D03*
X001111Y002210D03*
X001109Y002204D03*
X001109Y002200D03*
X001107Y002194D03*
X001107Y002190D03*
X001103Y002180D03*
X001103Y002174D03*
X001101Y002170D03*
X001101Y002164D03*
X001099Y002160D03*
X001097Y002150D03*
X001063Y002714D03*
X001621Y003120D03*
X002187Y003120D03*
X002439Y003070D03*
X003287Y003244D03*
D500*
X002330Y002152D03*
D501*
X000872Y002152D03*
D502*
X002331Y002154D03*
D503*
X000867Y002154D03*
D504*
X002332Y002156D03*
D505*
X000862Y002156D03*
D506*
X001154Y002342D03*
X001158Y002336D03*
X001448Y002622D03*
X001908Y002352D03*
X002180Y003106D03*
X002978Y003216D03*
X003308Y003336D03*
X004016Y002352D03*
X004914Y002306D03*
X004908Y002158D03*
X001292Y003136D03*
X000840Y002616D03*
X000560Y002436D03*
D507*
X002333Y002158D03*
X003195Y002302D03*
D508*
X003621Y002160D03*
D509*
X004910Y002162D03*
X002180Y003108D03*
X001380Y002298D03*
D510*
X002336Y002162D03*
X003220Y002262D03*
D511*
X001845Y002162D03*
D512*
X000847Y002162D03*
X000867Y002422D03*
X000839Y002428D03*
D513*
X003618Y002164D03*
X005124Y002324D03*
D514*
X002337Y002164D03*
D515*
X000842Y002164D03*
D516*
X001080Y002536D03*
X000834Y002612D03*
X001446Y002616D03*
X004910Y002166D03*
D517*
X004906Y002168D03*
X002688Y003348D03*
X002664Y003252D03*
X002174Y003022D03*
X001826Y003126D03*
X001444Y002608D03*
X000828Y002608D03*
X002420Y002222D03*
D518*
X002339Y002168D03*
D519*
X004904Y002170D03*
X004936Y002214D03*
D520*
X002341Y002170D03*
D521*
X002342Y002172D03*
D522*
X003608Y002174D03*
D523*
X002343Y002174D03*
D524*
X000815Y002174D03*
X000561Y002490D03*
D525*
X002344Y002176D03*
D526*
X002345Y002178D03*
X003183Y002322D03*
D527*
X003603Y002180D03*
D528*
X002347Y002180D03*
D529*
X002350Y002184D03*
D530*
X001846Y002184D03*
D531*
X000789Y002184D03*
D532*
X002352Y002186D03*
D533*
X000785Y002186D03*
D534*
X004429Y002188D03*
D535*
X002355Y002190D03*
D536*
X002357Y002192D03*
D537*
X001846Y002192D03*
D538*
X002359Y002194D03*
D539*
X002361Y002196D03*
X003171Y002342D03*
D540*
X002379Y002208D03*
X001845Y002196D03*
D541*
X002364Y002198D03*
D542*
X001446Y002688D03*
X001380Y002376D03*
X000754Y002198D03*
X000960Y003012D03*
X001290Y003212D03*
X001840Y003136D03*
X002674Y003338D03*
X002676Y003262D03*
X004914Y002228D03*
D543*
X002366Y002200D03*
D544*
X001846Y002200D03*
D545*
X004417Y002202D03*
D546*
X002369Y002202D03*
D547*
X001845Y002202D03*
D548*
X001845Y002204D03*
D549*
X000954Y003100D03*
X000574Y002420D03*
X000746Y002204D03*
X004016Y002354D03*
X005102Y002360D03*
D550*
X004412Y002206D03*
D551*
X004409Y002208D03*
D552*
X003586Y002208D03*
X003088Y002916D03*
X001532Y002862D03*
X001442Y002602D03*
X001094Y002532D03*
D553*
X001130Y002298D03*
X001130Y002296D03*
X001126Y002282D03*
X001126Y002278D03*
X001124Y002272D03*
X001124Y002268D03*
X001120Y002252D03*
X001116Y002236D03*
X001114Y002226D03*
X001110Y002208D03*
X001394Y002388D03*
X001926Y002918D03*
X003090Y002918D03*
X003120Y003016D03*
D554*
X004945Y002210D03*
D555*
X002383Y002210D03*
D556*
X004940Y002212D03*
D557*
X004399Y002214D03*
D558*
X002397Y002214D03*
D559*
X002188Y003122D03*
X000856Y002706D03*
X004930Y002216D03*
D560*
X001452Y002706D03*
X001132Y002302D03*
X001128Y002288D03*
X001128Y002286D03*
X001122Y002262D03*
X001118Y002246D03*
X001112Y002216D03*
X000978Y003008D03*
D561*
X001276Y003122D03*
X001308Y003226D03*
X000824Y002606D03*
X001912Y002362D03*
X002492Y002222D03*
D562*
X001447Y002620D03*
X000837Y002614D03*
X000677Y002290D03*
X000693Y002270D03*
X000713Y002244D03*
X004917Y002224D03*
D563*
X003403Y002226D03*
X002177Y003076D03*
X002177Y003078D03*
X001167Y002306D03*
D564*
X001130Y002294D03*
X001126Y002280D03*
X001124Y002270D03*
X001120Y002254D03*
X001116Y002234D03*
X001280Y003124D03*
D565*
X001339Y002820D03*
X000709Y002250D03*
X000705Y002254D03*
X000701Y002260D03*
X000685Y002280D03*
X000579Y002414D03*
D566*
X003382Y002252D03*
D567*
X003231Y002258D03*
D568*
X003225Y002260D03*
D569*
X003218Y002264D03*
D570*
X003215Y002266D03*
D571*
X001360Y002284D03*
D572*
X003196Y002298D03*
D573*
X003195Y002300D03*
D574*
X005146Y002302D03*
D575*
X005144Y002304D03*
D576*
X004915Y002304D03*
D577*
X003193Y002306D03*
X003191Y002308D03*
D578*
X003190Y002310D03*
D579*
X003188Y002312D03*
D580*
X003188Y002314D03*
D581*
X003187Y002316D03*
D582*
X003186Y002318D03*
D583*
X004893Y002320D03*
X001441Y002600D03*
D584*
X003185Y002320D03*
D585*
X002650Y003246D03*
X002196Y003132D03*
X004886Y002322D03*
D586*
X003182Y002324D03*
D587*
X003181Y002326D03*
D588*
X003180Y002328D03*
D589*
X003179Y002330D03*
D590*
X003177Y002332D03*
D591*
X003177Y002334D03*
D592*
X003175Y002336D03*
D593*
X003174Y002338D03*
D594*
X003172Y002340D03*
D595*
X003170Y002344D03*
D596*
X003168Y002346D03*
D597*
X003162Y002354D03*
D598*
X003303Y002358D03*
X001455Y002718D03*
X001325Y002812D03*
D599*
X004021Y002362D03*
D600*
X005626Y002364D03*
D601*
X005103Y002364D03*
X003129Y003020D03*
X001455Y002714D03*
X001271Y003120D03*
D602*
X001039Y002384D03*
D603*
X001032Y002386D03*
D604*
X001398Y002390D03*
D605*
X001403Y002392D03*
D606*
X000972Y002400D03*
X000778Y002440D03*
D607*
X000759Y002444D03*
X000729Y002450D03*
X000827Y002430D03*
X000905Y002414D03*
X000953Y002404D03*
X000585Y002480D03*
D608*
X000570Y002424D03*
X001290Y003134D03*
X002180Y003034D03*
D609*
X000816Y002432D03*
X000796Y002436D03*
X000786Y002438D03*
D610*
X000640Y002456D03*
D611*
X000525Y002506D03*
D612*
X000513Y002514D03*
D613*
X001070Y002540D03*
X001344Y002904D03*
D614*
X001440Y002598D03*
D615*
X000822Y002604D03*
D616*
X001051Y002632D03*
X001443Y002606D03*
D617*
X000866Y002710D03*
X002194Y003130D03*
X002702Y003354D03*
D618*
X002696Y003352D03*
X002168Y003016D03*
X001860Y003226D03*
X001454Y002712D03*
D619*
X001455Y002716D03*
D620*
X001456Y002720D03*
X002646Y003244D03*
D621*
X001590Y002762D03*
D622*
X002165Y003014D03*
X003085Y002914D03*
D623*
X002952Y003228D03*
X002438Y002972D03*
X001938Y002916D03*
X001866Y003228D03*
D624*
X002160Y003012D03*
X001358Y002916D03*
D625*
X003123Y003018D03*
D626*
X002170Y003018D03*
X000940Y003106D03*
D627*
X001887Y003018D03*
D628*
X001856Y003224D03*
X002172Y003020D03*
X002692Y003350D03*
X002962Y003224D03*
D629*
X001575Y003020D03*
D630*
X003135Y003022D03*
D631*
X002178Y003028D03*
D632*
X001821Y003122D03*
X001313Y003228D03*
X003277Y003242D03*
D633*
X002190Y003124D03*
D634*
X002192Y003128D03*
D635*
X002197Y003134D03*
X001321Y003230D03*
D636*
X002654Y003248D03*
D637*
X002628Y001490D02*
X002781Y001490D01*
X002781Y001375D01*
X002704Y001413D01*
X002666Y001413D01*
X002628Y001375D01*
X002628Y001298D01*
X002666Y001260D01*
X002743Y001260D01*
X002781Y001298D01*
X002858Y001298D02*
X002858Y001260D01*
X002896Y001260D01*
X002896Y001298D01*
X002858Y001298D01*
X002973Y001260D02*
X003126Y001260D01*
X002973Y001413D01*
X002973Y001452D01*
X003011Y001490D01*
X003088Y001490D01*
X003126Y001452D01*
X003203Y001413D02*
X003280Y001260D01*
X003356Y001413D01*
X003663Y001375D02*
X003663Y001337D01*
X003817Y001337D01*
X003817Y001375D02*
X003778Y001413D01*
X003702Y001413D01*
X003663Y001375D01*
X003702Y001260D02*
X003778Y001260D01*
X003817Y001298D01*
X003817Y001375D01*
X003894Y001413D02*
X003970Y001413D01*
X003932Y001452D02*
X003932Y001298D01*
X003894Y001260D01*
X004047Y001260D02*
X004124Y001260D01*
X004085Y001260D02*
X004085Y001413D01*
X004124Y001413D01*
X004201Y001413D02*
X004239Y001413D01*
X004316Y001337D01*
X004316Y001413D02*
X004316Y001260D01*
X004392Y001298D02*
X004431Y001260D01*
X004546Y001260D01*
X004546Y001183D02*
X004546Y001413D01*
X004431Y001413D01*
X004392Y001375D01*
X004392Y001298D01*
X004623Y001298D02*
X004661Y001260D01*
X004738Y001260D01*
X004776Y001298D01*
X004738Y001375D02*
X004661Y001375D01*
X004623Y001337D01*
X004623Y001298D01*
X004738Y001375D02*
X004776Y001413D01*
X004776Y001452D01*
X004738Y001490D01*
X004661Y001490D01*
X004623Y001452D01*
X004085Y001490D02*
X004085Y001529D01*
D638*
X000248Y006252D02*
X001430Y007433D01*
X012650Y011370D01*
X012650Y006252D01*
X000248Y006252D01*
X000248Y007040D02*
X011469Y010977D01*
X012650Y012158D01*
X000248Y012158D01*
X000248Y007040D01*
M02*
