%
M48
M72
T01C0.0236
T02C0.0400
T03C0.1102
%
T01
X1351Y957
X1823Y1036
X2315Y957
X3181Y819
X4894Y819
X5426Y583
X6056Y1725
X6056Y2414
X5996Y3241
X5406Y3969
X5091Y3044
X6705Y4874
X7768Y2945
X9422Y4343
X9953Y3851
X10681Y3851
X11252Y3949
X10485Y2748
X9756Y1784
X8910Y583
X11795Y1607
X11882Y1115
X11969Y622
X13418Y2071
X12926Y2158
X12433Y2245
X9973Y5130
X13359Y9205
X4481Y5111
X2965Y2650
X1056Y5859
X937Y12552
T02
X12099Y4599
X12099Y3595
X13099Y3595
X13099Y4599
T03
X12788Y12788
M30
