G75*
G70*
%OFA0B0*%
%FSLAX24Y24*%
%IPPOS*%
%LPD*%
%AMOC8*
5,1,8,0,0,1.08239X$1,22.5*
%
%ADD10C,0.0000*%
%ADD11R,0.9843X0.0394*%
%ADD12R,1.1417X0.5512*%
D10*
X000158Y000150D02*
X000158Y013930D01*
X013937Y013930D01*
X013937Y000150D01*
X000158Y000150D01*
X012245Y012788D02*
X012247Y012835D01*
X012253Y012881D01*
X012263Y012927D01*
X012276Y012972D01*
X012294Y013015D01*
X012315Y013057D01*
X012339Y013097D01*
X012367Y013134D01*
X012398Y013169D01*
X012432Y013202D01*
X012468Y013231D01*
X012507Y013257D01*
X012548Y013280D01*
X012591Y013299D01*
X012635Y013315D01*
X012680Y013327D01*
X012726Y013335D01*
X012773Y013339D01*
X012819Y013339D01*
X012866Y013335D01*
X012912Y013327D01*
X012957Y013315D01*
X013001Y013299D01*
X013044Y013280D01*
X013085Y013257D01*
X013124Y013231D01*
X013160Y013202D01*
X013194Y013169D01*
X013225Y013134D01*
X013253Y013097D01*
X013277Y013057D01*
X013298Y013015D01*
X013316Y012972D01*
X013329Y012927D01*
X013339Y012881D01*
X013345Y012835D01*
X013347Y012788D01*
X013345Y012741D01*
X013339Y012695D01*
X013329Y012649D01*
X013316Y012604D01*
X013298Y012561D01*
X013277Y012519D01*
X013253Y012479D01*
X013225Y012442D01*
X013194Y012407D01*
X013160Y012374D01*
X013124Y012345D01*
X013085Y012319D01*
X013044Y012296D01*
X013001Y012277D01*
X012957Y012261D01*
X012912Y012249D01*
X012866Y012241D01*
X012819Y012237D01*
X012773Y012237D01*
X012726Y012241D01*
X012680Y012249D01*
X012635Y012261D01*
X012591Y012277D01*
X012548Y012296D01*
X012507Y012319D01*
X012468Y012345D01*
X012432Y012374D01*
X012398Y012407D01*
X012367Y012442D01*
X012339Y012479D01*
X012315Y012519D01*
X012294Y012561D01*
X012276Y012604D01*
X012263Y012649D01*
X012253Y012695D01*
X012247Y012741D01*
X012245Y012788D01*
D11*
X006457Y012552D03*
X006457Y005859D03*
D12*
X006457Y009205D03*
M02*
