G75*
G70*
%OFA0B0*%
%FSLAX24Y24*%
%IPPOS*%
%LPD*%
%AMOC8*
5,1,8,0,0,1.08239X$1,22.5*
%
%ADD10C,0.0000*%
%ADD11C,0.0050*%
%ADD12C,0.0030*%
%ADD13C,0.0030*%
%ADD14C,0.0220*%
%ADD15C,0.0020*%
%ADD16C,0.0080*%
%ADD17R,0.0180X0.0300*%
D10*
X000150Y000150D02*
X000150Y013930D01*
X013930Y013930D01*
X013930Y000150D01*
X000150Y000150D01*
X012237Y012788D02*
X012239Y012835D01*
X012245Y012881D01*
X012255Y012927D01*
X012268Y012972D01*
X012286Y013015D01*
X012307Y013057D01*
X012331Y013097D01*
X012359Y013134D01*
X012390Y013169D01*
X012424Y013202D01*
X012460Y013231D01*
X012499Y013257D01*
X012540Y013280D01*
X012583Y013299D01*
X012627Y013315D01*
X012672Y013327D01*
X012718Y013335D01*
X012765Y013339D01*
X012811Y013339D01*
X012858Y013335D01*
X012904Y013327D01*
X012949Y013315D01*
X012993Y013299D01*
X013036Y013280D01*
X013077Y013257D01*
X013116Y013231D01*
X013152Y013202D01*
X013186Y013169D01*
X013217Y013134D01*
X013245Y013097D01*
X013269Y013057D01*
X013290Y013015D01*
X013308Y012972D01*
X013321Y012927D01*
X013331Y012881D01*
X013337Y012835D01*
X013339Y012788D01*
X013337Y012741D01*
X013331Y012695D01*
X013321Y012649D01*
X013308Y012604D01*
X013290Y012561D01*
X013269Y012519D01*
X013245Y012479D01*
X013217Y012442D01*
X013186Y012407D01*
X013152Y012374D01*
X013116Y012345D01*
X013077Y012319D01*
X013036Y012296D01*
X012993Y012277D01*
X012949Y012261D01*
X012904Y012249D01*
X012858Y012241D01*
X012811Y012237D01*
X012765Y012237D01*
X012718Y012241D01*
X012672Y012249D01*
X012627Y012261D01*
X012583Y012277D01*
X012540Y012296D01*
X012499Y012319D01*
X012460Y012345D01*
X012424Y012374D01*
X012390Y012407D01*
X012359Y012442D01*
X012331Y012479D01*
X012307Y012519D01*
X012286Y012561D01*
X012268Y012604D01*
X012255Y012649D01*
X012245Y012695D01*
X012239Y012741D01*
X012237Y012788D01*
D11*
X012650Y012158D02*
X012650Y007040D01*
X001430Y010977D01*
X000248Y012158D01*
X012650Y012158D01*
X011469Y007433D02*
X012650Y006252D01*
X000248Y006252D01*
X000248Y011370D01*
X011469Y007433D01*
X009126Y004304D02*
X009126Y001587D01*
X006410Y001587D01*
X006410Y004304D01*
X009126Y004304D01*
X008044Y001115D02*
X007414Y001115D01*
X007256Y000957D01*
X007256Y001115D01*
X007414Y001115D01*
X007256Y000957D02*
X007256Y000485D01*
X008044Y000485D01*
X008044Y001115D01*
D12*
X006624Y004016D02*
X006626Y004033D01*
X006632Y004049D01*
X006641Y004063D01*
X006653Y004075D01*
X006668Y004083D01*
X006684Y004088D01*
X006701Y004089D01*
X006718Y004086D01*
X006733Y004079D01*
X006747Y004069D01*
X006758Y004056D01*
X006766Y004041D01*
X006770Y004024D01*
X006770Y004008D01*
X006766Y003991D01*
X006758Y003976D01*
X006747Y003963D01*
X006734Y003953D01*
X006718Y003946D01*
X006701Y003943D01*
X006684Y003944D01*
X006668Y003949D01*
X006653Y003957D01*
X006641Y003969D01*
X006632Y003983D01*
X006626Y003999D01*
X006624Y004016D01*
D13*
X006263Y003744D02*
X006070Y003744D01*
X006167Y003744D02*
X006167Y004034D01*
X006070Y003937D01*
X005969Y004034D02*
X005969Y003792D01*
X005920Y003744D01*
X005824Y003744D01*
X005775Y003792D01*
X005775Y004034D01*
X002229Y005189D02*
X002181Y005140D01*
X002084Y005140D01*
X002036Y005189D01*
X001935Y005189D02*
X001935Y005431D01*
X002036Y005382D02*
X002084Y005431D01*
X002181Y005431D01*
X002229Y005382D01*
X002229Y005334D01*
X002181Y005285D01*
X002229Y005237D01*
X002229Y005189D01*
X002181Y005285D02*
X002132Y005285D01*
X001935Y005189D02*
X001886Y005140D01*
X001789Y005140D01*
X001741Y005189D01*
X001741Y005431D01*
X001027Y002555D02*
X000931Y002555D01*
X000882Y002506D01*
X000781Y002555D02*
X000781Y002313D01*
X000733Y002264D01*
X000636Y002264D01*
X000588Y002313D01*
X000588Y002555D01*
X000882Y002264D02*
X001076Y002458D01*
X001076Y002506D01*
X001027Y002555D01*
X001076Y002264D02*
X000882Y002264D01*
D14*
X000890Y001213D02*
X000866Y001213D01*
X001673Y003792D02*
X001697Y003792D01*
X001186Y004225D02*
X001162Y004225D01*
X003831Y001776D02*
X003831Y001752D01*
X004048Y000831D02*
X004048Y000807D01*
X004370Y003634D02*
X004394Y003634D01*
X007571Y004862D02*
X007571Y004886D01*
X008890Y001048D02*
X008890Y001024D01*
X009882Y000937D02*
X009906Y000937D01*
X010591Y000937D02*
X010615Y000937D01*
D15*
X010683Y001564D02*
X010536Y001564D01*
X010499Y001601D01*
X010499Y001674D01*
X010536Y001711D01*
X010609Y001785D02*
X010536Y001858D01*
X010499Y001932D01*
X010609Y001895D02*
X010609Y001785D01*
X010683Y001785D01*
X010719Y001822D01*
X010719Y001895D01*
X010683Y001932D01*
X010646Y001932D01*
X010609Y001895D01*
X010683Y001711D02*
X010719Y001674D01*
X010719Y001601D01*
X010683Y001564D01*
X010227Y001601D02*
X010227Y001674D01*
X010191Y001711D01*
X010191Y001785D02*
X010227Y001822D01*
X010227Y001895D01*
X010191Y001932D01*
X010117Y001932D01*
X010080Y001895D01*
X010080Y001858D01*
X010117Y001785D01*
X010007Y001785D01*
X010007Y001932D01*
X010044Y001711D02*
X010007Y001674D01*
X010007Y001601D01*
X010044Y001564D01*
X010191Y001564D01*
X010227Y001601D01*
X009474Y000779D02*
X009401Y000705D01*
X009327Y000742D02*
X009290Y000779D01*
X009217Y000779D01*
X009180Y000742D01*
X009180Y000595D01*
X009217Y000558D01*
X009290Y000558D01*
X009327Y000595D01*
X009401Y000558D02*
X009548Y000558D01*
X009474Y000558D02*
X009474Y000779D01*
X008571Y000463D02*
X008424Y000463D01*
X008498Y000463D02*
X008498Y000683D01*
X008424Y000610D01*
X008350Y000683D02*
X008203Y000463D01*
X008350Y000463D02*
X008203Y000683D01*
X006932Y000976D02*
X006895Y000939D01*
X006822Y000939D01*
X006785Y000976D01*
X006785Y001049D02*
X006858Y001086D01*
X006895Y001086D01*
X006932Y001049D01*
X006932Y000976D01*
X006785Y001049D02*
X006785Y001159D01*
X006932Y001159D01*
X006711Y001122D02*
X006711Y001049D01*
X006674Y001012D01*
X006564Y001012D01*
X006564Y000939D02*
X006564Y001159D01*
X006674Y001159D01*
X006711Y001122D01*
X006637Y001012D02*
X006711Y000939D01*
X006064Y000455D02*
X005917Y000455D01*
X005990Y000455D02*
X005990Y000675D01*
X005917Y000601D01*
X005843Y000638D02*
X005843Y000491D01*
X005806Y000455D01*
X005696Y000455D01*
X005696Y000675D01*
X005806Y000675D01*
X005843Y000638D01*
X005218Y001264D02*
X005071Y001264D01*
X005218Y001411D01*
X005218Y001448D01*
X005181Y001485D01*
X005108Y001485D01*
X005071Y001448D01*
X004997Y001448D02*
X004960Y001485D01*
X004887Y001485D01*
X004850Y001448D01*
X004850Y001301D01*
X004887Y001264D01*
X004960Y001264D01*
X004997Y001301D01*
X004319Y000562D02*
X004245Y000562D01*
X004209Y000525D01*
X004319Y000562D02*
X004355Y000525D01*
X004355Y000489D01*
X004209Y000342D01*
X004355Y000342D01*
X004134Y000342D02*
X003988Y000342D01*
X004061Y000342D02*
X004061Y000562D01*
X003988Y000489D01*
X003913Y000525D02*
X003877Y000562D01*
X003803Y000562D01*
X003767Y000525D01*
X003767Y000379D01*
X003803Y000342D01*
X003877Y000342D01*
X003913Y000379D01*
X003898Y001267D02*
X003751Y001267D01*
X003825Y001267D02*
X003825Y001487D01*
X003751Y001414D01*
X003677Y001451D02*
X003641Y001487D01*
X003567Y001487D01*
X003530Y001451D01*
X003530Y001304D01*
X003567Y001267D01*
X003641Y001267D01*
X003677Y001304D01*
X003972Y001304D02*
X004119Y001451D01*
X004119Y001304D01*
X004083Y001267D01*
X004009Y001267D01*
X003972Y001304D01*
X003972Y001451D01*
X004009Y001487D01*
X004083Y001487D01*
X004119Y001451D01*
X004001Y002533D02*
X004001Y002754D01*
X003891Y002643D01*
X004038Y002643D01*
X003817Y002643D02*
X003817Y002717D01*
X003780Y002754D01*
X003670Y002754D01*
X003670Y002533D01*
X003670Y002607D02*
X003780Y002607D01*
X003817Y002643D01*
X003744Y002607D02*
X003817Y002533D01*
X004709Y003434D02*
X004856Y003434D01*
X004893Y003471D01*
X004893Y003544D01*
X004856Y003581D01*
X004856Y003655D02*
X004893Y003655D01*
X004856Y003655D02*
X004709Y003802D01*
X004672Y003802D01*
X004672Y003655D01*
X004709Y003581D02*
X004672Y003544D01*
X004672Y003471D01*
X004709Y003434D01*
X004906Y002764D02*
X004870Y002728D01*
X004870Y002581D01*
X004906Y002544D01*
X004980Y002544D01*
X005016Y002581D01*
X005091Y002581D02*
X005127Y002544D01*
X005201Y002544D01*
X005237Y002581D01*
X005237Y002617D01*
X005201Y002654D01*
X005164Y002654D01*
X005201Y002654D02*
X005237Y002691D01*
X005237Y002728D01*
X005201Y002764D01*
X005127Y002764D01*
X005091Y002728D01*
X005016Y002728D02*
X004980Y002764D01*
X004906Y002764D01*
X005578Y004791D02*
X005578Y005011D01*
X005688Y005011D01*
X005725Y004974D01*
X005725Y004901D01*
X005688Y004864D01*
X005578Y004864D01*
X005651Y004864D02*
X005725Y004791D01*
X005799Y004827D02*
X005835Y004791D01*
X005909Y004791D01*
X005945Y004827D01*
X005945Y004864D01*
X005909Y004901D01*
X005872Y004901D01*
X005909Y004901D02*
X005945Y004938D01*
X005945Y004974D01*
X005909Y005011D01*
X005835Y005011D01*
X005799Y004974D01*
X007408Y005182D02*
X007445Y005145D01*
X007519Y005145D01*
X007555Y005182D01*
X007629Y005255D02*
X007776Y005255D01*
X007740Y005145D02*
X007740Y005365D01*
X007629Y005255D01*
X007555Y005329D02*
X007519Y005365D01*
X007445Y005365D01*
X007408Y005329D01*
X007408Y005182D01*
X008767Y005218D02*
X008877Y005218D01*
X008913Y005255D01*
X008913Y005329D01*
X008877Y005365D01*
X008767Y005365D01*
X008767Y005145D01*
X008840Y005218D02*
X008913Y005145D01*
X008988Y005145D02*
X009134Y005292D01*
X009134Y005329D01*
X009098Y005365D01*
X009024Y005365D01*
X008988Y005329D01*
X008988Y005145D02*
X009134Y005145D01*
X010469Y004829D02*
X010542Y004756D01*
X010506Y004682D02*
X010579Y004682D01*
X010616Y004645D01*
X010616Y004535D01*
X010689Y004535D02*
X010469Y004535D01*
X010469Y004645D01*
X010506Y004682D01*
X010616Y004608D02*
X010689Y004682D01*
X010689Y004756D02*
X010689Y004903D01*
X010689Y004829D02*
X010469Y004829D01*
X009792Y003364D02*
X009792Y003144D01*
X009865Y003144D02*
X009718Y003144D01*
X009644Y003144D02*
X009497Y003144D01*
X009497Y003364D01*
X009718Y003290D02*
X009792Y003364D01*
X012766Y008148D02*
X012766Y008258D01*
X012803Y008295D01*
X012876Y008295D01*
X012913Y008258D01*
X012913Y008148D01*
X012986Y008148D02*
X012766Y008148D01*
X012913Y008222D02*
X012986Y008295D01*
X012950Y008369D02*
X012986Y008406D01*
X012986Y008479D01*
X012950Y008516D01*
X012913Y008516D01*
X012876Y008479D01*
X012876Y008369D01*
X012950Y008369D01*
X012876Y008369D02*
X012803Y008443D01*
X012766Y008516D01*
X001802Y004749D02*
X001802Y004676D01*
X001765Y004639D01*
X001729Y004639D01*
X001692Y004676D01*
X001692Y004749D01*
X001729Y004786D01*
X001765Y004786D01*
X001802Y004749D01*
X001692Y004749D02*
X001655Y004786D01*
X001619Y004786D01*
X001582Y004749D01*
X001582Y004676D01*
X001619Y004639D01*
X001655Y004639D01*
X001692Y004676D01*
X001765Y004565D02*
X001802Y004529D01*
X001802Y004455D01*
X001765Y004418D01*
X001619Y004418D01*
X001582Y004455D01*
X001582Y004529D01*
X001619Y004565D01*
X000897Y004415D02*
X000897Y004341D01*
X000860Y004305D01*
X000860Y004231D02*
X000897Y004194D01*
X000897Y004120D01*
X000860Y004084D01*
X000713Y004084D01*
X000676Y004120D01*
X000676Y004194D01*
X000713Y004231D01*
X000713Y004305D02*
X000750Y004305D01*
X000786Y004341D01*
X000786Y004452D01*
X000713Y004452D02*
X000676Y004415D01*
X000676Y004341D01*
X000713Y004305D01*
X000713Y004452D02*
X000860Y004452D01*
X000897Y004415D01*
X000621Y001499D02*
X000621Y001352D01*
X000621Y001425D02*
X000401Y001425D01*
X000474Y001352D01*
X000621Y001278D02*
X000621Y001131D01*
X000621Y001204D02*
X000401Y001204D01*
X000474Y001131D01*
X000437Y001057D02*
X000401Y001020D01*
X000401Y000947D01*
X000437Y000910D01*
X000584Y000910D01*
X000621Y000947D01*
X000621Y001020D01*
X000584Y001057D01*
D16*
X001252Y001430D02*
X001252Y001666D01*
X001252Y001430D02*
X001489Y001430D01*
X002355Y001430D02*
X002591Y001430D01*
X002591Y001666D01*
X002565Y002603D02*
X002418Y002743D01*
X002355Y003477D02*
X002493Y003477D01*
X002355Y003477D02*
X002355Y003615D01*
X001489Y002768D02*
X001252Y002768D01*
X001252Y002532D01*
X002355Y004914D02*
X002355Y005052D01*
X002493Y005052D01*
X003792Y005052D02*
X003930Y004914D01*
X003930Y003615D02*
X003930Y003477D01*
X003792Y003477D01*
X006512Y000649D02*
X006628Y000573D01*
X006634Y000563D02*
X006512Y000471D01*
X006634Y000382D02*
X006634Y000563D01*
X006634Y000744D01*
X011599Y003345D02*
X011849Y003095D01*
X012349Y003095D01*
X012599Y003345D01*
X012849Y003095D01*
X013349Y003095D01*
X013599Y003345D01*
X013599Y003845D01*
X013349Y004095D01*
X012849Y004095D01*
X012599Y003845D01*
X012349Y004095D01*
X011849Y004095D01*
X011599Y003845D01*
X011599Y003345D01*
X011849Y004099D02*
X012349Y004099D01*
X012599Y004349D01*
X012849Y004099D01*
X013349Y004099D01*
X013599Y004349D01*
X013599Y004849D01*
X013349Y005099D01*
X012849Y005099D01*
X012599Y004849D01*
X012349Y005099D01*
X011849Y005099D01*
X011599Y004849D01*
X011599Y004349D01*
X011849Y004099D01*
D17*
X008949Y004874D03*
X005741Y004520D03*
X003831Y002276D03*
X005937Y001056D03*
M02*
