G75*
G70*
%OFA0B0*%
%FSLAX24Y24*%
%IPPOS*%
%LPD*%
%AMOC8*
5,1,8,0,0,1.08239X$1,22.5*
%
%ADD10C,0.0740*%
%ADD11C,0.0500*%
%ADD12R,0.0500X0.0500*%
%ADD13R,0.9843X0.0394*%
%ADD14R,1.1417X0.5512*%
%ADD15C,0.0396*%
%ADD16C,0.0100*%
%ADD17C,0.0160*%
D10*
X012099Y003595D03*
X012099Y004599D03*
X013099Y004599D03*
X013099Y003595D03*
D11*
X012926Y002158D02*
X012433Y002245D01*
X012926Y002158D02*
X013418Y002071D01*
X011882Y001115D02*
X011969Y000622D01*
X011882Y001115D02*
X011795Y001607D01*
D12*
G36*
X011680Y000826D02*
X011593Y001317D01*
X012084Y001404D01*
X012171Y000913D01*
X011680Y000826D01*
G37*
G36*
X013128Y001869D02*
X012637Y001956D01*
X012724Y002447D01*
X013215Y002360D01*
X013128Y001869D01*
G37*
D13*
X006449Y005859D03*
X006449Y012552D03*
D14*
X006449Y009205D03*
D15*
X004481Y005111D03*
X005406Y003969D03*
X005996Y003241D03*
X006056Y002414D03*
X006056Y001725D03*
X005426Y000583D03*
X004894Y000819D03*
X003181Y000819D03*
X002315Y000957D03*
X001823Y001036D03*
X001351Y000957D03*
X002965Y002650D03*
X005091Y003044D03*
X006705Y004874D03*
X007768Y002945D03*
X009422Y004343D03*
X009953Y003851D03*
X010681Y003851D03*
X011252Y003949D03*
X010485Y002748D03*
X009756Y001784D03*
X008910Y000583D03*
X009973Y005130D03*
X013359Y009205D03*
X001056Y005859D03*
X000937Y012552D03*
D16*
X000400Y001134D02*
X000400Y000400D01*
X005173Y000400D01*
X005164Y000409D01*
X005117Y000522D01*
X005117Y000644D01*
X005164Y000758D01*
X005251Y000844D01*
X005266Y000850D01*
X005266Y002754D01*
X005258Y002764D01*
X005266Y002818D01*
X005266Y002874D01*
X005274Y002883D01*
X005276Y002895D01*
X005320Y002928D01*
X005359Y002967D01*
X005372Y002967D01*
X005688Y003208D01*
X005688Y003302D01*
X005735Y003415D01*
X005822Y003502D01*
X005935Y003549D01*
X006058Y003549D01*
X006171Y003502D01*
X006258Y003415D01*
X006305Y003302D01*
X006305Y003179D01*
X006258Y003066D01*
X006171Y002979D01*
X006058Y002932D01*
X005935Y002932D01*
X005883Y002954D01*
X005586Y002728D01*
X005586Y000850D01*
X005600Y000844D01*
X005687Y000758D01*
X005734Y000644D01*
X005734Y000522D01*
X005687Y000409D01*
X005678Y000400D01*
X011684Y000400D01*
X011627Y000489D01*
X011540Y000982D01*
X011540Y000982D01*
X011428Y001615D01*
X011459Y001755D01*
X011542Y001872D01*
X011662Y001949D01*
X011803Y001974D01*
X011943Y001943D01*
X012061Y001861D01*
X012138Y001740D01*
X012219Y001279D01*
X012224Y001248D01*
X012229Y001219D01*
X012288Y000886D01*
X012288Y000886D01*
X012336Y000614D01*
X012305Y000474D01*
X012253Y000400D01*
X013680Y000400D01*
X013680Y001815D01*
X013566Y001735D01*
X013426Y001704D01*
X012793Y001816D01*
X012793Y001816D01*
X012300Y001903D01*
X012179Y001980D01*
X012097Y002097D01*
X012066Y002237D01*
X012091Y002378D01*
X012168Y002499D01*
X012285Y002581D01*
X012425Y002612D01*
X012697Y002564D01*
X012697Y002564D01*
X013023Y002506D01*
X013059Y002500D01*
X013100Y002493D01*
X013551Y002413D01*
X013672Y002336D01*
X013680Y002325D01*
X013680Y006252D01*
X000400Y006252D01*
X000400Y003004D01*
X003004Y003004D01*
X003004Y002958D01*
X003026Y002958D01*
X003041Y002952D01*
X004218Y004129D01*
X005139Y004129D01*
X005145Y004143D01*
X005231Y004230D01*
X005345Y004277D01*
X005467Y004277D01*
X005580Y004230D01*
X005667Y004143D01*
X005714Y004030D01*
X005714Y003908D01*
X005667Y003794D01*
X005580Y003708D01*
X005467Y003661D01*
X005345Y003661D01*
X005231Y003708D01*
X005145Y003794D01*
X005139Y003809D01*
X004350Y003809D01*
X003267Y002726D01*
X003273Y002711D01*
X005266Y002711D01*
X005266Y002613D02*
X003273Y002613D01*
X003273Y002589D02*
X003273Y002711D01*
X003273Y002589D02*
X003226Y002475D01*
X003139Y002389D01*
X003026Y002342D01*
X003004Y002342D01*
X003004Y001134D01*
X002116Y001134D01*
X002131Y001097D01*
X002131Y000975D01*
X002084Y000861D01*
X002006Y000782D01*
X002873Y000782D01*
X002873Y000881D01*
X002920Y000994D01*
X003007Y001080D01*
X003120Y001127D01*
X003243Y001127D01*
X003356Y001080D01*
X003443Y000994D01*
X003490Y000881D01*
X003490Y000758D01*
X003443Y000645D01*
X003356Y000558D01*
X003335Y000549D01*
X003248Y000462D01*
X001757Y000462D01*
X001663Y000556D01*
X001663Y000769D01*
X001649Y000775D01*
X001562Y000861D01*
X001515Y000975D01*
X001515Y001097D01*
X001531Y001134D01*
X000400Y001134D01*
X000400Y001037D02*
X001515Y001037D01*
X001530Y000938D02*
X000400Y000938D01*
X000400Y000840D02*
X001584Y000840D01*
X001663Y000741D02*
X000400Y000741D01*
X000400Y000643D02*
X001663Y000643D01*
X001675Y000544D02*
X000400Y000544D01*
X000400Y000446D02*
X005149Y000446D01*
X005117Y000544D02*
X003329Y000544D01*
X003440Y000643D02*
X005117Y000643D01*
X005158Y000741D02*
X003483Y000741D01*
X003490Y000840D02*
X005246Y000840D01*
X005266Y000938D02*
X003466Y000938D01*
X003400Y001037D02*
X005266Y001037D01*
X005266Y001135D02*
X003004Y001135D01*
X003004Y001234D02*
X005266Y001234D01*
X005266Y001332D02*
X003004Y001332D01*
X003004Y001431D02*
X005266Y001431D01*
X005266Y001529D02*
X003004Y001529D01*
X003004Y001628D02*
X005266Y001628D01*
X005266Y001726D02*
X003004Y001726D01*
X003004Y001825D02*
X005266Y001825D01*
X005266Y001923D02*
X003004Y001923D01*
X003004Y002022D02*
X005266Y002022D01*
X005266Y002120D02*
X003004Y002120D01*
X003004Y002219D02*
X005266Y002219D01*
X005266Y002317D02*
X003004Y002317D01*
X003166Y002416D02*
X005266Y002416D01*
X005266Y002514D02*
X003242Y002514D01*
X002965Y002650D02*
X004284Y003969D01*
X005406Y003969D01*
X005622Y004189D02*
X009152Y004189D01*
X009160Y004168D02*
X009247Y004082D01*
X009360Y004035D01*
X009483Y004035D01*
X009596Y004082D01*
X009683Y004168D01*
X009730Y004282D01*
X009730Y004404D01*
X009724Y004419D01*
X009882Y004577D01*
X011107Y004577D01*
X011644Y004040D01*
X011737Y003947D01*
X011772Y003947D01*
X011692Y003867D01*
X011621Y003696D01*
X010951Y003696D01*
X010990Y003789D01*
X010990Y003912D01*
X010943Y004025D01*
X010856Y004112D01*
X010743Y004159D01*
X010620Y004159D01*
X010507Y004112D01*
X010420Y004025D01*
X010414Y004011D01*
X010220Y004011D01*
X010214Y004025D01*
X010128Y004112D01*
X010014Y004159D01*
X009892Y004159D01*
X009779Y004112D01*
X009692Y004025D01*
X009645Y003912D01*
X009645Y003789D01*
X009684Y003696D01*
X007208Y003696D01*
X007218Y003696D02*
X007153Y003697D01*
X007152Y003696D01*
X007151Y003696D01*
X007105Y003650D01*
X006136Y002714D01*
X006117Y002722D01*
X005994Y002722D01*
X005881Y002675D01*
X005794Y002588D01*
X005747Y002475D01*
X005747Y002352D01*
X005794Y002239D01*
X005881Y002153D01*
X005994Y002106D01*
X006117Y002106D01*
X006230Y002153D01*
X006317Y002239D01*
X006364Y002352D01*
X006364Y002475D01*
X006360Y002485D01*
X007282Y003376D01*
X008661Y003376D01*
X007170Y001903D01*
X006321Y001889D01*
X006317Y001899D01*
X006230Y001986D01*
X006117Y002033D01*
X005994Y002033D01*
X005881Y001986D01*
X005794Y001899D01*
X005747Y001786D01*
X005747Y001664D01*
X005794Y001550D01*
X005881Y001464D01*
X005994Y001417D01*
X006117Y001417D01*
X006230Y001464D01*
X006317Y001550D01*
X006325Y001569D01*
X007237Y001584D01*
X007302Y001584D01*
X007303Y001586D01*
X007306Y001586D01*
X007350Y001632D01*
X008877Y003140D01*
X011450Y003140D01*
X011636Y002984D01*
X011678Y002943D01*
X011687Y002943D01*
X011693Y002937D01*
X011752Y002943D01*
X012470Y002943D01*
X012533Y002940D01*
X012536Y002943D01*
X012539Y002943D01*
X012584Y002987D01*
X012814Y003201D01*
X012827Y003188D01*
X013003Y003115D01*
X013194Y003115D01*
X013371Y003188D01*
X013506Y003323D01*
X013579Y003499D01*
X013680Y003499D01*
X013680Y003401D02*
X013538Y003401D01*
X013579Y003499D02*
X013579Y003690D01*
X013506Y003867D01*
X013371Y004002D01*
X013194Y004075D01*
X013003Y004075D01*
X012827Y004002D01*
X012692Y003867D01*
X012619Y003690D01*
X012619Y003499D01*
X012579Y003499D01*
X012579Y003690D01*
X012506Y003867D01*
X012426Y003947D01*
X012673Y003947D01*
X012891Y004165D01*
X013003Y004119D01*
X013194Y004119D01*
X013371Y004192D01*
X013506Y004327D01*
X013579Y004503D01*
X013579Y004694D01*
X013506Y004871D01*
X013371Y005006D01*
X013194Y005079D01*
X013003Y005079D01*
X012827Y005006D01*
X012692Y004871D01*
X012619Y004694D01*
X012619Y004503D01*
X012665Y004391D01*
X012540Y004267D01*
X012446Y004267D01*
X012506Y004327D01*
X012579Y004503D01*
X012579Y004694D01*
X012506Y004871D01*
X012371Y005006D01*
X012194Y005079D01*
X012003Y005079D01*
X011891Y005032D01*
X011634Y005290D01*
X010240Y005290D01*
X010234Y005305D01*
X010147Y005392D01*
X010034Y005438D01*
X009912Y005438D01*
X009798Y005392D01*
X009712Y005305D01*
X009665Y005192D01*
X009665Y005069D01*
X009712Y004956D01*
X009771Y004897D01*
X009749Y004897D01*
X009497Y004645D01*
X009483Y004651D01*
X009360Y004651D01*
X009247Y004604D01*
X009160Y004517D01*
X009114Y004404D01*
X009114Y004282D01*
X009160Y004168D01*
X009239Y004090D02*
X005689Y004090D01*
X005714Y003992D02*
X009678Y003992D01*
X009645Y003893D02*
X005708Y003893D01*
X005667Y003795D02*
X009645Y003795D01*
X009684Y003696D02*
X007218Y003696D01*
X007152Y003696D02*
X005552Y003696D01*
X005260Y003696D02*
X004237Y003696D01*
X004139Y003598D02*
X007051Y003598D01*
X006949Y003499D02*
X006174Y003499D01*
X006264Y003401D02*
X006847Y003401D01*
X006745Y003302D02*
X006304Y003302D01*
X006305Y003204D02*
X006643Y003204D01*
X006541Y003105D02*
X006274Y003105D01*
X006198Y003007D02*
X006439Y003007D01*
X006337Y002908D02*
X005823Y002908D01*
X005693Y002810D02*
X006235Y002810D01*
X005968Y002711D02*
X005586Y002711D01*
X005586Y002613D02*
X005819Y002613D01*
X005764Y002514D02*
X005586Y002514D01*
X005586Y002416D02*
X005747Y002416D01*
X005762Y002317D02*
X005586Y002317D01*
X005586Y002219D02*
X005815Y002219D01*
X005960Y002120D02*
X005586Y002120D01*
X005586Y002022D02*
X005967Y002022D01*
X006144Y002022D02*
X007289Y002022D01*
X007389Y002120D02*
X006151Y002120D01*
X006296Y002219D02*
X007489Y002219D01*
X007589Y002317D02*
X006349Y002317D01*
X006364Y002416D02*
X007688Y002416D01*
X007788Y002514D02*
X006390Y002514D01*
X006491Y002613D02*
X007888Y002613D01*
X007988Y002711D02*
X006593Y002711D01*
X006695Y002810D02*
X008087Y002810D01*
X008187Y002908D02*
X006797Y002908D01*
X006899Y003007D02*
X008287Y003007D01*
X008387Y003105D02*
X007001Y003105D01*
X007103Y003204D02*
X008486Y003204D01*
X008586Y003302D02*
X007205Y003302D01*
X007217Y003536D02*
X012040Y003536D01*
X012099Y003595D01*
X011718Y003893D02*
X010990Y003893D01*
X010990Y003795D02*
X011662Y003795D01*
X011621Y003696D02*
X010951Y003696D01*
X010957Y003992D02*
X011692Y003992D01*
X011594Y004090D02*
X010878Y004090D01*
X010681Y003851D02*
X009953Y003851D01*
X009757Y004090D02*
X009604Y004090D01*
X009691Y004189D02*
X011495Y004189D01*
X011397Y004287D02*
X009730Y004287D01*
X009730Y004386D02*
X011298Y004386D01*
X011200Y004484D02*
X009789Y004484D01*
X009815Y004737D02*
X009422Y004343D01*
X009147Y004484D02*
X000400Y004484D01*
X000400Y004386D02*
X009114Y004386D01*
X009114Y004287D02*
X000400Y004287D01*
X000400Y004189D02*
X005190Y004189D01*
X005145Y003795D02*
X004336Y003795D01*
X004080Y003992D02*
X000400Y003992D01*
X000400Y004090D02*
X004179Y004090D01*
X003982Y003893D02*
X000400Y003893D01*
X000400Y003795D02*
X003883Y003795D01*
X003785Y003696D02*
X000400Y003696D01*
X000400Y003598D02*
X003686Y003598D01*
X003588Y003499D02*
X000400Y003499D01*
X000400Y003401D02*
X003489Y003401D01*
X003391Y003302D02*
X000400Y003302D01*
X000400Y003204D02*
X003292Y003204D01*
X003194Y003105D02*
X000400Y003105D01*
X000400Y003007D02*
X003095Y003007D01*
X003351Y002810D02*
X005264Y002810D01*
X005293Y002908D02*
X003449Y002908D01*
X003548Y003007D02*
X005423Y003007D01*
X005553Y003105D02*
X003646Y003105D01*
X003745Y003204D02*
X005683Y003204D01*
X005688Y003302D02*
X003843Y003302D01*
X003942Y003401D02*
X005729Y003401D01*
X005819Y003499D02*
X004040Y003499D01*
X005426Y002807D02*
X005996Y003241D01*
X005426Y002807D02*
X005426Y000583D01*
X005605Y000840D02*
X011565Y000840D01*
X011548Y000938D02*
X005586Y000938D01*
X005586Y001037D02*
X011530Y001037D01*
X011513Y001135D02*
X005586Y001135D01*
X005586Y001234D02*
X011496Y001234D01*
X011478Y001332D02*
X005586Y001332D01*
X005586Y001431D02*
X005961Y001431D01*
X005816Y001529D02*
X005586Y001529D01*
X005586Y001628D02*
X005762Y001628D01*
X005747Y001726D02*
X005586Y001726D01*
X005586Y001825D02*
X005763Y001825D01*
X005818Y001923D02*
X005586Y001923D01*
X006056Y001725D02*
X007237Y001744D01*
X008811Y003300D01*
X011508Y003300D01*
X011744Y003103D01*
X012473Y003103D01*
X013000Y003591D01*
X013099Y003595D01*
X013480Y003893D02*
X013680Y003893D01*
X013680Y003795D02*
X013536Y003795D01*
X013576Y003696D02*
X013680Y003696D01*
X013680Y003598D02*
X013579Y003598D01*
X013485Y003302D02*
X013680Y003302D01*
X013680Y003204D02*
X013386Y003204D01*
X013680Y003105D02*
X012711Y003105D01*
X012604Y003007D02*
X013680Y003007D01*
X013680Y002908D02*
X010752Y002908D01*
X010746Y002923D02*
X010659Y003010D01*
X010546Y003057D01*
X010423Y003057D01*
X010310Y003010D01*
X010223Y002923D01*
X010177Y002810D01*
X010177Y002687D01*
X010198Y002635D01*
X009788Y002092D01*
X009695Y002092D01*
X009582Y002045D01*
X009495Y001958D01*
X009448Y001845D01*
X009448Y001723D01*
X009495Y001609D01*
X009582Y001523D01*
X009695Y001476D01*
X009818Y001476D01*
X009931Y001523D01*
X010018Y001609D01*
X010064Y001723D01*
X010064Y001845D01*
X010043Y001898D01*
X010452Y002440D01*
X010546Y002440D01*
X010659Y002487D01*
X010746Y002574D01*
X010793Y002687D01*
X010793Y002810D01*
X010746Y002923D01*
X010662Y003007D02*
X011610Y003007D01*
X011492Y003105D02*
X008842Y003105D01*
X008742Y003007D02*
X010307Y003007D01*
X010217Y002908D02*
X008643Y002908D01*
X008543Y002810D02*
X010177Y002810D01*
X010177Y002711D02*
X008443Y002711D01*
X008343Y002613D02*
X010182Y002613D01*
X010107Y002514D02*
X008244Y002514D01*
X008144Y002416D02*
X010033Y002416D01*
X009958Y002317D02*
X008044Y002317D01*
X007944Y002219D02*
X009884Y002219D01*
X009810Y002120D02*
X007845Y002120D01*
X007745Y002022D02*
X009558Y002022D01*
X009480Y001923D02*
X007645Y001923D01*
X007545Y001825D02*
X009448Y001825D01*
X009448Y001726D02*
X007446Y001726D01*
X007346Y001628D02*
X009488Y001628D01*
X009575Y001529D02*
X006295Y001529D01*
X006150Y001431D02*
X011461Y001431D01*
X011444Y001529D02*
X009937Y001529D01*
X010025Y001628D02*
X011431Y001628D01*
X011453Y001726D02*
X010064Y001726D01*
X010064Y001825D02*
X011508Y001825D01*
X011622Y001923D02*
X010062Y001923D01*
X010136Y002022D02*
X012150Y002022D01*
X012092Y002120D02*
X010211Y002120D01*
X010285Y002219D02*
X012070Y002219D01*
X012080Y002317D02*
X010359Y002317D01*
X010434Y002416D02*
X012115Y002416D01*
X012190Y002514D02*
X010686Y002514D01*
X010762Y002613D02*
X013680Y002613D01*
X013680Y002711D02*
X010793Y002711D01*
X010793Y002810D02*
X013680Y002810D01*
X013680Y002514D02*
X012979Y002514D01*
X013538Y002416D02*
X013680Y002416D01*
X013680Y001726D02*
X013525Y001726D01*
X013680Y001628D02*
X012157Y001628D01*
X012140Y001726D02*
X013302Y001726D01*
X013680Y001529D02*
X012175Y001529D01*
X012192Y001431D02*
X013680Y001431D01*
X013680Y001332D02*
X012209Y001332D01*
X012227Y001234D02*
X013680Y001234D01*
X013680Y001135D02*
X012244Y001135D01*
X012262Y001037D02*
X013680Y001037D01*
X013680Y000938D02*
X012279Y000938D01*
X012296Y000840D02*
X013680Y000840D01*
X013680Y000741D02*
X012314Y000741D01*
X012331Y000643D02*
X013680Y000643D01*
X013680Y000544D02*
X012321Y000544D01*
X012285Y000446D02*
X013680Y000446D01*
X012743Y001825D02*
X012084Y001825D01*
X011972Y001923D02*
X012268Y001923D01*
X011583Y000741D02*
X005694Y000741D01*
X005734Y000643D02*
X011600Y000643D01*
X011617Y000544D02*
X005734Y000544D01*
X005702Y000446D02*
X011655Y000446D01*
X009756Y001784D02*
X010485Y002748D01*
X010485Y004090D02*
X010150Y004090D01*
X009815Y004737D02*
X011174Y004737D01*
X011804Y004107D01*
X012607Y004107D01*
X013099Y004599D01*
X013466Y004287D02*
X013680Y004287D01*
X013680Y004189D02*
X013363Y004189D01*
X013381Y003992D02*
X013680Y003992D01*
X013680Y004090D02*
X012816Y004090D01*
X012817Y003992D02*
X012718Y003992D01*
X012718Y003893D02*
X012480Y003893D01*
X012536Y003795D02*
X012662Y003795D01*
X012621Y003696D02*
X012576Y003696D01*
X012579Y003598D02*
X012619Y003598D01*
X012619Y003499D02*
X012632Y003468D01*
X012525Y003369D01*
X012579Y003499D01*
X012559Y003401D02*
X012538Y003401D01*
X012561Y004287D02*
X012466Y004287D01*
X012530Y004386D02*
X012659Y004386D01*
X012627Y004484D02*
X012571Y004484D01*
X012579Y004583D02*
X012619Y004583D01*
X012619Y004681D02*
X012579Y004681D01*
X012544Y004780D02*
X012654Y004780D01*
X012699Y004878D02*
X012498Y004878D01*
X012400Y004977D02*
X012798Y004977D01*
X012994Y005075D02*
X012203Y005075D01*
X011994Y005075D02*
X011849Y005075D01*
X011750Y005174D02*
X013680Y005174D01*
X013680Y005272D02*
X011652Y005272D01*
X011567Y005130D02*
X012099Y004599D01*
X011567Y005130D02*
X009973Y005130D01*
X009698Y005272D02*
X000400Y005272D01*
X000400Y005174D02*
X009665Y005174D01*
X009665Y005075D02*
X000400Y005075D01*
X000400Y004977D02*
X009703Y004977D01*
X009730Y004878D02*
X000400Y004878D01*
X000400Y004780D02*
X009632Y004780D01*
X009533Y004681D02*
X000400Y004681D01*
X000400Y004583D02*
X009226Y004583D01*
X009777Y005371D02*
X000400Y005371D01*
X000400Y005469D02*
X013680Y005469D01*
X013680Y005371D02*
X010168Y005371D01*
X013203Y005075D02*
X013680Y005075D01*
X013680Y004977D02*
X013400Y004977D01*
X013498Y004878D02*
X013680Y004878D01*
X013680Y004780D02*
X013544Y004780D01*
X013579Y004681D02*
X013680Y004681D01*
X013680Y004583D02*
X013579Y004583D01*
X013571Y004484D02*
X013680Y004484D01*
X013680Y004386D02*
X013530Y004386D01*
X013680Y005568D02*
X000400Y005568D01*
X000400Y005666D02*
X013680Y005666D01*
X013680Y005765D02*
X000400Y005765D01*
X000400Y005863D02*
X013680Y005863D01*
X013680Y005962D02*
X000400Y005962D01*
X000400Y006060D02*
X013680Y006060D01*
X013680Y006159D02*
X000400Y006159D01*
X004481Y005111D02*
X004776Y005111D01*
X004835Y005052D01*
X007217Y003536D02*
X006056Y002414D01*
X006293Y001923D02*
X007190Y001923D01*
X003181Y000819D02*
X003181Y000622D01*
X001823Y000622D01*
X001823Y001036D01*
X002063Y000840D02*
X002873Y000840D01*
X002897Y000938D02*
X002116Y000938D01*
X002131Y001037D02*
X002963Y001037D01*
D17*
X001056Y005859D02*
X000898Y005859D01*
X000445Y005878D02*
X000445Y012552D01*
X000937Y012552D01*
X006449Y012552D01*
X006449Y009205D02*
X013359Y009205D01*
M02*
