G75*
G70*
%OFA0B0*%
%FSLAX24Y24*%
%IPPOS*%
%LPD*%
%AMOC8*
5,1,8,0,0,1.08239X$1,22.5*
%
%ADD10R,0.2047X0.2047*%
%ADD11C,0.0118*%
%ADD12R,0.0433X0.0394*%
%ADD13R,0.0110X0.0256*%
%ADD14R,0.0256X0.0110*%
%ADD15R,0.0394X0.0433*%
%ADD16R,0.0118X0.0315*%
%ADD17R,0.0315X0.0118*%
%ADD18R,0.0394X0.0394*%
%ADD19C,0.0740*%
%ADD20C,0.0500*%
%ADD21R,0.0500X0.0500*%
%ADD22R,0.0315X0.0315*%
%ADD23R,0.0173X0.0311*%
%ADD24C,0.1100*%
%ADD25R,0.9843X0.0394*%
%ADD26R,1.1417X0.5512*%
%ADD27R,0.0591X0.0512*%
%ADD28C,0.0160*%
%ADD29C,0.0100*%
%ADD30C,0.0396*%
%ADD31C,0.0240*%
%ADD32C,0.0209*%
D10*
X007768Y002945D03*
D11*
X007670Y001705D02*
X007670Y001547D01*
X007867Y001547D02*
X007867Y001705D01*
X008063Y001705D02*
X008063Y001547D01*
X008260Y001547D02*
X008260Y001705D01*
X008457Y001705D02*
X008457Y001547D01*
X008654Y001547D02*
X008654Y001705D01*
X008851Y001705D02*
X008851Y001547D01*
X009008Y001863D02*
X009166Y001863D01*
X009166Y002059D02*
X009008Y002059D01*
X009008Y002256D02*
X009166Y002256D01*
X009166Y002453D02*
X009008Y002453D01*
X009008Y002650D02*
X009166Y002650D01*
X009166Y002847D02*
X009008Y002847D01*
X009008Y003044D02*
X009166Y003044D01*
X009166Y003241D02*
X009008Y003241D01*
X009008Y003437D02*
X009166Y003437D01*
X009166Y003634D02*
X009008Y003634D01*
X009008Y003831D02*
X009166Y003831D01*
X009166Y004028D02*
X009008Y004028D01*
X008851Y004185D02*
X008851Y004343D01*
X008654Y004343D02*
X008654Y004185D01*
X008457Y004185D02*
X008457Y004343D01*
X008260Y004343D02*
X008260Y004185D01*
X008063Y004185D02*
X008063Y004343D01*
X007867Y004343D02*
X007867Y004185D01*
X007670Y004185D02*
X007670Y004343D01*
X007473Y004343D02*
X007473Y004185D01*
X007276Y004185D02*
X007276Y004343D01*
X007079Y004343D02*
X007079Y004185D01*
X006882Y004185D02*
X006882Y004343D01*
X006685Y004343D02*
X006685Y004185D01*
X006528Y004028D02*
X006370Y004028D01*
X006370Y003831D02*
X006528Y003831D01*
X006528Y003634D02*
X006370Y003634D01*
X006370Y003437D02*
X006528Y003437D01*
X006528Y003241D02*
X006370Y003241D01*
X006370Y003044D02*
X006528Y003044D01*
X006528Y002847D02*
X006370Y002847D01*
X006370Y002650D02*
X006528Y002650D01*
X006528Y002453D02*
X006370Y002453D01*
X006370Y002256D02*
X006528Y002256D01*
X006528Y002059D02*
X006370Y002059D01*
X006370Y001863D02*
X006528Y001863D01*
X006685Y001705D02*
X006685Y001547D01*
X006882Y001547D02*
X006882Y001705D01*
X007079Y001705D02*
X007079Y001547D01*
X007276Y001547D02*
X007276Y001705D01*
X007473Y001705D02*
X007473Y001547D01*
D12*
X008556Y001036D03*
X009225Y001036D03*
X010150Y003241D03*
X010819Y003241D03*
X010977Y004402D03*
X010977Y005071D03*
X009284Y004874D03*
X008615Y004874D03*
X007906Y004874D03*
X007237Y004874D03*
X006075Y004520D03*
X005406Y004520D03*
X005386Y002276D03*
X005386Y001764D03*
X004717Y001764D03*
X004717Y002276D03*
X004166Y002276D03*
X004166Y001764D03*
X003496Y001764D03*
X003496Y002276D03*
X003713Y000819D03*
X004382Y000819D03*
X005603Y001056D03*
X006272Y001056D03*
D13*
X002217Y001559D03*
X002020Y001559D03*
X001823Y001559D03*
X001626Y001559D03*
X001626Y002638D03*
X001823Y002638D03*
X002020Y002638D03*
X002217Y002638D03*
D14*
X002461Y002394D03*
X002461Y002197D03*
X002461Y002000D03*
X002461Y001804D03*
X001382Y001804D03*
X001382Y002000D03*
X001382Y002197D03*
X001382Y002394D03*
D15*
X000878Y001548D03*
X000878Y000878D03*
X001685Y003457D03*
X001174Y003890D03*
X001685Y004126D03*
X001174Y004559D03*
X004382Y003969D03*
X004382Y003300D03*
X009894Y001272D03*
X009894Y000603D03*
X010603Y000603D03*
X010603Y001272D03*
D16*
X003634Y003477D03*
X003437Y003477D03*
X003241Y003477D03*
X003044Y003477D03*
X002847Y003477D03*
X002650Y003477D03*
X002650Y005052D03*
X002847Y005052D03*
X003044Y005052D03*
X003241Y005052D03*
X003437Y005052D03*
X003634Y005052D03*
D17*
X003930Y004756D03*
X003930Y004559D03*
X003930Y004363D03*
X003930Y004166D03*
X003930Y003969D03*
X003930Y003772D03*
X002355Y003772D03*
X002355Y003969D03*
X002355Y004166D03*
X002355Y004363D03*
X002355Y004559D03*
X002355Y004756D03*
D18*
X003142Y004264D03*
D19*
X012099Y004599D03*
X012099Y003595D03*
X013099Y003595D03*
X013099Y004599D03*
D20*
X012433Y002245D02*
X012926Y002158D01*
X013418Y002071D01*
X011882Y001115D02*
X011969Y000622D01*
X011882Y001115D02*
X011795Y001607D01*
D21*
G36*
X011680Y000826D02*
X011593Y001317D01*
X012084Y001404D01*
X012171Y000913D01*
X011680Y000826D01*
G37*
G36*
X013128Y001869D02*
X012637Y001956D01*
X012724Y002447D01*
X013215Y002360D01*
X013128Y001869D01*
G37*
D22*
X006863Y000563D03*
X006272Y000563D03*
D23*
X007268Y000565D03*
X007268Y001034D03*
X008032Y001034D03*
X008032Y000565D03*
D24*
X013339Y007040D03*
X007040Y013339D03*
D25*
X006449Y012552D03*
X006449Y005859D03*
D26*
X006449Y009205D03*
D27*
X013359Y008683D03*
X013359Y007935D03*
D28*
X002867Y000445D02*
X000504Y000445D01*
X000504Y002985D01*
X000504Y004579D01*
X000504Y005504D01*
X006075Y005504D01*
X013359Y005504D01*
X013359Y007935D01*
X013359Y008683D02*
X013359Y009205D01*
X006449Y009205D01*
X006449Y005878D02*
X006449Y005859D01*
X001056Y005859D01*
X000937Y012552D02*
X006449Y012552D01*
X007040Y012552D01*
D29*
X006075Y005504D02*
X006075Y004520D01*
X007276Y004520D01*
X008063Y004520D01*
X008063Y004264D01*
X008260Y004264D02*
X008260Y004874D01*
X008615Y004874D01*
X008615Y005189D01*
X009894Y005189D01*
X009973Y005130D01*
X009697Y004874D02*
X009284Y004874D01*
X009244Y004520D02*
X009422Y004343D01*
X009244Y004520D02*
X008457Y004520D01*
X008457Y004264D01*
X008260Y004874D02*
X007906Y004874D01*
X007867Y004264D02*
X007867Y003201D01*
X007768Y002945D01*
X009087Y002847D02*
X009737Y002847D01*
X009559Y002611D02*
X009500Y002650D01*
X009087Y002650D01*
X009087Y002453D02*
X009087Y002256D01*
X009284Y002256D01*
X009756Y001784D01*
X009756Y001233D01*
X009894Y001272D01*
X010603Y001272D01*
X010603Y000603D02*
X009894Y000603D01*
X008930Y000603D01*
X008910Y000583D01*
X008890Y000563D01*
X008032Y000563D01*
X008032Y000565D01*
X007268Y000565D01*
X006865Y000565D01*
X006863Y000563D01*
X007268Y001034D02*
X007237Y001073D01*
X007237Y001370D01*
X005386Y001370D01*
X003083Y001370D01*
X003083Y001804D01*
X002867Y001804D01*
X002461Y001804D01*
X002670Y001559D02*
X002670Y000642D01*
X000878Y000642D01*
X000878Y000878D01*
X001351Y000957D02*
X001626Y001390D01*
X001626Y001559D01*
X001823Y001559D02*
X001823Y001036D01*
X002020Y001370D02*
X002315Y000957D01*
X002020Y001370D02*
X002020Y001559D01*
X002217Y001559D02*
X002670Y001559D01*
X002867Y001804D02*
X002867Y000445D01*
X003181Y000819D02*
X003713Y000819D01*
X004382Y000819D02*
X004894Y000819D01*
X005426Y000583D02*
X005603Y000760D01*
X005603Y001056D01*
X005386Y001370D02*
X005386Y001764D01*
X005721Y001764D01*
X005721Y002748D01*
X006174Y002748D01*
X006272Y002650D01*
X006449Y002650D01*
X006449Y002847D02*
X006311Y002847D01*
X006233Y002926D01*
X005465Y002926D01*
X005386Y002847D01*
X005386Y002276D01*
X005091Y002906D02*
X004717Y002532D01*
X004717Y002276D01*
X004717Y001764D01*
X004166Y001764D01*
X004166Y002276D02*
X004166Y002945D01*
X004067Y003044D01*
X002315Y003044D01*
X002217Y002945D01*
X002217Y002638D01*
X002020Y002638D02*
X002020Y002985D01*
X002335Y003319D01*
X002650Y003319D01*
X002650Y003477D01*
X002670Y003851D02*
X003634Y003851D01*
X003634Y005052D01*
X004422Y005052D01*
X004481Y005111D01*
X004737Y004559D02*
X003930Y004559D01*
X003930Y004756D02*
X005170Y004756D01*
X005406Y004520D01*
X005406Y003969D01*
X005544Y003831D01*
X006449Y003831D01*
X006449Y003634D02*
X004737Y003634D01*
X004737Y002945D01*
X004166Y002945D01*
X004382Y003300D02*
X003634Y003300D01*
X003634Y003477D01*
X003634Y003851D01*
X003930Y003969D02*
X004382Y003969D01*
X004737Y003634D02*
X004737Y004559D01*
X005996Y003241D02*
X006449Y003241D01*
X006056Y002414D02*
X006056Y002158D01*
X006154Y002059D01*
X006449Y002059D01*
X006449Y001863D02*
X006193Y001863D01*
X006056Y001725D01*
X006272Y001095D02*
X006272Y001056D01*
X006272Y000563D01*
X007237Y001370D02*
X008457Y001370D01*
X008457Y001626D01*
X008477Y001034D02*
X008032Y001034D01*
X008477Y001034D02*
X008556Y001036D01*
X009225Y001036D02*
X009363Y001075D01*
X009363Y001863D01*
X009087Y001863D01*
X009087Y003044D02*
X009087Y003241D01*
X010150Y003241D01*
X010150Y003083D01*
X010485Y002748D01*
X010819Y003241D02*
X010288Y003752D01*
X010288Y004185D01*
X010268Y004166D01*
X009737Y004166D01*
X009559Y003989D01*
X009559Y003772D01*
X009422Y003634D01*
X009087Y003634D01*
X009087Y003437D02*
X009559Y003437D01*
X009953Y003851D01*
X010288Y004185D02*
X010288Y004776D01*
X010288Y005465D01*
X010465Y005071D02*
X010465Y004244D01*
X010681Y004028D01*
X010681Y003851D01*
X010977Y004225D02*
X011252Y003949D01*
X010977Y004225D02*
X010977Y004402D01*
X010288Y004776D02*
X009796Y004776D01*
X009697Y004874D01*
X010465Y005071D02*
X010977Y005071D01*
X007276Y004520D02*
X007276Y004264D01*
X007237Y004874D02*
X006705Y004874D01*
X005091Y003044D02*
X005091Y002906D01*
X003496Y002276D02*
X003496Y001764D01*
X003083Y001804D02*
X003083Y002276D01*
X003496Y002276D01*
X002965Y002650D02*
X002709Y002394D01*
X002461Y002394D01*
X002020Y002985D02*
X001626Y002985D01*
X000504Y002985D01*
X001174Y003457D02*
X001174Y003890D01*
X001174Y003457D02*
X001685Y003457D01*
X002059Y003457D01*
X002079Y003969D01*
X002355Y003969D01*
X002670Y003969D01*
X002670Y003851D01*
X002670Y003969D02*
X002670Y004363D01*
X002355Y004363D01*
X002355Y004559D02*
X001174Y004559D01*
X000524Y004559D01*
X000504Y004579D01*
X001685Y004166D02*
X001685Y004126D01*
X001685Y004166D02*
X002355Y004166D01*
X001626Y002985D02*
X001626Y002638D01*
X001382Y001804D02*
X000878Y001804D01*
X000878Y001548D01*
X009894Y000603D02*
X009914Y000583D01*
D30*
X008910Y000583D03*
X009756Y001784D03*
X010485Y002748D03*
X010681Y003851D03*
X011252Y003949D03*
X009953Y003851D03*
X009422Y004343D03*
X009973Y005130D03*
X007768Y002945D03*
X006056Y002414D03*
X006056Y001725D03*
X005426Y000583D03*
X004894Y000819D03*
X003181Y000819D03*
X002315Y000957D03*
X001823Y001036D03*
X001351Y000957D03*
X002965Y002650D03*
X005091Y003044D03*
X005996Y003241D03*
X005406Y003969D03*
X004481Y005111D03*
X006705Y004874D03*
X001056Y005859D03*
X000937Y012552D03*
X013359Y009205D03*
D31*
X007040Y012552D02*
X007040Y013339D01*
D32*
X009737Y002847D02*
X010386Y002246D01*
X012433Y002245D01*
X013418Y002071D01*
X011795Y001607D02*
X011969Y000622D01*
X011795Y001607D02*
X011725Y001902D01*
X010268Y001902D01*
X009559Y002611D01*
M02*
