%
M48
M72
T01C0.0197
T02C0.0236
T03C0.0400
%
T01
X11754Y1154
X11754Y1654
X11754Y2154
X12376Y2776
X12876Y2776
X13376Y2776
T02
X5154Y2329
X5735Y2990
X5336Y1280
X7718Y3603
X9490Y5020
X9903Y4430
X10631Y4430
X10927Y4843
X9864Y5749
X10395Y3288
X9706Y2324
X9175Y1143
X5890Y5180
X6694Y5788
X4982Y6280
X13446Y14017
T03
X13088Y5375
X13088Y4292
X12088Y4292
X12088Y5375
M30
