%
M48
M72
T01C0.0197
T02C0.0236
T03C0.0400
%
T01
X12019Y1154
X12019Y1654
X12019Y2154
X12641Y2776
X13141Y2776
X13641Y2776
T02
X1830Y1565
X1255Y1925
X1240Y2845
X1265Y4025
X3925Y5165
X4300Y5535
X3920Y5885
X5657Y6280
X6385Y5165
X6959Y5788
X5450Y3895
X5585Y2875
X6075Y2030
X5605Y1280
X4645Y2210
X7983Y3603
X9755Y5020
X10168Y4430
X10896Y4430
X11192Y4843
X10129Y5749
X10660Y3288
X9971Y2324
X9440Y1143
X13711Y14017
T03
X13353Y5375
X12353Y5375
X12353Y4292
X13353Y4292
M30
