G75*
G70*
%OFA0B0*%
%FSLAX24Y24*%
%IPPOS*%
%LPD*%
%AMOC8*
5,1,8,0,0,1.08239X$1,22.5*
%
%ADD10R,0.2047X0.2047*%
%ADD11C,0.0118*%
%ADD12R,0.0433X0.0394*%
%ADD13R,0.0394X0.0433*%
%ADD14C,0.0740*%
%ADD15R,0.0500X0.0500*%
%ADD16R,1.1417X0.0394*%
%ADD17R,1.0236X0.5512*%
%ADD18R,0.0315X0.0315*%
%ADD19R,0.0260X0.0300*%
%ADD20R,0.0315X0.0315*%
%ADD21C,0.0160*%
%ADD22C,0.0100*%
%ADD23C,0.0120*%
%ADD24C,0.0396*%
%ADD25C,0.0240*%
%ADD26C,0.0209*%
D10*
X007929Y003603D03*
D11*
X008027Y002363D02*
X008027Y002205D01*
X008224Y002205D02*
X008224Y002363D01*
X008421Y002363D02*
X008421Y002205D01*
X008618Y002205D02*
X008618Y002363D01*
X008815Y002363D02*
X008815Y002205D01*
X009012Y002205D02*
X009012Y002363D01*
X009169Y002520D02*
X009327Y002520D01*
X009327Y002717D02*
X009169Y002717D01*
X009169Y002914D02*
X009327Y002914D01*
X009327Y003111D02*
X009169Y003111D01*
X009169Y003308D02*
X009327Y003308D01*
X009327Y003505D02*
X009169Y003505D01*
X009169Y003702D02*
X009327Y003702D01*
X009327Y003898D02*
X009169Y003898D01*
X009169Y004095D02*
X009327Y004095D01*
X009327Y004292D02*
X009169Y004292D01*
X009169Y004489D02*
X009327Y004489D01*
X009327Y004686D02*
X009169Y004686D01*
X009012Y004843D02*
X009012Y005001D01*
X008815Y005001D02*
X008815Y004843D01*
X008618Y004843D02*
X008618Y005001D01*
X008421Y005001D02*
X008421Y004843D01*
X008224Y004843D02*
X008224Y005001D01*
X008027Y005001D02*
X008027Y004843D01*
X007830Y004843D02*
X007830Y005001D01*
X007634Y005001D02*
X007634Y004843D01*
X007437Y004843D02*
X007437Y005001D01*
X007240Y005001D02*
X007240Y004843D01*
X007043Y004843D02*
X007043Y005001D01*
X006846Y005001D02*
X006846Y004843D01*
X006689Y004686D02*
X006531Y004686D01*
X006531Y004489D02*
X006689Y004489D01*
X006689Y004292D02*
X006531Y004292D01*
X006531Y004095D02*
X006689Y004095D01*
X006689Y003898D02*
X006531Y003898D01*
X006531Y003702D02*
X006689Y003702D01*
X006689Y003505D02*
X006531Y003505D01*
X006531Y003308D02*
X006689Y003308D01*
X006689Y003111D02*
X006531Y003111D01*
X006531Y002914D02*
X006689Y002914D01*
X006689Y002717D02*
X006531Y002717D01*
X006531Y002520D02*
X006689Y002520D01*
X006846Y002363D02*
X006846Y002205D01*
X007043Y002205D02*
X007043Y002363D01*
X007240Y002363D02*
X007240Y002205D01*
X007437Y002205D02*
X007437Y002363D01*
X007634Y002363D02*
X007634Y002205D01*
X007830Y002205D02*
X007830Y002363D01*
D12*
X001011Y001095D03*
X001680Y001095D03*
X002176Y001095D03*
X002845Y001095D03*
X006059Y001280D03*
X006728Y001280D03*
X008185Y001280D03*
X008854Y001280D03*
X010311Y003859D03*
X010980Y003859D03*
X011138Y005335D03*
X011138Y006005D03*
X009366Y005788D03*
X008697Y005788D03*
X008086Y005788D03*
X007417Y005788D03*
X004710Y006397D03*
X004041Y006397D03*
D13*
X006171Y006339D03*
X006171Y005670D03*
X005995Y003335D03*
X005995Y002665D03*
X010055Y001812D03*
X010055Y001143D03*
X010921Y001143D03*
X010921Y001812D03*
X000756Y001625D03*
X000756Y002294D03*
X000751Y002845D03*
X000751Y003514D03*
X000750Y004020D03*
X000750Y004689D03*
D14*
X012299Y004292D03*
X013299Y004292D03*
X013299Y005375D03*
X012299Y005375D03*
D15*
X012586Y002776D03*
X013086Y002776D03*
X013586Y002776D03*
X011964Y002154D03*
X011964Y001654D03*
X011964Y001154D03*
D16*
X007201Y007048D03*
X007201Y014017D03*
D17*
X007201Y010532D03*
D18*
G36*
X002232Y006081D02*
X002075Y006352D01*
X002346Y006509D01*
X002503Y006238D01*
X002232Y006081D01*
G37*
G36*
X001721Y005786D02*
X001564Y006057D01*
X001835Y006214D01*
X001992Y005943D01*
X001721Y005786D01*
G37*
D19*
X007256Y001560D03*
X007656Y001560D03*
X007656Y001040D03*
X007256Y001040D03*
D20*
X004892Y003826D03*
X004301Y003826D03*
X003899Y004322D03*
X003308Y004322D03*
X003706Y003262D03*
X004161Y002800D03*
X004297Y003262D03*
X004161Y002210D03*
X004568Y004626D03*
X005158Y004626D03*
D21*
X006171Y005670D02*
X005603Y006238D01*
X005603Y006280D01*
X006171Y006339D02*
X006171Y006339D01*
X006171Y006460D01*
X006551Y006460D01*
X006551Y006457D01*
X010449Y006457D01*
X011669Y006457D01*
X013460Y006457D01*
X013460Y008229D01*
X007201Y008229D01*
X007201Y010532D01*
X007201Y007048D02*
X005193Y007048D01*
X005603Y007028D01*
D22*
X003854Y007009D01*
X002286Y007009D01*
X002261Y007010D01*
X002261Y006295D01*
X002289Y006295D01*
X001778Y006000D02*
X001943Y005735D01*
X003021Y006395D01*
X003016Y006397D01*
X004041Y006397D01*
X003866Y005885D02*
X004866Y005885D01*
X006261Y004490D01*
X006610Y004490D01*
X006610Y004489D01*
X006610Y004292D02*
X006218Y004292D01*
X004976Y005535D01*
X004246Y005535D01*
X003871Y005165D02*
X005101Y005170D01*
X006180Y004090D01*
X006610Y004095D01*
X006610Y003898D02*
X005396Y003898D01*
X005396Y003895D01*
X005716Y003700D02*
X005196Y003180D01*
X005196Y002725D01*
X005331Y002590D01*
X005331Y002345D01*
X004046Y001080D01*
X002845Y001095D01*
X002176Y001095D02*
X002171Y001620D01*
X003251Y002700D01*
X004155Y002710D01*
X004161Y002800D01*
X004328Y003247D02*
X004821Y002755D01*
X004821Y002440D01*
X004591Y002210D01*
X004161Y002210D01*
X004161Y002210D01*
X004328Y003247D02*
X004328Y003262D01*
X004892Y003826D01*
X004395Y004322D01*
X003899Y004322D01*
X004301Y003826D02*
X003207Y003826D01*
X001676Y002295D01*
X000696Y002295D01*
X000756Y002294D01*
X001241Y001950D02*
X000916Y001625D01*
X000756Y001625D01*
X000986Y001240D02*
X003021Y003275D01*
X003026Y003270D01*
X003699Y003270D01*
X003706Y003262D01*
X004297Y003262D02*
X004328Y003262D01*
X004892Y003826D02*
X004892Y004350D01*
X005158Y004626D01*
X004568Y004626D02*
X004499Y004689D01*
X000750Y004689D01*
X000750Y004020D02*
X001206Y004020D01*
X001211Y004025D01*
X000751Y003514D02*
X002495Y003509D01*
X003308Y004322D01*
X004710Y006265D02*
X004745Y006265D01*
X006326Y004685D01*
X006609Y004685D01*
X006610Y004686D01*
X006610Y004687D01*
X006331Y005165D02*
X006551Y005385D01*
X007259Y005385D01*
X007437Y005207D01*
X008224Y005207D01*
X008224Y004922D01*
X008027Y004922D02*
X008027Y003741D01*
X007929Y003603D01*
X009248Y003505D02*
X009779Y003505D01*
X009543Y003308D02*
X009582Y003269D01*
X009543Y003308D02*
X009248Y003308D01*
X009248Y003111D02*
X009248Y002914D01*
X009622Y002914D01*
X009917Y002619D01*
X009917Y002324D01*
X009917Y001772D01*
X010055Y001812D01*
X010921Y001812D01*
X010921Y001143D02*
X010055Y001143D01*
X009386Y001143D01*
X009248Y001280D01*
X008854Y001280D01*
X009248Y001831D02*
X009248Y002520D01*
X009248Y002717D02*
X009543Y002717D01*
X009543Y001635D01*
X008185Y001635D01*
X008185Y001280D01*
X007944Y001040D01*
X007656Y001040D01*
X007260Y001044D02*
X007656Y001560D01*
X007256Y001560D02*
X007256Y001828D01*
X007260Y001831D01*
X009248Y001831D01*
X008621Y002030D02*
X006356Y002030D01*
X006021Y002030D01*
X006356Y002030D02*
X006356Y003310D01*
X006610Y003310D01*
X006610Y003505D02*
X005996Y003505D01*
X005996Y003340D01*
X005995Y003340D01*
X005995Y003335D01*
X005716Y003700D02*
X006608Y003700D01*
X006610Y003702D01*
X005995Y002665D02*
X005740Y002665D01*
X005531Y002875D01*
X006728Y001831D02*
X006728Y001280D01*
X007256Y001040D02*
X007260Y001044D01*
X007260Y000946D01*
X006059Y000946D01*
X006059Y001280D01*
X005641Y001280D01*
X005551Y001280D01*
X006728Y001831D02*
X007260Y001831D01*
X008621Y002030D02*
X008621Y002284D01*
X008618Y002284D01*
X009248Y003702D02*
X009248Y003898D01*
X010330Y003898D01*
X010311Y003859D01*
X010606Y003583D01*
X010606Y003288D01*
X010980Y003859D02*
X010449Y004292D01*
X010842Y004430D02*
X010842Y004568D01*
X010626Y004784D01*
X010626Y006005D01*
X011138Y006005D01*
X011669Y006457D02*
X011669Y004922D01*
X012299Y004292D01*
X011138Y004843D02*
X011138Y005335D01*
X010449Y005355D02*
X010409Y005316D01*
X009996Y005316D01*
X009523Y005788D01*
X009366Y005788D01*
X009661Y006182D02*
X010075Y005749D01*
X009661Y006182D02*
X008697Y006182D01*
X008697Y005788D01*
X008421Y005788D01*
X008421Y004922D01*
X008618Y004922D02*
X008618Y005198D01*
X009523Y005198D01*
X009701Y005020D01*
X010232Y005040D02*
X010429Y005040D01*
X010449Y005020D01*
X010232Y005040D02*
X009484Y004292D01*
X009248Y004292D01*
X009248Y004095D02*
X009799Y004095D01*
X010114Y004430D01*
X009248Y003898D02*
X009267Y003702D01*
X007437Y004922D02*
X007437Y005207D01*
X007417Y005788D02*
X006905Y005788D01*
X006551Y005385D02*
X006551Y006457D01*
X008086Y005788D02*
X008697Y005788D01*
X008697Y005808D01*
X011964Y002154D02*
X011964Y002146D01*
X010075Y001123D02*
X010055Y001143D01*
X004710Y006265D02*
X004710Y006397D01*
X001206Y002850D02*
X001181Y002845D01*
X000751Y002845D01*
X001776Y001565D02*
X001680Y001479D01*
X001680Y001095D01*
X001011Y001095D02*
X000986Y001240D01*
D23*
X010449Y004292D02*
X010449Y005020D01*
X010449Y005355D01*
X010449Y006457D01*
D24*
X010075Y005749D03*
X009701Y005020D03*
X010114Y004430D03*
X010842Y004430D03*
X011138Y004843D03*
X010606Y003288D03*
X009917Y002324D03*
X009386Y001143D03*
X007929Y003603D03*
X006331Y005165D03*
X006905Y005788D03*
X005603Y006280D03*
X004246Y005535D03*
X003871Y005165D03*
X003866Y005885D03*
X005396Y003895D03*
X005531Y002875D03*
X006021Y002030D03*
X005551Y001280D03*
X004591Y002210D03*
X001776Y001565D03*
X001241Y001950D03*
X001206Y002850D03*
X001211Y004025D03*
X013657Y014017D03*
D25*
X007201Y014017D01*
X005603Y007028D02*
X005603Y006280D01*
D26*
X009582Y003269D02*
X010429Y002442D01*
X011649Y002442D01*
X011964Y002146D01*
X011964Y001654D01*
X011964Y001154D01*
X012586Y002776D02*
X010508Y002776D01*
X009779Y003505D01*
X012586Y002776D02*
X013086Y002776D01*
X013586Y002776D01*
M02*
