G75*
G70*
%OFA0B0*%
%FSLAX24Y24*%
%IPPOS*%
%LPD*%
%AMOC8*
5,1,8,0,0,1.08239X$1,22.5*
%
%ADD10R,0.2107X0.2107*%
%ADD11C,0.0178*%
%ADD12R,0.0493X0.0454*%
%ADD13R,0.0454X0.0493*%
%ADD14C,0.0800*%
%ADD15R,0.0560X0.0560*%
%ADD16R,1.1477X0.0454*%
%ADD17R,1.0296X0.5572*%
%ADD18R,0.0375X0.0375*%
%ADD19R,0.0320X0.0360*%
%ADD20R,0.0375X0.0375*%
%ADD21C,0.0456*%
D10*
X007929Y003603D03*
D11*
X008027Y002363D02*
X008027Y002205D01*
X008224Y002205D02*
X008224Y002363D01*
X008421Y002363D02*
X008421Y002205D01*
X008618Y002205D02*
X008618Y002363D01*
X008815Y002363D02*
X008815Y002205D01*
X009012Y002205D02*
X009012Y002363D01*
X009169Y002520D02*
X009327Y002520D01*
X009327Y002717D02*
X009169Y002717D01*
X009169Y002914D02*
X009327Y002914D01*
X009327Y003111D02*
X009169Y003111D01*
X009169Y003308D02*
X009327Y003308D01*
X009327Y003505D02*
X009169Y003505D01*
X009169Y003702D02*
X009327Y003702D01*
X009327Y003898D02*
X009169Y003898D01*
X009169Y004095D02*
X009327Y004095D01*
X009327Y004292D02*
X009169Y004292D01*
X009169Y004489D02*
X009327Y004489D01*
X009327Y004686D02*
X009169Y004686D01*
X009012Y004843D02*
X009012Y005001D01*
X008815Y005001D02*
X008815Y004843D01*
X008618Y004843D02*
X008618Y005001D01*
X008421Y005001D02*
X008421Y004843D01*
X008224Y004843D02*
X008224Y005001D01*
X008027Y005001D02*
X008027Y004843D01*
X007830Y004843D02*
X007830Y005001D01*
X007634Y005001D02*
X007634Y004843D01*
X007437Y004843D02*
X007437Y005001D01*
X007240Y005001D02*
X007240Y004843D01*
X007043Y004843D02*
X007043Y005001D01*
X006846Y005001D02*
X006846Y004843D01*
X006689Y004686D02*
X006531Y004686D01*
X006531Y004489D02*
X006689Y004489D01*
X006689Y004292D02*
X006531Y004292D01*
X006531Y004095D02*
X006689Y004095D01*
X006689Y003898D02*
X006531Y003898D01*
X006531Y003702D02*
X006689Y003702D01*
X006689Y003505D02*
X006531Y003505D01*
X006531Y003308D02*
X006689Y003308D01*
X006689Y003111D02*
X006531Y003111D01*
X006531Y002914D02*
X006689Y002914D01*
X006689Y002717D02*
X006531Y002717D01*
X006531Y002520D02*
X006689Y002520D01*
X006846Y002363D02*
X006846Y002205D01*
X007043Y002205D02*
X007043Y002363D01*
X007240Y002363D02*
X007240Y002205D01*
X007437Y002205D02*
X007437Y002363D01*
X007634Y002363D02*
X007634Y002205D01*
X007830Y002205D02*
X007830Y002363D01*
D12*
X001011Y001095D03*
X001680Y001095D03*
X002176Y001095D03*
X002845Y001095D03*
X006059Y001280D03*
X006728Y001280D03*
X008185Y001280D03*
X008854Y001280D03*
X010311Y003859D03*
X010980Y003859D03*
X011138Y005335D03*
X011138Y006005D03*
X009366Y005788D03*
X008697Y005788D03*
X008086Y005788D03*
X007417Y005788D03*
X004710Y006397D03*
X004041Y006397D03*
D13*
X006171Y006339D03*
X006171Y005670D03*
X005995Y003335D03*
X005995Y002665D03*
X010055Y001812D03*
X010055Y001143D03*
X010921Y001143D03*
X010921Y001812D03*
X000756Y001625D03*
X000756Y002294D03*
X000751Y002845D03*
X000751Y003514D03*
X000750Y004020D03*
X000750Y004689D03*
D14*
X012299Y004292D03*
X013299Y004292D03*
X013299Y005375D03*
X012299Y005375D03*
D15*
X012586Y002776D03*
X013086Y002776D03*
X013586Y002776D03*
X011964Y002154D03*
X011964Y001654D03*
X011964Y001154D03*
D16*
X007201Y007048D03*
X007201Y014017D03*
D17*
X007201Y010532D03*
D18*
G36*
X002221Y006040D02*
X002034Y006363D01*
X002357Y006550D01*
X002544Y006227D01*
X002221Y006040D01*
G37*
G36*
X001710Y005745D02*
X001523Y006068D01*
X001846Y006255D01*
X002033Y005932D01*
X001710Y005745D01*
G37*
D19*
X007256Y001560D03*
X007656Y001560D03*
X007656Y001040D03*
X007256Y001040D03*
D20*
X004892Y003826D03*
X004301Y003826D03*
X003899Y004322D03*
X003308Y004322D03*
X003706Y003262D03*
X004161Y002800D03*
X004297Y003262D03*
X004161Y002210D03*
X004568Y004626D03*
X005158Y004626D03*
D21*
X005396Y003895D03*
X005531Y002875D03*
X006021Y002030D03*
X005551Y001280D03*
X004591Y002210D03*
X001776Y001565D03*
X001241Y001950D03*
X001206Y002850D03*
X001211Y004025D03*
X003871Y005165D03*
X004246Y005535D03*
X003866Y005885D03*
X005603Y006280D03*
X006331Y005165D03*
X006905Y005788D03*
X007929Y003603D03*
X009701Y005020D03*
X010114Y004430D03*
X010842Y004430D03*
X011138Y004843D03*
X010075Y005749D03*
X010606Y003288D03*
X009917Y002324D03*
X009386Y001143D03*
X013657Y014017D03*
M02*
