G75*
G70*
%OFA0B0*%
%FSLAX24Y24*%
%IPPOS*%
%LPD*%
%AMOC8*
5,1,8,0,0,1.08239X$1,22.5*
%
%ADD10R,0.2127X0.2127*%
%ADD11C,0.0198*%
%ADD12R,0.0513X0.0474*%
%ADD13R,0.0474X0.0513*%
%ADD14C,0.0820*%
%ADD15R,0.0580X0.0580*%
%ADD16R,1.1497X0.0474*%
%ADD17R,1.0316X0.5592*%
%ADD18R,0.0395X0.0395*%
%ADD19R,0.0340X0.0380*%
%ADD20R,0.0395X0.0395*%
%ADD21C,0.0476*%
D10*
X007983Y003603D03*
D11*
X007885Y002363D02*
X007885Y002205D01*
X008082Y002205D02*
X008082Y002363D01*
X008278Y002363D02*
X008278Y002205D01*
X008475Y002205D02*
X008475Y002363D01*
X008672Y002363D02*
X008672Y002205D01*
X008869Y002205D02*
X008869Y002363D01*
X009066Y002363D02*
X009066Y002205D01*
X009223Y002520D02*
X009381Y002520D01*
X009381Y002717D02*
X009223Y002717D01*
X009223Y002914D02*
X009381Y002914D01*
X009381Y003111D02*
X009223Y003111D01*
X009223Y003308D02*
X009381Y003308D01*
X009381Y003505D02*
X009223Y003505D01*
X009223Y003702D02*
X009381Y003702D01*
X009381Y003898D02*
X009223Y003898D01*
X009223Y004095D02*
X009381Y004095D01*
X009381Y004292D02*
X009223Y004292D01*
X009223Y004489D02*
X009381Y004489D01*
X009381Y004686D02*
X009223Y004686D01*
X009066Y004843D02*
X009066Y005001D01*
X008869Y005001D02*
X008869Y004843D01*
X008672Y004843D02*
X008672Y005001D01*
X008475Y005001D02*
X008475Y004843D01*
X008278Y004843D02*
X008278Y005001D01*
X008082Y005001D02*
X008082Y004843D01*
X007885Y004843D02*
X007885Y005001D01*
X007688Y005001D02*
X007688Y004843D01*
X007491Y004843D02*
X007491Y005001D01*
X007294Y005001D02*
X007294Y004843D01*
X007097Y004843D02*
X007097Y005001D01*
X006900Y005001D02*
X006900Y004843D01*
X006743Y004686D02*
X006585Y004686D01*
X006585Y004489D02*
X006743Y004489D01*
X006743Y004292D02*
X006585Y004292D01*
X006585Y004095D02*
X006743Y004095D01*
X006743Y003898D02*
X006585Y003898D01*
X006585Y003702D02*
X006743Y003702D01*
X006743Y003505D02*
X006585Y003505D01*
X006585Y003308D02*
X006743Y003308D01*
X006743Y003111D02*
X006585Y003111D01*
X006585Y002914D02*
X006743Y002914D01*
X006743Y002717D02*
X006585Y002717D01*
X006585Y002520D02*
X006743Y002520D01*
X006900Y002363D02*
X006900Y002205D01*
X007097Y002205D02*
X007097Y002363D01*
X007294Y002363D02*
X007294Y002205D01*
X007491Y002205D02*
X007491Y002363D01*
X007688Y002363D02*
X007688Y002205D01*
D12*
X001040Y001055D03*
X001710Y001055D03*
X002225Y001045D03*
X002895Y001045D03*
X006113Y001280D03*
X006782Y001280D03*
X008239Y001280D03*
X008908Y001280D03*
X010365Y003859D03*
X011034Y003859D03*
X011192Y005335D03*
X011192Y006005D03*
X009420Y005788D03*
X008751Y005788D03*
X008141Y005788D03*
X007471Y005788D03*
X004765Y006397D03*
X004095Y006397D03*
D13*
X006225Y006339D03*
X006225Y005670D03*
X006050Y003335D03*
X006050Y002665D03*
X010109Y001812D03*
X010109Y001143D03*
X010975Y001143D03*
X010975Y001812D03*
X000750Y001625D03*
X000750Y002294D03*
X000755Y002840D03*
X000755Y003509D03*
X000754Y004020D03*
X000754Y004689D03*
D14*
X012353Y004292D03*
X013353Y004292D03*
X013353Y005375D03*
X012353Y005375D03*
D15*
X012641Y002776D03*
X013141Y002776D03*
X013641Y002776D03*
X012019Y002154D03*
X012019Y001654D03*
X012019Y001154D03*
D16*
X007255Y007048D03*
X007255Y014017D03*
D17*
X007255Y010532D03*
D18*
G36*
X002271Y006026D02*
X002074Y006367D01*
X002415Y006564D01*
X002612Y006223D01*
X002271Y006026D01*
G37*
G36*
X001760Y005731D02*
X001563Y006072D01*
X001904Y006269D01*
X002101Y005928D01*
X001760Y005731D01*
G37*
D19*
X007311Y001560D03*
X007711Y001560D03*
X007711Y001040D03*
X007311Y001040D03*
D20*
X004946Y003826D03*
X004356Y003826D03*
X003953Y004322D03*
X003362Y004322D03*
X003760Y003262D03*
X004215Y002800D03*
X004351Y003262D03*
X004215Y002210D03*
X004622Y004626D03*
X005212Y004626D03*
D21*
X005450Y003895D03*
X005585Y002875D03*
X006075Y002030D03*
X005605Y001280D03*
X004645Y002210D03*
X001830Y001565D03*
X001255Y001925D03*
X001240Y002845D03*
X001265Y004025D03*
X003925Y005165D03*
X004300Y005535D03*
X003920Y005885D03*
X005657Y006280D03*
X006385Y005165D03*
X006959Y005788D03*
X007983Y003603D03*
X009755Y005020D03*
X010168Y004430D03*
X010896Y004430D03*
X011192Y004843D03*
X010129Y005749D03*
X010660Y003288D03*
X009971Y002324D03*
X009440Y001143D03*
X013711Y014017D03*
M02*
