G75*
G70*
%OFA0B0*%
%FSLAX24Y24*%
%IPPOS*%
%LPD*%
%AMOC8*
5,1,8,0,0,1.08239X$1,22.5*
%
%ADD10R,0.2127X0.2127*%
%ADD11C,0.0198*%
%ADD12R,0.0513X0.0474*%
%ADD13R,0.0474X0.0513*%
%ADD14C,0.0820*%
%ADD15R,0.0580X0.0580*%
%ADD16R,1.1497X0.0474*%
%ADD17R,1.0316X0.5592*%
%ADD18R,0.0395X0.0395*%
%ADD19R,0.0340X0.0380*%
%ADD20R,0.0395X0.0395*%
%ADD21C,0.0476*%
D10*
X007718Y003603D03*
D11*
X007620Y002363D02*
X007620Y002205D01*
X007817Y002205D02*
X007817Y002363D01*
X008013Y002363D02*
X008013Y002205D01*
X008210Y002205D02*
X008210Y002363D01*
X008407Y002363D02*
X008407Y002205D01*
X008604Y002205D02*
X008604Y002363D01*
X008801Y002363D02*
X008801Y002205D01*
X008958Y002520D02*
X009116Y002520D01*
X009116Y002717D02*
X008958Y002717D01*
X008958Y002914D02*
X009116Y002914D01*
X009116Y003111D02*
X008958Y003111D01*
X008958Y003308D02*
X009116Y003308D01*
X009116Y003505D02*
X008958Y003505D01*
X008958Y003702D02*
X009116Y003702D01*
X009116Y003898D02*
X008958Y003898D01*
X008958Y004095D02*
X009116Y004095D01*
X009116Y004292D02*
X008958Y004292D01*
X008958Y004489D02*
X009116Y004489D01*
X009116Y004686D02*
X008958Y004686D01*
X008801Y004843D02*
X008801Y005001D01*
X008604Y005001D02*
X008604Y004843D01*
X008407Y004843D02*
X008407Y005001D01*
X008210Y005001D02*
X008210Y004843D01*
X008013Y004843D02*
X008013Y005001D01*
X007817Y005001D02*
X007817Y004843D01*
X007620Y004843D02*
X007620Y005001D01*
X007423Y005001D02*
X007423Y004843D01*
X007226Y004843D02*
X007226Y005001D01*
X007029Y005001D02*
X007029Y004843D01*
X006832Y004843D02*
X006832Y005001D01*
X006635Y005001D02*
X006635Y004843D01*
X006478Y004686D02*
X006320Y004686D01*
X006320Y004489D02*
X006478Y004489D01*
X006478Y004292D02*
X006320Y004292D01*
X006320Y004095D02*
X006478Y004095D01*
X006478Y003898D02*
X006320Y003898D01*
X006320Y003702D02*
X006478Y003702D01*
X006478Y003505D02*
X006320Y003505D01*
X006320Y003308D02*
X006478Y003308D01*
X006478Y003111D02*
X006320Y003111D01*
X006320Y002914D02*
X006478Y002914D01*
X006478Y002717D02*
X006320Y002717D01*
X006320Y002520D02*
X006478Y002520D01*
X006635Y002363D02*
X006635Y002205D01*
X006832Y002205D02*
X006832Y002363D01*
X007029Y002363D02*
X007029Y002205D01*
X007226Y002205D02*
X007226Y002363D01*
X007423Y002363D02*
X007423Y002205D01*
D12*
X007974Y001280D03*
X008643Y001280D03*
X006517Y001280D03*
X005848Y001280D03*
X005835Y004059D03*
X005830Y004687D03*
X005160Y004687D03*
X005165Y004059D03*
X007206Y005788D03*
X007876Y005788D03*
X008486Y005788D03*
X009155Y005788D03*
X010927Y006005D03*
X010927Y005335D03*
X010769Y003859D03*
X010100Y003859D03*
D13*
X009844Y001812D03*
X009844Y001143D03*
X010710Y001143D03*
X010710Y001812D03*
X005730Y005670D03*
X005730Y006339D03*
X005155Y003505D03*
X005155Y002835D03*
D14*
X012088Y004292D03*
X012088Y005375D03*
X013088Y005375D03*
X013088Y004292D03*
D15*
X012876Y002776D03*
X012376Y002776D03*
X011754Y002154D03*
X011754Y001654D03*
X011754Y001154D03*
X013376Y002776D03*
D16*
X006990Y007048D03*
X006990Y014017D03*
D17*
X006990Y010532D03*
D18*
G36*
X002006Y006026D02*
X001809Y006367D01*
X002150Y006564D01*
X002347Y006223D01*
X002006Y006026D01*
G37*
G36*
X001495Y005731D02*
X001298Y006072D01*
X001639Y006269D01*
X001836Y005928D01*
X001495Y005731D01*
G37*
D19*
X007046Y001560D03*
X007446Y001560D03*
X007446Y001040D03*
X007046Y001040D03*
D20*
X003370Y003297D03*
X003961Y003297D03*
X004160Y002700D03*
X004160Y002110D03*
X004296Y003996D03*
X003706Y003996D03*
X003598Y004532D03*
X003007Y004532D03*
X003653Y005243D03*
X004243Y005243D03*
D21*
X004982Y006280D03*
X005890Y005180D03*
X006694Y005788D03*
X007718Y003603D03*
X009490Y005020D03*
X009903Y004430D03*
X010631Y004430D03*
X010927Y004843D03*
X009864Y005749D03*
X010395Y003288D03*
X009706Y002324D03*
X009175Y001143D03*
X005735Y002990D03*
X005154Y002329D03*
X005336Y001280D03*
X013446Y014017D03*
M02*
