G75*
G70*
%OFA0B0*%
%FSLAX24Y24*%
%IPPOS*%
%LPD*%
%AMOC8*
5,1,8,0,0,1.08239X$1,22.5*
%
%ADD10R,0.2047X0.2047*%
%ADD11C,0.0118*%
%ADD12R,0.0433X0.0394*%
%ADD13R,0.0394X0.0433*%
%ADD14C,0.0740*%
%ADD15R,0.0500X0.0500*%
%ADD16R,1.1417X0.0394*%
%ADD17R,1.0236X0.5512*%
%ADD18R,0.0315X0.0315*%
%ADD19R,0.0260X0.0300*%
%ADD20R,0.0315X0.0315*%
%ADD21C,0.0160*%
%ADD22C,0.0100*%
%ADD23C,0.0120*%
%ADD24C,0.0396*%
%ADD25C,0.0240*%
%ADD26C,0.0209*%
D10*
X007718Y003603D03*
D11*
X007620Y002363D02*
X007620Y002205D01*
X007817Y002205D02*
X007817Y002363D01*
X008013Y002363D02*
X008013Y002205D01*
X008210Y002205D02*
X008210Y002363D01*
X008407Y002363D02*
X008407Y002205D01*
X008604Y002205D02*
X008604Y002363D01*
X008801Y002363D02*
X008801Y002205D01*
X008958Y002520D02*
X009116Y002520D01*
X009116Y002717D02*
X008958Y002717D01*
X008958Y002914D02*
X009116Y002914D01*
X009116Y003111D02*
X008958Y003111D01*
X008958Y003308D02*
X009116Y003308D01*
X009116Y003505D02*
X008958Y003505D01*
X008958Y003702D02*
X009116Y003702D01*
X009116Y003898D02*
X008958Y003898D01*
X008958Y004095D02*
X009116Y004095D01*
X009116Y004292D02*
X008958Y004292D01*
X008958Y004489D02*
X009116Y004489D01*
X009116Y004686D02*
X008958Y004686D01*
X008801Y004843D02*
X008801Y005001D01*
X008604Y005001D02*
X008604Y004843D01*
X008407Y004843D02*
X008407Y005001D01*
X008210Y005001D02*
X008210Y004843D01*
X008013Y004843D02*
X008013Y005001D01*
X007817Y005001D02*
X007817Y004843D01*
X007620Y004843D02*
X007620Y005001D01*
X007423Y005001D02*
X007423Y004843D01*
X007226Y004843D02*
X007226Y005001D01*
X007029Y005001D02*
X007029Y004843D01*
X006832Y004843D02*
X006832Y005001D01*
X006635Y005001D02*
X006635Y004843D01*
X006478Y004686D02*
X006320Y004686D01*
X006320Y004489D02*
X006478Y004489D01*
X006478Y004292D02*
X006320Y004292D01*
X006320Y004095D02*
X006478Y004095D01*
X006478Y003898D02*
X006320Y003898D01*
X006320Y003702D02*
X006478Y003702D01*
X006478Y003505D02*
X006320Y003505D01*
X006320Y003308D02*
X006478Y003308D01*
X006478Y003111D02*
X006320Y003111D01*
X006320Y002914D02*
X006478Y002914D01*
X006478Y002717D02*
X006320Y002717D01*
X006320Y002520D02*
X006478Y002520D01*
X006635Y002363D02*
X006635Y002205D01*
X006832Y002205D02*
X006832Y002363D01*
X007029Y002363D02*
X007029Y002205D01*
X007226Y002205D02*
X007226Y002363D01*
X007423Y002363D02*
X007423Y002205D01*
D12*
X007974Y001280D03*
X008643Y001280D03*
X006517Y001280D03*
X005848Y001280D03*
X005835Y004059D03*
X005830Y004687D03*
X005160Y004687D03*
X005165Y004059D03*
X007206Y005788D03*
X007876Y005788D03*
X008486Y005788D03*
X009155Y005788D03*
X010927Y006005D03*
X010927Y005335D03*
X010769Y003859D03*
X010100Y003859D03*
D13*
X009844Y001812D03*
X009844Y001143D03*
X010710Y001143D03*
X010710Y001812D03*
X005730Y005670D03*
X005730Y006339D03*
X005155Y003505D03*
X005155Y002835D03*
D14*
X012088Y004292D03*
X012088Y005375D03*
X013088Y005375D03*
X013088Y004292D03*
D15*
X012876Y002776D03*
X012376Y002776D03*
X011754Y002154D03*
X011754Y001654D03*
X011754Y001154D03*
X013376Y002776D03*
D16*
X006990Y007048D03*
X006990Y014017D03*
D17*
X006990Y010532D03*
D18*
G36*
X002021Y006081D02*
X001864Y006352D01*
X002135Y006509D01*
X002292Y006238D01*
X002021Y006081D01*
G37*
G36*
X001510Y005786D02*
X001353Y006057D01*
X001624Y006214D01*
X001781Y005943D01*
X001510Y005786D01*
G37*
D19*
X007046Y001560D03*
X007446Y001560D03*
X007446Y001040D03*
X007046Y001040D03*
D20*
X003370Y003297D03*
X003961Y003297D03*
X004160Y002700D03*
X004160Y002110D03*
X004296Y003996D03*
X003706Y003996D03*
X003598Y004532D03*
X003007Y004532D03*
X003653Y005243D03*
X004243Y005243D03*
D21*
X004982Y005670D02*
X004982Y006280D01*
X004982Y005670D02*
X005730Y005670D01*
X005730Y006339D02*
X005730Y006457D01*
X006340Y006457D01*
X010238Y006457D01*
X011458Y006457D01*
X013250Y006457D01*
X013250Y008229D01*
X006990Y008229D01*
X006990Y010532D01*
X006990Y007048D02*
X004982Y007048D01*
X004982Y007028D01*
D22*
X003643Y007009D01*
X002050Y007009D01*
X002050Y007010D01*
X002050Y007009D02*
X002050Y006295D01*
X002078Y006295D01*
X001567Y006000D02*
X001710Y005760D01*
X004415Y005760D01*
X005160Y005015D01*
X005160Y004687D01*
X005160Y004687D01*
X005165Y004059D02*
X004946Y004059D01*
X004245Y004760D01*
X004245Y005241D01*
X004243Y005243D01*
X004045Y004545D02*
X003610Y004545D01*
X003598Y004532D01*
X004045Y004545D02*
X004296Y004294D01*
X004296Y003996D01*
X003706Y003996D02*
X003370Y003661D01*
X003370Y003297D01*
X003961Y003297D02*
X004160Y003098D01*
X004160Y002700D01*
X004160Y002110D02*
X004507Y002110D01*
X005336Y001280D01*
X005848Y001280D01*
X005848Y000946D01*
X007049Y000946D01*
X007049Y001044D01*
X007446Y001560D01*
X007046Y001560D02*
X007046Y001828D01*
X007049Y001831D01*
X009037Y001831D01*
X009037Y002520D01*
X009037Y002717D02*
X009332Y002717D01*
X009332Y001635D01*
X007974Y001635D01*
X007974Y001280D01*
X007734Y001040D01*
X007446Y001040D01*
X007049Y001044D02*
X007046Y001040D01*
X006517Y001280D02*
X006517Y001831D01*
X007049Y001831D01*
X006145Y002030D02*
X006145Y002990D01*
X005735Y002990D01*
X006145Y002990D02*
X006145Y003310D01*
X006399Y003310D01*
X006399Y003308D01*
X006399Y003505D02*
X005155Y003505D01*
X005155Y002835D02*
X005154Y002405D01*
X005154Y002329D01*
X006145Y002030D02*
X008410Y002030D01*
X008410Y002284D01*
X008407Y002284D01*
X009037Y002914D02*
X009411Y002914D01*
X009706Y002619D01*
X009706Y002324D01*
X009706Y001772D01*
X009844Y001812D01*
X010710Y001812D01*
X010710Y001143D02*
X009844Y001143D01*
X009175Y001143D01*
X009037Y001280D01*
X008643Y001280D01*
X009844Y001143D02*
X009864Y001123D01*
X009037Y002914D02*
X009037Y003111D01*
X009037Y003308D02*
X009332Y003308D01*
X009372Y003269D01*
X009569Y003505D02*
X009037Y003505D01*
X009037Y003702D02*
X009037Y003898D01*
X010120Y003898D01*
X010100Y003859D01*
X010395Y003583D01*
X010395Y003288D01*
X010769Y003859D02*
X010238Y004292D01*
X009903Y004430D02*
X009588Y004095D01*
X009037Y004095D01*
X009037Y004292D02*
X009273Y004292D01*
X010021Y005040D01*
X010218Y005040D01*
X010238Y005020D01*
X010415Y004784D02*
X010631Y004568D01*
X010631Y004430D01*
X010415Y004784D02*
X010415Y006005D01*
X010927Y006005D01*
X011458Y006457D02*
X011458Y004922D01*
X012088Y004292D01*
X010927Y004843D02*
X010927Y005335D01*
X010238Y005355D02*
X010198Y005316D01*
X009785Y005316D01*
X009313Y005788D01*
X009155Y005788D01*
X009450Y006182D02*
X009864Y005749D01*
X009450Y006182D02*
X008486Y006182D01*
X008486Y005788D01*
X008210Y005788D01*
X008210Y004922D01*
X008407Y004922D02*
X008407Y005198D01*
X009313Y005198D01*
X009490Y005020D01*
X008486Y005788D02*
X007876Y005788D01*
X008013Y005207D02*
X007226Y005207D01*
X006335Y005207D01*
X005917Y005207D01*
X005890Y005180D01*
X005830Y004687D02*
X006399Y004687D01*
X006399Y004686D01*
X006399Y004489D02*
X006265Y004489D01*
X005835Y004059D01*
X006335Y005207D02*
X006340Y006457D01*
X006694Y005788D02*
X007206Y005788D01*
X007226Y005207D02*
X007226Y004922D01*
X007817Y004922D02*
X007817Y003741D01*
X007718Y003603D01*
X008013Y004922D02*
X008013Y005207D01*
X008486Y005788D02*
X008486Y005808D01*
X009037Y003898D02*
X009057Y003702D01*
X011754Y002154D02*
X011754Y002146D01*
X003653Y005243D02*
X003649Y005240D01*
X003235Y005240D01*
X003007Y005012D01*
X003007Y004532D01*
D23*
X010238Y004292D02*
X010238Y005020D01*
X010238Y005355D01*
X010238Y006457D01*
D24*
X009864Y005749D03*
X009490Y005020D03*
X009903Y004430D03*
X010631Y004430D03*
X010927Y004843D03*
X010395Y003288D03*
X009706Y002324D03*
X009175Y001143D03*
X007718Y003603D03*
X005890Y005180D03*
X006694Y005788D03*
X004982Y006280D03*
X005735Y002990D03*
X005154Y002329D03*
X005336Y001280D03*
X013446Y014017D03*
D25*
X006990Y014017D01*
X004982Y007028D02*
X004982Y006280D01*
D26*
X009372Y003269D02*
X010218Y002442D01*
X011439Y002442D01*
X011754Y002146D01*
X011754Y001654D01*
X011754Y001154D01*
X012376Y002776D02*
X010297Y002776D01*
X009569Y003505D01*
X012376Y002776D02*
X012876Y002776D01*
X013376Y002776D01*
M02*
