%
M48
M72
T01C0.0360
T02C0.0400
%
T01
X6000Y1500
X7000Y1500
X8000Y1500
X9000Y1500
X10000Y1500
X11000Y1500
X12000Y1500
X13000Y1500
X14000Y1500
X15000Y1500
X15000Y19500
X14000Y19500
X13000Y19500
X12000Y19500
X11000Y19500
X10000Y19500
X9000Y19500
X8000Y19500
X7000Y19500
X6000Y19500
T02
X3050Y17500
X2950Y16500
X2050Y16500
X1950Y15500
X2050Y14500
X2950Y14500
X3050Y15500
X1950Y17500
X2050Y18500
X2950Y18500
X13106Y16513
X13104Y15607
X14104Y15507
X15104Y15607
X15106Y16513
X14106Y16613
X17000Y19550
X18000Y19450
X19000Y19550
M30
