G75*
G70*
%OFA0B0*%
%FSLAX24Y24*%
%IPPOS*%
%LPD*%
%AMOC8*
5,1,8,0,0,1.08239X$1,22.5*
%
%ADD10R,0.0024X0.0006*%
%ADD11R,0.0084X0.0006*%
%ADD12R,0.0132X0.0006*%
%ADD13R,0.0174X0.0006*%
%ADD14R,0.0222X0.0006*%
%ADD15R,0.0264X0.0006*%
%ADD16R,0.0306X0.0006*%
%ADD17R,0.0342X0.0006*%
%ADD18R,0.0378X0.0006*%
%ADD19R,0.0420X0.0006*%
%ADD20R,0.0456X0.0006*%
%ADD21R,0.0492X0.0006*%
%ADD22R,0.0534X0.0006*%
%ADD23R,0.0570X0.0006*%
%ADD24R,0.0600X0.0006*%
%ADD25R,0.0636X0.0006*%
%ADD26R,0.0678X0.0006*%
%ADD27R,0.0714X0.0006*%
%ADD28R,0.0744X0.0006*%
%ADD29R,0.0780X0.0006*%
%ADD30R,0.0816X0.0006*%
%ADD31R,0.0858X0.0006*%
%ADD32R,0.0894X0.0006*%
%ADD33R,0.0924X0.0006*%
%ADD34R,0.0960X0.0006*%
%ADD35R,0.0996X0.0006*%
%ADD36R,0.1038X0.0006*%
%ADD37R,0.1068X0.0006*%
%ADD38R,0.1104X0.0006*%
%ADD39R,0.1140X0.0006*%
%ADD40R,0.1182X0.0006*%
%ADD41R,0.1212X0.0006*%
%ADD42R,0.1248X0.0006*%
%ADD43R,0.1284X0.0006*%
%ADD44R,0.0156X0.0006*%
%ADD45R,0.1092X0.0006*%
%ADD46R,0.0162X0.0006*%
%ADD47R,0.1074X0.0006*%
%ADD48R,0.1074X0.0006*%
%ADD49R,0.1080X0.0006*%
%ADD50R,0.0150X0.0006*%
%ADD51R,0.1050X0.0006*%
%ADD52R,0.1014X0.0006*%
%ADD53R,0.0990X0.0006*%
%ADD54R,0.0966X0.0006*%
%ADD55R,0.0948X0.0006*%
%ADD56R,0.0918X0.0006*%
%ADD57R,0.0888X0.0006*%
%ADD58R,0.0840X0.0006*%
%ADD59R,0.0810X0.0006*%
%ADD60R,0.0774X0.0006*%
%ADD61R,0.0750X0.0006*%
%ADD62R,0.0720X0.0006*%
%ADD63R,0.0690X0.0006*%
%ADD64R,0.0660X0.0006*%
%ADD65R,0.0630X0.0006*%
%ADD66R,0.0510X0.0006*%
%ADD67R,0.0480X0.0006*%
%ADD68R,0.0450X0.0006*%
%ADD69R,0.0144X0.0006*%
%ADD70R,0.0414X0.0006*%
%ADD71R,0.0384X0.0006*%
%ADD72R,0.0354X0.0006*%
%ADD73R,0.0324X0.0006*%
%ADD74R,0.0288X0.0006*%
%ADD75R,0.0144X0.0006*%
%ADD76R,0.0294X0.0006*%
%ADD77R,0.0300X0.0006*%
%ADD78R,0.0312X0.0006*%
%ADD79R,0.0318X0.0006*%
%ADD80R,0.0330X0.0006*%
%ADD81R,0.0342X0.0006*%
%ADD82R,0.0348X0.0006*%
%ADD83R,0.0198X0.0006*%
%ADD84R,0.0204X0.0006*%
%ADD85R,0.0162X0.0006*%
%ADD86R,0.0204X0.0006*%
%ADD87R,0.0036X0.0006*%
%ADD88R,0.0006X0.0006*%
%ADD89R,0.0126X0.0006*%
%ADD90R,0.0096X0.0006*%
%ADD91R,0.1404X0.0006*%
%ADD92R,0.0138X0.0006*%
%ADD93R,0.1350X0.0006*%
%ADD94R,0.1044X0.0006*%
%ADD95R,0.0108X0.0006*%
%ADD96R,0.0168X0.0006*%
%ADD97R,0.1482X0.0006*%
%ADD98R,0.1428X0.0006*%
%ADD99R,0.1134X0.0006*%
%ADD100R,0.0192X0.0006*%
%ADD101R,0.0240X0.0006*%
%ADD102R,0.1524X0.0006*%
%ADD103R,0.0186X0.0006*%
%ADD104R,0.0228X0.0006*%
%ADD105R,0.1488X0.0006*%
%ADD106R,0.1194X0.0006*%
%ADD107R,0.0210X0.0006*%
%ADD108R,0.0216X0.0006*%
%ADD109R,0.1566X0.0006*%
%ADD110R,0.0252X0.0006*%
%ADD111R,0.1530X0.0006*%
%ADD112R,0.1242X0.0006*%
%ADD113R,0.0282X0.0006*%
%ADD114R,0.1596X0.0006*%
%ADD115R,0.0276X0.0006*%
%ADD116R,0.1572X0.0006*%
%ADD117R,0.1290X0.0006*%
%ADD118R,0.0234X0.0006*%
%ADD119R,0.1620X0.0006*%
%ADD120R,0.0294X0.0006*%
%ADD121R,0.1602X0.0006*%
%ADD122R,0.1326X0.0006*%
%ADD123R,0.0246X0.0006*%
%ADD124R,0.1644X0.0006*%
%ADD125R,0.0312X0.0006*%
%ADD126R,0.1626X0.0006*%
%ADD127R,0.1362X0.0006*%
%ADD128R,0.0258X0.0006*%
%ADD129R,0.1662X0.0006*%
%ADD130R,0.1650X0.0006*%
%ADD131R,0.1398X0.0006*%
%ADD132R,0.1680X0.0006*%
%ADD133R,0.0336X0.0006*%
%ADD134R,0.1668X0.0006*%
%ADD135R,0.1422X0.0006*%
%ADD136R,0.0270X0.0006*%
%ADD137R,0.1692X0.0006*%
%ADD138R,0.0354X0.0006*%
%ADD139R,0.1692X0.0006*%
%ADD140R,0.1458X0.0006*%
%ADD141R,0.0366X0.0006*%
%ADD142R,0.1710X0.0006*%
%ADD143R,0.0360X0.0006*%
%ADD144R,0.1482X0.0006*%
%ADD145R,0.1722X0.0006*%
%ADD146R,0.0372X0.0006*%
%ADD147R,0.1728X0.0006*%
%ADD148R,0.1506X0.0006*%
%ADD149R,0.1734X0.0006*%
%ADD150R,0.0384X0.0006*%
%ADD151R,0.1740X0.0006*%
%ADD152R,0.0402X0.0006*%
%ADD153R,0.1746X0.0006*%
%ADD154R,0.0396X0.0006*%
%ADD155R,0.1752X0.0006*%
%ADD156R,0.1548X0.0006*%
%ADD157R,0.0192X0.0006*%
%ADD158R,0.1758X0.0006*%
%ADD159R,0.0408X0.0006*%
%ADD160R,0.1764X0.0006*%
%ADD161R,0.1770X0.0006*%
%ADD162R,0.1776X0.0006*%
%ADD163R,0.1584X0.0006*%
%ADD164R,0.0282X0.0006*%
%ADD165R,0.0432X0.0006*%
%ADD166R,0.1782X0.0006*%
%ADD167R,0.0432X0.0006*%
%ADD168R,0.1794X0.0006*%
%ADD169R,0.1608X0.0006*%
%ADD170R,0.0438X0.0006*%
%ADD171R,0.1788X0.0006*%
%ADD172R,0.1800X0.0006*%
%ADD173R,0.1812X0.0006*%
%ADD174R,0.0462X0.0006*%
%ADD175R,0.1806X0.0006*%
%ADD176R,0.1824X0.0006*%
%ADD177R,0.1662X0.0006*%
%ADD178R,0.0468X0.0006*%
%ADD179R,0.1830X0.0006*%
%ADD180R,0.1674X0.0006*%
%ADD181R,0.1824X0.0006*%
%ADD182R,0.0474X0.0006*%
%ADD183R,0.1836X0.0006*%
%ADD184R,0.0486X0.0006*%
%ADD185R,0.1848X0.0006*%
%ADD186R,0.0492X0.0006*%
%ADD187R,0.0498X0.0006*%
%ADD188R,0.1854X0.0006*%
%ADD189R,0.0504X0.0006*%
%ADD190R,0.1842X0.0006*%
%ADD191R,0.1860X0.0006*%
%ADD192R,0.1866X0.0006*%
%ADD193R,0.0516X0.0006*%
%ADD194R,0.1854X0.0006*%
%ADD195R,0.0522X0.0006*%
%ADD196R,0.1872X0.0006*%
%ADD197R,0.0528X0.0006*%
%ADD198R,0.1878X0.0006*%
%ADD199R,0.1884X0.0006*%
%ADD200R,0.0540X0.0006*%
%ADD201R,0.1890X0.0006*%
%ADD202R,0.1794X0.0006*%
%ADD203R,0.1872X0.0006*%
%ADD204R,0.0546X0.0006*%
%ADD205R,0.1896X0.0006*%
%ADD206R,0.0552X0.0006*%
%ADD207R,0.1812X0.0006*%
%ADD208R,0.0552X0.0006*%
%ADD209R,0.0558X0.0006*%
%ADD210R,0.0564X0.0006*%
%ADD211R,0.1902X0.0006*%
%ADD212R,0.1884X0.0006*%
%ADD213R,0.0576X0.0006*%
%ADD214R,0.1908X0.0006*%
%ADD215R,0.0582X0.0006*%
%ADD216R,0.0588X0.0006*%
%ADD217R,0.0582X0.0006*%
%ADD218R,0.1902X0.0006*%
%ADD219R,0.1914X0.0006*%
%ADD220R,0.0594X0.0006*%
%ADD221R,0.1920X0.0006*%
%ADD222R,0.0504X0.0006*%
%ADD223R,0.0462X0.0006*%
%ADD224R,0.0444X0.0006*%
%ADD225R,0.0402X0.0006*%
%ADD226R,0.0414X0.0006*%
%ADD227R,0.0390X0.0006*%
%ADD228R,0.0372X0.0006*%
%ADD229R,0.0324X0.0006*%
%ADD230R,0.0594X0.0006*%
%ADD231R,0.0882X0.0006*%
%ADD232R,0.0870X0.0006*%
%ADD233R,0.0852X0.0006*%
%ADD234R,0.0828X0.0006*%
%ADD235R,0.0822X0.0006*%
%ADD236R,0.0798X0.0006*%
%ADD237R,0.0792X0.0006*%
%ADD238R,0.0768X0.0006*%
%ADD239R,0.0762X0.0006*%
%ADD240R,0.0732X0.0006*%
%ADD241R,0.0702X0.0006*%
%ADD242R,0.0696X0.0006*%
%ADD243R,0.0684X0.0006*%
%ADD244R,0.0672X0.0006*%
%ADD245R,0.0666X0.0006*%
%ADD246R,0.0654X0.0006*%
%ADD247R,0.0180X0.0006*%
%ADD248R,0.0648X0.0006*%
%ADD249R,0.0174X0.0006*%
%ADD250R,0.0618X0.0006*%
%ADD251R,0.0612X0.0006*%
%ADD252R,0.0606X0.0006*%
%ADD253R,0.0624X0.0006*%
%ADD254R,0.0444X0.0006*%
%ADD255R,0.0642X0.0006*%
%ADD256R,0.0900X0.0006*%
%ADD257R,0.0864X0.0006*%
%ADD258R,0.1950X0.0006*%
%ADD259R,0.0846X0.0006*%
%ADD260R,0.0708X0.0006*%
%ADD261R,0.1944X0.0006*%
%ADD262R,0.0834X0.0006*%
%ADD263R,0.0726X0.0006*%
%ADD264R,0.1938X0.0006*%
%ADD265R,0.0738X0.0006*%
%ADD266R,0.0804X0.0006*%
%ADD267R,0.1260X0.0006*%
%ADD268R,0.1932X0.0006*%
%ADD269R,0.0756X0.0006*%
%ADD270R,0.1440X0.0006*%
%ADD271R,0.1926X0.0006*%
%ADD272R,0.0786X0.0006*%
%ADD273R,0.1494X0.0006*%
%ADD274R,0.1584X0.0006*%
%ADD275R,0.1614X0.0006*%
%ADD276R,0.1632X0.0006*%
%ADD277R,0.1638X0.0006*%
%ADD278R,0.1644X0.0006*%
%ADD279R,0.0876X0.0006*%
%ADD280R,0.1656X0.0006*%
%ADD281R,0.0522X0.0006*%
%ADD282R,0.1722X0.0006*%
%ADD283R,0.1698X0.0006*%
%ADD284R,0.1614X0.0006*%
%ADD285R,0.1602X0.0006*%
%ADD286R,0.1578X0.0006*%
%ADD287R,0.1590X0.0006*%
%ADD288R,0.1512X0.0006*%
%ADD289R,0.1470X0.0006*%
%ADD290R,0.1554X0.0006*%
%ADD291R,0.1536X0.0006*%
%ADD292R,0.1518X0.0006*%
%ADD293R,0.0936X0.0006*%
%ADD294R,0.1494X0.0006*%
%ADD295R,0.1476X0.0006*%
%ADD296R,0.0984X0.0006*%
%ADD297R,0.1446X0.0006*%
%ADD298R,0.1032X0.0006*%
%ADD299R,0.1056X0.0006*%
%ADD300R,0.0882X0.0006*%
%ADD301R,0.0852X0.0006*%
%ADD302R,0.0426X0.0006*%
%ADD303R,0.0942X0.0006*%
%ADD304R,0.0978X0.0006*%
%ADD305R,0.0564X0.0006*%
%ADD306R,0.1002X0.0006*%
%ADD307R,0.0894X0.0006*%
%ADD308R,0.1818X0.0006*%
%ADD309R,0.1374X0.0006*%
%ADD310R,0.1020X0.0006*%
%ADD311R,0.1392X0.0006*%
%ADD312R,0.1410X0.0006*%
%ADD313R,0.0906X0.0006*%
%ADD314R,0.0912X0.0006*%
%ADD315R,0.1416X0.0006*%
%ADD316R,0.1422X0.0006*%
%ADD317R,0.1086X0.0006*%
%ADD318R,0.0930X0.0006*%
%ADD319R,0.1098X0.0006*%
%ADD320R,0.1386X0.0006*%
%ADD321R,0.0132X0.0006*%
%ADD322R,0.1380X0.0006*%
%ADD323R,0.0222X0.0006*%
%ADD324R,0.0474X0.0006*%
%ADD325R,0.1368X0.0006*%
%ADD326R,0.1362X0.0006*%
%ADD327R,0.1356X0.0006*%
%ADD328R,0.0078X0.0006*%
%ADD329R,0.1344X0.0006*%
%ADD330R,0.1338X0.0006*%
%ADD331R,0.1332X0.0006*%
%ADD332R,0.1314X0.0006*%
%ADD333R,0.1308X0.0006*%
%ADD334R,0.1296X0.0006*%
%ADD335R,0.1782X0.0006*%
%ADD336R,0.1278X0.0006*%
%ADD337R,0.1266X0.0006*%
%ADD338R,0.1752X0.0006*%
%ADD339R,0.1236X0.0006*%
%ADD340R,0.1224X0.0006*%
%ADD341R,0.1062X0.0006*%
%ADD342R,0.1188X0.0006*%
%ADD343R,0.1674X0.0006*%
%ADD344R,0.1170X0.0006*%
%ADD345R,0.0252X0.0006*%
%ADD346R,0.1146X0.0006*%
%ADD347R,0.1026X0.0006*%
%ADD348R,0.1128X0.0006*%
%ADD349R,0.1008X0.0006*%
%ADD350R,0.1104X0.0006*%
%ADD351R,0.0984X0.0006*%
%ADD352R,0.1560X0.0006*%
%ADD353R,0.0090X0.0006*%
%ADD354R,0.1044X0.0006*%
%ADD355R,0.0012X0.0006*%
%ADD356R,0.1524X0.0006*%
%ADD357R,0.0042X0.0006*%
%ADD358R,0.0942X0.0006*%
%ADD359R,0.0114X0.0006*%
%ADD360R,0.0102X0.0006*%
%ADD361R,0.1320X0.0006*%
%ADD362R,0.1374X0.0006*%
%ADD363R,0.1392X0.0006*%
%ADD364R,0.0066X0.0006*%
%ADD365R,0.0534X0.0006*%
%ADD366R,0.0072X0.0006*%
%ADD367R,0.0030X0.0006*%
%ADD368R,0.1302X0.0006*%
%ADD369R,0.1272X0.0006*%
%ADD370R,0.1218X0.0006*%
%ADD371R,0.1206X0.0006*%
%ADD372R,0.1158X0.0006*%
%ADD373R,0.0060X0.0006*%
%ADD374R,0.0612X0.0006*%
%ADD375R,0.0672X0.0006*%
%ADD376R,0.0234X0.0006*%
%ADD377R,0.0054X0.0006*%
%ADD378R,0.0072X0.0006*%
%ADD379R,0.0120X0.0006*%
%ADD380R,0.0102X0.0006*%
%ADD381R,0.0114X0.0006*%
%ADD382R,0.0042X0.0006*%
%ADD383R,0.0024X0.0006*%
%ADD384R,0.0048X0.0006*%
%ADD385R,0.0018X0.0006*%
%ADD386R,0.0012X0.0006*%
%ADD387C,0.0000*%
D10*
X009515Y010386D03*
X015497Y007704D03*
D11*
X015503Y007710D03*
X017885Y010854D03*
X016841Y011436D03*
X012851Y012690D03*
X010553Y012990D03*
D12*
X009563Y013044D03*
X009455Y013338D03*
X012863Y012672D03*
X014669Y012378D03*
X015359Y012048D03*
X015509Y012984D03*
X016235Y011454D03*
X016043Y010164D03*
X016049Y010140D03*
X016049Y010134D03*
X016055Y010110D03*
X016073Y010038D03*
X016073Y010032D03*
X016073Y010026D03*
X016079Y010008D03*
X016079Y010002D03*
X016079Y009996D03*
X016085Y009984D03*
X016085Y009978D03*
X016085Y009972D03*
X016085Y009966D03*
X016103Y009906D03*
X016103Y009900D03*
X016103Y009894D03*
X016103Y009888D03*
X016103Y009882D03*
X016109Y009876D03*
X016109Y009870D03*
X016109Y009864D03*
X016109Y009858D03*
X016115Y009852D03*
X016115Y009846D03*
X016115Y009840D03*
X016115Y009834D03*
X016115Y009828D03*
X016133Y009768D03*
X016133Y009762D03*
X016133Y009756D03*
X016133Y009750D03*
X016139Y009744D03*
X016139Y009738D03*
X016139Y009732D03*
X016139Y009726D03*
X017879Y010848D03*
X015509Y007716D03*
X002543Y010398D03*
D13*
X015524Y007722D03*
D14*
X015536Y007728D03*
X017186Y009924D03*
X017192Y009930D03*
X017702Y010572D03*
X016226Y011190D03*
X016562Y012612D03*
X013706Y010380D03*
X007376Y010374D03*
X007376Y008376D03*
D15*
X007373Y008412D03*
X007373Y008418D03*
X007373Y008424D03*
X007373Y010326D03*
X007373Y010332D03*
X007373Y010338D03*
X004691Y010008D03*
X004673Y010218D03*
X004703Y009750D03*
X004703Y008412D03*
X004163Y008370D03*
X002543Y010356D03*
X010493Y012726D03*
X011387Y013110D03*
X011405Y013320D03*
X012107Y012486D03*
X012107Y012480D03*
X012107Y012474D03*
X012107Y012468D03*
X012107Y012462D03*
X012107Y012456D03*
X012107Y012294D03*
X012107Y012288D03*
X012107Y012282D03*
X012107Y012276D03*
X012107Y012270D03*
X012107Y012264D03*
X012875Y012438D03*
X012893Y012618D03*
X013703Y012336D03*
X013901Y012726D03*
X014765Y011868D03*
X015401Y012018D03*
X016235Y011700D03*
X016235Y011694D03*
X016235Y011508D03*
X016235Y011502D03*
X016235Y011496D03*
X016913Y011388D03*
X016895Y011172D03*
X015941Y010296D03*
X015275Y010224D03*
X015221Y009348D03*
X013703Y008418D03*
X013703Y008412D03*
X015551Y007734D03*
X017147Y009900D03*
X015557Y012942D03*
D16*
X015566Y012912D03*
X015566Y012906D03*
X015560Y012894D03*
X015560Y012888D03*
X015536Y012786D03*
X015536Y012780D03*
X015536Y012774D03*
X015404Y011970D03*
X015404Y011964D03*
X015404Y011958D03*
X015404Y011952D03*
X015404Y011946D03*
X015398Y011940D03*
X015398Y011934D03*
X015398Y011928D03*
X015398Y011922D03*
X015398Y011916D03*
X015392Y011910D03*
X015392Y011904D03*
X015392Y011898D03*
X015392Y011892D03*
X015392Y011886D03*
X015386Y011868D03*
X015386Y011862D03*
X015386Y011856D03*
X015068Y011220D03*
X015302Y010410D03*
X015296Y010398D03*
X015296Y010392D03*
X015296Y010386D03*
X015290Y010368D03*
X015272Y010290D03*
X015272Y010284D03*
X015272Y010278D03*
X015272Y010272D03*
X015266Y010266D03*
X015266Y010260D03*
X015266Y010254D03*
X015932Y010260D03*
X016214Y011052D03*
X016214Y011058D03*
X016214Y011064D03*
X016214Y011070D03*
X016214Y011076D03*
X016892Y011220D03*
X016892Y011226D03*
X016892Y011232D03*
X016892Y011238D03*
X016898Y011244D03*
X016898Y011250D03*
X016898Y011256D03*
X016898Y011262D03*
X016904Y011280D03*
X016904Y011286D03*
X016904Y011292D03*
X016904Y011298D03*
X016910Y011304D03*
X016910Y011310D03*
X016910Y011316D03*
X016910Y011322D03*
X016916Y011340D03*
X013892Y012762D03*
X013898Y012786D03*
X013898Y012792D03*
X013898Y012798D03*
X013898Y012804D03*
X013904Y012816D03*
X013904Y012822D03*
X013904Y012828D03*
X013904Y012834D03*
X013910Y012846D03*
X013910Y012852D03*
X013910Y012858D03*
X013910Y012864D03*
X013916Y012876D03*
X013916Y012882D03*
X013916Y012888D03*
X013700Y012258D03*
X013706Y012222D03*
X013706Y012216D03*
X013706Y012210D03*
X013706Y012204D03*
X013706Y012198D03*
X012872Y012462D03*
X012902Y012588D03*
X012902Y012594D03*
X011384Y013146D03*
X011384Y013152D03*
X011390Y013170D03*
X011390Y013176D03*
X011390Y013182D03*
X011390Y013188D03*
X011396Y013200D03*
X011396Y013206D03*
X011396Y013212D03*
X011402Y013230D03*
X011402Y013236D03*
X011402Y013242D03*
X011402Y013248D03*
X011408Y013254D03*
X011408Y013260D03*
X011408Y013266D03*
X010472Y012906D03*
X010472Y012900D03*
X010478Y012882D03*
X010478Y012876D03*
X010478Y012870D03*
X010484Y012858D03*
X010484Y012852D03*
X010484Y012846D03*
X010484Y012840D03*
X010484Y012834D03*
X010490Y012822D03*
X010490Y012816D03*
X010490Y012810D03*
X010490Y012804D03*
X010496Y012786D03*
X010496Y012780D03*
X010496Y012774D03*
X010124Y012282D03*
X010118Y012264D03*
X010118Y012258D03*
X010118Y012252D03*
X010118Y012246D03*
X010112Y012240D03*
X010112Y012234D03*
X010112Y012228D03*
X010112Y012222D03*
X010106Y012204D03*
X010106Y012198D03*
X010106Y012192D03*
X010106Y012186D03*
X010100Y012174D03*
X010100Y012168D03*
X010100Y012162D03*
X010100Y012156D03*
X009506Y013170D03*
X008642Y009894D03*
X010862Y009072D03*
X010862Y009066D03*
X010862Y009060D03*
X010862Y009054D03*
X010862Y009048D03*
X010862Y008832D03*
X010862Y008826D03*
X010862Y008820D03*
X010862Y008814D03*
X011390Y008772D03*
X011390Y008766D03*
X011396Y008754D03*
X011384Y009036D03*
X011384Y009042D03*
X011390Y009054D03*
X011390Y009060D03*
X013082Y008748D03*
X013082Y008742D03*
X013082Y009546D03*
X013082Y009552D03*
X015566Y007740D03*
X005210Y008778D03*
X005210Y008784D03*
X005210Y008790D03*
X005210Y009540D03*
X005210Y009546D03*
X004694Y010050D03*
X004694Y010056D03*
X004694Y010062D03*
X004688Y010080D03*
X004688Y010086D03*
X004682Y010110D03*
X004682Y010116D03*
X004676Y010134D03*
X004676Y010140D03*
X004676Y010146D03*
X004670Y010158D03*
X004670Y010164D03*
X004670Y010170D03*
X002546Y009186D03*
X002546Y009180D03*
X002546Y009174D03*
X002546Y009168D03*
X002546Y009162D03*
D17*
X004148Y008400D03*
X005234Y008724D03*
X005240Y009606D03*
X004100Y010356D03*
X009218Y009996D03*
X009224Y010008D03*
X010838Y009144D03*
X010844Y008748D03*
X011420Y008712D03*
X011414Y009108D03*
X011420Y009114D03*
X013058Y008694D03*
X013058Y009594D03*
X015074Y011250D03*
X015074Y011256D03*
X015584Y007746D03*
D18*
X015596Y007752D03*
X013034Y008664D03*
X013034Y009624D03*
X011450Y008682D03*
X010820Y008712D03*
X010814Y009174D03*
X010808Y009180D03*
X008624Y009864D03*
X005264Y009630D03*
X004088Y010338D03*
X004136Y008418D03*
X017792Y010806D03*
D19*
X015611Y007758D03*
X013007Y008646D03*
X010793Y008688D03*
X010781Y009204D03*
X009263Y009588D03*
X008603Y009840D03*
X008627Y008442D03*
X005291Y009648D03*
X004073Y010314D03*
X004121Y008442D03*
D20*
X004061Y010296D03*
X008585Y009816D03*
X009287Y009570D03*
X008603Y008466D03*
X015629Y007764D03*
X016151Y010416D03*
D21*
X016187Y010428D03*
X015647Y007770D03*
X008561Y009792D03*
D22*
X008522Y009756D03*
X009332Y009558D03*
X008552Y008520D03*
X010730Y008652D03*
X015662Y007776D03*
X017306Y008154D03*
X016226Y010440D03*
X017726Y010776D03*
D23*
X017288Y008148D03*
X015680Y007782D03*
X008498Y008562D03*
X007982Y009426D03*
X007952Y009408D03*
X007910Y009384D03*
X007880Y009366D03*
X007868Y009360D03*
X007850Y009348D03*
X007838Y009342D03*
X008024Y009450D03*
X008360Y009648D03*
X008390Y009666D03*
X008420Y009684D03*
X008450Y009702D03*
X008462Y009708D03*
X008468Y009714D03*
X003956Y010194D03*
X003950Y010188D03*
X003974Y008580D03*
X003980Y008574D03*
X003992Y008568D03*
D24*
X003005Y009186D03*
X002693Y009384D03*
X002693Y009396D03*
X007529Y009144D03*
X007841Y008952D03*
X007853Y008946D03*
X010697Y008646D03*
X015695Y007788D03*
X017267Y008142D03*
X016913Y009810D03*
X017699Y010764D03*
D25*
X016349Y010476D03*
X015413Y009432D03*
X015713Y007794D03*
X007547Y009120D03*
D26*
X007568Y009210D03*
X002732Y009336D03*
X015728Y007800D03*
D27*
X015746Y007806D03*
X015458Y009450D03*
X007586Y009072D03*
X002750Y009312D03*
D28*
X007601Y009054D03*
X009437Y009546D03*
X015473Y009456D03*
X015761Y007812D03*
D29*
X015779Y007818D03*
X017615Y010728D03*
X007619Y009030D03*
X002783Y009270D03*
D30*
X002801Y009246D03*
X007637Y009294D03*
X009479Y009540D03*
X015515Y009474D03*
X015797Y007824D03*
D31*
X015812Y007830D03*
X017090Y008088D03*
X016184Y009624D03*
X015908Y009564D03*
X015878Y009558D03*
X007658Y009318D03*
X007658Y008982D03*
X002822Y009570D03*
D32*
X002840Y009198D03*
X015830Y007836D03*
D33*
X015845Y007842D03*
D34*
X015863Y007848D03*
X016727Y009732D03*
X017531Y010692D03*
D35*
X015881Y007854D03*
X012275Y009942D03*
D36*
X013886Y009906D03*
X013892Y009690D03*
X015896Y007860D03*
X016934Y008046D03*
X009938Y010374D03*
D37*
X013889Y009882D03*
X013889Y009714D03*
X013889Y009708D03*
X015911Y007866D03*
X016223Y007920D03*
X016259Y007926D03*
X016295Y007932D03*
X016331Y007938D03*
X016361Y007944D03*
X016397Y007950D03*
X016745Y008010D03*
X016883Y008034D03*
D38*
X015929Y007872D03*
X013889Y009798D03*
X013889Y009804D03*
X009929Y010362D03*
D39*
X015947Y007878D03*
D40*
X015962Y007884D03*
D41*
X015977Y007890D03*
X012347Y009894D03*
D42*
X012365Y009876D03*
X009893Y010314D03*
X015995Y007896D03*
D43*
X016013Y007902D03*
D44*
X015449Y007908D03*
X015443Y007920D03*
X015443Y007926D03*
X015443Y007932D03*
X015443Y007938D03*
X015437Y007944D03*
X015437Y007950D03*
X015437Y007956D03*
X015437Y007962D03*
X015431Y007974D03*
X015431Y007980D03*
X015431Y007986D03*
X015425Y008004D03*
X015425Y008010D03*
X015419Y008034D03*
X015413Y008064D03*
X015329Y008490D03*
X015311Y008586D03*
X015305Y008616D03*
X015191Y009192D03*
X015191Y009198D03*
X015185Y009222D03*
X015185Y009228D03*
X015179Y009252D03*
X015179Y009258D03*
X015179Y009264D03*
X015173Y009288D03*
X015173Y009294D03*
X015173Y009300D03*
X015173Y009318D03*
X015311Y010182D03*
X014819Y011892D03*
X015575Y012690D03*
X017945Y010620D03*
X017945Y010614D03*
X017945Y010608D03*
X017951Y010596D03*
X017951Y010590D03*
X017951Y010584D03*
X017951Y010578D03*
X017951Y010572D03*
X017951Y010566D03*
X017957Y010560D03*
X017957Y010554D03*
X017957Y010548D03*
X017957Y010542D03*
X017957Y010536D03*
X017957Y010530D03*
X017957Y010524D03*
X017963Y010518D03*
X017963Y010512D03*
X017963Y010506D03*
X017963Y010500D03*
X017963Y010494D03*
X017963Y010488D03*
X017969Y010476D03*
X017969Y010470D03*
X017969Y010464D03*
X017969Y010458D03*
X017969Y010452D03*
X017969Y010446D03*
X017975Y010434D03*
X017975Y010428D03*
X017975Y010422D03*
X017975Y010416D03*
X017975Y010410D03*
X017981Y010398D03*
X017981Y010392D03*
X017981Y010386D03*
X017981Y010380D03*
X017981Y010374D03*
X017981Y010368D03*
X017987Y010356D03*
X017987Y010350D03*
X017987Y010344D03*
X017987Y010338D03*
X017987Y010332D03*
X017993Y010314D03*
X017993Y010308D03*
X017993Y010302D03*
X017993Y010296D03*
X017993Y010290D03*
X017999Y010278D03*
X017999Y010272D03*
X017999Y010266D03*
X017999Y010260D03*
X017999Y010254D03*
X018005Y010236D03*
X018005Y010230D03*
X018005Y010224D03*
X018005Y010218D03*
X018005Y010212D03*
X018011Y010200D03*
X018011Y010194D03*
X018011Y010188D03*
X018011Y010182D03*
X018011Y010176D03*
X018017Y010158D03*
X018017Y010152D03*
X018017Y010146D03*
X018017Y010140D03*
X018017Y010134D03*
X018023Y010116D03*
X018023Y010110D03*
X018023Y010104D03*
X018023Y010098D03*
X018029Y010080D03*
X018029Y010074D03*
X018029Y010068D03*
X018029Y010062D03*
X018029Y010056D03*
X018035Y010044D03*
X018035Y010038D03*
X018035Y010032D03*
X018035Y010026D03*
X018035Y010020D03*
X018041Y010002D03*
X018041Y009996D03*
X018041Y009990D03*
X018041Y009984D03*
X018041Y009978D03*
X018047Y009966D03*
X018047Y009960D03*
X018047Y009954D03*
X018047Y009948D03*
X018047Y009942D03*
X018053Y009924D03*
X018053Y009918D03*
X018053Y009912D03*
X018053Y009906D03*
X018053Y009900D03*
X018059Y009888D03*
X018059Y009882D03*
X018059Y009876D03*
X018059Y009870D03*
X018059Y009864D03*
X018065Y009846D03*
X018065Y009840D03*
X018065Y009834D03*
X018065Y009828D03*
X018065Y009822D03*
X018071Y009810D03*
X018071Y009804D03*
X018071Y009798D03*
X018071Y009792D03*
X018071Y009786D03*
X018077Y009774D03*
X018077Y009768D03*
X018077Y009762D03*
X018077Y009756D03*
X018077Y009750D03*
X018077Y009744D03*
X018083Y009732D03*
X018083Y009726D03*
X018083Y009720D03*
X018083Y009714D03*
X018083Y009708D03*
X018089Y009696D03*
X018089Y009690D03*
X018089Y009684D03*
X018089Y009678D03*
X018089Y009672D03*
X018089Y009666D03*
X018095Y009654D03*
X018095Y009648D03*
X018095Y009642D03*
X018095Y009636D03*
X018095Y009630D03*
X018101Y009618D03*
X018101Y009612D03*
X018101Y009606D03*
X018101Y009600D03*
X018101Y009594D03*
X018101Y009588D03*
X018107Y009576D03*
X018107Y009570D03*
X018107Y009564D03*
X018107Y009558D03*
X018107Y009552D03*
X018113Y009540D03*
X018113Y009534D03*
X018113Y009528D03*
X018113Y009522D03*
X018113Y009516D03*
X018113Y009510D03*
X018119Y009498D03*
X018119Y009492D03*
X018119Y009486D03*
X018119Y009480D03*
X018119Y009474D03*
X018125Y009462D03*
X018125Y009456D03*
X018125Y009450D03*
X018125Y009444D03*
X018125Y009438D03*
X018125Y009432D03*
X018131Y009420D03*
X018131Y009414D03*
X018131Y009408D03*
X018131Y009402D03*
X018131Y009396D03*
X018137Y009384D03*
X018137Y009378D03*
X018137Y009372D03*
X018137Y009366D03*
X018137Y009360D03*
X018143Y009342D03*
X018143Y009336D03*
X018143Y009330D03*
X018143Y009324D03*
X018143Y009318D03*
X018149Y009300D03*
X018149Y009294D03*
X018149Y009288D03*
X018149Y009282D03*
X018155Y009264D03*
X018155Y009258D03*
X018155Y009252D03*
X018155Y009246D03*
X018155Y009240D03*
X018161Y009216D03*
X018161Y009210D03*
X018161Y009204D03*
X018161Y009198D03*
X017333Y008616D03*
X017345Y008550D03*
X017351Y008520D03*
X017351Y008514D03*
X017357Y008490D03*
X017357Y008484D03*
X017357Y008478D03*
X017363Y008460D03*
X017363Y008454D03*
X017363Y008448D03*
X017369Y008430D03*
X017369Y008424D03*
X017369Y008418D03*
X017369Y008412D03*
X017375Y008400D03*
X017375Y008394D03*
X017375Y008388D03*
X017375Y008382D03*
X017375Y008376D03*
X017381Y008370D03*
X017381Y008364D03*
X017381Y008358D03*
X017381Y008352D03*
X017381Y008346D03*
X017387Y008334D03*
X017387Y008328D03*
X017387Y008322D03*
X017393Y008298D03*
X017393Y008292D03*
X017279Y008916D03*
X017273Y008952D03*
X017267Y008982D03*
X017261Y009018D03*
X017255Y009048D03*
X017255Y009054D03*
X017249Y009084D03*
X017249Y009090D03*
X017243Y009114D03*
X017243Y009120D03*
X017243Y009126D03*
X017237Y009150D03*
X017237Y009156D03*
X017231Y009180D03*
X017231Y009186D03*
X017231Y009192D03*
X017225Y009210D03*
X017225Y009216D03*
X017225Y009222D03*
X017225Y009228D03*
X017219Y009246D03*
X017219Y009252D03*
X017219Y009258D03*
X017219Y009264D03*
X017213Y009276D03*
X017213Y009282D03*
X017213Y009288D03*
X017213Y009294D03*
X017207Y009312D03*
X017207Y009318D03*
X017207Y009324D03*
X017207Y009330D03*
X017201Y009342D03*
X017201Y009348D03*
X017201Y009354D03*
X017201Y009360D03*
X017201Y009366D03*
X017195Y009372D03*
X017195Y009378D03*
X017195Y009384D03*
X017195Y009390D03*
X017195Y009396D03*
X017195Y009402D03*
X017189Y009408D03*
X017189Y009414D03*
X017189Y009420D03*
X017189Y009426D03*
X017189Y009432D03*
X017183Y009438D03*
X017183Y009444D03*
X017183Y009450D03*
X017183Y009456D03*
X017183Y009462D03*
X017177Y009474D03*
X017177Y009480D03*
X017177Y009486D03*
X017177Y009492D03*
X017177Y009498D03*
X017171Y009504D03*
X017171Y009510D03*
X017171Y009516D03*
X017171Y009522D03*
X017171Y009528D03*
X017165Y009540D03*
X017165Y009546D03*
X017165Y009552D03*
X017165Y009558D03*
X017159Y009570D03*
X017159Y009576D03*
X017159Y009582D03*
X017159Y009588D03*
X017159Y009594D03*
X017153Y009600D03*
X017153Y009606D03*
X017153Y009612D03*
X017153Y009618D03*
X017153Y009624D03*
X017147Y009630D03*
X017147Y009636D03*
X017147Y009642D03*
X017147Y009648D03*
X017147Y009654D03*
X017147Y009660D03*
X017141Y009666D03*
X017141Y009672D03*
X017141Y009678D03*
X017141Y009684D03*
X017141Y009690D03*
X017135Y009696D03*
X017135Y009702D03*
X017135Y009708D03*
X017135Y009714D03*
X012899Y012384D03*
X004715Y010254D03*
D45*
X013889Y009852D03*
X013889Y009750D03*
X013889Y009744D03*
X016145Y007908D03*
D46*
X015446Y007914D03*
X017162Y009564D03*
X018086Y009702D03*
X018092Y009660D03*
X018116Y009504D03*
X018122Y009468D03*
X018146Y009312D03*
X018146Y009306D03*
X018152Y009276D03*
X018152Y009270D03*
X018062Y009852D03*
X018062Y009858D03*
X018056Y009894D03*
X018032Y010050D03*
X018026Y010086D03*
X018026Y010092D03*
X018002Y010242D03*
X018002Y010248D03*
X017996Y010284D03*
X017972Y010440D03*
X017966Y010482D03*
X016256Y011202D03*
X016592Y012624D03*
X012872Y012660D03*
D47*
X016604Y007986D03*
X016814Y008022D03*
X016184Y007914D03*
D48*
X016430Y007956D03*
X016532Y007974D03*
X016568Y007980D03*
X016640Y007992D03*
X016676Y007998D03*
X016712Y008004D03*
X016778Y008016D03*
X016850Y008028D03*
X015686Y009540D03*
X013886Y009876D03*
X010442Y009240D03*
D49*
X009935Y010368D03*
X012299Y009930D03*
X013889Y009870D03*
X013889Y009732D03*
X013889Y009726D03*
X013889Y009720D03*
X016463Y007962D03*
X016499Y007968D03*
D50*
X017372Y008406D03*
X017366Y008436D03*
X017366Y008442D03*
X017360Y008466D03*
X017360Y008472D03*
X017354Y008496D03*
X017354Y008502D03*
X017354Y008508D03*
X017348Y008526D03*
X017348Y008532D03*
X017348Y008538D03*
X017348Y008544D03*
X017342Y008556D03*
X017342Y008562D03*
X017342Y008568D03*
X017342Y008574D03*
X017342Y008580D03*
X017336Y008586D03*
X017336Y008592D03*
X017336Y008598D03*
X017336Y008604D03*
X017336Y008610D03*
X017330Y008622D03*
X017330Y008628D03*
X017330Y008634D03*
X017330Y008640D03*
X017330Y008646D03*
X017324Y008652D03*
X017324Y008658D03*
X017324Y008664D03*
X017324Y008670D03*
X017324Y008676D03*
X017318Y008688D03*
X017318Y008694D03*
X017318Y008700D03*
X017318Y008706D03*
X017318Y008712D03*
X017312Y008718D03*
X017312Y008724D03*
X017312Y008730D03*
X017312Y008736D03*
X017312Y008742D03*
X017306Y008754D03*
X017306Y008760D03*
X017306Y008766D03*
X017306Y008772D03*
X017306Y008778D03*
X017300Y008784D03*
X017300Y008790D03*
X017300Y008796D03*
X017300Y008802D03*
X017300Y008808D03*
X017300Y008814D03*
X017294Y008820D03*
X017294Y008826D03*
X017294Y008832D03*
X017294Y008838D03*
X017294Y008844D03*
X017288Y008850D03*
X017288Y008856D03*
X017288Y008862D03*
X017288Y008868D03*
X017288Y008874D03*
X017288Y008880D03*
X017282Y008886D03*
X017282Y008892D03*
X017282Y008898D03*
X017282Y008904D03*
X017282Y008910D03*
X017276Y008922D03*
X017276Y008928D03*
X017276Y008934D03*
X017276Y008940D03*
X017276Y008946D03*
X017270Y008958D03*
X017270Y008964D03*
X017270Y008970D03*
X017270Y008976D03*
X017264Y008988D03*
X017264Y008994D03*
X017264Y009000D03*
X017264Y009006D03*
X017264Y009012D03*
X017258Y009024D03*
X017258Y009030D03*
X017258Y009036D03*
X017258Y009042D03*
X017252Y009060D03*
X017252Y009066D03*
X017252Y009072D03*
X017252Y009078D03*
X017246Y009096D03*
X017246Y009102D03*
X017246Y009108D03*
X017240Y009132D03*
X017240Y009138D03*
X017240Y009144D03*
X017234Y009162D03*
X017234Y009168D03*
X017234Y009174D03*
X017228Y009198D03*
X017228Y009204D03*
X017222Y009234D03*
X017222Y009240D03*
X017216Y009270D03*
X017210Y009300D03*
X017210Y009306D03*
X017204Y009336D03*
X017948Y010602D03*
X015518Y012978D03*
X015074Y011418D03*
X015092Y011142D03*
X015254Y010470D03*
X015170Y009312D03*
X015170Y009306D03*
X015176Y009282D03*
X015176Y009276D03*
X015176Y009270D03*
X015182Y009246D03*
X015182Y009240D03*
X015182Y009234D03*
X015188Y009216D03*
X015188Y009210D03*
X015188Y009204D03*
X015194Y009186D03*
X015194Y009180D03*
X015194Y009174D03*
X015194Y009168D03*
X015200Y009162D03*
X015200Y009156D03*
X015200Y009150D03*
X015200Y009144D03*
X015200Y009138D03*
X015206Y009132D03*
X015206Y009126D03*
X015206Y009120D03*
X015206Y009114D03*
X015206Y009108D03*
X015212Y009102D03*
X015212Y009096D03*
X015212Y009090D03*
X015212Y009084D03*
X015212Y009078D03*
X015218Y009072D03*
X015218Y009066D03*
X015218Y009060D03*
X015218Y009054D03*
X015218Y009048D03*
X015224Y009036D03*
X015224Y009030D03*
X015224Y009024D03*
X015224Y009018D03*
X015230Y009006D03*
X015230Y009000D03*
X015230Y008994D03*
X015230Y008988D03*
X015236Y008976D03*
X015236Y008970D03*
X015236Y008964D03*
X015236Y008958D03*
X015242Y008952D03*
X015242Y008946D03*
X015242Y008940D03*
X015242Y008934D03*
X015242Y008928D03*
X015248Y008922D03*
X015248Y008916D03*
X015248Y008910D03*
X015248Y008904D03*
X015248Y008898D03*
X015254Y008892D03*
X015254Y008886D03*
X015254Y008880D03*
X015254Y008874D03*
X015254Y008868D03*
X015260Y008862D03*
X015260Y008856D03*
X015260Y008850D03*
X015260Y008844D03*
X015260Y008838D03*
X015266Y008832D03*
X015266Y008826D03*
X015266Y008820D03*
X015266Y008814D03*
X015266Y008808D03*
X015266Y008802D03*
X015272Y008796D03*
X015272Y008790D03*
X015272Y008784D03*
X015272Y008778D03*
X015272Y008772D03*
X015278Y008766D03*
X015278Y008760D03*
X015278Y008754D03*
X015278Y008748D03*
X015278Y008742D03*
X015284Y008736D03*
X015284Y008730D03*
X015284Y008724D03*
X015284Y008718D03*
X015284Y008712D03*
X015290Y008706D03*
X015290Y008700D03*
X015290Y008694D03*
X015290Y008688D03*
X015290Y008682D03*
X015296Y008676D03*
X015296Y008670D03*
X015296Y008664D03*
X015296Y008658D03*
X015296Y008652D03*
X015302Y008646D03*
X015302Y008640D03*
X015302Y008634D03*
X015302Y008628D03*
X015302Y008622D03*
X015308Y008610D03*
X015308Y008604D03*
X015308Y008598D03*
X015308Y008592D03*
X015314Y008580D03*
X015314Y008574D03*
X015314Y008568D03*
X015314Y008562D03*
X015314Y008556D03*
X015320Y008550D03*
X015320Y008544D03*
X015320Y008538D03*
X015320Y008532D03*
X015320Y008526D03*
X015326Y008520D03*
X015326Y008514D03*
X015326Y008508D03*
X015326Y008502D03*
X015326Y008496D03*
X015332Y008484D03*
X015332Y008478D03*
X015332Y008472D03*
X015332Y008466D03*
X015332Y008460D03*
X015338Y008454D03*
X015338Y008448D03*
X015338Y008442D03*
X015338Y008436D03*
X015338Y008430D03*
X015344Y008424D03*
X015344Y008418D03*
X015344Y008412D03*
X015344Y008406D03*
X015344Y008400D03*
X015350Y008388D03*
X015350Y008382D03*
X015350Y008376D03*
X015350Y008370D03*
X015356Y008358D03*
X015356Y008352D03*
X015356Y008346D03*
X015356Y008340D03*
X015356Y008334D03*
X015362Y008328D03*
X015362Y008322D03*
X015362Y008316D03*
X015362Y008310D03*
X015362Y008304D03*
X015368Y008298D03*
X015368Y008292D03*
X015368Y008286D03*
X015368Y008280D03*
X015368Y008274D03*
X015374Y008262D03*
X015374Y008256D03*
X015374Y008250D03*
X015374Y008244D03*
X015380Y008232D03*
X015380Y008226D03*
X015380Y008220D03*
X015380Y008214D03*
X015386Y008202D03*
X015386Y008196D03*
X015386Y008190D03*
X015386Y008184D03*
X015392Y008172D03*
X015392Y008166D03*
X015392Y008160D03*
X015392Y008154D03*
X015398Y008148D03*
X015398Y008142D03*
X015398Y008136D03*
X015398Y008130D03*
X015398Y008124D03*
X015404Y008118D03*
X015404Y008112D03*
X015404Y008106D03*
X015404Y008100D03*
X015404Y008094D03*
X015410Y008088D03*
X015410Y008082D03*
X015410Y008076D03*
X015410Y008070D03*
X015416Y008058D03*
X015416Y008052D03*
X015416Y008046D03*
X015416Y008040D03*
X015422Y008028D03*
X015422Y008022D03*
X015422Y008016D03*
X015428Y007998D03*
X015428Y007992D03*
X015434Y007968D03*
X013700Y008358D03*
X013694Y010392D03*
X012866Y012666D03*
X010526Y012978D03*
X010454Y012690D03*
X010076Y012354D03*
X010142Y012072D03*
X007370Y010392D03*
X004646Y009966D03*
X004706Y008358D03*
X004166Y008352D03*
D51*
X013892Y009696D03*
X016910Y008040D03*
D52*
X016958Y008052D03*
X015638Y009522D03*
D53*
X016982Y008058D03*
X017516Y010686D03*
D54*
X016562Y009714D03*
X015608Y009510D03*
X017006Y008064D03*
D55*
X017027Y008070D03*
D56*
X017048Y008076D03*
X015578Y009498D03*
D57*
X015563Y009492D03*
X016397Y009672D03*
X017069Y008082D03*
X007673Y008964D03*
D58*
X007649Y008994D03*
X002813Y009558D03*
X015533Y009480D03*
X016781Y009756D03*
X017585Y010716D03*
X017111Y008094D03*
D59*
X017132Y008100D03*
X016796Y009762D03*
X017600Y010722D03*
X007634Y009012D03*
X002798Y009540D03*
D60*
X002780Y009516D03*
X007616Y009270D03*
X017150Y008106D03*
D61*
X017168Y008112D03*
X017630Y010734D03*
X007604Y009252D03*
X007604Y009048D03*
X002768Y009288D03*
X002768Y009498D03*
D62*
X002753Y009480D03*
X002753Y009306D03*
X007589Y009234D03*
X007589Y009066D03*
X017189Y008118D03*
X017645Y010740D03*
D63*
X017654Y010746D03*
X017210Y008124D03*
X009410Y009552D03*
X007574Y009216D03*
X002738Y009462D03*
D64*
X002723Y009348D03*
X007559Y009198D03*
X011609Y009210D03*
X012143Y009960D03*
X016397Y010488D03*
X016565Y010524D03*
X016595Y010530D03*
X016625Y010536D03*
X016679Y010548D03*
X016709Y010554D03*
X016943Y010602D03*
X017147Y010644D03*
X017177Y010650D03*
X017207Y010656D03*
X017237Y010662D03*
X017669Y010752D03*
X017231Y008130D03*
D65*
X017246Y008136D03*
X016898Y009804D03*
X017684Y010758D03*
X007544Y009180D03*
X007544Y009126D03*
X002708Y009366D03*
X002708Y009420D03*
D66*
X004070Y008502D03*
X008570Y008502D03*
X016208Y010434D03*
X017324Y008160D03*
D67*
X017345Y008166D03*
X012965Y009666D03*
X008567Y009798D03*
X005327Y009666D03*
X004049Y010278D03*
X004091Y008478D03*
D68*
X004106Y008460D03*
X008612Y008460D03*
X008588Y009822D03*
X010760Y009216D03*
X017366Y008172D03*
D69*
X017309Y008748D03*
X015389Y008178D03*
X016169Y010914D03*
D70*
X017384Y008178D03*
X011474Y008664D03*
X004124Y008436D03*
D71*
X004133Y008424D03*
X005261Y008688D03*
X009251Y010044D03*
X011447Y009144D03*
X013025Y008658D03*
X016097Y010398D03*
X017831Y010632D03*
X017831Y010638D03*
X017405Y008184D03*
D72*
X017426Y008190D03*
X017492Y008280D03*
X017492Y008286D03*
X017840Y010668D03*
X015098Y011310D03*
X015092Y011298D03*
X015086Y011286D03*
X015086Y011280D03*
X015080Y011274D03*
X013706Y009948D03*
X013052Y009606D03*
X011426Y009126D03*
X011432Y008700D03*
X010838Y008736D03*
X010832Y008730D03*
X009218Y009642D03*
X009230Y010020D03*
X008630Y009876D03*
X005246Y009612D03*
X005240Y008712D03*
X005246Y008706D03*
X004100Y010350D03*
D73*
X005225Y009582D03*
X005225Y008742D03*
X008663Y008394D03*
X009197Y009690D03*
X009197Y009696D03*
X009197Y009702D03*
X009191Y009708D03*
X009191Y009714D03*
X009191Y009720D03*
X009191Y009726D03*
X009191Y009732D03*
X009191Y009738D03*
X010847Y009126D03*
X010847Y009120D03*
X010853Y009108D03*
X010853Y008778D03*
X010853Y008772D03*
X011411Y008724D03*
X011405Y009090D03*
X013067Y008712D03*
X013073Y009570D03*
X015071Y011232D03*
X015071Y011238D03*
X015095Y011334D03*
X015923Y010242D03*
X017483Y008250D03*
X017447Y008196D03*
D74*
X017465Y008202D03*
X017471Y008208D03*
X015935Y010272D03*
X015299Y010422D03*
X015071Y011208D03*
X015089Y011352D03*
X014783Y011640D03*
X014783Y011646D03*
X014783Y011652D03*
X014783Y011658D03*
X014759Y011838D03*
X014759Y011844D03*
X014609Y012438D03*
X014609Y012444D03*
X014609Y012450D03*
X014609Y012456D03*
X014627Y012612D03*
X014627Y012618D03*
X014627Y012624D03*
X014627Y012630D03*
X013895Y012744D03*
X013697Y012312D03*
X013697Y012306D03*
X013697Y012300D03*
X013697Y012294D03*
X013697Y012288D03*
X013715Y012132D03*
X013715Y012126D03*
X013715Y012120D03*
X013715Y012114D03*
X012875Y012450D03*
X012899Y012606D03*
X013703Y010290D03*
X013703Y010284D03*
X013703Y010278D03*
X013703Y010272D03*
X013703Y010266D03*
X013703Y010260D03*
X013091Y009522D03*
X013091Y009516D03*
X013091Y009510D03*
X013091Y009192D03*
X013091Y009186D03*
X013091Y009180D03*
X013091Y009174D03*
X013091Y009168D03*
X013091Y008808D03*
X013091Y008802D03*
X013091Y008796D03*
X013091Y008790D03*
X013703Y008472D03*
X013703Y008466D03*
X013703Y008460D03*
X013703Y008454D03*
X013703Y008448D03*
X015233Y009354D03*
X016223Y010962D03*
X016223Y010968D03*
X016223Y010974D03*
X016223Y010980D03*
X016205Y011142D03*
X016205Y011148D03*
X016205Y011154D03*
X016205Y011160D03*
X016889Y011190D03*
X016559Y012372D03*
X016559Y012378D03*
X016559Y012384D03*
X016559Y012390D03*
X016535Y012570D03*
X015533Y012750D03*
X015383Y011808D03*
X010475Y012924D03*
X010127Y012312D03*
X010097Y012120D03*
X009503Y013110D03*
X009521Y013278D03*
X009521Y013284D03*
X009521Y013290D03*
X009521Y013296D03*
X009521Y013302D03*
X004697Y010020D03*
X004697Y009702D03*
X004697Y009696D03*
X004697Y009690D03*
X004697Y009684D03*
X004697Y009678D03*
X004697Y008478D03*
X004697Y008472D03*
X004697Y008466D03*
X004697Y008460D03*
X002537Y008442D03*
X002537Y008436D03*
D75*
X007367Y008358D03*
X008663Y009930D03*
X013757Y012360D03*
X013871Y012978D03*
X014717Y011604D03*
X016865Y011424D03*
X015221Y009042D03*
X015227Y009012D03*
X015233Y008982D03*
X015347Y008394D03*
X015353Y008364D03*
X015371Y008268D03*
X015377Y008238D03*
X015383Y008208D03*
X017321Y008682D03*
D76*
X017474Y008220D03*
X017474Y008214D03*
X014774Y011712D03*
X014774Y011718D03*
X014774Y011724D03*
X014774Y011730D03*
X015404Y011982D03*
X015404Y011988D03*
X014624Y012582D03*
X014624Y012588D03*
X014624Y012594D03*
X014624Y012600D03*
X014624Y012606D03*
X016544Y012534D03*
X016544Y012528D03*
X016544Y012522D03*
X016544Y012516D03*
X016544Y012510D03*
X016544Y012504D03*
X011384Y013128D03*
X010094Y012132D03*
X010094Y012126D03*
X011384Y008796D03*
X005204Y008820D03*
X005204Y008826D03*
X005204Y008832D03*
X005204Y008838D03*
X005204Y008844D03*
X005204Y008850D03*
X005204Y008856D03*
X005204Y008862D03*
X005204Y008868D03*
X005204Y008874D03*
X005204Y008880D03*
X005204Y008886D03*
X005204Y008892D03*
X005204Y008898D03*
X005204Y008904D03*
X005204Y008910D03*
X005204Y008916D03*
X005204Y008922D03*
X005204Y008928D03*
X005204Y008934D03*
X005204Y008940D03*
X005204Y008946D03*
X005204Y008952D03*
X005204Y008958D03*
X005204Y008964D03*
X005204Y008970D03*
X005204Y008976D03*
X005204Y008982D03*
X005204Y008988D03*
X005204Y008994D03*
X005204Y009000D03*
X005204Y009006D03*
X005204Y009012D03*
X005204Y009018D03*
X005204Y009024D03*
X005204Y009030D03*
X005204Y009036D03*
X005204Y009042D03*
X005204Y009048D03*
X005204Y009054D03*
X005204Y009060D03*
X005204Y009066D03*
X005204Y009072D03*
X005204Y009078D03*
X005204Y009084D03*
X005204Y009090D03*
X005204Y009096D03*
X005204Y009102D03*
X005204Y009108D03*
X005204Y009114D03*
X005204Y009120D03*
X005204Y009126D03*
X005204Y009132D03*
X005204Y009138D03*
X005204Y009144D03*
X005204Y009150D03*
X005204Y009156D03*
X005204Y009162D03*
X005204Y009168D03*
X005204Y009174D03*
X005204Y009180D03*
X005204Y009186D03*
X005204Y009192D03*
X005204Y009198D03*
X005204Y009204D03*
X005204Y009210D03*
X005204Y009216D03*
X005204Y009222D03*
X005204Y009228D03*
X005204Y009234D03*
X005204Y009240D03*
X005204Y009246D03*
X005204Y009252D03*
X005204Y009258D03*
X005204Y009264D03*
X005204Y009270D03*
X005204Y009276D03*
X005204Y009282D03*
X005204Y009288D03*
X005204Y009294D03*
X005204Y009300D03*
X005204Y009306D03*
X005204Y009312D03*
X005204Y009318D03*
X005204Y009324D03*
X005204Y009330D03*
X005204Y009336D03*
X005204Y009342D03*
X005204Y009348D03*
X005204Y009354D03*
X005204Y009360D03*
X005204Y009366D03*
X005204Y009372D03*
X005204Y009378D03*
X005204Y009384D03*
X005204Y009390D03*
X005204Y009396D03*
X005204Y009402D03*
X005204Y009408D03*
X005204Y009414D03*
X005204Y009420D03*
X005204Y009426D03*
X005204Y009432D03*
X005204Y009438D03*
X005204Y009444D03*
X005204Y009450D03*
X005204Y009456D03*
X005204Y009462D03*
X005204Y009468D03*
X005204Y009474D03*
X005204Y009480D03*
X005204Y009486D03*
X005204Y009492D03*
X005204Y009498D03*
X005204Y009504D03*
X005204Y009510D03*
X004694Y009510D03*
X004694Y009516D03*
X004694Y009522D03*
X004694Y009528D03*
X004694Y009534D03*
X004694Y009540D03*
X004694Y009546D03*
X004694Y009552D03*
X004694Y009558D03*
X004694Y009564D03*
X004694Y009570D03*
X004694Y009576D03*
X004694Y009582D03*
X004694Y009588D03*
X004694Y009594D03*
X004694Y009600D03*
X004694Y009606D03*
X004694Y009612D03*
X004694Y009618D03*
X004694Y009624D03*
X004694Y009630D03*
X004694Y009636D03*
X004694Y009642D03*
X004694Y009648D03*
X004694Y009654D03*
X004694Y009660D03*
X004694Y009666D03*
X004694Y009672D03*
X004694Y009504D03*
X004694Y009498D03*
X004694Y009492D03*
X004694Y009486D03*
X004694Y009480D03*
X004694Y009474D03*
X004694Y009468D03*
X004694Y009462D03*
X004694Y009456D03*
X004694Y009450D03*
X004694Y009444D03*
X004694Y009438D03*
X004694Y009432D03*
X004694Y009426D03*
X004694Y009420D03*
X004694Y009414D03*
X004694Y009408D03*
X004694Y009402D03*
X004694Y009396D03*
X004694Y009390D03*
X004694Y009384D03*
X004694Y009378D03*
X004694Y009372D03*
X004694Y009366D03*
X004694Y009360D03*
X004694Y009354D03*
X004694Y009348D03*
X004694Y009342D03*
X004694Y009336D03*
X004694Y009330D03*
X004694Y009324D03*
X004694Y009318D03*
X004694Y009312D03*
X004694Y009306D03*
X004694Y009300D03*
X004694Y009294D03*
X004694Y009288D03*
X004694Y009282D03*
X004694Y009276D03*
X004694Y009270D03*
X004694Y009264D03*
X004694Y009258D03*
X004694Y009252D03*
X004694Y009246D03*
X004694Y009240D03*
X004694Y009234D03*
X004694Y009228D03*
X004694Y009222D03*
X004694Y009216D03*
X004694Y009210D03*
X004694Y009204D03*
X004694Y009198D03*
X004694Y009192D03*
X004694Y009186D03*
X004694Y009180D03*
X004694Y009174D03*
X004694Y009168D03*
X004694Y009162D03*
X004694Y009156D03*
X004694Y009150D03*
X004694Y009144D03*
X004694Y009138D03*
X004694Y009132D03*
X004694Y009126D03*
X004694Y009120D03*
X004694Y009114D03*
X004694Y009108D03*
X004694Y009102D03*
X004694Y009096D03*
X004694Y009090D03*
X004694Y009084D03*
X004694Y009078D03*
X004694Y009072D03*
X004694Y009066D03*
X004694Y009060D03*
X004694Y009054D03*
X004694Y009048D03*
X004694Y009042D03*
X004694Y009036D03*
X004694Y009030D03*
X004694Y009024D03*
X004694Y009018D03*
X004694Y009012D03*
X004694Y009006D03*
X004694Y009000D03*
X004694Y008994D03*
X004694Y008988D03*
X004694Y008982D03*
X004694Y008976D03*
X004694Y008970D03*
X004694Y008964D03*
X004694Y008958D03*
X004694Y008952D03*
X004694Y008946D03*
X004694Y008940D03*
X004694Y008934D03*
X004694Y008928D03*
X004694Y008922D03*
X004694Y008916D03*
X004694Y008910D03*
X004694Y008904D03*
X004694Y008898D03*
X004694Y008892D03*
X004694Y008886D03*
X004694Y008880D03*
X004694Y008874D03*
X004694Y008868D03*
X004694Y008862D03*
X004694Y008856D03*
X004694Y008850D03*
X004694Y008844D03*
X004694Y008838D03*
X004694Y008832D03*
X004694Y008826D03*
X004694Y008820D03*
X004694Y008814D03*
X004694Y008808D03*
X004694Y008802D03*
X004694Y008796D03*
X004694Y008790D03*
X004694Y008784D03*
X004694Y008778D03*
X004694Y008772D03*
X004694Y008766D03*
X004694Y008760D03*
X004694Y008754D03*
X004694Y008748D03*
X004694Y008742D03*
X004694Y008736D03*
X004694Y008730D03*
X004694Y008724D03*
X004694Y008718D03*
X004694Y008712D03*
X004694Y008706D03*
X004694Y008700D03*
X004694Y008694D03*
X004694Y008688D03*
X004694Y008682D03*
X004694Y008676D03*
X004694Y008670D03*
X004694Y008664D03*
X004694Y008658D03*
X004694Y008652D03*
X004694Y008646D03*
X004694Y008640D03*
X004694Y008634D03*
X004694Y008628D03*
X004694Y008622D03*
X004694Y008616D03*
X004694Y008610D03*
X004694Y008604D03*
X004694Y008598D03*
X004694Y008592D03*
X004694Y008586D03*
X004694Y008580D03*
X004694Y008574D03*
X004694Y008568D03*
X004694Y008562D03*
X004694Y008556D03*
X004694Y008550D03*
X004694Y008544D03*
X004694Y008538D03*
X004694Y008532D03*
X004694Y008526D03*
X004694Y008520D03*
X004694Y008514D03*
X004694Y008508D03*
X004694Y008502D03*
X004694Y008496D03*
X004694Y008490D03*
X004694Y008484D03*
X004664Y010206D03*
D77*
X004661Y010200D03*
X004661Y010194D03*
X004667Y010188D03*
X004667Y010182D03*
X004667Y010176D03*
X004697Y010044D03*
X004697Y010038D03*
X004697Y010032D03*
X005207Y009534D03*
X005207Y009528D03*
X005207Y009522D03*
X005207Y009516D03*
X005207Y008814D03*
X005207Y008808D03*
X005207Y008802D03*
X005207Y008796D03*
X004157Y008382D03*
X002543Y009060D03*
X002543Y009066D03*
X002543Y009072D03*
X002543Y009078D03*
X002543Y009084D03*
X002543Y009090D03*
X002543Y009096D03*
X002543Y009102D03*
X002543Y009108D03*
X002543Y009114D03*
X002543Y009120D03*
X002543Y009126D03*
X002543Y009132D03*
X002543Y009138D03*
X002543Y009144D03*
X002543Y009150D03*
X002543Y009156D03*
X002543Y009588D03*
X002543Y009594D03*
X002543Y009600D03*
X002543Y009606D03*
X002543Y009612D03*
X002543Y009618D03*
X002543Y009624D03*
X002543Y009630D03*
X002543Y009636D03*
X002543Y009642D03*
X002543Y009648D03*
X002543Y009654D03*
X002543Y009660D03*
X002543Y009666D03*
X007379Y009666D03*
X007379Y009672D03*
X007379Y009678D03*
X007379Y009684D03*
X007379Y009690D03*
X007379Y009696D03*
X007379Y009702D03*
X007379Y009708D03*
X007379Y009714D03*
X007379Y009720D03*
X007379Y009726D03*
X007379Y009732D03*
X007379Y009738D03*
X007379Y009744D03*
X007379Y009750D03*
X007379Y009756D03*
X007379Y009762D03*
X007379Y009768D03*
X007379Y009774D03*
X007379Y009780D03*
X007379Y009786D03*
X007379Y009792D03*
X007379Y009798D03*
X007379Y009804D03*
X007379Y009810D03*
X007379Y009816D03*
X007379Y009822D03*
X007379Y009828D03*
X007379Y009834D03*
X007379Y009840D03*
X007379Y009846D03*
X007379Y009852D03*
X007379Y009858D03*
X007379Y009864D03*
X007379Y009870D03*
X007379Y009876D03*
X007379Y009882D03*
X007379Y009888D03*
X007379Y009894D03*
X007379Y009900D03*
X007379Y009906D03*
X007379Y009912D03*
X007379Y009918D03*
X007379Y009924D03*
X007379Y009930D03*
X007379Y009936D03*
X007379Y009942D03*
X007379Y009948D03*
X007379Y009954D03*
X007379Y009960D03*
X007379Y009966D03*
X007379Y009972D03*
X007379Y009978D03*
X007379Y009984D03*
X007379Y009990D03*
X007379Y009996D03*
X007379Y010002D03*
X007379Y010008D03*
X007379Y010014D03*
X007379Y010020D03*
X007379Y010026D03*
X007379Y010032D03*
X007379Y010038D03*
X007379Y010044D03*
X007379Y010050D03*
X007379Y010056D03*
X007379Y010062D03*
X007379Y010068D03*
X007379Y010074D03*
X007379Y010080D03*
X007379Y010086D03*
X007379Y010092D03*
X007379Y010098D03*
X007379Y010104D03*
X007379Y010110D03*
X007379Y010116D03*
X007379Y010122D03*
X007379Y010128D03*
X007379Y010134D03*
X007379Y010140D03*
X007379Y010146D03*
X007379Y010152D03*
X007379Y010158D03*
X007379Y010164D03*
X007379Y010170D03*
X007379Y010176D03*
X007379Y010182D03*
X007379Y010188D03*
X007379Y010194D03*
X007379Y010200D03*
X007379Y010206D03*
X007379Y010212D03*
X007379Y010218D03*
X007379Y010224D03*
X007379Y010230D03*
X007379Y010236D03*
X007379Y010242D03*
X007379Y009660D03*
X007379Y009654D03*
X007379Y009648D03*
X007379Y009642D03*
X007379Y009636D03*
X007379Y009630D03*
X007379Y009624D03*
X007379Y009618D03*
X007379Y009612D03*
X007379Y009606D03*
X007379Y009600D03*
X007379Y009594D03*
X007379Y009588D03*
X007379Y009582D03*
X007379Y009576D03*
X007379Y009570D03*
X007379Y009564D03*
X007379Y009558D03*
X007379Y009552D03*
X007379Y009546D03*
X007379Y009540D03*
X007379Y009534D03*
X007379Y009528D03*
X007379Y009522D03*
X007379Y009516D03*
X007379Y009510D03*
X007379Y009504D03*
X007379Y009498D03*
X007379Y009492D03*
X007379Y009486D03*
X007379Y009480D03*
X007379Y009474D03*
X007379Y009468D03*
X007379Y009462D03*
X007379Y009456D03*
X007379Y009450D03*
X007379Y009444D03*
X007379Y009438D03*
X007379Y009432D03*
X007379Y009426D03*
X007379Y009420D03*
X007379Y009414D03*
X007379Y009408D03*
X007379Y009402D03*
X007379Y009396D03*
X007379Y009390D03*
X007379Y009384D03*
X007379Y009378D03*
X007379Y009372D03*
X007379Y009366D03*
X007379Y009360D03*
X007379Y009354D03*
X007379Y009348D03*
X007379Y009342D03*
X007379Y009336D03*
X007379Y008958D03*
X007379Y008952D03*
X007379Y008946D03*
X007379Y008940D03*
X007379Y008934D03*
X007379Y008928D03*
X007379Y008922D03*
X007379Y008916D03*
X007379Y008910D03*
X007379Y008904D03*
X007379Y008898D03*
X007379Y008892D03*
X007379Y008886D03*
X007379Y008880D03*
X007379Y008874D03*
X007379Y008868D03*
X007379Y008862D03*
X007379Y008856D03*
X007379Y008850D03*
X007379Y008844D03*
X007379Y008838D03*
X007379Y008832D03*
X007379Y008826D03*
X007379Y008820D03*
X007379Y008814D03*
X007379Y008808D03*
X007379Y008802D03*
X007379Y008796D03*
X007379Y008790D03*
X007379Y008784D03*
X007379Y008778D03*
X007379Y008772D03*
X007379Y008766D03*
X007379Y008760D03*
X007379Y008754D03*
X007379Y008748D03*
X007379Y008742D03*
X007379Y008736D03*
X007379Y008730D03*
X007379Y008724D03*
X007379Y008718D03*
X007379Y008712D03*
X007379Y008706D03*
X007379Y008700D03*
X007379Y008694D03*
X007379Y008688D03*
X007379Y008682D03*
X007379Y008676D03*
X007379Y008670D03*
X007379Y008664D03*
X007379Y008658D03*
X007379Y008652D03*
X007379Y008646D03*
X007379Y008640D03*
X007379Y008634D03*
X007379Y008628D03*
X007379Y008622D03*
X007379Y008616D03*
X007379Y008610D03*
X007379Y008604D03*
X007379Y008598D03*
X007379Y008592D03*
X007379Y008586D03*
X007379Y008580D03*
X007379Y008574D03*
X007379Y008568D03*
X007379Y008562D03*
X007379Y008556D03*
X007379Y008550D03*
X007379Y008544D03*
X007379Y008538D03*
X007379Y008532D03*
X007379Y008526D03*
X007379Y008520D03*
X007379Y008514D03*
X010097Y012138D03*
X010097Y012144D03*
X010097Y012150D03*
X010121Y012270D03*
X010121Y012276D03*
X010127Y012288D03*
X010127Y012294D03*
X010127Y012300D03*
X010499Y012750D03*
X010499Y012756D03*
X010499Y012762D03*
X010499Y012768D03*
X010493Y012792D03*
X010493Y012798D03*
X010487Y012828D03*
X010481Y012864D03*
X010475Y012888D03*
X010475Y012894D03*
X011381Y013134D03*
X011381Y013140D03*
X011387Y013158D03*
X011387Y013164D03*
X011411Y013272D03*
X011411Y013278D03*
X011411Y013284D03*
X011411Y013290D03*
X011417Y013296D03*
X011417Y013302D03*
X011417Y013308D03*
X009515Y013248D03*
X009515Y013242D03*
X009515Y013236D03*
X009515Y013230D03*
X009515Y013224D03*
X009509Y013218D03*
X009509Y013212D03*
X009509Y013206D03*
X009509Y013200D03*
X009509Y013194D03*
X009509Y013188D03*
X009509Y013182D03*
X009509Y013176D03*
X009503Y013164D03*
X009503Y013158D03*
X009503Y013152D03*
X009503Y013146D03*
X009503Y013140D03*
X013085Y009540D03*
X013709Y009642D03*
X013709Y009648D03*
X013703Y009954D03*
X013703Y009960D03*
X013703Y009966D03*
X013703Y009972D03*
X013703Y009978D03*
X013709Y010104D03*
X013709Y010110D03*
X013709Y010116D03*
X013709Y010122D03*
X013709Y010128D03*
X013709Y010134D03*
X013709Y010140D03*
X013709Y010146D03*
X013709Y010152D03*
X013709Y010158D03*
X013709Y010164D03*
X013709Y010170D03*
X013709Y010176D03*
X013709Y010182D03*
X015071Y011214D03*
X015089Y011346D03*
X014777Y011694D03*
X014777Y011700D03*
X014777Y011706D03*
X014771Y011736D03*
X014771Y011742D03*
X014771Y011748D03*
X014771Y011754D03*
X014771Y011760D03*
X014765Y011796D03*
X014765Y011802D03*
X015383Y011832D03*
X015383Y011838D03*
X015383Y011844D03*
X015383Y011850D03*
X015389Y011874D03*
X015389Y011880D03*
X015407Y011976D03*
X015533Y012756D03*
X015533Y012762D03*
X015533Y012768D03*
X015569Y012918D03*
X015569Y012924D03*
X014621Y012576D03*
X014621Y012570D03*
X014621Y012564D03*
X014621Y012558D03*
X014621Y012552D03*
X014615Y012546D03*
X014615Y012540D03*
X014615Y012534D03*
X014615Y012528D03*
X014615Y012522D03*
X014615Y012516D03*
X014615Y012510D03*
X014615Y012504D03*
X014609Y012492D03*
X014609Y012486D03*
X014609Y012480D03*
X014609Y012474D03*
X014609Y012468D03*
X013895Y012768D03*
X013895Y012774D03*
X013895Y012780D03*
X013889Y012756D03*
X013913Y012870D03*
X013919Y012894D03*
X013919Y012900D03*
X013919Y012906D03*
X013925Y012912D03*
X013925Y012918D03*
X013925Y012924D03*
X013697Y012282D03*
X013697Y012276D03*
X013697Y012270D03*
X013697Y012264D03*
X013703Y012252D03*
X013703Y012246D03*
X013703Y012240D03*
X013703Y012234D03*
X013703Y012228D03*
X013709Y012192D03*
X013709Y012186D03*
X013709Y012180D03*
X013709Y012174D03*
X013709Y012168D03*
X015305Y010416D03*
X015299Y010404D03*
X015263Y010248D03*
X016217Y011016D03*
X016217Y011022D03*
X016217Y011028D03*
X016217Y011034D03*
X016217Y011040D03*
X016217Y011046D03*
X016211Y011082D03*
X016211Y011088D03*
X016211Y011094D03*
X016211Y011100D03*
X016211Y011106D03*
X016889Y011196D03*
X016889Y011202D03*
X016889Y011208D03*
X016889Y011214D03*
X016913Y011328D03*
X016913Y011334D03*
X016919Y011346D03*
X016919Y011352D03*
X016919Y011358D03*
X016919Y011364D03*
X016553Y012432D03*
X016553Y012438D03*
X016547Y012468D03*
X016547Y012474D03*
X016547Y012480D03*
X016547Y012486D03*
X016547Y012492D03*
X016547Y012498D03*
X013085Y008766D03*
X013085Y008760D03*
X013085Y008754D03*
X011387Y008778D03*
X011387Y008784D03*
X011387Y008790D03*
X011381Y008802D03*
X011381Y008808D03*
X011381Y008814D03*
X011375Y008874D03*
X011375Y008880D03*
X011375Y008886D03*
X011375Y008892D03*
X011375Y008898D03*
X011375Y008904D03*
X011375Y008910D03*
X011375Y008916D03*
X011375Y008922D03*
X011375Y008928D03*
X011375Y008934D03*
X011375Y008940D03*
X011375Y008946D03*
X011375Y008952D03*
X011375Y008958D03*
X011375Y008964D03*
X011375Y008970D03*
X011381Y009006D03*
X011381Y009012D03*
X011381Y009018D03*
X011381Y009024D03*
X011381Y009030D03*
X011387Y009048D03*
X010865Y009042D03*
X010865Y009036D03*
X010865Y009030D03*
X010865Y009024D03*
X010865Y009018D03*
X010865Y009012D03*
X010865Y009006D03*
X010865Y009000D03*
X010865Y008994D03*
X010865Y008988D03*
X010865Y008982D03*
X010865Y008976D03*
X010865Y008970D03*
X010865Y008964D03*
X010865Y008958D03*
X010865Y008952D03*
X010865Y008946D03*
X010865Y008940D03*
X010865Y008934D03*
X010865Y008928D03*
X010865Y008922D03*
X010865Y008916D03*
X010865Y008910D03*
X010865Y008904D03*
X010865Y008898D03*
X010865Y008892D03*
X010865Y008886D03*
X010865Y008880D03*
X010865Y008874D03*
X010865Y008868D03*
X010865Y008862D03*
X010865Y008856D03*
X010865Y008850D03*
X010865Y008844D03*
X010865Y008838D03*
X017477Y008226D03*
D78*
X017477Y008232D03*
X017117Y009888D03*
X016901Y011268D03*
X016901Y011274D03*
X015287Y010362D03*
X015287Y010356D03*
X015287Y010350D03*
X015287Y010344D03*
X015281Y010338D03*
X015281Y010332D03*
X015281Y010326D03*
X015281Y010320D03*
X015071Y011226D03*
X015551Y012846D03*
X015551Y012852D03*
X015551Y012858D03*
X015551Y012864D03*
X015557Y012870D03*
X015557Y012876D03*
X015557Y012882D03*
X013907Y012840D03*
X013901Y012810D03*
X009197Y009936D03*
X009197Y009930D03*
X009197Y009924D03*
X009197Y009918D03*
X009191Y009900D03*
X009191Y009894D03*
X009191Y009888D03*
X009191Y009882D03*
X009191Y009876D03*
X009191Y009870D03*
X004691Y010068D03*
X004691Y010074D03*
X004157Y008388D03*
D79*
X005216Y008760D03*
X005222Y009570D03*
X005222Y009576D03*
X009188Y009744D03*
X009188Y009750D03*
X009188Y009756D03*
X009188Y009762D03*
X009188Y009768D03*
X009188Y009774D03*
X009188Y009780D03*
X009188Y009786D03*
X009188Y009792D03*
X009188Y009798D03*
X009188Y009804D03*
X009188Y009810D03*
X009188Y009816D03*
X009188Y009822D03*
X009188Y009828D03*
X009188Y009834D03*
X009188Y009840D03*
X009188Y009846D03*
X009188Y009852D03*
X009188Y009858D03*
X009188Y009864D03*
X009194Y009906D03*
X009194Y009912D03*
X009200Y009942D03*
X009200Y009948D03*
X009200Y009954D03*
X009206Y009960D03*
X009206Y009966D03*
X010850Y009114D03*
X010856Y009102D03*
X010856Y009096D03*
X010856Y008790D03*
X010856Y008784D03*
X011402Y008742D03*
X011402Y008736D03*
X011408Y008730D03*
X011396Y009078D03*
X011402Y009084D03*
X013070Y008718D03*
X013076Y008724D03*
X013076Y008730D03*
X013076Y009564D03*
X015278Y010314D03*
X015926Y010248D03*
X017822Y010818D03*
X015548Y012840D03*
X012902Y012582D03*
X012902Y012576D03*
X012872Y012474D03*
X017480Y008244D03*
X017480Y008238D03*
D80*
X017486Y008256D03*
X017486Y008262D03*
X017102Y009882D03*
X015926Y010236D03*
X015074Y011244D03*
X015092Y011328D03*
X013070Y009576D03*
X013064Y008706D03*
X013064Y008700D03*
X011414Y008718D03*
X011408Y009096D03*
X010844Y009132D03*
X010850Y008766D03*
X010850Y008760D03*
X009200Y009678D03*
X009200Y009684D03*
X009212Y009984D03*
X005228Y009588D03*
X005228Y008736D03*
X004154Y008394D03*
X004106Y010362D03*
X012872Y012486D03*
X012872Y012492D03*
X012878Y012498D03*
X012878Y012504D03*
X012884Y012516D03*
X012884Y012522D03*
X012890Y012534D03*
X012896Y012552D03*
X012896Y012558D03*
D81*
X011426Y008706D03*
X009212Y009654D03*
X009206Y009660D03*
X009206Y009666D03*
X017486Y008268D03*
D82*
X017489Y008274D03*
X017087Y009876D03*
X017843Y010674D03*
X017807Y010812D03*
X015095Y011316D03*
X015077Y011268D03*
X015077Y011262D03*
X013685Y009654D03*
X013055Y009600D03*
X013055Y008688D03*
X013049Y008682D03*
X011423Y009120D03*
X010835Y009150D03*
X010829Y009156D03*
X010841Y008742D03*
X009215Y009648D03*
X009227Y010014D03*
X005237Y008718D03*
X004145Y008406D03*
D83*
X008678Y008358D03*
X010094Y012342D03*
X012890Y012402D03*
X014594Y012660D03*
X015416Y011766D03*
X015080Y011400D03*
X015296Y010194D03*
X015596Y009942D03*
X015602Y009948D03*
X015608Y009954D03*
X015614Y009960D03*
X015620Y009966D03*
X015638Y009990D03*
X015644Y009996D03*
X015650Y010002D03*
X015656Y010008D03*
X015662Y010014D03*
X015686Y010044D03*
X015692Y010050D03*
X015698Y010056D03*
X015704Y010062D03*
X015734Y010098D03*
X015740Y010104D03*
X015746Y010110D03*
X015752Y010116D03*
X015776Y010146D03*
X015782Y010152D03*
X015788Y010158D03*
X015794Y010164D03*
X015800Y010170D03*
X015584Y009924D03*
X015578Y009918D03*
X015572Y009912D03*
X015566Y009906D03*
X015560Y009900D03*
X015554Y009894D03*
X015548Y009888D03*
X015542Y009876D03*
X015536Y009870D03*
X015530Y009864D03*
X015524Y009858D03*
X015518Y009852D03*
X015512Y009846D03*
X015506Y009840D03*
X015506Y009834D03*
X015500Y009828D03*
X015494Y009822D03*
X015488Y009816D03*
X015482Y009810D03*
X015476Y009804D03*
X015470Y009798D03*
X015458Y009780D03*
X015452Y009774D03*
X015446Y009768D03*
X015440Y009762D03*
X015434Y009756D03*
X015416Y009732D03*
X015410Y009726D03*
X015404Y009720D03*
X015398Y009714D03*
X015374Y009684D03*
X015368Y009678D03*
X017582Y008304D03*
X017588Y008310D03*
X017594Y008316D03*
X017600Y008328D03*
X017606Y008334D03*
X017612Y008340D03*
X017612Y008346D03*
X017618Y008352D03*
X017624Y008358D03*
X017630Y008370D03*
X017636Y008376D03*
X017642Y008382D03*
X017642Y008388D03*
X017648Y008394D03*
X017654Y008400D03*
X017660Y008406D03*
X017660Y008412D03*
X017666Y008418D03*
X017672Y008424D03*
X017678Y008436D03*
X017684Y008442D03*
X017690Y008448D03*
X017690Y008454D03*
X017696Y008460D03*
X017702Y008466D03*
X017708Y008478D03*
X017714Y008484D03*
X017720Y008490D03*
X017726Y008502D03*
X017732Y008508D03*
X017738Y008520D03*
X017744Y008526D03*
X017750Y008532D03*
X017756Y008544D03*
X017762Y008550D03*
X017768Y008562D03*
X017774Y008568D03*
X017780Y008574D03*
X017786Y008586D03*
X017792Y008592D03*
X017798Y008604D03*
X017804Y008610D03*
X017816Y008628D03*
X017822Y008634D03*
X017834Y008652D03*
X017846Y008670D03*
X017852Y008676D03*
X017864Y008694D03*
X017876Y008712D03*
X017882Y008718D03*
X017894Y008736D03*
X017906Y008754D03*
X017918Y008772D03*
X017924Y008778D03*
X017936Y008796D03*
X017948Y008814D03*
X017954Y008820D03*
X017966Y008838D03*
X017978Y008856D03*
X017996Y008880D03*
X018008Y008898D03*
X018020Y008916D03*
X018026Y008922D03*
X018038Y008940D03*
X018050Y008958D03*
X018062Y008976D03*
X018068Y008982D03*
X018080Y009000D03*
X018092Y009018D03*
X018098Y009024D03*
X018104Y009036D03*
X018110Y009042D03*
X018122Y009060D03*
X018128Y009066D03*
X018134Y009078D03*
X017576Y008292D03*
D84*
X017579Y008298D03*
X017249Y009996D03*
X017489Y010302D03*
X017549Y010380D03*
X017579Y010416D03*
X015809Y010176D03*
X015419Y009738D03*
X015389Y009702D03*
X015359Y009666D03*
X015329Y009630D03*
X015299Y009594D03*
X010469Y012702D03*
X010499Y012966D03*
X004169Y008358D03*
D85*
X013934Y012696D03*
X016934Y011142D03*
X017978Y010404D03*
X017984Y010362D03*
X017990Y010326D03*
X017990Y010320D03*
X018008Y010206D03*
X018014Y010170D03*
X018014Y010164D03*
X018020Y010128D03*
X018020Y010122D03*
X018038Y010014D03*
X018038Y010008D03*
X018044Y009972D03*
X018050Y009936D03*
X018050Y009930D03*
X018068Y009816D03*
X018074Y009780D03*
X018080Y009738D03*
X018098Y009624D03*
X018104Y009582D03*
X018110Y009546D03*
X018128Y009426D03*
X018134Y009390D03*
X018140Y009354D03*
X018140Y009348D03*
X018158Y009234D03*
X018158Y009228D03*
X018158Y009222D03*
X018164Y009192D03*
X018164Y009186D03*
X018164Y009180D03*
X018164Y009174D03*
X018164Y009168D03*
X017384Y008340D03*
X017390Y008316D03*
X017390Y008310D03*
X017390Y008304D03*
X017180Y009468D03*
X017168Y009534D03*
D86*
X017225Y009966D03*
X017231Y009972D03*
X017243Y009990D03*
X017267Y010020D03*
X017507Y010326D03*
X017513Y010332D03*
X017531Y010356D03*
X017537Y010362D03*
X017555Y010386D03*
X017561Y010392D03*
X017573Y010410D03*
X017597Y010440D03*
X017603Y010446D03*
X017621Y010470D03*
X015821Y010188D03*
X015815Y010182D03*
X015467Y009792D03*
X015461Y009786D03*
X015431Y009750D03*
X015425Y009744D03*
X015395Y009708D03*
X015383Y009696D03*
X015377Y009690D03*
X015365Y009672D03*
X015353Y009660D03*
X015347Y009654D03*
X015341Y009648D03*
X015335Y009642D03*
X015335Y009636D03*
X015323Y009624D03*
X015317Y009618D03*
X015311Y009612D03*
X015305Y009606D03*
X015293Y009588D03*
X015287Y009582D03*
X015281Y009576D03*
X015263Y009552D03*
X015257Y009546D03*
X013703Y008370D03*
X015083Y011166D03*
X015557Y012708D03*
X016523Y012342D03*
X013685Y012078D03*
X012881Y012642D03*
X010121Y012084D03*
X009485Y013326D03*
X002543Y010386D03*
X017597Y008322D03*
X017627Y008364D03*
D87*
X015059Y011460D03*
X008675Y008346D03*
X002543Y008346D03*
D88*
X004160Y008346D03*
X011486Y013044D03*
X014654Y011598D03*
X015056Y011472D03*
X015368Y010158D03*
D89*
X015242Y010476D03*
X016028Y010224D03*
X016028Y010218D03*
X016034Y010206D03*
X016034Y010200D03*
X016034Y010194D03*
X016040Y010182D03*
X016040Y010176D03*
X016040Y010170D03*
X016046Y010158D03*
X016046Y010152D03*
X016046Y010146D03*
X016052Y010128D03*
X016052Y010122D03*
X016052Y010116D03*
X016058Y010104D03*
X016058Y010098D03*
X016058Y010092D03*
X016064Y010074D03*
X016064Y010068D03*
X016070Y010050D03*
X016070Y010044D03*
X016076Y010020D03*
X016076Y010014D03*
X016082Y009990D03*
X016088Y009960D03*
X016094Y009936D03*
X015068Y011430D03*
X015584Y012684D03*
X016490Y012336D03*
X013646Y012066D03*
X010154Y012066D03*
X010064Y012360D03*
X002540Y008352D03*
D90*
X004715Y008352D03*
X007361Y008352D03*
X007361Y010398D03*
X010055Y012366D03*
X015065Y011442D03*
X015353Y012054D03*
D91*
X012443Y009756D03*
X012437Y009762D03*
X009827Y010188D03*
X009821Y010182D03*
X009821Y010176D03*
X009785Y010116D03*
X006227Y008352D03*
D92*
X004706Y009816D03*
X008678Y008352D03*
X012164Y009978D03*
X012902Y012378D03*
X013946Y012690D03*
X015074Y011424D03*
X015092Y011136D03*
X015440Y011754D03*
X016940Y011136D03*
X016130Y009774D03*
X011432Y013068D03*
X011360Y013356D03*
D93*
X009860Y010248D03*
X009812Y008352D03*
D94*
X012269Y008352D03*
X013889Y009900D03*
D95*
X015095Y011124D03*
X015065Y011436D03*
X015329Y010170D03*
X013703Y008352D03*
X013955Y012684D03*
X011447Y013062D03*
X010451Y012684D03*
X009305Y008646D03*
X004733Y010266D03*
D96*
X004115Y010398D03*
X002537Y008358D03*
X009473Y013332D03*
X011369Y013350D03*
X012893Y012390D03*
X013877Y012972D03*
X014579Y012666D03*
X015365Y012042D03*
X015425Y011760D03*
X015077Y011412D03*
X015089Y011148D03*
X015569Y012696D03*
X016877Y011418D03*
X018161Y009162D03*
X018161Y009156D03*
X018161Y009150D03*
X018161Y009144D03*
X018161Y009138D03*
D97*
X006218Y008358D03*
D98*
X006227Y009954D03*
X009827Y008358D03*
D99*
X009926Y010356D03*
X012272Y008358D03*
X016646Y009720D03*
D100*
X015767Y010134D03*
X015761Y010128D03*
X015731Y010092D03*
X015707Y010068D03*
X015677Y010032D03*
X015671Y010026D03*
X015587Y009930D03*
X015191Y009330D03*
X016241Y011196D03*
X015371Y012036D03*
X014801Y011886D03*
X016577Y012618D03*
X018137Y009084D03*
X018131Y009072D03*
X018101Y009030D03*
X018077Y008994D03*
X018071Y008988D03*
X018047Y008952D03*
X018041Y008946D03*
X018017Y008910D03*
X018011Y008904D03*
X017987Y008868D03*
X017981Y008862D03*
X017957Y008826D03*
X017927Y008784D03*
X017897Y008742D03*
X017891Y008730D03*
X017867Y008700D03*
X017861Y008688D03*
X017837Y008658D03*
X017831Y008646D03*
X017807Y008616D03*
X011411Y013080D03*
X004697Y010242D03*
X004667Y009978D03*
X004697Y008364D03*
X002537Y008364D03*
D101*
X004169Y008364D03*
X002543Y010374D03*
X007373Y010362D03*
X007373Y010356D03*
X007373Y008394D03*
X007373Y008388D03*
X010109Y012096D03*
X010109Y012330D03*
X009515Y013062D03*
X012881Y012420D03*
X014621Y012396D03*
X014777Y011874D03*
X015395Y011778D03*
X015077Y011184D03*
X015971Y010344D03*
X015947Y010314D03*
X015281Y010212D03*
X015209Y009342D03*
X013703Y008388D03*
X017171Y009912D03*
D102*
X012269Y008424D03*
X006209Y008364D03*
D103*
X007376Y008364D03*
X004694Y009810D03*
X011378Y013344D03*
X012890Y012396D03*
X015086Y011160D03*
X016184Y010920D03*
X016238Y011742D03*
X016922Y011148D03*
X018146Y009102D03*
X013700Y008364D03*
D104*
X013703Y008382D03*
X013703Y010374D03*
X015281Y010446D03*
X015953Y010332D03*
X015953Y010326D03*
X016901Y011400D03*
X017723Y010596D03*
X017729Y010602D03*
X017735Y010608D03*
X017741Y010614D03*
X017177Y009918D03*
X014603Y012654D03*
X015545Y012954D03*
X012107Y012516D03*
X011399Y013092D03*
X011393Y013332D03*
X010115Y012090D03*
X008675Y008364D03*
X004697Y008376D03*
X004697Y009792D03*
X004679Y009990D03*
X002537Y008376D03*
D105*
X009839Y008364D03*
D106*
X010376Y009246D03*
X012272Y008364D03*
D107*
X015266Y009558D03*
X015272Y009564D03*
X015278Y009570D03*
X015302Y009600D03*
X015290Y010200D03*
X015272Y010452D03*
X015824Y010194D03*
X015830Y010200D03*
X015836Y010206D03*
X015842Y010212D03*
X015848Y010218D03*
X015854Y010224D03*
X015080Y011394D03*
X014750Y011610D03*
X015380Y012030D03*
X015542Y012960D03*
X016892Y011406D03*
X017858Y010836D03*
X017684Y010548D03*
X017678Y010542D03*
X017666Y010524D03*
X017660Y010518D03*
X017654Y010512D03*
X017648Y010506D03*
X017642Y010500D03*
X017642Y010494D03*
X017636Y010488D03*
X017630Y010482D03*
X017624Y010476D03*
X017618Y010464D03*
X017612Y010458D03*
X017606Y010452D03*
X017594Y010434D03*
X017588Y010428D03*
X017582Y010422D03*
X017570Y010404D03*
X017564Y010398D03*
X017546Y010374D03*
X017540Y010368D03*
X017528Y010350D03*
X017522Y010344D03*
X017516Y010338D03*
X017504Y010320D03*
X017498Y010314D03*
X017492Y010308D03*
X017486Y010296D03*
X017480Y010290D03*
X017474Y010284D03*
X017468Y010278D03*
X017462Y010272D03*
X017462Y010266D03*
X017456Y010260D03*
X017450Y010254D03*
X017444Y010248D03*
X017438Y010242D03*
X017438Y010236D03*
X017432Y010230D03*
X017426Y010224D03*
X017420Y010218D03*
X017414Y010212D03*
X017414Y010206D03*
X017408Y010200D03*
X017402Y010194D03*
X017396Y010188D03*
X017384Y010170D03*
X017378Y010164D03*
X017360Y010140D03*
X017354Y010134D03*
X017330Y010104D03*
X017294Y010056D03*
X017288Y010050D03*
X017282Y010038D03*
X017276Y010032D03*
X017270Y010026D03*
X017264Y010014D03*
X017258Y010008D03*
X017252Y010002D03*
X017240Y009984D03*
X017234Y009978D03*
X017222Y009960D03*
X017216Y009954D03*
X017210Y009948D03*
X017204Y009942D03*
X013916Y012708D03*
X013898Y012960D03*
X013724Y012348D03*
X012884Y012408D03*
X011384Y013338D03*
X004694Y009804D03*
X002540Y008370D03*
D108*
X004697Y008370D03*
X004673Y009984D03*
X004691Y010236D03*
X007379Y010380D03*
X007379Y008370D03*
X010103Y012336D03*
X010475Y012708D03*
X011405Y013086D03*
X009527Y013056D03*
X013703Y008376D03*
X015203Y009336D03*
X016199Y010926D03*
X016235Y011460D03*
X016913Y011154D03*
X017687Y010554D03*
X017693Y010560D03*
X017699Y010566D03*
X017675Y010536D03*
X017669Y010530D03*
X017393Y010182D03*
X017387Y010176D03*
X017375Y010158D03*
X017369Y010152D03*
X017363Y010146D03*
X017351Y010128D03*
X017345Y010122D03*
X017339Y010116D03*
X017333Y010110D03*
X017327Y010098D03*
X017321Y010092D03*
X017315Y010086D03*
X017309Y010080D03*
X017309Y010074D03*
X017303Y010068D03*
X017297Y010062D03*
X017285Y010044D03*
X017201Y009936D03*
X015407Y011772D03*
X014789Y011880D03*
X014633Y012390D03*
X015083Y011172D03*
D109*
X010166Y009282D03*
X009878Y009486D03*
X006200Y008370D03*
D110*
X007373Y008400D03*
X007373Y008406D03*
X008675Y008370D03*
X007373Y010344D03*
X007373Y010350D03*
X004679Y010224D03*
X004703Y009768D03*
X004703Y008400D03*
X004703Y008394D03*
X002543Y010362D03*
X010115Y012324D03*
X013703Y008400D03*
X015983Y010350D03*
X016235Y011466D03*
X016235Y011730D03*
X015545Y012726D03*
X014615Y012648D03*
X017849Y010830D03*
D111*
X010196Y009270D03*
X009854Y008370D03*
D112*
X012272Y008370D03*
D113*
X013094Y008814D03*
X013094Y008820D03*
X013094Y008826D03*
X013094Y008832D03*
X013094Y008838D03*
X013094Y008844D03*
X013094Y008850D03*
X013094Y009102D03*
X013094Y009108D03*
X013094Y009114D03*
X013094Y009120D03*
X013094Y009126D03*
X013094Y009132D03*
X013094Y009138D03*
X013094Y009144D03*
X013094Y009150D03*
X013094Y009156D03*
X013094Y009162D03*
X013094Y009498D03*
X013094Y009504D03*
X013700Y010296D03*
X014780Y011634D03*
X015404Y011994D03*
X015404Y012000D03*
X016238Y011616D03*
X016238Y011610D03*
X016238Y011604D03*
X016238Y011598D03*
X016238Y011592D03*
X016238Y011586D03*
X016538Y012576D03*
X016538Y012582D03*
X016538Y012588D03*
X016538Y012594D03*
X017834Y010824D03*
X015938Y010278D03*
X013694Y012318D03*
X013694Y012324D03*
X013694Y012330D03*
X014630Y012636D03*
X011384Y013122D03*
X010478Y012930D03*
X009500Y013080D03*
X009500Y013086D03*
X009500Y013092D03*
X009500Y013098D03*
X009500Y013104D03*
X004700Y009726D03*
X004700Y009720D03*
X004700Y009714D03*
X004700Y009708D03*
X004700Y008454D03*
X004700Y008448D03*
X004700Y008442D03*
X004700Y008436D03*
X004160Y008376D03*
X002540Y008418D03*
X002540Y008424D03*
X002540Y008430D03*
X002540Y010320D03*
X002540Y010326D03*
X002540Y010332D03*
D114*
X006191Y008376D03*
X009905Y009468D03*
D115*
X008651Y009906D03*
X007373Y010308D03*
X007373Y010314D03*
X007373Y010320D03*
X007373Y008442D03*
X007373Y008436D03*
X007373Y008430D03*
X008669Y008376D03*
X010097Y012114D03*
X010121Y012318D03*
X010475Y012936D03*
X011387Y013116D03*
X011411Y013314D03*
X012107Y012450D03*
X012107Y012444D03*
X012107Y012438D03*
X012107Y012432D03*
X012107Y012426D03*
X012107Y012420D03*
X012107Y012414D03*
X012107Y012408D03*
X012107Y012402D03*
X012107Y012396D03*
X012107Y012390D03*
X012107Y012384D03*
X012107Y012378D03*
X012107Y012372D03*
X012107Y012366D03*
X012107Y012360D03*
X012107Y012354D03*
X012107Y012348D03*
X012107Y012342D03*
X012107Y012336D03*
X012107Y012330D03*
X012107Y012324D03*
X012107Y012318D03*
X012107Y012312D03*
X012107Y012306D03*
X012875Y012444D03*
X013715Y012108D03*
X013715Y012102D03*
X013715Y012096D03*
X013895Y012738D03*
X014627Y012642D03*
X015401Y012006D03*
X015383Y011802D03*
X015383Y011796D03*
X015089Y011358D03*
X015071Y011202D03*
X014783Y011622D03*
X014783Y011628D03*
X015293Y010428D03*
X015269Y010236D03*
X015941Y010284D03*
X016223Y010938D03*
X016223Y010944D03*
X016223Y010950D03*
X016205Y011178D03*
X016235Y011544D03*
X016235Y011550D03*
X016235Y011556D03*
X016235Y011562D03*
X016235Y011568D03*
X016235Y011574D03*
X016235Y011580D03*
X016235Y011622D03*
X016235Y011628D03*
X016235Y011634D03*
X016235Y011640D03*
X016235Y011646D03*
X016235Y011652D03*
X016559Y012354D03*
X016559Y012360D03*
X016559Y012366D03*
X016919Y011382D03*
X015563Y012936D03*
X013703Y010314D03*
X013703Y010308D03*
X013703Y010302D03*
X013097Y009096D03*
X013097Y009090D03*
X013097Y009084D03*
X013097Y009078D03*
X013097Y009072D03*
X013097Y009066D03*
X013097Y009060D03*
X013097Y009054D03*
X013097Y009048D03*
X013097Y009042D03*
X013097Y009036D03*
X013097Y009030D03*
X013097Y009024D03*
X013097Y009018D03*
X013097Y009012D03*
X013097Y009006D03*
X013097Y009000D03*
X013097Y008994D03*
X013097Y008988D03*
X013097Y008982D03*
X013097Y008976D03*
X013097Y008970D03*
X013097Y008964D03*
X013097Y008958D03*
X013097Y008952D03*
X013097Y008946D03*
X013097Y008940D03*
X013097Y008934D03*
X013097Y008928D03*
X013097Y008922D03*
X013097Y008916D03*
X013097Y008910D03*
X013097Y008904D03*
X013097Y008898D03*
X013097Y008892D03*
X013097Y008886D03*
X013097Y008880D03*
X013097Y008874D03*
X013097Y008868D03*
X013097Y008862D03*
X013097Y008856D03*
X013703Y008436D03*
X013703Y008430D03*
X013703Y008424D03*
X009521Y013308D03*
X004667Y010212D03*
X004691Y010014D03*
X004115Y010380D03*
X002543Y010344D03*
X002543Y010338D03*
D116*
X009863Y008376D03*
X012269Y008436D03*
D117*
X012272Y008376D03*
X012380Y009858D03*
D118*
X013700Y010368D03*
X015080Y011178D03*
X015086Y011382D03*
X015962Y010338D03*
X015950Y010320D03*
X015548Y012720D03*
X013910Y012714D03*
X013712Y012342D03*
X013700Y012084D03*
X010478Y012714D03*
X010490Y012960D03*
X009500Y013320D03*
X007376Y010368D03*
X007376Y008382D03*
X004700Y008382D03*
X004700Y009786D03*
X004682Y010230D03*
X002540Y008382D03*
D119*
X006185Y008382D03*
X009923Y009456D03*
X010121Y009306D03*
D120*
X011378Y009000D03*
X011378Y008994D03*
X011378Y008988D03*
X011378Y008982D03*
X011378Y008976D03*
X011378Y008868D03*
X011378Y008862D03*
X011378Y008856D03*
X011378Y008850D03*
X011378Y008844D03*
X011378Y008838D03*
X011378Y008832D03*
X011378Y008826D03*
X011378Y008820D03*
X013088Y008784D03*
X013088Y008778D03*
X013088Y008772D03*
X013088Y009198D03*
X013088Y009528D03*
X013088Y009534D03*
X013706Y009534D03*
X013706Y009540D03*
X013706Y009546D03*
X013706Y009552D03*
X013706Y009558D03*
X013706Y009564D03*
X013706Y009570D03*
X013706Y009576D03*
X013706Y009582D03*
X013706Y009588D03*
X013706Y009594D03*
X013706Y009600D03*
X013706Y009606D03*
X013706Y009612D03*
X013706Y009618D03*
X013706Y009624D03*
X013706Y009630D03*
X013706Y009636D03*
X013706Y009528D03*
X013706Y009522D03*
X013706Y009516D03*
X013706Y009510D03*
X013706Y009504D03*
X013706Y009498D03*
X013706Y009492D03*
X013706Y009486D03*
X013706Y009480D03*
X013706Y009474D03*
X013706Y009468D03*
X013706Y009462D03*
X013706Y009456D03*
X013706Y009450D03*
X013706Y009444D03*
X013706Y009438D03*
X013706Y009432D03*
X013706Y009426D03*
X013706Y009420D03*
X013706Y009414D03*
X013706Y009408D03*
X013706Y009402D03*
X013706Y009396D03*
X013706Y009390D03*
X013706Y009384D03*
X013706Y009378D03*
X013706Y009372D03*
X013706Y009366D03*
X013706Y009360D03*
X013706Y009354D03*
X013706Y009348D03*
X013706Y009342D03*
X013706Y009336D03*
X013706Y009330D03*
X013706Y009324D03*
X013706Y009318D03*
X013706Y009312D03*
X013706Y009306D03*
X013706Y009300D03*
X013706Y009294D03*
X013706Y009288D03*
X013706Y009282D03*
X013706Y009276D03*
X013706Y009270D03*
X013706Y009264D03*
X013706Y009258D03*
X013706Y009252D03*
X013706Y009246D03*
X013706Y009240D03*
X013706Y009234D03*
X013706Y009228D03*
X013706Y009222D03*
X013706Y009216D03*
X013706Y009210D03*
X013706Y009204D03*
X013706Y009198D03*
X013706Y009192D03*
X013706Y009186D03*
X013706Y009180D03*
X013706Y009174D03*
X013706Y009168D03*
X013706Y009162D03*
X013706Y009156D03*
X013706Y009150D03*
X013706Y009144D03*
X013706Y009138D03*
X013706Y009132D03*
X013706Y009126D03*
X013706Y009120D03*
X013706Y009114D03*
X013706Y009108D03*
X013706Y009102D03*
X013706Y009096D03*
X013706Y009090D03*
X013706Y009084D03*
X013706Y009078D03*
X013706Y009072D03*
X013706Y009066D03*
X013706Y009060D03*
X013706Y009054D03*
X013706Y009048D03*
X013706Y009042D03*
X013706Y009036D03*
X013706Y009030D03*
X013706Y009024D03*
X013706Y009018D03*
X013706Y009012D03*
X013706Y009006D03*
X013706Y009000D03*
X013706Y008994D03*
X013706Y008988D03*
X013706Y008982D03*
X013706Y008976D03*
X013706Y008970D03*
X013706Y008964D03*
X013706Y008958D03*
X013706Y008952D03*
X013706Y008946D03*
X013706Y008940D03*
X013706Y008934D03*
X013706Y008928D03*
X013706Y008922D03*
X013706Y008916D03*
X013706Y008910D03*
X013706Y008904D03*
X013706Y008898D03*
X013706Y008892D03*
X013706Y008886D03*
X013706Y008880D03*
X013706Y008874D03*
X013706Y008868D03*
X013706Y008862D03*
X013706Y008856D03*
X013706Y008850D03*
X013706Y008844D03*
X013706Y008838D03*
X013706Y008832D03*
X013706Y008826D03*
X013706Y008820D03*
X013706Y008814D03*
X013706Y008808D03*
X013706Y008802D03*
X013706Y008796D03*
X013706Y008790D03*
X013706Y008784D03*
X013706Y008778D03*
X013706Y008772D03*
X013706Y008766D03*
X013706Y008760D03*
X013706Y008754D03*
X013706Y008748D03*
X013706Y008742D03*
X013706Y008736D03*
X013706Y008730D03*
X013706Y008724D03*
X013706Y008718D03*
X013706Y008712D03*
X013706Y008706D03*
X013706Y008700D03*
X013706Y008694D03*
X013706Y008688D03*
X013706Y008682D03*
X013706Y008676D03*
X013706Y008670D03*
X013706Y008664D03*
X013706Y008658D03*
X013706Y008652D03*
X013706Y008646D03*
X013706Y008640D03*
X013706Y008634D03*
X013706Y008628D03*
X013706Y008622D03*
X013706Y008616D03*
X013706Y008610D03*
X013706Y008604D03*
X013706Y008598D03*
X013706Y008592D03*
X013706Y008586D03*
X013706Y008580D03*
X013706Y008574D03*
X013706Y008568D03*
X013706Y008562D03*
X013706Y008556D03*
X013706Y008550D03*
X013706Y008544D03*
X013706Y008538D03*
X013706Y008532D03*
X013706Y008526D03*
X013706Y008520D03*
X013706Y008514D03*
X013706Y008508D03*
X013706Y008502D03*
X013706Y008496D03*
X013706Y008490D03*
X013706Y008484D03*
X013706Y008478D03*
X013706Y009984D03*
X013706Y009990D03*
X013706Y009996D03*
X013706Y010002D03*
X013706Y010008D03*
X013706Y010014D03*
X013706Y010020D03*
X013706Y010026D03*
X013706Y010032D03*
X013706Y010038D03*
X013706Y010044D03*
X013706Y010050D03*
X013706Y010056D03*
X013706Y010062D03*
X013706Y010068D03*
X013706Y010074D03*
X013706Y010080D03*
X013706Y010086D03*
X013706Y010092D03*
X013706Y010098D03*
X013706Y010188D03*
X013706Y010194D03*
X013706Y010200D03*
X013706Y010206D03*
X013706Y010212D03*
X013706Y010218D03*
X013706Y010224D03*
X013706Y010230D03*
X013706Y010236D03*
X013706Y010242D03*
X013706Y010248D03*
X013706Y010254D03*
X015266Y010242D03*
X015932Y010266D03*
X016028Y010374D03*
X016220Y010986D03*
X016220Y010992D03*
X016220Y010998D03*
X016220Y011004D03*
X016220Y011010D03*
X016208Y011112D03*
X016208Y011118D03*
X016208Y011124D03*
X016208Y011130D03*
X016208Y011136D03*
X016922Y011370D03*
X016922Y011376D03*
X016556Y012396D03*
X016556Y012402D03*
X016556Y012408D03*
X016556Y012414D03*
X016556Y012420D03*
X016556Y012426D03*
X016550Y012444D03*
X016550Y012450D03*
X016550Y012456D03*
X016550Y012462D03*
X016538Y012540D03*
X016538Y012546D03*
X016538Y012552D03*
X016538Y012558D03*
X016538Y012564D03*
X015566Y012930D03*
X014612Y012498D03*
X014606Y012462D03*
X014762Y011832D03*
X014762Y011826D03*
X014762Y011820D03*
X014762Y011814D03*
X014762Y011808D03*
X014768Y011790D03*
X014768Y011784D03*
X014768Y011778D03*
X014768Y011772D03*
X014768Y011766D03*
X014780Y011688D03*
X014780Y011682D03*
X014780Y011676D03*
X014780Y011670D03*
X014780Y011664D03*
X015380Y011814D03*
X015380Y011820D03*
X015380Y011826D03*
X013892Y012750D03*
X013928Y012930D03*
X013712Y012162D03*
X013712Y012156D03*
X013712Y012150D03*
X013712Y012144D03*
X013712Y012138D03*
X012872Y012456D03*
X012902Y012600D03*
X010502Y012738D03*
X010502Y012744D03*
X010472Y012912D03*
X010472Y012918D03*
X010130Y012306D03*
X009500Y013116D03*
X009500Y013122D03*
X009500Y013128D03*
X009500Y013134D03*
X009518Y013254D03*
X009518Y013260D03*
X009518Y013266D03*
X009518Y013272D03*
X007376Y010278D03*
X007376Y010272D03*
X007376Y010266D03*
X007376Y010260D03*
X007376Y010254D03*
X007376Y010248D03*
X008648Y009900D03*
X007376Y008508D03*
X007376Y008502D03*
X007376Y008496D03*
X007376Y008490D03*
X007376Y008484D03*
X007376Y008478D03*
X007376Y008472D03*
X008666Y008382D03*
X004700Y010026D03*
X004112Y010374D03*
X002540Y010314D03*
X002540Y010308D03*
X002540Y010302D03*
X002540Y010296D03*
X002540Y010290D03*
X002540Y010284D03*
X002540Y010278D03*
X002540Y010272D03*
X002540Y010266D03*
X002540Y010260D03*
X002540Y010254D03*
X002540Y010248D03*
X002540Y010242D03*
X002540Y010236D03*
X002540Y010230D03*
X002540Y010224D03*
X002540Y010218D03*
X002540Y010212D03*
X002540Y010206D03*
X002540Y010200D03*
X002540Y010194D03*
X002540Y010188D03*
X002540Y010182D03*
X002540Y010176D03*
X002540Y010170D03*
X002540Y010164D03*
X002540Y010158D03*
X002540Y010152D03*
X002540Y010146D03*
X002540Y010140D03*
X002540Y010134D03*
X002540Y010128D03*
X002540Y010122D03*
X002540Y010116D03*
X002540Y010110D03*
X002540Y010104D03*
X002540Y010098D03*
X002540Y010092D03*
X002540Y010086D03*
X002540Y010080D03*
X002540Y010074D03*
X002540Y010068D03*
X002540Y010062D03*
X002540Y010056D03*
X002540Y010050D03*
X002540Y010044D03*
X002540Y010038D03*
X002540Y010032D03*
X002540Y010026D03*
X002540Y010020D03*
X002540Y010014D03*
X002540Y010008D03*
X002540Y010002D03*
X002540Y009996D03*
X002540Y009990D03*
X002540Y009984D03*
X002540Y009978D03*
X002540Y009972D03*
X002540Y009966D03*
X002540Y009960D03*
X002540Y009954D03*
X002540Y009948D03*
X002540Y009942D03*
X002540Y009936D03*
X002540Y009930D03*
X002540Y009924D03*
X002540Y009918D03*
X002540Y009912D03*
X002540Y009906D03*
X002540Y009900D03*
X002540Y009894D03*
X002540Y009888D03*
X002540Y009882D03*
X002540Y009876D03*
X002540Y009870D03*
X002540Y009864D03*
X002540Y009858D03*
X002540Y009852D03*
X002540Y009846D03*
X002540Y009840D03*
X002540Y009834D03*
X002540Y009828D03*
X002540Y009822D03*
X002540Y009816D03*
X002540Y009810D03*
X002540Y009804D03*
X002540Y009798D03*
X002540Y009792D03*
X002540Y009786D03*
X002540Y009780D03*
X002540Y009774D03*
X002540Y009768D03*
X002540Y009762D03*
X002540Y009756D03*
X002540Y009750D03*
X002540Y009744D03*
X002540Y009738D03*
X002540Y009732D03*
X002540Y009726D03*
X002540Y009720D03*
X002540Y009714D03*
X002540Y009708D03*
X002540Y009702D03*
X002540Y009696D03*
X002540Y009690D03*
X002540Y009684D03*
X002540Y009678D03*
X002540Y009672D03*
X002540Y009054D03*
X002540Y009048D03*
X002540Y009042D03*
X002540Y009036D03*
X002540Y009030D03*
X002540Y009024D03*
X002540Y009018D03*
X002540Y009012D03*
X002540Y009006D03*
X002540Y009000D03*
X002540Y008994D03*
X002540Y008988D03*
X002540Y008982D03*
X002540Y008976D03*
X002540Y008970D03*
X002540Y008964D03*
X002540Y008958D03*
X002540Y008952D03*
X002540Y008946D03*
X002540Y008940D03*
X002540Y008934D03*
X002540Y008928D03*
X002540Y008922D03*
X002540Y008916D03*
X002540Y008910D03*
X002540Y008904D03*
X002540Y008898D03*
X002540Y008892D03*
X002540Y008886D03*
X002540Y008880D03*
X002540Y008874D03*
X002540Y008868D03*
X002540Y008862D03*
X002540Y008856D03*
X002540Y008850D03*
X002540Y008844D03*
X002540Y008838D03*
X002540Y008832D03*
X002540Y008826D03*
X002540Y008820D03*
X002540Y008814D03*
X002540Y008808D03*
X002540Y008802D03*
X002540Y008796D03*
X002540Y008790D03*
X002540Y008784D03*
X002540Y008778D03*
X002540Y008772D03*
X002540Y008766D03*
X002540Y008760D03*
X002540Y008754D03*
X002540Y008748D03*
X002540Y008742D03*
X002540Y008736D03*
X002540Y008730D03*
X002540Y008724D03*
X002540Y008718D03*
X002540Y008712D03*
X002540Y008706D03*
X002540Y008700D03*
X002540Y008694D03*
X002540Y008688D03*
X002540Y008682D03*
X002540Y008676D03*
X002540Y008670D03*
X002540Y008664D03*
X002540Y008658D03*
X002540Y008652D03*
X002540Y008646D03*
X002540Y008640D03*
X002540Y008634D03*
X002540Y008628D03*
X002540Y008622D03*
X002540Y008616D03*
X002540Y008610D03*
X002540Y008604D03*
X002540Y008598D03*
X002540Y008592D03*
X002540Y008586D03*
X002540Y008580D03*
X002540Y008574D03*
X002540Y008568D03*
X002540Y008562D03*
X002540Y008556D03*
X002540Y008550D03*
X002540Y008544D03*
X002540Y008538D03*
X002540Y008532D03*
X002540Y008526D03*
X002540Y008520D03*
X002540Y008514D03*
X002540Y008508D03*
X002540Y008502D03*
X002540Y008496D03*
X002540Y008490D03*
X002540Y008484D03*
X002540Y008478D03*
X002540Y008472D03*
X002540Y008466D03*
X002540Y008460D03*
X002540Y008454D03*
X002540Y008448D03*
D121*
X009872Y008382D03*
X010142Y009294D03*
D122*
X009866Y010266D03*
X012272Y008382D03*
D123*
X013700Y008394D03*
X015278Y010218D03*
X015284Y010440D03*
X016214Y010932D03*
X016238Y011736D03*
X016544Y012348D03*
X016550Y012606D03*
X015554Y012948D03*
X015392Y012024D03*
X015086Y011376D03*
X013904Y012720D03*
X013910Y012948D03*
X012890Y012624D03*
X012878Y012426D03*
X011396Y013098D03*
X011402Y013326D03*
X013700Y010362D03*
X013700Y010356D03*
X017162Y009906D03*
X004700Y009780D03*
X004700Y009774D03*
X004682Y009996D03*
X004700Y008388D03*
X002540Y008388D03*
X002540Y010368D03*
D124*
X006179Y008388D03*
X012269Y008460D03*
D125*
X013079Y008736D03*
X013079Y009558D03*
X011393Y009072D03*
X011393Y009066D03*
X011393Y008760D03*
X011399Y008748D03*
X010859Y008796D03*
X010859Y008802D03*
X010859Y008808D03*
X010859Y009078D03*
X010859Y009084D03*
X010859Y009090D03*
X008663Y008388D03*
X005213Y008766D03*
X005213Y008772D03*
X005213Y009552D03*
X005213Y009558D03*
X005219Y009564D03*
X004685Y010092D03*
X004685Y010098D03*
X004685Y010104D03*
X004679Y010122D03*
X004679Y010128D03*
X004673Y010152D03*
X004109Y010368D03*
X010103Y012180D03*
X010109Y012210D03*
X010109Y012216D03*
X011393Y013194D03*
X011399Y013218D03*
X011399Y013224D03*
X012869Y012468D03*
X015095Y011340D03*
X015293Y010380D03*
X015293Y010374D03*
X015275Y010308D03*
X015275Y010302D03*
X015275Y010296D03*
X015929Y010254D03*
X016043Y010380D03*
X015245Y009360D03*
X015539Y012792D03*
X015539Y012798D03*
X015539Y012804D03*
X015539Y012810D03*
X015545Y012816D03*
X015545Y012822D03*
X015545Y012828D03*
X015545Y012834D03*
X015563Y012900D03*
D126*
X012422Y009456D03*
X012266Y008454D03*
X009884Y008388D03*
X009932Y009450D03*
D127*
X009752Y009534D03*
X012272Y008388D03*
D128*
X013700Y008406D03*
X013700Y010338D03*
X013700Y010344D03*
X013700Y010350D03*
X015086Y011370D03*
X015392Y011784D03*
X016238Y011724D03*
X016238Y011718D03*
X016238Y011712D03*
X016238Y011706D03*
X016238Y011490D03*
X016238Y011484D03*
X016238Y011478D03*
X016238Y011472D03*
X015992Y010356D03*
X015944Y010302D03*
X015290Y010434D03*
X015542Y012732D03*
X012878Y012432D03*
X012110Y012492D03*
X011390Y013104D03*
X010478Y012954D03*
X010106Y012102D03*
X009512Y013314D03*
X004688Y010002D03*
X004700Y009762D03*
X004700Y009756D03*
X004118Y010386D03*
X004700Y008406D03*
X002540Y008400D03*
X002540Y008394D03*
D129*
X006170Y008394D03*
X010058Y009348D03*
X012404Y009444D03*
D130*
X010082Y009330D03*
X010076Y009336D03*
X009962Y009426D03*
X009890Y008394D03*
D131*
X009830Y010194D03*
X012434Y009768D03*
X012272Y008394D03*
D132*
X012395Y009438D03*
X006167Y008400D03*
D133*
X005231Y008730D03*
X005231Y009594D03*
X005237Y009600D03*
X008633Y009882D03*
X009215Y009990D03*
X009221Y010002D03*
X009203Y009672D03*
X008657Y008400D03*
X010847Y008754D03*
X010841Y009138D03*
X011411Y009102D03*
X013061Y009588D03*
X013067Y009582D03*
X013067Y009204D03*
X015257Y009366D03*
X015923Y010230D03*
X016061Y010386D03*
X015095Y011322D03*
X012881Y012510D03*
X012887Y012528D03*
X012893Y012540D03*
X012893Y012546D03*
D134*
X010037Y009366D03*
X010043Y009360D03*
X010013Y009384D03*
X010007Y009390D03*
X010001Y009396D03*
X009899Y008400D03*
D135*
X009782Y009528D03*
X012272Y008400D03*
D136*
X013700Y010320D03*
X013700Y010326D03*
X013700Y010332D03*
X015074Y011196D03*
X015086Y011364D03*
X015386Y011790D03*
X015404Y012012D03*
X015536Y012738D03*
X014606Y012408D03*
X014606Y012402D03*
X013898Y012732D03*
X013916Y012942D03*
X013712Y012090D03*
X012896Y012612D03*
X012110Y012300D03*
X010478Y012942D03*
X010478Y012948D03*
X010100Y012108D03*
X009500Y013068D03*
X009500Y013074D03*
X004700Y009744D03*
X004700Y009738D03*
X004700Y009732D03*
X004700Y008430D03*
X004700Y008424D03*
X004700Y008418D03*
X002540Y008412D03*
X002540Y008406D03*
X002540Y010350D03*
X015272Y010230D03*
X015938Y010290D03*
X016004Y010362D03*
X016238Y011514D03*
X016238Y011520D03*
X016238Y011526D03*
X016238Y011532D03*
X016238Y011538D03*
X016238Y011658D03*
X016238Y011664D03*
X016238Y011670D03*
X016238Y011676D03*
X016238Y011682D03*
X016238Y011688D03*
X016892Y011178D03*
X016538Y012600D03*
D137*
X006161Y008406D03*
D138*
X008654Y008406D03*
D139*
X009905Y008406D03*
X012263Y008478D03*
X006155Y009900D03*
D140*
X012272Y008406D03*
D141*
X013040Y008670D03*
X013046Y009612D03*
X013040Y009618D03*
X010820Y009168D03*
X009224Y009630D03*
X009236Y010026D03*
X009242Y010032D03*
X005258Y009624D03*
X005252Y008700D03*
X004142Y008412D03*
X004094Y010344D03*
X017834Y010650D03*
D142*
X012380Y009426D03*
X012266Y008484D03*
X009914Y008412D03*
X006152Y008412D03*
X006152Y009894D03*
D143*
X005249Y009618D03*
X008627Y009870D03*
X009221Y009636D03*
X008651Y008412D03*
X010829Y008724D03*
X010823Y009162D03*
X011435Y009132D03*
X011435Y008694D03*
X013043Y008676D03*
X015269Y009372D03*
X016079Y010392D03*
X015089Y011292D03*
X015095Y011304D03*
X017837Y010662D03*
X017837Y010656D03*
D144*
X012272Y008412D03*
X006212Y009948D03*
D145*
X006146Y009888D03*
X006152Y008418D03*
X012266Y008490D03*
D146*
X010823Y008718D03*
X009233Y009618D03*
X009245Y010038D03*
X008645Y008418D03*
X005255Y008694D03*
X017069Y009870D03*
D147*
X009917Y008418D03*
D148*
X012272Y008418D03*
D149*
X006146Y008424D03*
X006140Y009882D03*
D150*
X008639Y008424D03*
X009239Y009612D03*
D151*
X009923Y008424D03*
X012263Y008496D03*
X012365Y009414D03*
D152*
X010808Y008700D03*
X009254Y009594D03*
X009248Y009600D03*
X004130Y008430D03*
D153*
X006140Y008430D03*
D154*
X008633Y008430D03*
X008615Y009852D03*
X009257Y010050D03*
X009263Y010056D03*
X011453Y009150D03*
X013019Y009636D03*
X017057Y009864D03*
D155*
X012359Y009408D03*
X012263Y008502D03*
X009929Y008430D03*
D156*
X010181Y009276D03*
X012269Y008430D03*
X012461Y009474D03*
D157*
X013703Y010386D03*
X015269Y010458D03*
X015665Y010020D03*
X015683Y010038D03*
X015713Y010074D03*
X015719Y010080D03*
X015725Y010086D03*
X015755Y010122D03*
X015773Y010140D03*
X015635Y009984D03*
X015629Y009978D03*
X015623Y009972D03*
X015593Y009936D03*
X015545Y009882D03*
X016883Y011412D03*
X015563Y012702D03*
X015533Y012966D03*
X013925Y012702D03*
X013889Y012966D03*
X012875Y012648D03*
X008663Y009924D03*
X007379Y010386D03*
X017675Y008430D03*
X017705Y008472D03*
X017723Y008496D03*
X017735Y008514D03*
X017753Y008538D03*
X017765Y008556D03*
X017783Y008580D03*
X017795Y008598D03*
X017813Y008622D03*
X017825Y008640D03*
X017843Y008664D03*
X017855Y008682D03*
X017873Y008706D03*
X017885Y008724D03*
X017903Y008748D03*
X017909Y008760D03*
X017915Y008766D03*
X017933Y008790D03*
X017939Y008802D03*
X017945Y008808D03*
X017963Y008832D03*
X017969Y008844D03*
X017975Y008850D03*
X017993Y008874D03*
X017999Y008886D03*
X018005Y008892D03*
X018029Y008928D03*
X018035Y008934D03*
X018053Y008964D03*
X018059Y008970D03*
X018083Y009006D03*
X018089Y009012D03*
X018113Y009048D03*
X018119Y009054D03*
X018143Y009090D03*
X018143Y009096D03*
D158*
X012260Y008508D03*
X006134Y008436D03*
D159*
X005279Y009642D03*
X004079Y010320D03*
X008609Y009846D03*
X008633Y008436D03*
X010787Y009198D03*
X013013Y009642D03*
X016115Y010404D03*
D160*
X012353Y009402D03*
X009935Y008436D03*
X006131Y009870D03*
D161*
X006128Y009864D03*
X006134Y008442D03*
X012260Y008514D03*
X012350Y009396D03*
D162*
X009941Y008442D03*
D163*
X012269Y008442D03*
D164*
X013706Y008442D03*
X016016Y010368D03*
X016226Y010956D03*
X016202Y011166D03*
X016202Y011172D03*
X016892Y011184D03*
X017132Y009894D03*
X014762Y011850D03*
X014762Y011856D03*
X014762Y011862D03*
X014606Y012414D03*
X014606Y012420D03*
X014606Y012426D03*
X014606Y012432D03*
X013922Y012936D03*
X015536Y012744D03*
X010496Y012732D03*
X007376Y010302D03*
X007376Y010296D03*
X007376Y010290D03*
X007376Y010284D03*
X007376Y008466D03*
X007376Y008460D03*
X007376Y008454D03*
X007376Y008448D03*
D165*
X009269Y009582D03*
X011483Y008658D03*
X012995Y008640D03*
X016133Y010410D03*
X004073Y010308D03*
X004115Y008448D03*
D166*
X006128Y008448D03*
X012260Y008520D03*
X012344Y009390D03*
D167*
X011477Y009168D03*
X010787Y008682D03*
X008621Y008448D03*
X005291Y008664D03*
D168*
X009944Y008448D03*
D169*
X012269Y008448D03*
D170*
X012992Y009654D03*
X013706Y009942D03*
X010772Y009210D03*
X009278Y009576D03*
X008594Y009828D03*
X008618Y008454D03*
X005300Y009654D03*
X004112Y008454D03*
X017024Y009852D03*
D171*
X006125Y008454D03*
D172*
X006119Y008460D03*
X009947Y008454D03*
D173*
X009953Y008460D03*
X012329Y009372D03*
X006113Y009840D03*
X006113Y008472D03*
D174*
X004100Y008466D03*
X004058Y010290D03*
X012980Y009660D03*
X012980Y008634D03*
D175*
X012332Y009378D03*
X012260Y008532D03*
X006116Y008466D03*
X006116Y009846D03*
D176*
X009959Y008466D03*
X010079Y008640D03*
D177*
X010052Y009354D03*
X009992Y009402D03*
X009986Y009408D03*
X012266Y008466D03*
D178*
X011507Y008646D03*
X011501Y009180D03*
X010751Y009222D03*
X009305Y010080D03*
X008579Y009810D03*
X008597Y008472D03*
X004097Y008472D03*
X015329Y009396D03*
X016169Y010422D03*
D179*
X012320Y009360D03*
X009962Y008472D03*
X006104Y008484D03*
X006008Y008622D03*
X006104Y009822D03*
D180*
X010022Y009378D03*
X010028Y009372D03*
X012266Y008472D03*
D181*
X012257Y008544D03*
X012323Y009366D03*
X006107Y009828D03*
X006107Y008478D03*
D182*
X008594Y008478D03*
D183*
X009965Y008478D03*
X012257Y008550D03*
X012317Y009354D03*
X006101Y009816D03*
X006101Y008490D03*
D184*
X005324Y008646D03*
X004082Y008484D03*
X004040Y010272D03*
X008588Y008484D03*
X009302Y009564D03*
X010760Y008664D03*
X011522Y008640D03*
X011516Y009186D03*
X016994Y009840D03*
D185*
X012311Y009348D03*
X009971Y008484D03*
X006095Y008502D03*
X006017Y009690D03*
X006095Y009804D03*
D186*
X004079Y008490D03*
X010733Y009228D03*
D187*
X008552Y009786D03*
X008576Y008496D03*
X008582Y008490D03*
X012986Y009492D03*
X015344Y009402D03*
X004034Y010266D03*
D188*
X009974Y008490D03*
X010064Y008634D03*
X012254Y008562D03*
D189*
X010745Y008658D03*
X004073Y008496D03*
X004031Y010260D03*
X017741Y010782D03*
D190*
X012254Y008556D03*
X006098Y008496D03*
X006098Y009810D03*
D191*
X006089Y009792D03*
X006029Y009696D03*
X006023Y008616D03*
X006089Y008514D03*
X009977Y008496D03*
X012251Y008568D03*
X012305Y009336D03*
D192*
X012302Y009330D03*
X009980Y008502D03*
X006086Y008520D03*
X006080Y008526D03*
X006032Y008610D03*
X006032Y009702D03*
X006080Y009780D03*
X006086Y009786D03*
D193*
X005345Y009672D03*
X004025Y010254D03*
X004019Y010248D03*
X004061Y008508D03*
X008543Y009774D03*
X011531Y009192D03*
X012947Y009672D03*
D194*
X012308Y009342D03*
X006092Y009798D03*
X006092Y008508D03*
D195*
X008558Y008514D03*
X008564Y008508D03*
X008534Y009768D03*
X011540Y008634D03*
D196*
X012299Y009324D03*
X010055Y008628D03*
X009983Y008508D03*
D197*
X010715Y009234D03*
X008531Y009762D03*
X004055Y008514D03*
X004049Y008520D03*
X004013Y010242D03*
X016961Y009828D03*
D198*
X012296Y009318D03*
X012248Y008580D03*
X010046Y008622D03*
X009986Y008514D03*
X006074Y008544D03*
X006068Y008550D03*
X006068Y008556D03*
X006044Y008598D03*
X006038Y008604D03*
X006044Y009714D03*
X006050Y009720D03*
X006056Y009732D03*
X006062Y009744D03*
X006068Y009750D03*
X006068Y009756D03*
X006074Y009762D03*
D199*
X006059Y009738D03*
X006059Y008574D03*
X006059Y008568D03*
X009989Y008520D03*
D200*
X008543Y008526D03*
X008513Y009750D03*
X005357Y008634D03*
X004043Y008526D03*
X004037Y008532D03*
X004001Y010230D03*
D201*
X009992Y008526D03*
X009998Y008538D03*
X010040Y008616D03*
X012248Y008592D03*
X012290Y009306D03*
D202*
X012338Y009384D03*
X012260Y008526D03*
X006122Y009852D03*
D203*
X006077Y009774D03*
X006077Y009768D03*
X006041Y009708D03*
X006077Y008538D03*
X006077Y008532D03*
X012251Y008574D03*
D204*
X008540Y008532D03*
X008510Y009744D03*
X004028Y008538D03*
X003986Y010218D03*
X003992Y010224D03*
D205*
X009995Y008532D03*
X010001Y008544D03*
X010037Y008610D03*
X012287Y009300D03*
D206*
X015371Y009414D03*
X016247Y010446D03*
X008501Y009738D03*
X008531Y008538D03*
D207*
X012257Y008538D03*
D208*
X011549Y009198D03*
X004019Y008544D03*
D209*
X004016Y008550D03*
X003974Y010206D03*
X003980Y010212D03*
X008486Y009726D03*
X008492Y009732D03*
X008522Y008544D03*
X012110Y009966D03*
X016946Y009822D03*
D210*
X017711Y010770D03*
X012917Y009678D03*
X011567Y008628D03*
X008513Y008550D03*
X008507Y008556D03*
X008477Y009720D03*
X003965Y010200D03*
X004001Y008562D03*
X004007Y008556D03*
D211*
X010004Y008556D03*
X010004Y008550D03*
X010010Y008562D03*
X010010Y008568D03*
X010028Y008604D03*
X012248Y008604D03*
X012248Y008598D03*
X012284Y009294D03*
D212*
X012293Y009312D03*
X012251Y008586D03*
X006065Y008562D03*
X006053Y008580D03*
X006053Y008586D03*
X006047Y008592D03*
X006053Y009726D03*
D213*
X007829Y009336D03*
X007859Y009354D03*
X007889Y009372D03*
X007901Y009378D03*
X007919Y009390D03*
X007931Y009396D03*
X007943Y009402D03*
X007961Y009414D03*
X007973Y009420D03*
X007991Y009432D03*
X008003Y009438D03*
X008015Y009444D03*
X008033Y009456D03*
X008045Y009462D03*
X008057Y009468D03*
X008063Y009474D03*
X008075Y009480D03*
X008087Y009486D03*
X008093Y009492D03*
X008105Y009498D03*
X008117Y009504D03*
X008129Y009510D03*
X008135Y009516D03*
X008147Y009522D03*
X008159Y009528D03*
X008165Y009534D03*
X008177Y009540D03*
X008189Y009546D03*
X008207Y009558D03*
X008219Y009564D03*
X008231Y009570D03*
X008237Y009576D03*
X008249Y009582D03*
X008261Y009588D03*
X008267Y009594D03*
X008279Y009600D03*
X008291Y009606D03*
X008309Y009618D03*
X008321Y009624D03*
X008339Y009636D03*
X008351Y009642D03*
X008369Y009654D03*
X008381Y009660D03*
X008399Y009672D03*
X008411Y009678D03*
X008429Y009690D03*
X008441Y009696D03*
X008483Y008574D03*
X008489Y008568D03*
X003965Y008586D03*
X003947Y008598D03*
X003095Y009648D03*
X003101Y009654D03*
X003113Y009660D03*
X003125Y009666D03*
X003131Y009672D03*
X003143Y009678D03*
X003155Y009684D03*
X003161Y009690D03*
X003173Y009696D03*
X003179Y009702D03*
X003191Y009708D03*
X003203Y009714D03*
X003209Y009720D03*
X003221Y009726D03*
X003239Y009738D03*
X003257Y009750D03*
X003269Y009756D03*
X003287Y009768D03*
X003305Y009780D03*
X003323Y009792D03*
X003335Y009798D03*
X003353Y009810D03*
X003383Y009828D03*
X003401Y009840D03*
X003449Y009870D03*
X003497Y009900D03*
X003083Y009642D03*
X003071Y009636D03*
X003053Y009624D03*
X003935Y010176D03*
X003941Y010182D03*
X016265Y010452D03*
X016931Y009816D03*
D214*
X012281Y009288D03*
X010025Y008598D03*
X010019Y008586D03*
X010019Y008580D03*
X010013Y008574D03*
D215*
X008474Y008580D03*
X008324Y008670D03*
X008294Y008688D03*
X008264Y008706D03*
X008234Y008724D03*
X008204Y008742D03*
X008174Y008760D03*
X008198Y009552D03*
X008300Y009612D03*
X008330Y009630D03*
X003908Y010158D03*
X003710Y010032D03*
X003680Y010014D03*
X003614Y009972D03*
X003584Y009954D03*
X003554Y009936D03*
X003548Y009930D03*
X003524Y009918D03*
X003518Y009912D03*
X003488Y009894D03*
X003470Y009882D03*
X003458Y009876D03*
X003440Y009864D03*
X003428Y009858D03*
X003410Y009846D03*
X003374Y009822D03*
X003344Y009804D03*
X003314Y009786D03*
X003278Y009762D03*
X003248Y009744D03*
X003230Y009732D03*
X003044Y009618D03*
X003020Y009606D03*
X002990Y009588D03*
X003230Y009048D03*
X003260Y009030D03*
X003278Y009018D03*
X003290Y009012D03*
X003308Y009000D03*
X003338Y008982D03*
X003368Y008964D03*
X003374Y008958D03*
X003404Y008940D03*
X003434Y008922D03*
X003464Y008904D03*
X003500Y008880D03*
X003530Y008862D03*
X003548Y008850D03*
X003560Y008844D03*
X003578Y008832D03*
X003608Y008814D03*
X003674Y008772D03*
X003704Y008754D03*
X003740Y008730D03*
X003770Y008712D03*
X003788Y008700D03*
X003818Y008682D03*
X003854Y008658D03*
X003884Y008640D03*
X003914Y008622D03*
X003920Y008616D03*
X003938Y008604D03*
D216*
X003893Y008634D03*
X003875Y008646D03*
X003845Y008664D03*
X003827Y008676D03*
X003809Y008688D03*
X003797Y008694D03*
X003779Y008706D03*
X003761Y008718D03*
X003749Y008724D03*
X003731Y008736D03*
X003713Y008748D03*
X003683Y008766D03*
X003665Y008778D03*
X003647Y008790D03*
X003635Y008796D03*
X003617Y008808D03*
X003599Y008820D03*
X003587Y008826D03*
X003569Y008838D03*
X003539Y008856D03*
X003521Y008868D03*
X003491Y008886D03*
X003473Y008898D03*
X003443Y008916D03*
X003425Y008928D03*
X003395Y008946D03*
X003347Y008976D03*
X003317Y008994D03*
X003299Y009006D03*
X003269Y009024D03*
X003251Y009036D03*
X003239Y009042D03*
X003221Y009054D03*
X003209Y009060D03*
X003203Y009066D03*
X003191Y009072D03*
X003173Y009084D03*
X003161Y009090D03*
X003155Y009096D03*
X003143Y009102D03*
X003131Y009108D03*
X003125Y009114D03*
X003113Y009120D03*
X003095Y009132D03*
X003083Y009138D03*
X003065Y009150D03*
X003035Y009168D03*
X003011Y009600D03*
X003575Y009948D03*
X003593Y009960D03*
X003623Y009978D03*
X003641Y009990D03*
X003653Y009996D03*
X003671Y010008D03*
X003689Y010020D03*
X003701Y010026D03*
X003719Y010038D03*
X003731Y010044D03*
X003737Y010050D03*
X003749Y010056D03*
X003755Y010062D03*
X003767Y010068D03*
X003779Y010074D03*
X003785Y010080D03*
X003797Y010086D03*
X003803Y010092D03*
X003815Y010098D03*
X003827Y010104D03*
X003833Y010110D03*
X003845Y010116D03*
X003851Y010122D03*
X003863Y010128D03*
X003875Y010134D03*
X003881Y010140D03*
X003893Y010146D03*
X003899Y010152D03*
X003917Y010164D03*
X005381Y008628D03*
X007523Y009150D03*
X007925Y008904D03*
X007937Y008898D03*
X007967Y008880D03*
X007979Y008874D03*
X007997Y008862D03*
X008009Y008856D03*
X008021Y008850D03*
X008039Y008838D03*
X008051Y008832D03*
X008063Y008826D03*
X008069Y008820D03*
X008081Y008814D03*
X008093Y008808D03*
X008105Y008802D03*
X008111Y008796D03*
X008123Y008790D03*
X008135Y008784D03*
X008141Y008778D03*
X008153Y008772D03*
X008165Y008766D03*
X008183Y008754D03*
X008195Y008748D03*
X008213Y008736D03*
X008225Y008730D03*
X008243Y008718D03*
X008255Y008712D03*
X008273Y008700D03*
X008285Y008694D03*
X008315Y008676D03*
X008345Y008658D03*
X008357Y008652D03*
X008375Y008640D03*
X008387Y008634D03*
X008399Y008628D03*
X008417Y008616D03*
X008429Y008610D03*
X008435Y008604D03*
X008447Y008598D03*
X008465Y008586D03*
D217*
X008456Y008592D03*
X008366Y008646D03*
X008336Y008664D03*
X008306Y008682D03*
X003956Y008592D03*
X003932Y008610D03*
X003902Y008628D03*
X003866Y008652D03*
X003836Y008670D03*
X003722Y008742D03*
X003692Y008760D03*
X003656Y008784D03*
X003626Y008802D03*
X003512Y008874D03*
X003482Y008892D03*
X003452Y008910D03*
X003416Y008934D03*
X003386Y008952D03*
X003356Y008970D03*
X003326Y008988D03*
X003182Y009078D03*
X003002Y009594D03*
X003032Y009612D03*
X003062Y009630D03*
X003296Y009774D03*
X003362Y009816D03*
X003392Y009834D03*
X003422Y009852D03*
X003476Y009888D03*
X003506Y009906D03*
X003536Y009924D03*
X003566Y009942D03*
X003602Y009966D03*
X003632Y009984D03*
X003662Y010002D03*
X003926Y010170D03*
X015386Y009420D03*
D218*
X010022Y008592D03*
D219*
X012248Y008610D03*
X012248Y008616D03*
X012278Y009276D03*
X012278Y009282D03*
D220*
X011576Y009204D03*
X008408Y008622D03*
X008030Y008844D03*
X007988Y008868D03*
X007958Y008886D03*
X007946Y008892D03*
X007916Y008910D03*
X007892Y008922D03*
X007886Y008928D03*
X007862Y008940D03*
X007832Y008958D03*
X007526Y009156D03*
X003056Y009156D03*
X003026Y009174D03*
X002690Y009390D03*
X016286Y010458D03*
D221*
X012275Y009270D03*
X012245Y008622D03*
D222*
X012959Y008628D03*
X016979Y009834D03*
X008549Y009780D03*
X005339Y008640D03*
D223*
X005312Y008652D03*
X005312Y009660D03*
X010772Y008670D03*
X012086Y009972D03*
X017012Y009846D03*
D224*
X017765Y010794D03*
X015311Y009390D03*
X011495Y008652D03*
X010781Y008676D03*
X009293Y010074D03*
X005303Y008658D03*
X004067Y010302D03*
D225*
X004082Y010326D03*
X005276Y008676D03*
X010796Y009192D03*
X011462Y009156D03*
X011462Y008670D03*
X013016Y008652D03*
D226*
X011468Y009162D03*
X010802Y008694D03*
X009272Y010062D03*
X005282Y008670D03*
X015296Y009384D03*
X017042Y009858D03*
X017780Y010800D03*
D227*
X017828Y010626D03*
X015284Y009378D03*
X013040Y009210D03*
X013028Y009630D03*
X011456Y008676D03*
X010814Y008706D03*
X010802Y009186D03*
X009242Y009606D03*
X008618Y009858D03*
X005270Y009636D03*
X005270Y008682D03*
X004088Y010332D03*
D228*
X009227Y009624D03*
X011441Y009138D03*
X011441Y008688D03*
X017831Y010644D03*
D229*
X012869Y012480D03*
X012899Y012564D03*
X012899Y012570D03*
X009209Y009978D03*
X009209Y009972D03*
X008639Y009888D03*
X005219Y008754D03*
X005219Y008748D03*
D230*
X003104Y009126D03*
X003074Y009144D03*
X003044Y009162D03*
X003014Y009180D03*
X007874Y008934D03*
X007904Y008916D03*
D231*
X007670Y008970D03*
X002834Y009204D03*
X002834Y009582D03*
X016370Y009666D03*
D232*
X016262Y009642D03*
X015848Y009552D03*
X007664Y008976D03*
X002828Y009210D03*
X002828Y009576D03*
D233*
X002819Y009564D03*
X002819Y009222D03*
X007655Y008988D03*
X016133Y009612D03*
D234*
X007643Y009300D03*
X007643Y009000D03*
X002807Y009240D03*
D235*
X002804Y009546D03*
X007640Y009006D03*
D236*
X007628Y009018D03*
X007628Y009282D03*
X002792Y009258D03*
D237*
X002789Y009528D03*
X007625Y009024D03*
X015503Y009468D03*
D238*
X007613Y009264D03*
X007613Y009036D03*
X002777Y009276D03*
X002777Y009510D03*
D239*
X002774Y009282D03*
X007610Y009042D03*
X015488Y009462D03*
D240*
X007595Y009060D03*
X002759Y009300D03*
D241*
X002744Y009318D03*
X002744Y009468D03*
X007580Y009078D03*
X016850Y009786D03*
D242*
X017309Y010674D03*
X007577Y009222D03*
X007577Y009084D03*
X002741Y009324D03*
D243*
X002735Y009330D03*
X002735Y009456D03*
X007571Y009090D03*
X015443Y009444D03*
D244*
X016865Y009792D03*
X017273Y010668D03*
X007565Y009204D03*
X007565Y009096D03*
X002729Y009450D03*
D245*
X002726Y009444D03*
X002726Y009342D03*
X007562Y009102D03*
X015428Y009438D03*
X016448Y010500D03*
X016478Y010506D03*
X016508Y010512D03*
X016538Y010518D03*
X016976Y010608D03*
X017006Y010614D03*
X017036Y010620D03*
X017066Y010626D03*
X017090Y010632D03*
X017120Y010638D03*
D246*
X016766Y010566D03*
X016736Y010560D03*
X016652Y010542D03*
X007556Y009192D03*
X007556Y009108D03*
X002720Y009438D03*
D247*
X004703Y010248D03*
X010133Y012078D03*
X010085Y012348D03*
X010463Y012696D03*
X010511Y012972D03*
X012107Y012234D03*
X012875Y012654D03*
X013739Y012354D03*
X014651Y012384D03*
X015527Y012972D03*
X015077Y011406D03*
X015089Y011154D03*
X018155Y009120D03*
X018155Y009114D03*
X018149Y009108D03*
D248*
X016883Y009798D03*
X016373Y010482D03*
X016793Y010572D03*
X016823Y010578D03*
X016853Y010584D03*
X016907Y010596D03*
X007553Y009114D03*
X002717Y009354D03*
X002717Y009432D03*
D249*
X002540Y010392D03*
X004658Y009972D03*
X009542Y013050D03*
X011420Y013074D03*
X013670Y012072D03*
X015260Y010464D03*
X015302Y010188D03*
X015182Y009324D03*
X017870Y010842D03*
X018158Y009132D03*
X018158Y009126D03*
D250*
X016328Y010470D03*
X007538Y009132D03*
D251*
X007535Y009138D03*
X007535Y009168D03*
X002699Y009378D03*
X002699Y009408D03*
D252*
X002696Y009402D03*
X007532Y009162D03*
X015398Y009426D03*
D253*
X007541Y009174D03*
X002705Y009372D03*
X002705Y009414D03*
D254*
X011489Y009174D03*
D255*
X007550Y009186D03*
X002714Y009360D03*
X002714Y009426D03*
X016880Y010590D03*
D256*
X017561Y010704D03*
X016757Y009744D03*
X016475Y009690D03*
X016451Y009684D03*
X002843Y009192D03*
D257*
X002825Y009216D03*
X007661Y009324D03*
X015545Y009486D03*
X016211Y009630D03*
X016235Y009636D03*
D258*
X012260Y009222D03*
X012260Y009216D03*
D259*
X013874Y009660D03*
X015938Y009570D03*
X015968Y009576D03*
X015992Y009582D03*
X016022Y009588D03*
X016052Y009594D03*
X016076Y009600D03*
X016106Y009606D03*
X007652Y009312D03*
X002816Y009228D03*
D260*
X002747Y009474D03*
X007583Y009228D03*
D261*
X012263Y009228D03*
X012263Y009234D03*
D262*
X013862Y009936D03*
X007646Y009306D03*
X002810Y009234D03*
X002810Y009552D03*
D263*
X002756Y009486D03*
X007592Y009240D03*
X016838Y009780D03*
D264*
X012266Y009246D03*
X012266Y009240D03*
D265*
X007598Y009246D03*
X002762Y009294D03*
X002762Y009492D03*
D266*
X002795Y009534D03*
X002795Y009252D03*
X007631Y009288D03*
D267*
X009893Y010308D03*
X010337Y009252D03*
D268*
X012269Y009252D03*
D269*
X016823Y009774D03*
X007607Y009258D03*
X002771Y009504D03*
D270*
X010247Y009258D03*
D271*
X012272Y009258D03*
X012272Y009264D03*
D272*
X016808Y009768D03*
X007622Y009276D03*
X002786Y009264D03*
X002786Y009522D03*
D273*
X010214Y009264D03*
D274*
X010151Y009288D03*
D275*
X010130Y009300D03*
X006182Y009924D03*
D276*
X006173Y009918D03*
X010109Y009312D03*
D277*
X010100Y009318D03*
X009938Y009444D03*
D278*
X009947Y009438D03*
X009953Y009432D03*
X010091Y009324D03*
X012413Y009450D03*
D279*
X012233Y009954D03*
X009887Y010380D03*
X007667Y009330D03*
X016289Y009648D03*
X016319Y009654D03*
X016343Y009660D03*
X016769Y009750D03*
X017573Y010710D03*
D280*
X010067Y009342D03*
X009977Y009414D03*
X009971Y009420D03*
X006167Y009912D03*
D281*
X015356Y009408D03*
D282*
X012374Y009420D03*
D283*
X012386Y009432D03*
D284*
X009914Y009462D03*
D285*
X012434Y009462D03*
D286*
X012446Y009468D03*
X009884Y009480D03*
D287*
X009896Y009474D03*
X006188Y009930D03*
D288*
X012479Y009480D03*
D289*
X012500Y009486D03*
D290*
X009866Y009492D03*
D291*
X009857Y009498D03*
D292*
X009842Y009504D03*
D293*
X013889Y009930D03*
X015593Y009504D03*
X016547Y009708D03*
D294*
X009830Y009510D03*
D295*
X009815Y009516D03*
D296*
X015623Y009516D03*
X016715Y009726D03*
D297*
X009800Y009522D03*
D298*
X015653Y009528D03*
D299*
X015671Y009534D03*
X013889Y009702D03*
X013889Y009894D03*
D300*
X015812Y009546D03*
D301*
X016157Y009618D03*
D302*
X013004Y009648D03*
X009278Y010068D03*
X008600Y009834D03*
D303*
X013892Y009666D03*
D304*
X013892Y009672D03*
D305*
X005369Y009678D03*
D306*
X013892Y009678D03*
D307*
X016424Y009678D03*
D308*
X006110Y009834D03*
X006002Y009684D03*
D309*
X009842Y010224D03*
X012416Y009798D03*
X012422Y009792D03*
X012512Y009684D03*
D310*
X013889Y009684D03*
D311*
X012497Y009690D03*
X012431Y009774D03*
D312*
X012446Y009750D03*
X012476Y009708D03*
X012482Y009702D03*
X012488Y009696D03*
X009818Y010170D03*
X009812Y010164D03*
X009812Y010158D03*
X009794Y010128D03*
X009788Y010122D03*
D313*
X016502Y009696D03*
D314*
X016529Y009702D03*
D315*
X012473Y009714D03*
X012467Y009720D03*
X012461Y009726D03*
X012455Y009738D03*
X012449Y009744D03*
X009809Y010152D03*
X009803Y010146D03*
X009803Y010140D03*
X009797Y010134D03*
D316*
X012458Y009732D03*
D317*
X013886Y009738D03*
X013886Y009858D03*
X013886Y009864D03*
D318*
X016742Y009738D03*
X017546Y010698D03*
D319*
X013886Y009846D03*
X013886Y009840D03*
X013886Y009834D03*
X013886Y009828D03*
X013886Y009822D03*
X013886Y009816D03*
X013886Y009810D03*
X013886Y009792D03*
X013886Y009786D03*
X013886Y009780D03*
X013886Y009774D03*
X013886Y009768D03*
X013886Y009762D03*
X013886Y009756D03*
D320*
X012428Y009780D03*
X009836Y010206D03*
X009770Y010104D03*
D321*
X012107Y012522D03*
X014561Y012672D03*
X015317Y010176D03*
X016031Y010212D03*
X016037Y010188D03*
X016061Y010086D03*
X016061Y010080D03*
X016067Y010062D03*
X016067Y010056D03*
X016091Y009954D03*
X016091Y009948D03*
X016091Y009942D03*
X016097Y009930D03*
X016097Y009924D03*
X016097Y009918D03*
X016097Y009912D03*
X016121Y009822D03*
X016121Y009816D03*
X016121Y009810D03*
X016121Y009804D03*
X016127Y009798D03*
X016127Y009792D03*
X016127Y009786D03*
X016127Y009780D03*
X004721Y010260D03*
D322*
X009839Y010218D03*
X009839Y010212D03*
X012425Y009786D03*
D323*
X012884Y012414D03*
X012884Y012636D03*
X015080Y011388D03*
X015284Y010206D03*
X017708Y010578D03*
X017714Y010584D03*
X017720Y010590D03*
X015554Y012714D03*
X008660Y009918D03*
X004694Y009798D03*
X004118Y010392D03*
X002540Y010380D03*
D324*
X004052Y010284D03*
X008570Y009804D03*
X017756Y010788D03*
D325*
X012413Y009804D03*
X009851Y010236D03*
X009845Y010230D03*
D326*
X009854Y010242D03*
X012410Y009810D03*
D327*
X012407Y009816D03*
X009749Y010092D03*
D328*
X011336Y013368D03*
X012920Y012360D03*
X013844Y012990D03*
X015062Y011448D03*
X004712Y009822D03*
X004616Y009954D03*
D329*
X012401Y009822D03*
D330*
X012398Y009828D03*
X009860Y010254D03*
D331*
X009863Y010260D03*
X012395Y009834D03*
D332*
X012392Y009840D03*
D333*
X012389Y009846D03*
X009875Y010278D03*
D334*
X009881Y010290D03*
X012383Y009852D03*
D335*
X006122Y009858D03*
D336*
X009884Y010296D03*
X012374Y009864D03*
D337*
X012368Y009870D03*
D338*
X006137Y009876D03*
D339*
X009899Y010320D03*
X012359Y009882D03*
D340*
X012353Y009888D03*
D341*
X013886Y009888D03*
D342*
X012341Y009900D03*
X009911Y010338D03*
D343*
X006164Y009906D03*
D344*
X009914Y010344D03*
X012332Y009906D03*
D345*
X012107Y012240D03*
X012107Y012246D03*
X012107Y012252D03*
X012107Y012258D03*
X012107Y012498D03*
X012107Y012504D03*
X012107Y012510D03*
X010487Y012720D03*
X008657Y009912D03*
X014771Y011616D03*
X015077Y011190D03*
X015947Y010308D03*
X016217Y011184D03*
X016901Y011166D03*
X016907Y011394D03*
D346*
X012326Y009912D03*
D347*
X013886Y009912D03*
X017504Y010680D03*
D348*
X012317Y009918D03*
D349*
X013889Y009918D03*
D350*
X012311Y009924D03*
D351*
X013889Y009924D03*
D352*
X006197Y009936D03*
D353*
X008666Y009936D03*
X010160Y012060D03*
X014828Y011898D03*
X015098Y011118D03*
X016142Y010908D03*
D354*
X012287Y009936D03*
D355*
X010019Y012378D03*
X012833Y012714D03*
X004589Y009942D03*
D356*
X006203Y009942D03*
D357*
X004604Y009948D03*
X010568Y012996D03*
X011318Y013374D03*
X012110Y012228D03*
X013610Y012060D03*
D358*
X012260Y009948D03*
D359*
X004634Y009960D03*
D360*
X011948Y009978D03*
X013688Y010398D03*
X015230Y010482D03*
X016604Y012630D03*
X015500Y012990D03*
X012914Y012366D03*
X012854Y012684D03*
D361*
X009869Y010272D03*
X009731Y010086D03*
D362*
X009764Y010098D03*
D363*
X009779Y010110D03*
X009833Y010200D03*
D364*
X011462Y013056D03*
X012848Y012696D03*
X015344Y010164D03*
X016958Y011124D03*
D365*
X004004Y010236D03*
D366*
X004745Y010272D03*
X009593Y013038D03*
X014699Y012372D03*
X015485Y012996D03*
D367*
X012836Y012708D03*
X011474Y013050D03*
X004766Y010278D03*
X002546Y010404D03*
D368*
X009878Y010284D03*
D369*
X009887Y010302D03*
D370*
X009902Y010326D03*
D371*
X009908Y010332D03*
D372*
X009920Y010350D03*
D373*
X010037Y012372D03*
X015059Y011454D03*
X015215Y010488D03*
X015611Y012672D03*
X004115Y010404D03*
D374*
X016307Y010464D03*
D375*
X016421Y010494D03*
D376*
X016904Y011160D03*
X017744Y010620D03*
X013904Y012954D03*
X012884Y012630D03*
D377*
X015104Y011106D03*
D378*
X015101Y011112D03*
X013961Y012678D03*
D379*
X015095Y011130D03*
X016271Y011208D03*
D380*
X016952Y011130D03*
X015596Y012678D03*
D381*
X016856Y011430D03*
X013856Y012984D03*
X012908Y012372D03*
X012860Y012678D03*
X011348Y013362D03*
X010538Y012984D03*
D382*
X012842Y012702D03*
X013826Y012996D03*
X016826Y011442D03*
D383*
X015449Y011748D03*
X015059Y011466D03*
D384*
X013763Y012366D03*
X012929Y012354D03*
X010169Y012054D03*
D385*
X012944Y012348D03*
X015350Y012060D03*
D386*
X015461Y013002D03*
D387*
X000508Y000732D02*
X000500Y000720D01*
X000511Y000722D02*
X000513Y000720D01*
X000517Y000720D01*
X000519Y000722D01*
X000519Y000732D01*
X000524Y000728D02*
X000530Y000728D01*
X000533Y000726D02*
X000535Y000728D01*
X000539Y000728D01*
X000541Y000726D01*
X000541Y000724D01*
X000533Y000724D01*
X000533Y000722D02*
X000533Y000726D01*
X000533Y000722D02*
X000535Y000720D01*
X000539Y000720D01*
X000544Y000720D02*
X000544Y000728D01*
X000544Y000724D02*
X000548Y000728D01*
X000550Y000728D01*
X000553Y000726D02*
X000555Y000728D01*
X000561Y000728D01*
X000559Y000724D02*
X000555Y000724D01*
X000553Y000726D01*
X000553Y000720D02*
X000559Y000720D01*
X000561Y000722D01*
X000559Y000724D01*
X000564Y000720D02*
X000572Y000732D01*
X000576Y000728D02*
X000584Y000728D01*
X000576Y000720D01*
X000584Y000720D01*
X000587Y000722D02*
X000589Y000724D01*
X000595Y000724D01*
X000595Y000726D02*
X000595Y000720D01*
X000589Y000720D01*
X000587Y000722D01*
X000589Y000728D02*
X000593Y000728D01*
X000595Y000726D01*
X000598Y000726D02*
X000598Y000722D01*
X000600Y000720D01*
X000606Y000720D01*
X000609Y000720D02*
X000609Y000728D01*
X000611Y000728D01*
X000613Y000726D01*
X000615Y000728D01*
X000617Y000726D01*
X000617Y000720D01*
X000620Y000722D02*
X000622Y000724D01*
X000628Y000724D01*
X000628Y000726D02*
X000628Y000720D01*
X000622Y000720D01*
X000620Y000722D01*
X000622Y000728D02*
X000626Y000728D01*
X000628Y000726D01*
X000631Y000728D02*
X000637Y000728D01*
X000639Y000726D01*
X000639Y000720D01*
X000642Y000720D02*
X000650Y000732D01*
X000653Y000732D02*
X000659Y000732D01*
X000661Y000730D01*
X000661Y000722D01*
X000659Y000720D01*
X000653Y000720D01*
X000653Y000732D01*
X000664Y000726D02*
X000664Y000722D01*
X000666Y000720D01*
X000670Y000720D01*
X000672Y000722D01*
X000672Y000726D01*
X000670Y000728D01*
X000666Y000728D01*
X000664Y000726D01*
X000675Y000726D02*
X000675Y000722D01*
X000677Y000720D01*
X000683Y000720D01*
X000686Y000722D02*
X000688Y000720D01*
X000694Y000720D01*
X000694Y000728D01*
X000697Y000728D02*
X000699Y000728D01*
X000701Y000726D01*
X000703Y000728D01*
X000705Y000726D01*
X000705Y000720D01*
X000708Y000722D02*
X000708Y000726D01*
X000710Y000728D01*
X000714Y000728D01*
X000716Y000726D01*
X000716Y000724D01*
X000708Y000724D01*
X000708Y000722D02*
X000710Y000720D01*
X000714Y000720D01*
X000719Y000720D02*
X000719Y000728D01*
X000725Y000728D01*
X000727Y000726D01*
X000727Y000720D01*
X000732Y000722D02*
X000734Y000720D01*
X000732Y000722D02*
X000732Y000730D01*
X000730Y000728D02*
X000734Y000728D01*
X000738Y000726D02*
X000740Y000728D01*
X000746Y000728D01*
X000744Y000724D02*
X000740Y000724D01*
X000738Y000726D01*
X000744Y000724D02*
X000746Y000722D01*
X000744Y000720D01*
X000738Y000720D01*
X000749Y000720D02*
X000757Y000732D01*
X000760Y000730D02*
X000760Y000722D01*
X000762Y000720D01*
X000766Y000720D01*
X000768Y000722D01*
X000768Y000726D01*
X000764Y000726D01*
X000768Y000730D02*
X000766Y000732D01*
X000762Y000732D01*
X000760Y000730D01*
X000771Y000728D02*
X000771Y000720D01*
X000771Y000724D02*
X000775Y000728D01*
X000777Y000728D01*
X000782Y000728D02*
X000786Y000728D01*
X000788Y000726D01*
X000788Y000720D01*
X000782Y000720D01*
X000780Y000722D01*
X000782Y000724D01*
X000788Y000724D01*
X000791Y000720D02*
X000797Y000720D01*
X000799Y000722D01*
X000799Y000726D01*
X000797Y000728D01*
X000791Y000728D01*
X000791Y000716D01*
X000802Y000720D02*
X000802Y000732D01*
X000804Y000728D02*
X000802Y000726D01*
X000804Y000728D02*
X000808Y000728D01*
X000810Y000726D01*
X000810Y000720D01*
X000813Y000720D02*
X000817Y000720D01*
X000815Y000720D02*
X000815Y000728D01*
X000813Y000728D01*
X000815Y000732D02*
X000815Y000734D01*
X000822Y000728D02*
X000820Y000726D01*
X000820Y000722D01*
X000822Y000720D01*
X000828Y000720D01*
X000831Y000720D02*
X000837Y000720D01*
X000839Y000722D01*
X000837Y000724D01*
X000833Y000724D01*
X000831Y000726D01*
X000833Y000728D01*
X000839Y000728D01*
X000843Y000720D02*
X000851Y000732D01*
X000854Y000732D02*
X000854Y000720D01*
X000854Y000724D02*
X000862Y000732D01*
X000867Y000734D02*
X000867Y000732D01*
X000867Y000728D02*
X000867Y000720D01*
X000865Y000720D02*
X000869Y000720D01*
X000872Y000722D02*
X000874Y000720D01*
X000880Y000720D01*
X000883Y000720D02*
X000883Y000732D01*
X000880Y000728D02*
X000874Y000728D01*
X000872Y000726D01*
X000872Y000722D01*
X000867Y000728D02*
X000865Y000728D01*
X000862Y000720D02*
X000856Y000726D01*
X000883Y000724D02*
X000889Y000728D01*
X000892Y000728D02*
X000894Y000726D01*
X000898Y000726D01*
X000900Y000724D01*
X000900Y000722D01*
X000898Y000720D01*
X000894Y000720D01*
X000892Y000722D01*
X000889Y000720D02*
X000883Y000724D01*
X000892Y000728D02*
X000892Y000730D01*
X000894Y000732D01*
X000898Y000732D01*
X000900Y000730D01*
X000905Y000728D02*
X000909Y000728D01*
X000911Y000726D01*
X000911Y000720D01*
X000905Y000720D01*
X000903Y000722D01*
X000905Y000724D01*
X000911Y000724D01*
X000914Y000728D02*
X000918Y000728D01*
X000916Y000730D02*
X000916Y000722D01*
X000918Y000720D01*
X000922Y000720D02*
X000930Y000732D01*
X000933Y000732D02*
X000933Y000720D01*
X000933Y000724D02*
X000939Y000728D01*
X000942Y000728D02*
X000944Y000728D01*
X000944Y000720D01*
X000942Y000720D02*
X000946Y000720D01*
X000949Y000722D02*
X000951Y000720D01*
X000957Y000720D01*
X000960Y000720D02*
X000960Y000732D01*
X000957Y000728D02*
X000951Y000728D01*
X000949Y000726D01*
X000949Y000722D01*
X000939Y000720D02*
X000933Y000724D01*
X000944Y000732D02*
X000944Y000734D01*
X000960Y000724D02*
X000966Y000728D01*
X000970Y000726D02*
X000972Y000728D01*
X000978Y000728D01*
X000983Y000728D02*
X000987Y000728D01*
X000989Y000726D01*
X000989Y000720D01*
X000983Y000720D01*
X000981Y000722D01*
X000983Y000724D01*
X000989Y000724D01*
X000992Y000728D02*
X000996Y000728D01*
X000994Y000730D02*
X000994Y000722D01*
X000996Y000720D01*
X000999Y000720D02*
X001003Y000720D01*
X001001Y000720D02*
X001001Y000732D01*
X000999Y000732D01*
X001006Y000726D02*
X001006Y000722D01*
X001008Y000720D01*
X001012Y000720D01*
X001014Y000722D01*
X001014Y000726D01*
X001012Y000728D01*
X001008Y000728D01*
X001006Y000726D01*
X001017Y000726D02*
X001017Y000722D01*
X001019Y000720D01*
X001025Y000720D01*
X001025Y000718D02*
X001025Y000728D01*
X001019Y000728D01*
X001017Y000726D01*
X001021Y000716D02*
X001023Y000716D01*
X001025Y000718D01*
X001029Y000722D02*
X001031Y000720D01*
X001035Y000720D01*
X001037Y000722D01*
X001037Y000726D01*
X001035Y000728D01*
X001031Y000728D01*
X001029Y000726D01*
X001029Y000722D01*
X001040Y000726D02*
X001048Y000726D01*
X001051Y000726D02*
X001059Y000726D01*
X001062Y000726D02*
X001064Y000728D01*
X001070Y000728D01*
X001073Y000728D02*
X001075Y000728D01*
X001075Y000720D01*
X001073Y000720D02*
X001077Y000720D01*
X001080Y000720D02*
X001084Y000720D01*
X001082Y000720D02*
X001082Y000732D01*
X001080Y000732D01*
X001075Y000734D02*
X001075Y000732D01*
X001068Y000724D02*
X001064Y000724D01*
X001062Y000726D01*
X001062Y000720D02*
X001068Y000720D01*
X001070Y000722D01*
X001068Y000724D01*
X001087Y000724D02*
X001093Y000728D01*
X001097Y000726D02*
X001099Y000728D01*
X001105Y000728D01*
X001108Y000726D02*
X001108Y000722D01*
X001110Y000720D01*
X001116Y000720D01*
X001119Y000720D02*
X001119Y000728D01*
X001116Y000728D02*
X001110Y000728D01*
X001108Y000726D01*
X001105Y000722D02*
X001103Y000724D01*
X001099Y000724D01*
X001097Y000726D01*
X001097Y000720D02*
X001103Y000720D01*
X001105Y000722D01*
X001093Y000720D02*
X001087Y000724D01*
X001087Y000720D02*
X001087Y000732D01*
X001119Y000724D02*
X001123Y000728D01*
X001125Y000728D01*
X001128Y000726D02*
X001130Y000728D01*
X001134Y000728D01*
X001136Y000726D01*
X001136Y000724D01*
X001128Y000724D01*
X001128Y000722D02*
X001128Y000726D01*
X001128Y000722D02*
X001130Y000720D01*
X001134Y000720D01*
X001139Y000722D02*
X001139Y000726D01*
X001141Y000728D01*
X001145Y000728D01*
X001147Y000726D01*
X001147Y000724D01*
X001139Y000724D01*
X001139Y000722D02*
X001141Y000720D01*
X001145Y000720D01*
X001150Y000720D02*
X001150Y000728D01*
X001156Y000728D01*
X001158Y000726D01*
X001158Y000720D01*
X001161Y000720D02*
X001163Y000720D01*
X001163Y000722D01*
X001161Y000722D01*
X001161Y000720D01*
X001167Y000720D02*
X001173Y000720D01*
X001175Y000722D01*
X001175Y000726D01*
X001173Y000728D01*
X001167Y000728D01*
X001167Y000732D02*
X001167Y000720D01*
X001178Y000720D02*
X001178Y000728D01*
X001180Y000728D01*
X001182Y000726D01*
X001184Y000728D01*
X001186Y000726D01*
X001186Y000720D01*
X001189Y000720D02*
X001195Y000720D01*
X001197Y000722D01*
X001197Y000726D01*
X001195Y000728D01*
X001189Y000728D01*
X001189Y000716D01*
X001182Y000720D02*
X001182Y000726D01*
X001046Y000732D02*
X001040Y000726D01*
X001046Y000720D02*
X001046Y000732D01*
X000978Y000722D02*
X000976Y000724D01*
X000972Y000724D01*
X000970Y000726D01*
X000970Y000720D02*
X000976Y000720D01*
X000978Y000722D01*
X000966Y000720D02*
X000960Y000724D01*
X000828Y000728D02*
X000822Y000728D01*
X000701Y000726D02*
X000701Y000720D01*
X000697Y000720D02*
X000697Y000728D01*
X000686Y000728D02*
X000686Y000722D01*
X000683Y000728D02*
X000677Y000728D01*
X000675Y000726D01*
X000631Y000720D02*
X000631Y000728D01*
X000613Y000726D02*
X000613Y000720D01*
X000606Y000728D02*
X000600Y000728D01*
X000598Y000726D01*
X000530Y000722D02*
X000528Y000724D01*
X000524Y000724D01*
X000522Y000726D01*
X000524Y000728D01*
X000522Y000720D02*
X000528Y000720D01*
X000530Y000722D01*
X000511Y000722D02*
X000511Y000732D01*
X000500Y000750D02*
X020000Y000750D01*
X020000Y020250D01*
X000500Y020250D01*
X000500Y000750D01*
M02*
