G75*
G70*
%OFA0B0*%
%FSLAX24Y24*%
%IPPOS*%
%LPD*%
%AMOC8*
5,1,8,0,0,1.08239X$1,22.5*
%
%ADD10OC8,0.0630*%
%ADD11C,0.0740*%
%ADD12C,0.0160*%
D10*
X006000Y001500D03*
X007000Y001500D03*
X008000Y001500D03*
X009000Y001500D03*
X010000Y001500D03*
X011000Y001500D03*
X012000Y001500D03*
X013000Y001500D03*
X014000Y001500D03*
X015000Y001500D03*
X015000Y019500D03*
X014000Y019500D03*
X013000Y019500D03*
X012000Y019500D03*
X011000Y019500D03*
X010000Y019500D03*
X009000Y019500D03*
X008000Y019500D03*
X007000Y019500D03*
X006000Y019500D03*
D11*
X003050Y017500D03*
X002950Y016500D03*
X002050Y016500D03*
X001950Y015500D03*
X002050Y014500D03*
X002950Y014500D03*
X003050Y015500D03*
X001950Y017500D03*
X002050Y018500D03*
X002950Y018500D03*
X013106Y016513D03*
X013104Y015607D03*
X014104Y015507D03*
X015104Y015607D03*
X015106Y016513D03*
X014106Y016613D03*
X017000Y019550D03*
X018000Y019450D03*
X019000Y019550D03*
D12*
X014106Y017054D02*
X014106Y016613D01*
X014106Y017054D02*
X013000Y018160D01*
X005160Y018160D01*
X003740Y019580D01*
X001460Y019580D01*
X001050Y019170D01*
X001050Y017730D01*
X001260Y017520D01*
X001930Y017520D01*
X001950Y017500D01*
X002040Y016510D02*
X001180Y016510D01*
X000990Y016320D01*
X000990Y013980D01*
X001730Y013240D01*
X013150Y013240D01*
X014104Y014194D01*
X014104Y015507D01*
X002050Y016500D02*
X002040Y016510D01*
M02*
