G75*
G70*
%OFA0B0*%
%FSLAX24Y24*%
%IPPOS*%
%LPD*%
%AMOC8*
5,1,8,0,0,1.08239X$1,22.5*
%
%ADD10C,0.0740*%
%ADD11R,0.0500X0.0500*%
%ADD12C,0.0396*%
%ADD13C,0.0100*%
%ADD14C,0.0160*%
%ADD15C,0.0240*%
D10*
X012299Y004292D03*
X013299Y004292D03*
X013299Y005375D03*
X012299Y005375D03*
D11*
X012586Y002776D03*
X013086Y002776D03*
X013586Y002776D03*
X011964Y002154D03*
X011964Y001654D03*
X011964Y001154D03*
D12*
X009917Y002324D03*
X010606Y003288D03*
X010842Y004430D03*
X011138Y004843D03*
X010114Y004430D03*
X009701Y005020D03*
X010075Y005749D03*
X007929Y003603D03*
X006331Y005165D03*
X006905Y005788D03*
X005603Y006280D03*
X004246Y005535D03*
X003871Y005165D03*
X003866Y005885D03*
X005396Y003895D03*
X005531Y002875D03*
X006021Y002030D03*
X005551Y001280D03*
X004591Y002210D03*
X001776Y001565D03*
X001241Y001950D03*
X001206Y002850D03*
X001211Y004025D03*
X009386Y001143D03*
X013657Y014017D03*
D13*
X012571Y006103D02*
X009701Y006103D01*
X009701Y005020D01*
X010114Y004430D02*
X010842Y004430D01*
X010606Y003288D02*
X009917Y002324D01*
X009582Y001083D02*
X009386Y001143D01*
X007111Y002680D02*
X006671Y002680D01*
X006021Y002030D01*
X005551Y001280D02*
X005426Y001235D01*
X005521Y001245D01*
X004841Y002290D02*
X004591Y002210D01*
X005486Y002860D02*
X005536Y002910D01*
X005531Y002875D02*
X005486Y002860D01*
X005396Y003895D02*
X003336Y001565D01*
X001776Y001565D01*
X001241Y001950D02*
X003866Y004605D01*
X003871Y005165D01*
X004246Y005535D02*
X003251Y005570D01*
X001991Y004310D01*
X001991Y003650D01*
X001206Y002850D01*
X001211Y004025D02*
X003071Y005885D01*
X003866Y005885D01*
X006331Y005165D02*
X006766Y005165D01*
X007116Y004660D01*
X007111Y002680D01*
X006984Y005690D02*
X006767Y005828D01*
X006905Y005788D01*
X010075Y005749D02*
X011905Y005749D01*
X012299Y005375D01*
X012571Y006103D02*
X013299Y005375D01*
D14*
X000591Y006517D02*
X000591Y000970D01*
X011334Y000970D01*
X011334Y003446D01*
X013810Y003446D01*
X013810Y004086D01*
X013809Y004081D01*
X013769Y004004D01*
X013718Y003934D01*
X013657Y003873D01*
X013587Y003822D01*
X013510Y003782D01*
X013428Y003756D01*
X013342Y003742D01*
X013319Y003742D01*
X013319Y004272D01*
X013279Y004272D01*
X013279Y003742D01*
X013256Y003742D01*
X013170Y003756D01*
X013088Y003782D01*
X013011Y003822D01*
X012941Y003873D01*
X012879Y003934D01*
X012829Y004004D01*
X012789Y004081D01*
X012778Y004116D01*
X012731Y004003D01*
X012588Y003860D01*
X012958Y003860D01*
X012821Y004018D02*
X012738Y004018D01*
X012588Y003860D02*
X012400Y003782D01*
X012198Y003782D01*
X012010Y003860D01*
X007304Y003860D01*
X007304Y004018D02*
X011860Y004018D01*
X011867Y004003D02*
X012010Y003860D01*
X011867Y004003D02*
X011789Y004191D01*
X011789Y004394D01*
X011867Y004581D01*
X012010Y004724D01*
X012198Y004802D01*
X012400Y004802D01*
X012588Y004724D01*
X012731Y004581D01*
X012778Y004468D01*
X012789Y004503D01*
X012829Y004580D01*
X012879Y004650D01*
X012941Y004712D01*
X013011Y004763D01*
X013088Y004802D01*
X013170Y004829D01*
X013256Y004842D01*
X013279Y004842D01*
X013279Y004312D01*
X013319Y004312D01*
X013319Y004842D01*
X013342Y004842D01*
X013428Y004829D01*
X013510Y004802D01*
X013587Y004763D01*
X013657Y004712D01*
X013718Y004650D01*
X013769Y004580D01*
X013809Y004503D01*
X013810Y004498D01*
X013810Y006517D01*
X000591Y006517D01*
X000591Y006396D02*
X013810Y006396D01*
X013810Y006237D02*
X012705Y006237D01*
X012649Y006293D02*
X009622Y006293D01*
X009511Y006182D01*
X009511Y005308D01*
X009509Y005307D01*
X009414Y005212D01*
X009362Y005088D01*
X009362Y004953D01*
X009414Y004829D01*
X009509Y004734D01*
X009633Y004682D01*
X009768Y004682D01*
X009892Y004734D01*
X009987Y004829D01*
X010039Y004953D01*
X010039Y005088D01*
X009987Y005212D01*
X009892Y005307D01*
X009891Y005308D01*
X009891Y005459D01*
X010007Y005411D01*
X010142Y005411D01*
X010266Y005462D01*
X010361Y005557D01*
X010362Y005559D01*
X011823Y005559D01*
X011789Y005476D01*
X011789Y005273D01*
X011867Y005086D01*
X012010Y004942D01*
X012198Y004865D01*
X012400Y004865D01*
X012588Y004942D01*
X012731Y005086D01*
X012799Y005249D01*
X012867Y005086D01*
X013010Y004942D01*
X013198Y004865D01*
X013400Y004865D01*
X013588Y004942D01*
X013731Y005086D01*
X013809Y005273D01*
X013809Y005476D01*
X013731Y005664D01*
X013588Y005807D01*
X013400Y005885D01*
X013198Y005885D01*
X013099Y005844D01*
X012649Y006293D01*
X012864Y006079D02*
X013810Y006079D01*
X013810Y005920D02*
X013022Y005920D01*
X013633Y005762D02*
X013810Y005762D01*
X013810Y005603D02*
X013756Y005603D01*
X013809Y005445D02*
X013810Y005445D01*
X013809Y005286D02*
X013810Y005286D01*
X013810Y005128D02*
X013749Y005128D01*
X013810Y004969D02*
X013615Y004969D01*
X013483Y004811D02*
X013810Y004811D01*
X013810Y004652D02*
X013717Y004652D01*
X013319Y004652D02*
X013279Y004652D01*
X013279Y004494D02*
X013319Y004494D01*
X013319Y004335D02*
X013279Y004335D01*
X013279Y004177D02*
X013319Y004177D01*
X013319Y004018D02*
X013279Y004018D01*
X013279Y003860D02*
X013319Y003860D01*
X013640Y003860D02*
X013810Y003860D01*
X013810Y004018D02*
X013777Y004018D01*
X013810Y003701D02*
X007303Y003701D01*
X007303Y003543D02*
X010382Y003543D01*
X010415Y003575D02*
X010319Y003480D01*
X010268Y003355D01*
X010268Y003221D01*
X010289Y003171D01*
X009925Y002662D01*
X009850Y002662D01*
X009726Y002610D01*
X009630Y002515D01*
X009579Y002391D01*
X009579Y002256D01*
X009630Y002132D01*
X009726Y002037D01*
X009850Y001986D01*
X009984Y001986D01*
X010109Y002037D01*
X010204Y002132D01*
X010255Y002256D01*
X010255Y002391D01*
X010234Y002441D01*
X010598Y002950D01*
X010673Y002950D01*
X010798Y003002D01*
X010893Y003097D01*
X010944Y003221D01*
X010944Y003355D01*
X010893Y003480D01*
X010798Y003575D01*
X010673Y003626D01*
X010539Y003626D01*
X010415Y003575D01*
X010280Y003384D02*
X007303Y003384D01*
X007302Y003226D02*
X010268Y003226D01*
X010215Y003067D02*
X007302Y003067D01*
X007301Y002909D02*
X010102Y002909D01*
X009988Y002750D02*
X007301Y002750D01*
X007301Y002680D02*
X007306Y004642D01*
X007317Y004703D01*
X007306Y004719D01*
X007306Y004738D01*
X007262Y004782D01*
X006956Y005224D01*
X006956Y005243D01*
X006912Y005287D01*
X006877Y005338D01*
X006858Y005341D01*
X006844Y005355D01*
X006783Y005355D01*
X006722Y005366D01*
X006706Y005355D01*
X006618Y005355D01*
X006617Y005356D01*
X006522Y005451D01*
X006398Y005503D01*
X006264Y005503D01*
X006139Y005451D01*
X006044Y005356D01*
X005993Y005232D01*
X005993Y005098D01*
X006044Y004973D01*
X006139Y004878D01*
X006264Y004827D01*
X006398Y004827D01*
X006522Y004878D01*
X006617Y004973D01*
X006618Y004975D01*
X006666Y004975D01*
X006926Y004601D01*
X006921Y002870D01*
X006592Y002870D01*
X006090Y002367D01*
X006088Y002368D01*
X005954Y002368D01*
X005829Y002316D01*
X005734Y002221D01*
X005683Y002097D01*
X005683Y001963D01*
X005734Y001838D01*
X005829Y001743D01*
X005954Y001692D01*
X006088Y001692D01*
X006212Y001743D01*
X006307Y001838D01*
X006359Y001963D01*
X006359Y002097D01*
X006358Y002099D01*
X006749Y002490D01*
X007111Y002490D01*
X007189Y002490D01*
X007189Y002490D01*
X007189Y002490D01*
X007245Y002545D01*
X007301Y002601D01*
X007301Y002680D01*
X007301Y002601D02*
X007301Y002601D01*
X007301Y002601D01*
X007292Y002592D02*
X009707Y002592D01*
X009597Y002433D02*
X006693Y002433D01*
X006534Y002275D02*
X009579Y002275D01*
X009646Y002116D02*
X006376Y002116D01*
X006357Y001958D02*
X011334Y001958D01*
X011334Y002116D02*
X010188Y002116D01*
X010255Y002275D02*
X011334Y002275D01*
X011334Y002433D02*
X010238Y002433D01*
X010342Y002592D02*
X011334Y002592D01*
X011334Y002750D02*
X010455Y002750D01*
X010569Y002909D02*
X011334Y002909D01*
X011334Y003067D02*
X010863Y003067D01*
X010944Y003226D02*
X011334Y003226D01*
X011334Y003384D02*
X010932Y003384D01*
X010830Y003543D02*
X013810Y003543D01*
X012786Y004494D02*
X012767Y004494D01*
X012660Y004652D02*
X012881Y004652D01*
X013115Y004811D02*
X009969Y004811D01*
X010047Y004768D02*
X009922Y004717D01*
X009827Y004621D01*
X009776Y004497D01*
X009776Y004363D01*
X009827Y004238D01*
X009922Y004143D01*
X010047Y004092D01*
X010181Y004092D01*
X010305Y004143D01*
X010401Y004238D01*
X010401Y004240D01*
X010555Y004240D01*
X010556Y004238D01*
X010651Y004143D01*
X010775Y004092D01*
X010910Y004092D01*
X011034Y004143D01*
X011129Y004238D01*
X011180Y004363D01*
X011180Y004497D01*
X011129Y004621D01*
X011034Y004717D01*
X010910Y004768D01*
X010775Y004768D01*
X010651Y004717D01*
X010556Y004621D01*
X010555Y004620D01*
X010401Y004620D01*
X010401Y004621D01*
X010305Y004717D01*
X010181Y004768D01*
X010047Y004768D01*
X009858Y004652D02*
X007308Y004652D01*
X007305Y004494D02*
X009776Y004494D01*
X009787Y004335D02*
X007305Y004335D01*
X007305Y004177D02*
X009889Y004177D01*
X010339Y004177D02*
X010617Y004177D01*
X011067Y004177D02*
X011795Y004177D01*
X011789Y004335D02*
X011169Y004335D01*
X011180Y004494D02*
X011830Y004494D01*
X011938Y004652D02*
X011098Y004652D01*
X010586Y004652D02*
X010370Y004652D01*
X010039Y004969D02*
X011983Y004969D01*
X011849Y005128D02*
X010022Y005128D01*
X009913Y005286D02*
X011789Y005286D01*
X011789Y005445D02*
X010224Y005445D01*
X009925Y005445D02*
X009891Y005445D01*
X009511Y005445D02*
X006529Y005445D01*
X006133Y005445D02*
X004574Y005445D01*
X004584Y005468D02*
X004584Y005602D01*
X004532Y005726D01*
X004437Y005821D01*
X004313Y005873D01*
X004204Y005873D01*
X004204Y005952D01*
X004152Y006076D01*
X004057Y006171D01*
X003933Y006223D01*
X003799Y006223D01*
X003674Y006171D01*
X003579Y006076D01*
X003579Y006075D01*
X002992Y006075D01*
X001280Y004362D01*
X001278Y004363D01*
X001144Y004363D01*
X001019Y004311D01*
X000924Y004216D01*
X000873Y004092D01*
X000873Y003958D01*
X000924Y003833D01*
X001019Y003738D01*
X001144Y003687D01*
X001278Y003687D01*
X001402Y003738D01*
X001497Y003833D01*
X001549Y003958D01*
X001549Y004092D01*
X001548Y004094D01*
X001801Y004346D01*
X001801Y003727D01*
X001271Y003188D01*
X001139Y003188D01*
X001014Y003136D01*
X000919Y003041D01*
X000868Y002917D01*
X000868Y002783D01*
X000919Y002658D01*
X001014Y002563D01*
X001139Y002512D01*
X001273Y002512D01*
X001397Y002563D01*
X001492Y002658D01*
X001544Y002783D01*
X001544Y002917D01*
X001542Y002921D01*
X002126Y003516D01*
X002181Y003571D01*
X002181Y003572D01*
X002182Y003573D01*
X002181Y003651D01*
X002181Y004231D01*
X003327Y005377D01*
X003595Y005368D01*
X003584Y005356D01*
X003533Y005232D01*
X003533Y005098D01*
X003584Y004973D01*
X003678Y004879D01*
X003676Y004684D01*
X001308Y002288D01*
X001174Y002288D01*
X001049Y002236D01*
X000954Y002141D01*
X000903Y002017D01*
X000903Y001883D01*
X000954Y001758D01*
X001049Y001663D01*
X001174Y001612D01*
X001308Y001612D01*
X001432Y001663D01*
X001463Y001694D01*
X001438Y001632D01*
X001438Y001498D01*
X001489Y001373D01*
X001584Y001278D01*
X001709Y001227D01*
X001843Y001227D01*
X001967Y001278D01*
X002062Y001373D01*
X002063Y001375D01*
X003264Y001375D01*
X003269Y001370D01*
X003342Y001375D01*
X003414Y001375D01*
X003419Y001380D01*
X003426Y001380D01*
X003474Y001435D01*
X003526Y001486D01*
X003526Y001493D01*
X005350Y003557D01*
X005463Y003557D01*
X005587Y003608D01*
X005682Y003703D01*
X005734Y003828D01*
X005734Y003962D01*
X005682Y004086D01*
X005587Y004181D01*
X005463Y004233D01*
X005329Y004233D01*
X005204Y004181D01*
X005109Y004086D01*
X005058Y003962D01*
X005058Y003828D01*
X005066Y003808D01*
X003250Y001755D01*
X002063Y001755D01*
X002062Y001756D01*
X001967Y001851D01*
X001843Y001903D01*
X001709Y001903D01*
X001584Y001851D01*
X001553Y001820D01*
X001579Y001883D01*
X001579Y002017D01*
X001578Y002020D01*
X004000Y004470D01*
X004055Y004524D01*
X004055Y004526D01*
X004056Y004527D01*
X004056Y004604D01*
X004058Y004876D01*
X004062Y004878D01*
X004157Y004973D01*
X004209Y005098D01*
X004209Y005197D01*
X004313Y005197D01*
X004437Y005248D01*
X004532Y005343D01*
X004584Y005468D01*
X004583Y005603D02*
X009511Y005603D01*
X009511Y005762D02*
X004497Y005762D01*
X004204Y005920D02*
X009511Y005920D01*
X009511Y006079D02*
X004150Y006079D01*
X003582Y006079D02*
X000591Y006079D01*
X000591Y006237D02*
X009566Y006237D01*
X009488Y005286D02*
X006913Y005286D01*
X007023Y005128D02*
X009379Y005128D01*
X009362Y004969D02*
X007132Y004969D01*
X007242Y004811D02*
X009432Y004811D01*
X006925Y004494D02*
X004024Y004494D01*
X004056Y004652D02*
X006890Y004652D01*
X006780Y004811D02*
X004058Y004811D01*
X004153Y004969D02*
X006048Y004969D01*
X005993Y005128D02*
X004209Y005128D01*
X004475Y005286D02*
X006015Y005286D01*
X006613Y004969D02*
X006670Y004969D01*
X006925Y004335D02*
X003867Y004335D01*
X003710Y004177D02*
X005200Y004177D01*
X005081Y004018D02*
X003553Y004018D01*
X003396Y003860D02*
X005058Y003860D01*
X004971Y003701D02*
X003240Y003701D01*
X003083Y003543D02*
X004831Y003543D01*
X004691Y003384D02*
X002926Y003384D01*
X002770Y003226D02*
X004551Y003226D01*
X004411Y003067D02*
X002613Y003067D01*
X002456Y002909D02*
X004270Y002909D01*
X004130Y002750D02*
X002299Y002750D01*
X002143Y002592D02*
X003990Y002592D01*
X003850Y002433D02*
X001986Y002433D01*
X001829Y002275D02*
X003710Y002275D01*
X003570Y002116D02*
X001673Y002116D01*
X001579Y001958D02*
X003430Y001958D01*
X003290Y001799D02*
X002019Y001799D01*
X002013Y001324D02*
X011334Y001324D01*
X011334Y001482D02*
X003522Y001482D01*
X003657Y001641D02*
X011334Y001641D01*
X011334Y001799D02*
X006268Y001799D01*
X005773Y001799D02*
X003797Y001799D01*
X003937Y001958D02*
X005685Y001958D01*
X005691Y002116D02*
X004077Y002116D01*
X004217Y002275D02*
X005788Y002275D01*
X006156Y002433D02*
X004357Y002433D01*
X004497Y002592D02*
X006314Y002592D01*
X006473Y002750D02*
X004638Y002750D01*
X004778Y002909D02*
X006921Y002909D01*
X006922Y003067D02*
X004918Y003067D01*
X005058Y003226D02*
X006922Y003226D01*
X006923Y003384D02*
X005198Y003384D01*
X005338Y003543D02*
X006923Y003543D01*
X006923Y003701D02*
X005680Y003701D01*
X005734Y003860D02*
X006924Y003860D01*
X006924Y004018D02*
X005711Y004018D01*
X005592Y004177D02*
X006925Y004177D01*
X003678Y004811D02*
X002760Y004811D01*
X002919Y004969D02*
X003588Y004969D01*
X003533Y005128D02*
X003077Y005128D01*
X003236Y005286D02*
X003555Y005286D01*
X003646Y004652D02*
X002602Y004652D01*
X002443Y004494D02*
X003489Y004494D01*
X003332Y004335D02*
X002285Y004335D01*
X002181Y004177D02*
X003175Y004177D01*
X003019Y004018D02*
X002181Y004018D01*
X002181Y003860D02*
X002862Y003860D01*
X002705Y003701D02*
X002181Y003701D01*
X002152Y003543D02*
X002549Y003543D01*
X002392Y003384D02*
X001996Y003384D01*
X001841Y003226D02*
X002235Y003226D01*
X002078Y003067D02*
X001685Y003067D01*
X001544Y002909D02*
X001922Y002909D01*
X001765Y002750D02*
X001531Y002750D01*
X001608Y002592D02*
X001426Y002592D01*
X001452Y002433D02*
X000591Y002433D01*
X000591Y002275D02*
X001142Y002275D01*
X000944Y002116D02*
X000591Y002116D01*
X000591Y001958D02*
X000903Y001958D01*
X000937Y001799D02*
X000591Y001799D01*
X000591Y001641D02*
X001103Y001641D01*
X001378Y001641D02*
X001441Y001641D01*
X001444Y001482D02*
X000591Y001482D01*
X000591Y001324D02*
X001539Y001324D01*
X000591Y001165D02*
X011334Y001165D01*
X011334Y001007D02*
X000591Y001007D01*
X000591Y002592D02*
X000986Y002592D01*
X000881Y002750D02*
X000591Y002750D01*
X000591Y002909D02*
X000868Y002909D01*
X000945Y003067D02*
X000591Y003067D01*
X000591Y003226D02*
X001309Y003226D01*
X001464Y003384D02*
X000591Y003384D01*
X000591Y003543D02*
X001620Y003543D01*
X001775Y003701D02*
X001313Y003701D01*
X001508Y003860D02*
X001801Y003860D01*
X001801Y004018D02*
X001549Y004018D01*
X001631Y004177D02*
X001801Y004177D01*
X001790Y004335D02*
X001801Y004335D01*
X001570Y004652D02*
X000591Y004652D01*
X000591Y004494D02*
X001411Y004494D01*
X001077Y004335D02*
X000591Y004335D01*
X000591Y004177D02*
X000908Y004177D01*
X000873Y004018D02*
X000591Y004018D01*
X000591Y003860D02*
X000913Y003860D01*
X001108Y003701D02*
X000591Y003701D01*
X000591Y004811D02*
X001728Y004811D01*
X001887Y004969D02*
X000591Y004969D01*
X000591Y005128D02*
X002045Y005128D01*
X002204Y005286D02*
X000591Y005286D01*
X000591Y005445D02*
X002362Y005445D01*
X002521Y005603D02*
X000591Y005603D01*
X000591Y005762D02*
X002679Y005762D01*
X002838Y005920D02*
X000591Y005920D01*
X012615Y004969D02*
X012983Y004969D01*
X012849Y005128D02*
X012749Y005128D01*
X013279Y004811D02*
X013319Y004811D01*
D15*
X013756Y006320D02*
X013756Y013918D01*
X013657Y014017D01*
M02*
